%TF.GenerationSoftware,Altium Limited,Altium Designer,21.7.2 (23)*%
G04 Layer_Color=0*
%FSLAX25Y25*%
%MOIN*%
%TF.SameCoordinates,95A22525-32A0-4EEE-A0C0-36F8BD1EB9D1*%
%TF.FilePolarity,Positive*%
%TF.FileFunction,Plated,1,2,PTH,Drill*%
%TF.Part,Single*%
G01*
G75*
%TA.AperFunction,OtherDrill,Pad Free-75 (3769.685mil,1350.394mil)*%
%ADD108O,0.05906X0.11811*%
%TA.AperFunction,OtherDrill,Pad Free-73 (2436.024mil,1482.284mil)*%
%ADD109O,0.11811X0.05906*%
%TA.AperFunction,OtherDrill,Pad Free-72 (2265.748mil,80.709mil)*%
%ADD110O,0.11811X0.05906*%
%TA.AperFunction,OtherDrill,Pad Free-71 (2434.055mil,462.598mil)*%
%ADD111O,0.05906X0.11811*%
%TA.AperFunction,OtherDrill,Pad Free-70 (4163.386mil,807.087mil)*%
%ADD112O,0.05906X0.11811*%
%TA.AperFunction,OtherDrill,Pad Free-69 (2435.039mil,776.575mil)*%
%ADD113O,0.05906X0.11811*%
%TA.AperFunction,ComponentDrill*%
%ADD114C,0.03937*%
%ADD115C,0.02756*%
%TA.AperFunction,OtherDrill,Pad Free-68 (5787.402mil,748.032mil)*%
%ADD116O,0.11811X0.05906*%
%TA.AperFunction,OtherDrill,Pad Free-67 (5433.071mil,748.032mil)*%
%ADD117O,0.11811X0.05906*%
%TA.AperFunction,OtherDrill,Pad Free-66 (5787.402mil,1023.622mil)*%
%ADD118O,0.11811X0.05906*%
%TA.AperFunction,OtherDrill,Pad Free-65 (5433.071mil,1023.622mil)*%
%ADD119O,0.11811X0.05906*%
%TA.AperFunction,OtherDrill,Pad Free-64 (5787.402mil,1318.898mil)*%
%ADD120O,0.11811X0.05906*%
%TA.AperFunction,OtherDrill,Pad Free-63 (5433.071mil,1318.898mil)*%
%ADD121O,0.11811X0.05906*%
%TA.AperFunction,OtherDrill,Pad Free-62 (118.11mil,748.032mil)*%
%ADD122O,0.11811X0.05906*%
%TA.AperFunction,OtherDrill,Pad Free-61 (472.441mil,748.032mil)*%
%ADD123O,0.11811X0.05906*%
%TA.AperFunction,OtherDrill,Pad Free-60 (472.441mil,1023.622mil)*%
%ADD124O,0.11811X0.05906*%
%TA.AperFunction,OtherDrill,Pad Free-59 (118.11mil,1023.622mil)*%
%ADD125O,0.11811X0.05906*%
%TA.AperFunction,OtherDrill,Pad Free-57 (472.441mil,1318.898mil)*%
%ADD126O,0.11811X0.05906*%
%TA.AperFunction,OtherDrill,Pad Free-56 (5787.402mil,1181.102mil)*%
%ADD127C,0.11811*%
%TA.AperFunction,OtherDrill,Pad Free-55 (5433.071mil,1181.102mil)*%
%ADD128C,0.11811*%
%TA.AperFunction,OtherDrill,Pad Free-54 (118.11mil,1181.102mil)*%
%ADD129C,0.11811*%
%TA.AperFunction,OtherDrill,Pad Free-53 (472.441mil,1181.102mil)*%
%ADD130C,0.11811*%
%TA.AperFunction,OtherDrill,Pad Free-52 (4704.724mil,925.197mil)*%
%ADD131O,0.07874X0.15748*%
%TA.AperFunction,OtherDrill,Pad Free-51 (4586.614mil,925.197mil)*%
%ADD132O,0.07874X0.15748*%
%TA.AperFunction,OtherDrill,Pad Free-50 (1318.898mil,925.197mil)*%
%ADD133O,0.07874X0.15748*%
%TA.AperFunction,OtherDrill,Pad Free-49 (1200.787mil,925.197mil)*%
%ADD134O,0.07874X0.15748*%
%TA.AperFunction,OtherDrill,Pad Free-48 (4704.724mil,433.071mil)*%
%ADD135O,0.07874X0.15748*%
%TA.AperFunction,OtherDrill,Pad Free-47 (4586.614mil,433.071mil)*%
%ADD136O,0.07874X0.15748*%
%TA.AperFunction,OtherDrill,Pad Free-46 (1318.898mil,433.071mil)*%
%ADD137O,0.07874X0.15748*%
%TA.AperFunction,OtherDrill,Pad Free-45 (1200.787mil,433.071mil)*%
%ADD138O,0.07874X0.15748*%
%TA.AperFunction,OtherDrill,Pad Free-44 (5787.402mil,452.756mil)*%
%ADD139O,0.11811X0.01968*%
%TA.AperFunction,OtherDrill,Pad Free-43 (5433.071mil,452.756mil)*%
%ADD140O,0.11811X0.01968*%
%TA.AperFunction,OtherDrill,Pad Free-42 (118.11mil,452.756mil)*%
%ADD141O,0.11811X0.01968*%
%TA.AperFunction,OtherDrill,Pad Free-41 (472.441mil,452.756mil)*%
%ADD142O,0.11811X0.01968*%
%TA.AperFunction,OtherDrill,Pad Free-32 (118.11mil,1318.898mil)*%
%ADD143O,0.11811X0.05906*%
%TA.AperFunction,OtherDrill,Pad Free-28 (5787.402mil,866.142mil)*%
%ADD144C,0.11811*%
%TA.AperFunction,OtherDrill,Pad Free-27 (5433.071mil,866.142mil)*%
%ADD145C,0.11811*%
%TA.AperFunction,OtherDrill,Pad Free-26 (5787.402mil,629.921mil)*%
%ADD146C,0.11811*%
%TA.AperFunction,OtherDrill,Pad Free-25 (5433.071mil,629.921mil)*%
%ADD147C,0.11811*%
%TA.AperFunction,OtherDrill,Pad Free-5 (1181.102mil,196.85mil)*%
%ADD148C,0.11811*%
%TA.AperFunction,OtherDrill,Pad Free-24 (5433.071mil,275.591mil)*%
%ADD149C,0.11811*%
%TA.AperFunction,OtherDrill,Pad Free-23 (5787.402mil,275.591mil)*%
%ADD150C,0.11811*%
%TA.AperFunction,OtherDrill,Pad Free-22 (5433.071mil,118.11mil)*%
%ADD151C,0.11811*%
%TA.AperFunction,OtherDrill,Pad Free-21 (5787.402mil,118.11mil)*%
%ADD152C,0.11811*%
%TA.AperFunction,OtherDrill,Pad Free-20 (472.441mil,275.591mil)*%
%ADD153C,0.11811*%
%TA.AperFunction,OtherDrill,Pad Free-19 (118.11mil,275.591mil)*%
%ADD154C,0.11811*%
%TA.AperFunction,OtherDrill,Pad Free-18 (472.441mil,866.142mil)*%
%ADD155C,0.11811*%
%TA.AperFunction,OtherDrill,Pad Free-17 (118.11mil,866.142mil)*%
%ADD156C,0.11811*%
%TA.AperFunction,OtherDrill,Pad Free-16 (118.11mil,629.921mil)*%
%ADD157C,0.11811*%
%TA.AperFunction,OtherDrill,Pad Free-15 (472.441mil,629.921mil)*%
%ADD158C,0.11811*%
%TA.AperFunction,OtherDrill,Pad Free-14 (472.441mil,118.11mil)*%
%ADD159C,0.11811*%
%TA.AperFunction,OtherDrill,Pad Free-13 (118.11mil,118.11mil)*%
%ADD160C,0.11811*%
%TA.AperFunction,OtherDrill,Pad Free-12 (4566.929mil,196.85mil)*%
%ADD161C,0.11811*%
%TA.AperFunction,OtherDrill,Pad Free-11 (4566.929mil,1181.102mil)*%
%ADD162C,0.11811*%
%TA.AperFunction,OtherDrill,Pad Free-10 (4724.409mil,196.85mil)*%
%ADD163C,0.11811*%
%TA.AperFunction,OtherDrill,Pad Free-9 (4724.409mil,1181.102mil)*%
%ADD164C,0.11811*%
%TA.AperFunction,OtherDrill,Pad Free-8 (1338.583mil,196.85mil)*%
%ADD165C,0.11811*%
%TA.AperFunction,OtherDrill,Pad Free-7 (1338.583mil,1181.102mil)*%
%ADD166C,0.11811*%
%TA.AperFunction,OtherDrill,Pad Free-6 (1181.102mil,1181.102mil)*%
%ADD167C,0.11811*%
%TA.AperFunction,ViaDrill,NotFilled*%
%ADD168C,0.00984*%
%ADD169C,0.01181*%
%ADD170C,0.01575*%
D108*
X376969Y135039D02*
D03*
D109*
X243602Y148228D02*
D03*
D110*
X226575Y8071D02*
D03*
D111*
X243406Y46260D02*
D03*
D112*
X416339Y80709D02*
D03*
D113*
X243504Y77658D02*
D03*
D114*
X377402Y45138D02*
D03*
X387402D02*
D03*
X377402Y35138D02*
D03*
X387402D02*
D03*
X377402Y25138D02*
D03*
X387402D02*
D03*
D115*
X159449Y64567D02*
D03*
Y74410D02*
D03*
D116*
X578740Y74803D02*
D03*
D117*
X543307D02*
D03*
D118*
X578740Y102362D02*
D03*
D119*
X543307D02*
D03*
D120*
X578740Y131890D02*
D03*
D121*
X543307D02*
D03*
D122*
X11811Y74803D02*
D03*
D123*
X47244D02*
D03*
D124*
Y102362D02*
D03*
D125*
X11811D02*
D03*
D126*
X47244Y131890D02*
D03*
D127*
X578740Y118110D02*
D03*
D128*
X543307D02*
D03*
D129*
X11811D02*
D03*
D130*
X47244D02*
D03*
D131*
X470472Y92520D02*
D03*
D132*
X458661D02*
D03*
D133*
X131890D02*
D03*
D134*
X120079D02*
D03*
D135*
X470472Y43307D02*
D03*
D136*
X458661D02*
D03*
D137*
X131890D02*
D03*
D138*
X120079D02*
D03*
D139*
X578740Y45276D02*
D03*
D140*
X543307D02*
D03*
D141*
X11811D02*
D03*
D142*
X47244D02*
D03*
D143*
X11811Y131890D02*
D03*
D144*
X578740Y86614D02*
D03*
D145*
X543307D02*
D03*
D146*
X578740Y62992D02*
D03*
D147*
X543307D02*
D03*
D148*
X118110Y19685D02*
D03*
D149*
X543307Y27559D02*
D03*
D150*
X578740D02*
D03*
D151*
X543307Y11811D02*
D03*
D152*
X578740D02*
D03*
D153*
X47244Y27559D02*
D03*
D154*
X11811D02*
D03*
D155*
X47244Y86614D02*
D03*
D156*
X11811D02*
D03*
D157*
Y62992D02*
D03*
D158*
X47244D02*
D03*
D159*
Y11811D02*
D03*
D160*
X11811D02*
D03*
D161*
X456693Y19685D02*
D03*
D162*
Y118110D02*
D03*
D163*
X472441Y19685D02*
D03*
D164*
Y118110D02*
D03*
D165*
X133858Y19685D02*
D03*
D166*
Y118110D02*
D03*
D167*
X118110D02*
D03*
D168*
X185630Y57776D02*
D03*
X243504Y121949D02*
D03*
X241339D02*
D03*
X180472Y58003D02*
D03*
X243209Y57972D02*
D03*
X245768Y58071D02*
D03*
X223425Y71161D02*
D03*
X384350Y81988D02*
D03*
X382185D02*
D03*
X378937Y58465D02*
D03*
X376673D02*
D03*
X376969Y69587D02*
D03*
X381004Y69488D02*
D03*
X350590Y88189D02*
D03*
X281594Y88386D02*
D03*
X434941Y24213D02*
D03*
X433169Y22539D02*
D03*
X437008Y11811D02*
D03*
X410138Y11909D02*
D03*
X419685Y12008D02*
D03*
X429724Y12205D02*
D03*
X381102Y15059D02*
D03*
X376279Y14961D02*
D03*
X378740Y15059D02*
D03*
X159744Y130905D02*
D03*
X157480D02*
D03*
X159737Y133177D02*
D03*
X157480Y133268D02*
D03*
X89075Y52362D02*
D03*
X86910D02*
D03*
X89075Y54528D02*
D03*
X86910D02*
D03*
X305709Y62500D02*
D03*
X429921Y84547D02*
D03*
X427559D02*
D03*
X429823Y82284D02*
D03*
X427580Y82216D02*
D03*
X245768Y60138D02*
D03*
X243110D02*
D03*
X304724Y52520D02*
D03*
Y58031D02*
D03*
X83760Y73917D02*
D03*
X88878Y74016D02*
D03*
X385630Y90354D02*
D03*
X194980Y132283D02*
D03*
X421367Y134252D02*
D03*
X70472Y103257D02*
D03*
D169*
X224114Y75590D02*
D03*
X164401Y92587D02*
D03*
X167913Y62106D02*
D03*
X223228Y83563D02*
D03*
X229947Y120177D02*
D03*
X223327Y112697D02*
D03*
X415057Y102582D02*
D03*
X186024Y37205D02*
D03*
X271260Y9744D02*
D03*
X279429Y6988D02*
D03*
X276673Y14665D02*
D03*
X196260Y47933D02*
D03*
X143012Y64567D02*
D03*
X269193Y117028D02*
D03*
X356368Y105286D02*
D03*
X216732Y57579D02*
D03*
X281693Y48327D02*
D03*
X304536Y67748D02*
D03*
X281693Y53425D02*
D03*
X350689Y68405D02*
D03*
X350590Y63386D02*
D03*
X280217Y23425D02*
D03*
X288736Y18192D02*
D03*
X350590Y58425D02*
D03*
Y43425D02*
D03*
X350572Y38277D02*
D03*
X289469Y28740D02*
D03*
X216437Y110039D02*
D03*
X288779Y33268D02*
D03*
X315551Y45866D02*
D03*
X311221Y42085D02*
D03*
X336910Y41831D02*
D03*
X319585Y114439D02*
D03*
X268996Y121260D02*
D03*
X336695Y38228D02*
D03*
X315354Y114272D02*
D03*
X299705Y31988D02*
D03*
X229232Y145374D02*
D03*
X311516Y113878D02*
D03*
X173298Y91673D02*
D03*
X367126Y76083D02*
D03*
X356594Y68799D02*
D03*
X345049Y93357D02*
D03*
X370866Y93602D02*
D03*
X350787Y102657D02*
D03*
X302146Y34193D02*
D03*
X306004Y39862D02*
D03*
X307480Y70276D02*
D03*
X309842Y75590D02*
D03*
X312365Y78806D02*
D03*
X353097Y105942D02*
D03*
X348819Y99803D02*
D03*
X320079Y62894D02*
D03*
X346870Y96949D02*
D03*
X293706Y18450D02*
D03*
X323642Y18504D02*
D03*
X340846Y67520D02*
D03*
X342913Y70669D02*
D03*
X328741Y18831D02*
D03*
X338878Y64075D02*
D03*
X333642Y18504D02*
D03*
X338642D02*
D03*
X333090Y53248D02*
D03*
X335236Y56791D02*
D03*
X337028Y60039D02*
D03*
X343642Y18504D02*
D03*
X350590Y28425D02*
D03*
X281918Y73100D02*
D03*
X316929Y86102D02*
D03*
X319685Y88386D02*
D03*
X281693Y68425D02*
D03*
X281791Y63583D02*
D03*
X314764Y82579D02*
D03*
X281693Y58425D02*
D03*
Y43425D02*
D03*
Y38425D02*
D03*
X262365Y42520D02*
D03*
X208071Y130217D02*
D03*
X414492Y120845D02*
D03*
X281693Y78425D02*
D03*
X367224Y71063D02*
D03*
X366240Y67421D02*
D03*
X83661Y95866D02*
D03*
D170*
X145276Y78248D02*
D03*
%TF.MD5,c11c498bdea3dfae60bc291415ab3b39*%
M02*
