%TF.GenerationSoftware,Altium Limited,Altium Designer,21.7.2 (23)*%
G04 Layer_Color=128*
%FSLAX45Y45*%
%MOMM*%
%TF.SameCoordinates,C5F40386-04F0-4186-BDF7-9E6353565D61*%
%TF.FilePolarity,Positive*%
%TF.FileFunction,Drillmap*%
%TF.Part,Single*%
G01*
G75*
%TA.AperFunction,NonConductor*%
%ADD66C,0.12700*%
D66*
X7835000Y1087500D02*
X8015000D01*
X7925000Y997500D02*
Y1177500D01*
X8335000Y1087500D02*
X8515000D01*
X8425000Y997500D02*
Y1177500D01*
X4135500Y8690000D02*
X4295500D01*
X4215500Y8610000D02*
Y8770000D01*
X5259500Y8690000D02*
X5419500D01*
X5339500Y8610000D02*
Y8770000D01*
X4139500Y8290000D02*
X4291500D01*
X4215500Y8214000D02*
Y8366000D01*
X5263500Y8290000D02*
X5415500D01*
X5339500Y8214000D02*
Y8366000D01*
X5590000Y7923000D02*
X5661000D01*
X5625500Y7887500D02*
Y7958500D01*
X5590000Y8050000D02*
X5661000D01*
X5625500Y8014500D02*
Y8085500D01*
X5717000Y7923000D02*
X5788000D01*
X5752500Y7887500D02*
Y7958500D01*
X5717000Y8050000D02*
X5788000D01*
X5752500Y8014500D02*
Y8085500D01*
X5844000Y7923000D02*
X5915000D01*
X5879500Y7887500D02*
Y7958500D01*
X5844000Y8050000D02*
X5915000D01*
X5879500Y8014500D02*
Y8085500D01*
X9332500Y5487500D02*
X9482500D01*
X9407500Y5412500D02*
Y5562500D01*
X2310000Y5505000D02*
X2460000D01*
X2385000Y5430000D02*
Y5580000D01*
X1397500Y5505000D02*
X1547500D01*
X1472500Y5430000D02*
Y5580000D01*
X2330000Y2185000D02*
X2480000D01*
X2405000Y2110000D02*
Y2260000D01*
X1417500Y2185000D02*
X1567500D01*
X1492500Y2110000D02*
Y2260000D01*
X10245000Y5487500D02*
X10395000D01*
X10320000Y5412500D02*
Y5562500D01*
X9310000Y2157500D02*
X9460000D01*
X9385000Y2082500D02*
Y2232500D01*
X10222500Y2157500D02*
X10372500D01*
X10297500Y2082500D02*
Y2232500D01*
X6135000Y867500D02*
X6205000D01*
X6170000Y832500D02*
Y902500D01*
X6135000Y617500D02*
X6205000D01*
X6170000Y582500D02*
Y652500D01*
X6712500Y445000D02*
X6892500D01*
X6802500Y355000D02*
Y535000D01*
X6712500Y945000D02*
X6892500D01*
X6802500Y855000D02*
Y1035000D01*
X8345000Y6505000D02*
X8370000D01*
X8357500Y6492500D02*
Y6517500D01*
X8345000Y6465000D02*
X8370000D01*
X8357500Y6452500D02*
Y6477500D01*
X8345000Y6422500D02*
X8370000D01*
X8357500Y6410000D02*
Y6435000D01*
X7435000Y6457500D02*
X7460000D01*
X7447500Y6445000D02*
Y6470000D01*
X7435000Y6502500D02*
X7460000D01*
X7447500Y6490000D02*
Y6515000D01*
X7435000Y6547500D02*
X7460000D01*
X7447500Y6535000D02*
Y6560000D01*
X485000Y17182500D02*
X510000D01*
X497500Y17170000D02*
Y17195000D01*
X1097500Y17455000D02*
X1122500D01*
X1110000Y17442500D02*
Y17467500D01*
X1717500Y17667500D02*
X1742500D01*
X1730000Y17655000D02*
Y17680000D01*
X2342500Y17855000D02*
X2367500D01*
X2355000Y17842500D02*
Y17867500D01*
X2975000Y18007500D02*
X3000000D01*
X2987500Y17995000D02*
Y18020000D01*
X3980000Y18080000D02*
X4005000D01*
X3992500Y18067500D02*
Y18092500D01*
X4607500Y18139999D02*
X4632500D01*
X4620000Y18127499D02*
Y18152499D01*
X4905000Y18292500D02*
X4930000D01*
X4917500Y18280000D02*
Y18305000D01*
X5525000Y18397501D02*
X5550000D01*
X5537500Y18385001D02*
Y18410001D01*
X6167500Y18414999D02*
X6192500D01*
X6180000Y18402499D02*
Y18427499D01*
X6790000Y18385001D02*
X6815000D01*
X6802500Y18372501D02*
Y18397501D01*
X7412500Y18289999D02*
X7437500D01*
X7425000Y18277499D02*
Y18302499D01*
X8037500Y18222501D02*
X8062500D01*
X8050000Y18210001D02*
Y18235001D01*
X9032500Y18117500D02*
X9057500D01*
X9045000Y18105000D02*
Y18130000D01*
X9680000Y17947501D02*
X9705000D01*
X9692500Y17935001D02*
Y17960001D01*
X10312500Y17752499D02*
X10337500D01*
X10325000Y17739999D02*
Y17764999D01*
X10927500Y17517500D02*
X10952500D01*
X10940000Y17505000D02*
Y17530000D01*
X11530000Y17142500D02*
X11555000D01*
X11542500Y17130000D02*
Y17155000D01*
X1487500Y14572501D02*
X1512500D01*
X1500000Y14560001D02*
Y14585001D01*
X2192500Y14795000D02*
X2217500D01*
X2205000Y14782500D02*
Y14807500D01*
X2870000Y14987500D02*
X2895000D01*
X2882500Y14975000D02*
Y15000000D01*
X3517500Y15127499D02*
X3542500D01*
X3530000Y15114999D02*
Y15139999D01*
X4092500Y15205000D02*
X4117500D01*
X4105000Y15192500D02*
Y15217500D01*
X4747500Y15282500D02*
X4772500D01*
X4760000Y15270000D02*
Y15295000D01*
X5272500Y15410001D02*
X5297500D01*
X5285000Y15397501D02*
Y15422501D01*
X5917500Y15252499D02*
X5942500D01*
X5930000Y15239999D02*
Y15264999D01*
X5880000Y15439999D02*
X5905000D01*
X5892500Y15427499D02*
Y15452499D01*
X6177500Y15557500D02*
X6202500D01*
X6190000Y15545000D02*
Y15570000D01*
X6600000Y15239999D02*
X6625000D01*
X6612500Y15227499D02*
Y15252499D01*
X6807500Y15545000D02*
X6832500D01*
X6820000Y15532500D02*
Y15557500D01*
X7162500Y15220000D02*
X7187500D01*
X7175000Y15207500D02*
Y15232500D01*
X7765000Y15335001D02*
X7790000D01*
X7777500Y15322501D02*
Y15347501D01*
X7892500Y15145000D02*
X7917500D01*
X7905000Y15132500D02*
Y15157500D01*
X8440000Y15420000D02*
X8465000D01*
X8452500Y15407500D02*
Y15432500D01*
X8342500Y15070000D02*
X8367500D01*
X8355000Y15057500D02*
Y15082500D01*
X9075000Y15250000D02*
X9100000D01*
X9087500Y15237500D02*
Y15262500D01*
X8962500Y14945000D02*
X8987500D01*
X8975000Y14932500D02*
Y14957500D01*
X9685000Y15045000D02*
X9710000D01*
X9697500Y15032500D02*
Y15057500D01*
X9620000Y14742500D02*
X9645000D01*
X9632500Y14730000D02*
Y14755000D01*
X11102500Y14780000D02*
X11127500D01*
X11115000Y14767500D02*
Y14792500D01*
X11087500Y14702499D02*
X11112500D01*
X11100000Y14689999D02*
Y14714999D01*
X11072500Y14364999D02*
X11097500D01*
X11085000Y14352499D02*
Y14377499D01*
X11070000Y14439999D02*
X11095000D01*
X11082500Y14427499D02*
Y14452499D01*
X10410000Y14680000D02*
X10435000D01*
X10422500Y14667500D02*
Y14692500D01*
X10410000Y14610001D02*
X10435000D01*
X10422500Y14597501D02*
Y14622501D01*
X10412500Y14547501D02*
X10437500D01*
X10425000Y14535001D02*
Y14560001D01*
X10415000Y14487500D02*
X10440000D01*
X10427500Y14475000D02*
Y14500000D01*
X5490000Y8475000D02*
X5515000D01*
X5502500Y8462500D02*
Y8487500D01*
X6167500Y8272500D02*
X6192500D01*
X6180000Y8260000D02*
Y8285000D01*
X5987500Y8717500D02*
X6012500D01*
X6000000Y8705000D02*
Y8730000D01*
X5982500Y8377500D02*
X6007500D01*
X5995000Y8365000D02*
Y8390000D01*
X7197500Y7560000D02*
X7222500D01*
X7210000Y7547500D02*
Y7572500D01*
X7295000Y7557500D02*
X7320000D01*
X7307500Y7545000D02*
Y7570000D01*
X7562500Y7417500D02*
X7587500D01*
X7575000Y7405000D02*
Y7430000D01*
X7562500Y7520000D02*
X7587500D01*
X7575000Y7507500D02*
Y7532500D01*
X6280000Y7146580D02*
X6305000D01*
X6292500Y7134080D02*
Y7159080D01*
X6225000Y6802500D02*
X6250000D01*
X6237500Y6790000D02*
Y6815000D01*
X10985671Y17187770D02*
X11015671D01*
X11000671Y17172771D02*
Y17202769D01*
X11145000Y16997501D02*
X11175000D01*
X11160000Y16982500D02*
Y17012500D01*
X11377500Y16997501D02*
X11407500D01*
X11392500Y16982500D02*
Y17012500D01*
X11067500Y14514999D02*
X11097500D01*
X11082500Y14500000D02*
Y14530000D01*
X10097500Y8642500D02*
X10127500D01*
X10112500Y8627500D02*
Y8657500D01*
X1618857Y8781067D02*
X1648856D01*
X1633857Y8766067D02*
Y8796066D01*
X1552500Y14725000D02*
X1582500D01*
X1567500Y14710001D02*
Y14739999D01*
X723910Y14550220D02*
X753910D01*
X738910Y14535219D02*
Y14565219D01*
X9968954Y6752997D02*
X9998954D01*
X9983954Y6737997D02*
Y6767997D01*
X9847822Y6756519D02*
X9877822D01*
X9862822Y6741519D02*
Y6771519D01*
X9735000Y6735000D02*
X9765000D01*
X9750000Y6720000D02*
Y6750000D01*
X9644294Y6710037D02*
X9674294D01*
X9659294Y6695037D02*
Y6725037D01*
X1445000Y7627500D02*
X1475000D01*
X1460000Y7612500D02*
Y7642500D01*
X1517500Y7572500D02*
X1547500D01*
X1532500Y7557500D02*
Y7587500D01*
X9595000Y7912500D02*
X9625000D01*
X9610000Y7897500D02*
Y7927500D01*
X9627500Y8275000D02*
X9657500D01*
X9642500Y8260000D02*
Y8290000D01*
X9640337Y8377163D02*
X9670337D01*
X9655337Y8362163D02*
Y8392163D01*
X9707426Y8280202D02*
X9737426D01*
X9722426Y8265202D02*
Y8295202D01*
X9769404Y8241310D02*
X9799404D01*
X9784404Y8226310D02*
Y8256310D01*
X9528742Y7870880D02*
X9558742D01*
X9543742Y7855880D02*
Y7885880D01*
X9649061Y8463585D02*
X9679061D01*
X9664061Y8448585D02*
Y8478585D01*
X9095000Y7693200D02*
X9125000D01*
X9110000Y7678200D02*
Y7708200D01*
X9470742Y7820622D02*
X9500742D01*
X9485742Y7805622D02*
Y7835622D01*
X9640000Y8580000D02*
X9670000D01*
X9655000Y8565000D02*
Y8595000D01*
X9373000Y8535500D02*
X9403000D01*
X9388000Y8520500D02*
Y8550500D01*
X8855000Y7977500D02*
X8885000D01*
X8870000Y7962500D02*
Y7992500D01*
X9711404Y8607500D02*
X9741404D01*
X9726404Y8592500D02*
Y8622500D01*
X9530000Y8521405D02*
X9560000D01*
X9545000Y8506405D02*
Y8536405D01*
X9783934Y8640807D02*
X9813934D01*
X9798934Y8625807D02*
Y8655807D01*
X11002500Y14080000D02*
X11032500D01*
X11017500Y14064999D02*
Y14095000D01*
X10900000Y14182500D02*
X10930000D01*
X10915000Y14167500D02*
Y14197501D01*
X10835000Y14280000D02*
X10865000D01*
X10850000Y14264999D02*
Y14295000D01*
X10782500Y14385001D02*
X10812500D01*
X10797500Y14370000D02*
Y14400000D01*
X10845000Y14770000D02*
X10875000D01*
X10860000Y14755000D02*
Y14785001D01*
X10722500Y14470000D02*
X10752500D01*
X10737500Y14455000D02*
Y14485001D01*
X10662500Y14580000D02*
X10692500D01*
X10677500Y14564999D02*
Y14595000D01*
X10657869Y14785710D02*
X10687869D01*
X10672869Y14770711D02*
Y14800710D01*
X11005000Y14885001D02*
X11035000D01*
X11020000Y14870000D02*
Y14900000D01*
X10907500Y15035001D02*
X10937500D01*
X10922500Y15020000D02*
Y15050000D01*
X10790000Y14822501D02*
X10820000D01*
X10805000Y14807500D02*
Y14837500D01*
X10727500Y14877499D02*
X10757500D01*
X10742500Y14862500D02*
Y14892500D01*
X11299080Y17160001D02*
X11329079D01*
X11314079Y17145000D02*
Y17175000D01*
X10795000Y17270000D02*
X10825000D01*
X10810000Y17255000D02*
Y17285001D01*
X10659080Y17422501D02*
X10689080D01*
X10674080Y17407500D02*
Y17437500D01*
X10215881Y17461514D02*
X10245881D01*
X10230881Y17446515D02*
Y17476514D01*
X10034080Y17614999D02*
X10064080D01*
X10049080Y17600000D02*
Y17630000D01*
X9404080Y17802499D02*
X9434080D01*
X9419080Y17787500D02*
Y17817500D01*
X8771580Y17952499D02*
X8801580D01*
X8786580Y17937500D02*
Y17967500D01*
X8139080Y18067500D02*
X8169080D01*
X8154080Y18052499D02*
Y18082500D01*
X7503159Y18160001D02*
X7533159D01*
X7518159Y18145000D02*
Y18175000D01*
X6886580Y18220000D02*
X6916580D01*
X6901580Y18205000D02*
Y18235001D01*
X6266580Y18250002D02*
X6296580D01*
X6281580Y18235001D02*
Y18265001D01*
X2780000Y8020000D02*
X2810000D01*
X2795000Y8005000D02*
Y8035000D01*
X2757500Y8167500D02*
X2787500D01*
X2772500Y8152500D02*
Y8182500D01*
X2708998Y7831107D02*
X2738998D01*
X2723998Y7816107D02*
Y7846107D01*
X2495000Y7612000D02*
X2525000D01*
X2510000Y7597000D02*
Y7627000D01*
X1767500Y8572500D02*
X1797500D01*
X1782500Y8557500D02*
Y8587500D01*
X1703987Y8627148D02*
X1733987D01*
X1718987Y8612148D02*
Y8642148D01*
X2566232Y7804576D02*
X2596232D01*
X2581232Y7789576D02*
Y7819576D01*
X1915581Y7397258D02*
X1945581D01*
X1930581Y7382258D02*
Y7412258D01*
X2700000Y7580000D02*
X2730000D01*
X2715000Y7565000D02*
Y7595000D01*
X2580000Y7567500D02*
X2610000D01*
X2595000Y7552500D02*
Y7582500D01*
X2220000Y8222500D02*
X2250000D01*
X2235000Y8207500D02*
Y8237500D01*
X1119153Y14819614D02*
X1149153D01*
X1134153Y14804613D02*
Y14834613D01*
X1069377Y14504755D02*
X1099377D01*
X1084377Y14489754D02*
Y14519754D01*
X1050512Y14787195D02*
X1080512D01*
X1065512Y14772195D02*
Y14802196D01*
X1272779Y14442075D02*
X1302778D01*
X1287778Y14427075D02*
Y14457076D01*
X1222500Y14495000D02*
X1252500D01*
X1237500Y14480000D02*
Y14510001D01*
X1202439Y14818350D02*
X1232439D01*
X1217439Y14803349D02*
Y14833350D01*
X1305000Y14842500D02*
X1335000D01*
X1320000Y14827499D02*
Y14857500D01*
X1145000Y14485001D02*
X1175000D01*
X1160000Y14470000D02*
Y14500000D01*
X2357500Y8012000D02*
X2387500D01*
X2372500Y7997000D02*
Y8027000D01*
X2455000Y8070000D02*
X2485000D01*
X2470000Y8055000D02*
Y8085000D01*
X1869762Y8447262D02*
X1899762D01*
X1884762Y8432262D02*
Y8462262D01*
X3109080Y17945000D02*
X3139080D01*
X3124080Y17930000D02*
Y17960001D01*
X1975000Y8260000D02*
X2005000D01*
X1990000Y8245000D02*
Y8275000D01*
X3735660Y18064999D02*
X3765659D01*
X3750660Y18050000D02*
Y18080000D01*
X2760000Y8552500D02*
X2790000D01*
X2775000Y8537500D02*
Y8567500D01*
X2930000Y8510000D02*
X2960000D01*
X2945000Y8495000D02*
Y8525000D01*
X3010000Y8555000D02*
X3040000D01*
X3025000Y8540000D02*
Y8570000D01*
X2427440Y8594500D02*
X2457440D01*
X2442440Y8579500D02*
Y8609500D01*
X2217982Y8542141D02*
X2247982D01*
X2232982Y8527141D02*
Y8557141D01*
X4365000Y18152499D02*
X4395000D01*
X4380000Y18137500D02*
Y18167500D01*
X2322131Y8564155D02*
X2352131D01*
X2337131Y8549155D02*
Y8579155D01*
X2330924Y8452069D02*
X2360924D01*
X2345924Y8437069D02*
Y8467069D01*
X2292500Y8390000D02*
X2322500D01*
X2307500Y8375000D02*
Y8405000D01*
X5006580Y18227499D02*
X5036580D01*
X5021580Y18212500D02*
Y18242500D01*
X5639080Y18255000D02*
X5669080D01*
X5654080Y18239999D02*
Y18270000D01*
X3111579Y15107500D02*
X3141579D01*
X3126579Y15092500D02*
Y15122501D01*
X3765000Y15255000D02*
X3795000D01*
X3780000Y15239999D02*
Y15270000D01*
X4395660Y15357500D02*
X4425660D01*
X4410660Y15342500D02*
Y15372501D01*
X5024080Y15442500D02*
X5054080D01*
X5039080Y15427499D02*
Y15457500D01*
X5655660Y15495000D02*
X5685660D01*
X5670660Y15480000D02*
Y15510001D01*
X10061580Y14695000D02*
X10091580D01*
X10076580Y14680000D02*
Y14710001D01*
X9430156Y14790630D02*
X9460156D01*
X9445156Y14775630D02*
Y14805630D01*
X9427500Y14912500D02*
X9457500D01*
X9442500Y14897501D02*
Y14927499D01*
X8804080Y15095001D02*
X8834080D01*
X8819080Y15080000D02*
Y15110001D01*
X8180000Y15242500D02*
X8210000D01*
X8195000Y15227499D02*
Y15257500D01*
X7554080Y15375000D02*
X7584080D01*
X7569080Y15360001D02*
Y15389999D01*
X6919080Y15450000D02*
X6949080D01*
X6934080Y15435001D02*
Y15464999D01*
X6286580Y15492500D02*
X6316580D01*
X6301580Y15477499D02*
Y15507500D01*
X10370000Y14792500D02*
X10400000D01*
X10385000Y14777499D02*
Y14807500D01*
X11575943Y17035606D02*
X11605943D01*
X11590943Y17020607D02*
Y17050606D01*
X9422613Y7576697D02*
X9452613D01*
X9437613Y7561697D02*
Y7591697D01*
X1548300Y17836436D02*
X1578300D01*
X1563300Y17821436D02*
Y17851436D01*
X1968420Y17730000D02*
X1998420D01*
X1983420Y17714999D02*
Y17745000D01*
X9544788Y15028069D02*
X9574788D01*
X9559788Y15013069D02*
Y15043069D01*
X9126580Y15137500D02*
X9156580D01*
X9141580Y15122501D02*
Y15152499D01*
X2827499Y15335001D02*
X2857499D01*
X2842499Y15320000D02*
Y15350000D01*
X3228419Y15219501D02*
X3258419D01*
X3243419Y15204500D02*
Y15234500D01*
X10178420Y14810001D02*
X10208420D01*
X10193420Y14795000D02*
Y14825000D01*
X9749080Y14927499D02*
X9779080D01*
X9764080Y14912500D02*
Y14942500D01*
X7670920Y15489999D02*
X7700920D01*
X7685920Y15475000D02*
Y15505000D01*
X7241580Y15605000D02*
X7271580D01*
X7256580Y15589999D02*
Y15620000D01*
X8295920Y15363420D02*
X8325920D01*
X8310920Y15348421D02*
Y15378419D01*
X7879839Y15450000D02*
X7909839D01*
X7894839Y15435001D02*
Y15464999D01*
X5140920Y15557500D02*
X5170920D01*
X5155920Y15542500D02*
Y15572501D01*
X4708738Y15673289D02*
X4738738D01*
X4723738Y15658289D02*
Y15688289D01*
X3423160Y18295000D02*
X3453159D01*
X3438159Y18280000D02*
Y18310001D01*
X3853420Y18180000D02*
X3883419D01*
X3868419Y18164999D02*
Y18195000D01*
X9520920Y17917500D02*
X9550920D01*
X9535920Y17902499D02*
Y17932500D01*
X9087500Y18027499D02*
X9117500D01*
X9102500Y18012500D02*
Y18042500D01*
X1554080Y14917500D02*
X1584080D01*
X1569080Y14902499D02*
Y14932500D01*
X1983420Y14800000D02*
X2013420D01*
X1998420Y14785001D02*
Y14814999D01*
X3880920Y15370000D02*
X3910920D01*
X3895920Y15355000D02*
Y15385001D01*
X3450000Y15482500D02*
X3480000D01*
X3465000Y15467500D02*
Y15497501D01*
X6605001Y15670000D02*
X6635000D01*
X6620000Y15655000D02*
Y15685001D01*
X7033416Y15564149D02*
X7063416D01*
X7048416Y15549149D02*
Y15579149D01*
X6403420Y15607500D02*
X6433420D01*
X6418420Y15592500D02*
Y15622501D01*
X5992500Y15647501D02*
X6022500D01*
X6007500Y15632501D02*
Y15662502D01*
X8459080Y18185001D02*
X8489080D01*
X8474080Y18170000D02*
Y18200000D01*
X8888420Y18067500D02*
X8918420D01*
X8903420Y18052499D02*
Y18082500D01*
X4054080Y18382500D02*
X4084080D01*
X4069080Y18367500D02*
Y18397501D01*
X4482500Y18268159D02*
X4512500D01*
X4497500Y18253160D02*
Y18283160D01*
X2169080Y18027499D02*
X2199080D01*
X2184080Y18012500D02*
Y18042500D01*
X2598420Y17912500D02*
X2628420D01*
X2613420Y17897501D02*
Y17927499D01*
X2191580Y15135001D02*
X2221580D01*
X2206580Y15120000D02*
Y15150000D01*
X2620920Y15020000D02*
X2650920D01*
X2635920Y15005000D02*
Y15035001D01*
X5326580Y18487500D02*
X5356580D01*
X5341580Y18472501D02*
Y18502499D01*
X5755920Y18370000D02*
X5785920D01*
X5770920Y18355000D02*
Y18385001D01*
X5772500Y15610001D02*
X5802500D01*
X5787500Y15595000D02*
Y15625000D01*
X5340660Y15725000D02*
X5370660D01*
X5355660Y15710001D02*
Y15739999D01*
X10152959Y17729836D02*
X10182959D01*
X10167959Y17714835D02*
Y17744835D01*
X9720000Y17832500D02*
X9750000D01*
X9735000Y17817500D02*
Y17847501D01*
X3225920Y18060001D02*
X3255920D01*
X3240920Y18045000D02*
Y18075000D01*
X2796580Y18175000D02*
X2826580D01*
X2811580Y18160001D02*
Y18189999D01*
X8255920Y18182500D02*
X8285920D01*
X8270920Y18167500D02*
Y18197501D01*
X7827340Y18287500D02*
X7857340D01*
X7842340Y18272501D02*
Y18302499D01*
X1350000Y17514999D02*
X1380000D01*
X1365000Y17500000D02*
Y17530000D01*
X922949Y17624318D02*
X952949D01*
X937949Y17609319D02*
Y17639317D01*
X4510920Y15477499D02*
X4540920D01*
X4525920Y15462500D02*
Y15492500D01*
X4087500Y15592500D02*
X4117500D01*
X4102500Y15577499D02*
Y15607500D01*
X7000920Y18337500D02*
X7030920D01*
X7015920Y18322501D02*
Y18352499D01*
X6579879Y18443846D02*
X6609879D01*
X6594879Y18428847D02*
Y18458846D01*
X6383420Y18367500D02*
X6413420D01*
X6398420Y18352501D02*
Y18382501D01*
X5954449Y18474757D02*
X5984449D01*
X5969449Y18459756D02*
Y18489757D01*
X11415920Y17280000D02*
X11445919D01*
X11430919Y17264999D02*
Y17295000D01*
X10975345Y17384715D02*
X11005345D01*
X10990345Y17369716D02*
Y17399716D01*
X721840Y17235921D02*
X751840D01*
X736840Y17220920D02*
Y17250920D01*
X289953Y17347807D02*
X319953D01*
X304953Y17332808D02*
Y17362808D01*
X5123420Y18342000D02*
X5153420D01*
X5138420Y18327000D02*
Y18357001D01*
X4687500Y18445000D02*
X4717500D01*
X4702500Y18430000D02*
Y18460001D01*
X10775920Y17539500D02*
X10805920D01*
X10790920Y17524500D02*
Y17554500D01*
X10351350Y17644833D02*
X10381350D01*
X10366350Y17629832D02*
Y17659833D01*
X7627500Y18262000D02*
X7657500D01*
X7642500Y18247000D02*
Y18277000D01*
X7200000Y18377499D02*
X7230000D01*
X7215000Y18362500D02*
Y18392500D01*
X8920920Y15214500D02*
X8950920D01*
X8935920Y15199500D02*
Y15229500D01*
X8502500Y15307501D02*
X8532500D01*
X8517500Y15292500D02*
Y15322501D01*
X6868387Y8153746D02*
X6898387D01*
X6883387Y8138746D02*
Y8168746D01*
X8007500Y8180000D02*
X8037500D01*
X8022500Y8165000D02*
Y8195000D01*
X7885000Y8572500D02*
X7915000D01*
X7900000Y8557500D02*
Y8587500D01*
X7820000Y8472500D02*
X7850000D01*
X7835000Y8457500D02*
Y8487500D01*
X8434715Y8479640D02*
X8464715D01*
X8449715Y8464640D02*
Y8494640D01*
X8108000Y8477500D02*
X8138000D01*
X8123000Y8462500D02*
Y8492500D01*
X8431580Y8632500D02*
X8461580D01*
X8446580Y8617500D02*
Y8647500D01*
X8092500Y8622500D02*
X8122500D01*
X8107500Y8607500D02*
Y8637500D01*
X8080026Y8165222D02*
X8110026D01*
X8095026Y8150222D02*
Y8180222D01*
X6445000Y7459500D02*
X6475000D01*
X6460000Y7444500D02*
Y7474500D01*
X880000Y4487500D02*
X910000D01*
X895000Y4472500D02*
Y4502500D01*
X7982500Y2957500D02*
X8012500D01*
X7997500Y2942500D02*
Y2972500D01*
X6866045Y5917107D02*
X6896045D01*
X6881045Y5902107D02*
Y5932107D01*
X7595000Y5827500D02*
X7625000D01*
X7610000Y5812500D02*
Y5842500D01*
X7682353Y5809853D02*
X7712353D01*
X7697353Y5794853D02*
Y5824853D01*
X7264557Y6115442D02*
X7294557D01*
X7279557Y6100442D02*
Y6130442D01*
X7290362Y6047155D02*
X7320362D01*
X7305362Y6032155D02*
Y6062155D01*
X3141500Y5259000D02*
X3171500D01*
X3156500Y5244000D02*
Y5274000D01*
X3104524Y5057976D02*
X3134524D01*
X3119524Y5042976D02*
Y5072976D01*
X3170000Y5442500D02*
X3200000D01*
X3185000Y5427500D02*
Y5457500D01*
X2147500Y4525000D02*
X2177500D01*
X2162500Y4510000D02*
Y4540000D01*
X6588452Y6595000D02*
X6618452D01*
X6603452Y6580000D02*
Y6610000D01*
X6632500Y6485000D02*
X6662500D01*
X6647500Y6470000D02*
Y6500000D01*
X4965000Y6212500D02*
X4995000D01*
X4980000Y6197500D02*
Y6227500D01*
X4962500Y6437500D02*
X4992500D01*
X4977500Y6422500D02*
Y6452500D01*
X5050000Y6437500D02*
X5080000D01*
X5065000Y6422500D02*
Y6452500D01*
X3420000Y6332500D02*
X3450000D01*
X3435000Y6317500D02*
Y6347500D01*
X7109263Y6394501D02*
X7139263D01*
X7124263Y6379501D02*
Y6409501D01*
X6915830Y6582204D02*
X6945830D01*
X6930830Y6567204D02*
Y6597204D01*
X6297500Y7750000D02*
X6327500D01*
X6312500Y7735000D02*
Y7765000D01*
X6310000Y8045500D02*
X6340000D01*
X6325000Y8030500D02*
Y8060500D01*
X6025596Y8010462D02*
X6055596D01*
X6040596Y7995462D02*
Y8025462D01*
X6083097Y7965489D02*
X6113097D01*
X6098097Y7950489D02*
Y7980489D01*
X6152700Y7987500D02*
X6182700D01*
X6167700Y7972500D02*
Y8002500D01*
X6086024Y7892500D02*
X6116024D01*
X6101024Y7877500D02*
Y7907500D01*
X6477245Y7966358D02*
X6507245D01*
X6492245Y7951358D02*
Y7981358D01*
X5247500Y6995000D02*
X5277500D01*
X5262500Y6980000D02*
Y7010000D01*
X5315279Y6967889D02*
X5345279D01*
X5330279Y6952889D02*
Y6982889D01*
X5182500Y6852500D02*
X5212500D01*
X5197500Y6837500D02*
Y6867500D01*
X5030000Y6652500D02*
X5060000D01*
X5045000Y6637500D02*
Y6667500D01*
X3122500Y4505000D02*
X3152500D01*
X3137500Y4490000D02*
Y4520000D01*
X2940000Y4355000D02*
X2970000D01*
X2955000Y4340000D02*
Y4370000D01*
X2657500Y4245000D02*
X2687500D01*
X2672500Y4230000D02*
Y4260000D01*
X3976499Y8074500D02*
X4006498D01*
X3991498Y8059500D02*
Y8089500D01*
X4785000Y8041800D02*
X4815000D01*
X4800000Y8026800D02*
Y8056800D01*
X5410000Y7902500D02*
X5440000D01*
X5425000Y7887500D02*
Y7917500D01*
X3920000Y8160500D02*
X3950000D01*
X3935000Y8145500D02*
Y8175500D01*
X2952500Y7830500D02*
X2982500D01*
X2967500Y7815500D02*
Y7845500D01*
X2960825Y7748801D02*
X2990825D01*
X2975825Y7733801D02*
Y7763801D01*
X5343698Y878430D02*
X5373698D01*
X5358698Y863430D02*
Y893430D01*
X5310000Y1235000D02*
X5340000D01*
X5325000Y1220000D02*
Y1250000D01*
X8170000Y3247500D02*
X8200000D01*
X8185000Y3232500D02*
Y3262500D01*
X3915000Y1032500D02*
X3945000D01*
X3930000Y1017500D02*
Y1047500D01*
X1082797Y4119266D02*
X1112797D01*
X1097797Y4104266D02*
Y4134266D01*
X9366233Y6840070D02*
X9396233D01*
X9381233Y6825070D02*
Y6855070D01*
X9464500Y6804024D02*
X9494500D01*
X9479500Y6789025D02*
Y6819024D01*
X9285222Y6798200D02*
X9315222D01*
X9300222Y6783200D02*
Y6813200D01*
X9182500Y6800000D02*
X9212500D01*
X9197500Y6785000D02*
Y6815000D01*
X9388059Y6648800D02*
X9418059D01*
X9403059Y6633800D02*
Y6663800D01*
X9239662Y6631035D02*
X9269662D01*
X9254662Y6616035D02*
Y6646035D01*
X8372500Y3082500D02*
X8402500D01*
X8387500Y3067500D02*
Y3097500D01*
X8247500Y3175000D02*
X8277500D01*
X8262500Y3160000D02*
Y3190000D01*
X6017500Y6905000D02*
X6047500D01*
X6032500Y6890000D02*
Y6920000D01*
X6020000Y7160000D02*
X6050000D01*
X6035000Y7145000D02*
Y7175000D01*
X6652866Y7199693D02*
X6682866D01*
X6667866Y7184694D02*
Y7214693D01*
X5827500Y6827500D02*
X5857500D01*
X5842500Y6812500D02*
Y6842500D01*
X6649711Y5981766D02*
X6679711D01*
X6664711Y5966766D02*
Y5996766D01*
X8202500Y3777500D02*
X8232500D01*
X8217500Y3762500D02*
Y3792500D01*
X4127500Y6542500D02*
X4157500D01*
X4142500Y6527500D02*
Y6557500D01*
X3360000Y6605000D02*
X3390000D01*
X3375000Y6590000D02*
Y6620000D01*
X3242500Y4167500D02*
X3272500D01*
X3257500Y4152500D02*
Y4182500D01*
X3316679Y4175345D02*
X3346679D01*
X3331679Y4160345D02*
Y4190345D01*
X2727495Y3613600D02*
X2757495D01*
X2742495Y3598600D02*
Y3628600D01*
X2777500Y3835000D02*
X2807500D01*
X2792500Y3820000D02*
Y3850000D01*
X3039543Y4087500D02*
X3069543D01*
X3054543Y4072500D02*
Y4102500D01*
X3112500Y4085000D02*
X3142500D01*
X3127500Y4070000D02*
Y4100000D01*
X2927500Y3852000D02*
X2957500D01*
X2942500Y3837000D02*
Y3867000D01*
X7794874Y5996380D02*
X7824874D01*
X7809874Y5981380D02*
Y6011380D01*
X7723511Y5981013D02*
X7753511D01*
X7738511Y5966013D02*
Y5996013D01*
X8523756Y4968450D02*
X8553756D01*
X8538756Y4953450D02*
Y4983450D01*
X8170000Y3507500D02*
X8200000D01*
X8185000Y3492500D02*
Y3522500D01*
X10605000Y4037500D02*
X10635000D01*
X10620000Y4022500D02*
Y4052500D01*
X8635000Y3787500D02*
X8665000D01*
X8650000Y3772500D02*
Y3802500D01*
X9547500Y4370000D02*
X9577500D01*
X9562500Y4355000D02*
Y4385000D01*
X9792500Y4382500D02*
X9822500D01*
X9807500Y4367500D02*
Y4397500D01*
X10481272Y4355500D02*
X10511272D01*
X10496272Y4340500D02*
Y4370500D01*
X7545000Y6320000D02*
X7575000D01*
X7560000Y6305000D02*
Y6335000D01*
X7605000Y6267500D02*
X7635000D01*
X7620000Y6252500D02*
Y6282500D01*
X8525238Y4887738D02*
X8555238D01*
X8540238Y4872738D02*
Y4902738D01*
X8487500Y5967500D02*
X8517500D01*
X8502500Y5952500D02*
Y5982500D01*
X8672522Y4129502D02*
X8702522D01*
X8687522Y4114502D02*
Y4144501D01*
X8572876Y4737754D02*
X8602876D01*
X8587876Y4722754D02*
Y4752754D01*
X8242500Y4740000D02*
X8272500D01*
X8257500Y4725000D02*
Y4755000D01*
X8797500Y4117500D02*
X8827500D01*
X8812500Y4102500D02*
Y4132500D01*
X4862500Y7607500D02*
X4892500D01*
X4877500Y7592500D02*
Y7622500D01*
X4617500Y7620000D02*
X4647500D01*
X4632500Y7605000D02*
Y7635000D01*
X2196200Y7670000D02*
X2226200D01*
X2211200Y7655000D02*
Y7685000D01*
X3607500Y7510000D02*
X3637500D01*
X3622500Y7495000D02*
Y7525000D01*
X3555185Y7718654D02*
X3585185D01*
X3570185Y7703654D02*
Y7733654D01*
X3551391Y7281391D02*
X3581391D01*
X3566391Y7266391D02*
Y7296391D01*
X3432500Y7275000D02*
X3462500D01*
X3447500Y7260000D02*
Y7290000D01*
X3350000Y7272500D02*
X3380000D01*
X3365000Y7257500D02*
Y7287500D01*
X2852500Y7432500D02*
X2882500D01*
X2867500Y7417500D02*
Y7447500D01*
X4510984Y7282781D02*
X4540984D01*
X4525984Y7267782D02*
Y7297781D01*
X4977500Y7287500D02*
X5007500D01*
X4992500Y7272500D02*
Y7302500D01*
X4605000Y7222500D02*
X4635000D01*
X4620000Y7207500D02*
Y7237500D01*
X5270000Y6800000D02*
X5300000D01*
X5285000Y6785000D02*
Y6815000D01*
X5550500Y7637500D02*
X5580500D01*
X5565500Y7622500D02*
Y7652500D01*
X2795000Y7290000D02*
X2825000D01*
X2810000Y7275000D02*
Y7305000D01*
X5477500Y7347500D02*
X5507500D01*
X5492500Y7332500D02*
Y7362500D01*
X6242500Y7587500D02*
X6272500D01*
X6257500Y7572500D02*
Y7602500D01*
X5047500Y5980000D02*
X5077500D01*
X5062500Y5965000D02*
Y5995000D01*
X5117500Y6595000D02*
X5147500D01*
X5132500Y6580000D02*
Y6610000D01*
X6437500Y6940000D02*
X6467500D01*
X6452500Y6925000D02*
Y6955000D01*
X3785000Y4185000D02*
X3815000D01*
X3800000Y4170000D02*
Y4200000D01*
X3580000Y3957500D02*
X3610000D01*
X3595000Y3942500D02*
Y3972500D01*
X3604500Y4267500D02*
X3634500D01*
X3619500Y4252500D02*
Y4282500D01*
X8417500Y7175000D02*
X8447500D01*
X8432500Y7160000D02*
Y7190000D01*
X3405000Y4260000D02*
X3435000D01*
X3420000Y4245000D02*
Y4275000D01*
X3510000Y4265000D02*
X3540000D01*
X3525000Y4250000D02*
Y4280000D01*
X9642017Y3418858D02*
X9672017D01*
X9657017Y3403858D02*
Y3433858D01*
X6732500Y8150000D02*
X6762500D01*
X6747500Y8135000D02*
Y8165000D01*
X6780000Y6462500D02*
X6810000D01*
X6795000Y6447500D02*
Y6477500D01*
X8552500Y5875000D02*
X8582500D01*
X8567500Y5860000D02*
Y5890000D01*
X7027500Y6345000D02*
X7057500D01*
X7042500Y6330000D02*
Y6360000D01*
X8982500Y6707500D02*
X9012500D01*
X8997500Y6692500D02*
Y6722500D01*
X8842738Y6992262D02*
X8872738D01*
X8857738Y6977262D02*
Y7007262D01*
X8628135Y7034955D02*
X8658135D01*
X8643135Y7019955D02*
Y7049955D01*
X8899470Y6658497D02*
X8929470D01*
X8914470Y6643497D02*
Y6673497D01*
X8443344Y6487787D02*
X8473344D01*
X8458344Y6472787D02*
Y6502787D01*
X8385000Y4600000D02*
X8415000D01*
X8400000Y4585000D02*
Y4615000D01*
X8422500Y4307500D02*
X8452500D01*
X8437500Y4292500D02*
Y4322500D01*
X8222500Y4490000D02*
X8252500D01*
X8237500Y4475000D02*
Y4505000D01*
X8782500Y7475000D02*
X8812500D01*
X8797500Y7460000D02*
Y7490000D01*
X5330000Y6305000D02*
X5360000D01*
X5345000Y6290000D02*
Y6320000D01*
X4330000Y6892500D02*
X4360000D01*
X4345000Y6877500D02*
Y6907500D01*
X4354020Y7530000D02*
X4384020D01*
X4369020Y7515000D02*
Y7545000D01*
X3300000Y7052500D02*
X3330000D01*
X3315000Y7037500D02*
Y7067500D01*
X4550000Y6627500D02*
X4580000D01*
X4565000Y6612500D02*
Y6642500D01*
X4655325Y6638183D02*
X4685325D01*
X4670325Y6623183D02*
Y6653183D01*
X3573763Y7789250D02*
X3603763D01*
X3588763Y7774250D02*
Y7804250D01*
X3202500Y7912000D02*
X3232500D01*
X3217500Y7897000D02*
Y7927000D01*
X3059500Y7899696D02*
X3089500D01*
X3074500Y7884696D02*
Y7914696D01*
X6472248Y7603266D02*
X6502248D01*
X6487248Y7588266D02*
Y7618266D01*
X8220000Y7091000D02*
X8250000D01*
X8235000Y7076000D02*
Y7106000D01*
X9085000Y6812500D02*
X9115000D01*
X9100000Y6797500D02*
Y6827500D01*
X9037500Y6922500D02*
X9067500D01*
X9052500Y6907500D02*
Y6937500D01*
X8187500Y6812000D02*
X8217500D01*
X8202500Y6797000D02*
Y6827000D01*
X6692500Y6812000D02*
X6722500D01*
X6707500Y6797000D02*
Y6827000D01*
X8170000Y6642000D02*
X8200000D01*
X8185000Y6627000D02*
Y6657000D01*
X8617500Y6870000D02*
X8647500D01*
X8632500Y6855000D02*
Y6885000D01*
X6530000Y6817500D02*
X6560000D01*
X6545000Y6802500D02*
Y6832500D01*
X5465000Y6703000D02*
X5495000D01*
X5480000Y6688000D02*
Y6718000D01*
X7635000Y6550000D02*
X7665000D01*
X7650000Y6535000D02*
Y6565000D01*
X8402500Y6870000D02*
X8432500D01*
X8417500Y6855000D02*
Y6885000D01*
X7533972Y6547039D02*
X7563972D01*
X7548972Y6532039D02*
Y6562039D01*
X7332500Y6512500D02*
X7362500D01*
X7347500Y6497500D02*
Y6527500D01*
X9250000Y7127500D02*
X9280000D01*
X9265000Y7112500D02*
Y7142500D01*
X8545000Y6515000D02*
X8575000D01*
X8560000Y6500000D02*
Y6530000D01*
X8765000Y8055000D02*
X8795000D01*
X8780000Y8040000D02*
Y8070000D01*
X9884188Y7307225D02*
X9914188D01*
X9899188Y7292225D02*
Y7322225D01*
X9842326Y7247250D02*
X9872325D01*
X9857325Y7232250D02*
Y7262250D01*
X8223646Y8233935D02*
X8253646D01*
X8238646Y8218935D02*
Y8248935D01*
X8220000Y8361000D02*
X8250000D01*
X8235000Y8346000D02*
Y8376000D01*
X6430000Y7210000D02*
X6460000D01*
X6445000Y7195000D02*
Y7225000D01*
X6427500Y7090000D02*
X6457500D01*
X6442500Y7075000D02*
Y7105000D01*
X4637500Y7959500D02*
X4667500D01*
X4652500Y7944500D02*
Y7974500D01*
X4910000Y7944500D02*
X4940000D01*
X4925000Y7929500D02*
Y7959500D01*
X3460000Y8380000D02*
X3490000D01*
X3475000Y8365000D02*
Y8395000D01*
X3817500Y8332500D02*
X3847500D01*
X3832500Y8317500D02*
Y8347500D01*
X3755000Y8397500D02*
X3785000D01*
X3770000Y8382500D02*
Y8412500D01*
X5676220Y8164500D02*
X5706219D01*
X5691220Y8149500D02*
Y8179500D01*
X8015616Y1744488D02*
X8045616D01*
X8030616Y1729488D02*
Y1759488D01*
X7620000Y1267500D02*
X7650000D01*
X7635000Y1252500D02*
Y1282500D01*
X7403500Y1470950D02*
X7443500D01*
X7423500Y1450950D02*
Y1490950D01*
X7432500Y635000D02*
X7462500D01*
X7447500Y620000D02*
Y650000D01*
X8230000Y715000D02*
X8260000D01*
X8245000Y700000D02*
Y730000D01*
X7682500Y635000D02*
X7712500D01*
X7697500Y620000D02*
Y650000D01*
X4669063Y562082D02*
X4699063D01*
X4684063Y547082D02*
Y577082D01*
X3427500Y895000D02*
X3457500D01*
X3442500Y880000D02*
Y910000D01*
X4617500Y720000D02*
X4647500D01*
X4632500Y705000D02*
Y735000D01*
X4788523Y1225076D02*
X4818523D01*
X4803523Y1210076D02*
Y1240075D01*
%TF.MD5,9ba62ff1fc450cfa0be697518a953d7c*%
M02*
