%TF.GenerationSoftware,Altium Limited,Altium Designer,21.7.2 (23)*%
G04 Layer_Color=2752767*
%FSLAX45Y45*%
%MOMM*%
%TF.SameCoordinates,C5F40386-04F0-4186-BDF7-9E6353565D61*%
%TF.FilePolarity,Positive*%
%TF.FileFunction,Drawing*%
%TF.Part,Single*%
G01*
G75*
%TA.AperFunction,NonConductor*%
%ADD66C,0.12700*%
%ADD133C,0.16933*%
D66*
X7874200Y1036700D02*
Y1138300D01*
X7975800D01*
Y1036700D01*
X7874200D01*
X8374200D02*
Y1138300D01*
X8475800D01*
Y1036700D01*
X8374200D01*
X4215500Y8239200D02*
X4164700Y8340800D01*
X4266300D01*
X4215500Y8239200D01*
X5339500D02*
X5288700Y8340800D01*
X5390300D01*
X5339500Y8239200D01*
X5625500Y7872200D02*
X5650900Y7897600D01*
X5676300D01*
X5650900Y7923000D01*
X5676300Y7948400D01*
X5650900D01*
X5625500Y7973800D01*
X5600100Y7948400D01*
X5574700D01*
X5600100Y7923000D01*
X5574700Y7897600D01*
X5600100D01*
X5625500Y7872200D01*
Y7999200D02*
X5650900Y8024600D01*
X5676300D01*
X5650900Y8050000D01*
X5676300Y8075400D01*
X5650900D01*
X5625500Y8100800D01*
X5600100Y8075400D01*
X5574700D01*
X5600100Y8050000D01*
X5574700Y8024600D01*
X5600100D01*
X5625500Y7999200D01*
X5752500Y7872200D02*
X5777900Y7897600D01*
X5803300D01*
X5777900Y7923000D01*
X5803300Y7948400D01*
X5777900D01*
X5752500Y7973800D01*
X5727100Y7948400D01*
X5701700D01*
X5727100Y7923000D01*
X5701700Y7897600D01*
X5727100D01*
X5752500Y7872200D01*
Y7999200D02*
X5777900Y8024600D01*
X5803300D01*
X5777900Y8050000D01*
X5803300Y8075400D01*
X5777900D01*
X5752500Y8100800D01*
X5727100Y8075400D01*
X5701700D01*
X5727100Y8050000D01*
X5701700Y8024600D01*
X5727100D01*
X5752500Y7999200D01*
X5879500Y7872200D02*
X5904900Y7897600D01*
X5930300D01*
X5904900Y7923000D01*
X5930300Y7948400D01*
X5904900D01*
X5879500Y7973800D01*
X5854100Y7948400D01*
X5828700D01*
X5854100Y7923000D01*
X5828700Y7897600D01*
X5854100D01*
X5879500Y7872200D01*
Y7999200D02*
X5904900Y8024600D01*
X5930300D01*
X5904900Y8050000D01*
X5930300Y8075400D01*
X5904900D01*
X5879500Y8100800D01*
X5854100Y8075400D01*
X5828700D01*
X5854100Y8050000D01*
X5828700Y8024600D01*
X5854100D01*
X5879500Y7999200D01*
X9356700Y5436700D02*
X9382100Y5487500D01*
X9356700Y5538300D01*
X9407500Y5512900D01*
X9458300Y5538300D01*
X9432900Y5487500D01*
X9458300Y5436700D01*
X9407500Y5462100D01*
X9356700Y5436700D01*
X2334200Y5454200D02*
X2359600Y5505000D01*
X2334200Y5555800D01*
X2385000Y5530400D01*
X2435800Y5555800D01*
X2410400Y5505000D01*
X2435800Y5454200D01*
X2385000Y5479600D01*
X2334200Y5454200D01*
X1421700D02*
X1447100Y5505000D01*
X1421700Y5555800D01*
X1472500Y5530400D01*
X1523300Y5555800D01*
X1497900Y5505000D01*
X1523300Y5454200D01*
X1472500Y5479600D01*
X1421700Y5454200D01*
X2354200Y2134200D02*
X2379600Y2185000D01*
X2354200Y2235800D01*
X2405000Y2210400D01*
X2455800Y2235800D01*
X2430400Y2185000D01*
X2455800Y2134200D01*
X2405000Y2159600D01*
X2354200Y2134200D01*
X1441700D02*
X1467100Y2185000D01*
X1441700Y2235800D01*
X1492500Y2210400D01*
X1543300Y2235800D01*
X1517900Y2185000D01*
X1543300Y2134200D01*
X1492500Y2159600D01*
X1441700Y2134200D01*
X10269200Y5436700D02*
X10294600Y5487500D01*
X10269200Y5538300D01*
X10320000Y5512900D01*
X10370800Y5538300D01*
X10345400Y5487500D01*
X10370800Y5436700D01*
X10320000Y5462100D01*
X10269200Y5436700D01*
X9334200Y2106700D02*
X9359600Y2157500D01*
X9334200Y2208300D01*
X9385000Y2182900D01*
X9435800Y2208300D01*
X9410400Y2157500D01*
X9435800Y2106700D01*
X9385000Y2132100D01*
X9334200Y2106700D01*
X10246700D02*
X10272100Y2157500D01*
X10246700Y2208300D01*
X10297500Y2182900D01*
X10348300Y2208300D01*
X10322900Y2157500D01*
X10348300Y2106700D01*
X10297500Y2132100D01*
X10246700Y2106700D01*
X6144600Y842100D02*
Y816700D01*
X6195400D01*
Y842100D01*
X6220800D01*
Y892900D01*
X6195400D01*
Y918300D01*
X6144600D01*
Y892900D01*
X6119200D01*
Y842100D01*
X6144600D01*
Y592100D02*
Y566700D01*
X6195400D01*
Y592100D01*
X6220800D01*
Y642900D01*
X6195400D01*
Y668300D01*
X6144600D01*
Y642900D01*
X6119200D01*
Y592100D01*
X6144600D01*
X6751700Y394200D02*
Y495800D01*
X6853300D01*
Y394200D01*
X6751700D01*
Y894200D02*
Y995800D01*
X6853300D01*
Y894200D01*
X6751700D01*
X8306700Y6454200D02*
X8332100D01*
X8357500Y6479600D01*
X8382900Y6454200D01*
X8408300D01*
Y6479600D01*
X8382900Y6505000D01*
X8408300Y6530400D01*
Y6555800D01*
X8382900D01*
X8357500Y6530400D01*
X8332100Y6555800D01*
X8306700D01*
Y6530400D01*
X8332100Y6505000D01*
X8306700Y6479600D01*
Y6454200D01*
Y6414200D02*
X8332100D01*
X8357500Y6439600D01*
X8382900Y6414200D01*
X8408300D01*
Y6439600D01*
X8382900Y6465000D01*
X8408300Y6490400D01*
Y6515800D01*
X8382900D01*
X8357500Y6490400D01*
X8332100Y6515800D01*
X8306700D01*
Y6490400D01*
X8332100Y6465000D01*
X8306700Y6439600D01*
Y6414200D01*
Y6371700D02*
X8332100D01*
X8357500Y6397100D01*
X8382900Y6371700D01*
X8408300D01*
Y6397100D01*
X8382900Y6422500D01*
X8408300Y6447900D01*
Y6473300D01*
X8382900D01*
X8357500Y6447900D01*
X8332100Y6473300D01*
X8306700D01*
Y6447900D01*
X8332100Y6422500D01*
X8306700Y6397100D01*
Y6371700D01*
X7396700Y6406700D02*
X7422100D01*
X7447500Y6432100D01*
X7472900Y6406700D01*
X7498300D01*
Y6432100D01*
X7472900Y6457500D01*
X7498300Y6482900D01*
Y6508300D01*
X7472900D01*
X7447500Y6482900D01*
X7422100Y6508300D01*
X7396700D01*
Y6482900D01*
X7422100Y6457500D01*
X7396700Y6432100D01*
Y6406700D01*
Y6451700D02*
X7422100D01*
X7447500Y6477100D01*
X7472900Y6451700D01*
X7498300D01*
Y6477100D01*
X7472900Y6502500D01*
X7498300Y6527900D01*
Y6553300D01*
X7472900D01*
X7447500Y6527900D01*
X7422100Y6553300D01*
X7396700D01*
Y6527900D01*
X7422100Y6502500D01*
X7396700Y6477100D01*
Y6451700D01*
Y6496700D02*
X7422100D01*
X7447500Y6522100D01*
X7472900Y6496700D01*
X7498300D01*
Y6522100D01*
X7472900Y6547500D01*
X7498300Y6572900D01*
Y6598300D01*
X7472900D01*
X7447500Y6572900D01*
X7422100Y6598300D01*
X7396700D01*
Y6572900D01*
X7422100Y6547500D01*
X7396700Y6522100D01*
Y6496700D01*
X446700Y17131700D02*
X472100D01*
X497500Y17157100D01*
X522900Y17131700D01*
X548300D01*
Y17157100D01*
X522900Y17182500D01*
X548300Y17207899D01*
Y17233299D01*
X522900D01*
X497500Y17207899D01*
X472100Y17233299D01*
X446700D01*
Y17207899D01*
X472100Y17182500D01*
X446700Y17157100D01*
Y17131700D01*
X1059200Y17404201D02*
X1084600D01*
X1110000Y17429601D01*
X1135400Y17404201D01*
X1160800D01*
Y17429601D01*
X1135400Y17455000D01*
X1160800Y17480400D01*
Y17505800D01*
X1135400D01*
X1110000Y17480400D01*
X1084600Y17505800D01*
X1059200D01*
Y17480400D01*
X1084600Y17455000D01*
X1059200Y17429601D01*
Y17404201D01*
X1679200Y17616701D02*
X1704600D01*
X1730000Y17642101D01*
X1755400Y17616701D01*
X1780800D01*
Y17642101D01*
X1755400Y17667500D01*
X1780800Y17692900D01*
Y17718300D01*
X1755400D01*
X1730000Y17692900D01*
X1704600Y17718300D01*
X1679200D01*
Y17692900D01*
X1704600Y17667500D01*
X1679200Y17642101D01*
Y17616701D01*
X2304200Y17804201D02*
X2329600D01*
X2355000Y17829601D01*
X2380400Y17804201D01*
X2405800D01*
Y17829601D01*
X2380400Y17855000D01*
X2405800Y17880400D01*
Y17905800D01*
X2380400D01*
X2355000Y17880400D01*
X2329600Y17905800D01*
X2304200D01*
Y17880400D01*
X2329600Y17855000D01*
X2304200Y17829601D01*
Y17804201D01*
X2936700Y17956700D02*
X2962100D01*
X2987500Y17982100D01*
X3012900Y17956700D01*
X3038300D01*
Y17982100D01*
X3012900Y18007500D01*
X3038300Y18032899D01*
Y18058299D01*
X3012900D01*
X2987500Y18032899D01*
X2962100Y18058299D01*
X2936700D01*
Y18032899D01*
X2962100Y18007500D01*
X2936700Y17982100D01*
Y17956700D01*
X3941700Y18029201D02*
X3967100D01*
X3992500Y18054601D01*
X4017900Y18029201D01*
X4043300D01*
Y18054601D01*
X4017900Y18080000D01*
X4043300Y18105400D01*
Y18130800D01*
X4017900D01*
X3992500Y18105400D01*
X3967100Y18130800D01*
X3941700D01*
Y18105400D01*
X3967100Y18080000D01*
X3941700Y18054601D01*
Y18029201D01*
X4569200Y18089200D02*
X4594600D01*
X4620000Y18114600D01*
X4645400Y18089200D01*
X4670800D01*
Y18114600D01*
X4645400Y18139999D01*
X4670800Y18165401D01*
Y18190800D01*
X4645400D01*
X4620000Y18165401D01*
X4594600Y18190800D01*
X4569200D01*
Y18165401D01*
X4594600Y18139999D01*
X4569200Y18114600D01*
Y18089200D01*
X4866700Y18241701D02*
X4892100D01*
X4917500Y18267101D01*
X4942900Y18241701D01*
X4968300D01*
Y18267101D01*
X4942900Y18292500D01*
X4968300Y18317900D01*
Y18343300D01*
X4942900D01*
X4917500Y18317900D01*
X4892100Y18343300D01*
X4866700D01*
Y18317900D01*
X4892100Y18292500D01*
X4866700Y18267101D01*
Y18241701D01*
X5486700Y18346700D02*
X5512100D01*
X5537500Y18372099D01*
X5562900Y18346700D01*
X5588300D01*
Y18372099D01*
X5562900Y18397501D01*
X5588300Y18422900D01*
Y18448300D01*
X5562900D01*
X5537500Y18422900D01*
X5512100Y18448300D01*
X5486700D01*
Y18422900D01*
X5512100Y18397501D01*
X5486700Y18372099D01*
Y18346700D01*
X6129200Y18364200D02*
X6154600D01*
X6180000Y18389600D01*
X6205400Y18364200D01*
X6230800D01*
Y18389600D01*
X6205400Y18414999D01*
X6230800Y18440401D01*
Y18465800D01*
X6205400D01*
X6180000Y18440401D01*
X6154600Y18465800D01*
X6129200D01*
Y18440401D01*
X6154600Y18414999D01*
X6129200Y18389600D01*
Y18364200D01*
X6751700Y18334200D02*
X6777100D01*
X6802500Y18359599D01*
X6827900Y18334200D01*
X6853300D01*
Y18359599D01*
X6827900Y18385001D01*
X6853300Y18410400D01*
Y18435800D01*
X6827900D01*
X6802500Y18410400D01*
X6777100Y18435800D01*
X6751700D01*
Y18410400D01*
X6777100Y18385001D01*
X6751700Y18359599D01*
Y18334200D01*
X7374200Y18239200D02*
X7399600D01*
X7425000Y18264600D01*
X7450400Y18239200D01*
X7475800D01*
Y18264600D01*
X7450400Y18289999D01*
X7475800Y18315401D01*
Y18340800D01*
X7450400D01*
X7425000Y18315401D01*
X7399600Y18340800D01*
X7374200D01*
Y18315401D01*
X7399600Y18289999D01*
X7374200Y18264600D01*
Y18239200D01*
X7999200Y18171700D02*
X8024600D01*
X8050000Y18197099D01*
X8075400Y18171700D01*
X8100800D01*
Y18197099D01*
X8075400Y18222501D01*
X8100800Y18247900D01*
Y18273300D01*
X8075400D01*
X8050000Y18247900D01*
X8024600Y18273300D01*
X7999200D01*
Y18247900D01*
X8024600Y18222501D01*
X7999200Y18197099D01*
Y18171700D01*
X8994200Y18066701D02*
X9019600D01*
X9045000Y18092101D01*
X9070400Y18066701D01*
X9095800D01*
Y18092101D01*
X9070400Y18117500D01*
X9095800Y18142900D01*
Y18168300D01*
X9070400D01*
X9045000Y18142900D01*
X9019600Y18168300D01*
X8994200D01*
Y18142900D01*
X9019600Y18117500D01*
X8994200Y18092101D01*
Y18066701D01*
X9641700Y17896700D02*
X9667100D01*
X9692500Y17922099D01*
X9717900Y17896700D01*
X9743300D01*
Y17922099D01*
X9717900Y17947501D01*
X9743300Y17972900D01*
Y17998300D01*
X9717900D01*
X9692500Y17972900D01*
X9667100Y17998300D01*
X9641700D01*
Y17972900D01*
X9667100Y17947501D01*
X9641700Y17922099D01*
Y17896700D01*
X10274200Y17701700D02*
X10299600D01*
X10325000Y17727100D01*
X10350400Y17701700D01*
X10375800D01*
Y17727100D01*
X10350400Y17752499D01*
X10375800Y17777901D01*
Y17803300D01*
X10350400D01*
X10325000Y17777901D01*
X10299600Y17803300D01*
X10274200D01*
Y17777901D01*
X10299600Y17752499D01*
X10274200Y17727100D01*
Y17701700D01*
X10889200Y17466701D02*
X10914600D01*
X10940000Y17492101D01*
X10965400Y17466701D01*
X10990800D01*
Y17492101D01*
X10965400Y17517500D01*
X10990800Y17542900D01*
Y17568300D01*
X10965400D01*
X10940000Y17542900D01*
X10914600Y17568300D01*
X10889200D01*
Y17542900D01*
X10914600Y17517500D01*
X10889200Y17492101D01*
Y17466701D01*
X11491700Y17091701D02*
X11517100D01*
X11542500Y17117101D01*
X11567900Y17091701D01*
X11593300D01*
Y17117101D01*
X11567900Y17142500D01*
X11593300Y17167900D01*
Y17193300D01*
X11567900D01*
X11542500Y17167900D01*
X11517100Y17193300D01*
X11491700D01*
Y17167900D01*
X11517100Y17142500D01*
X11491700Y17117101D01*
Y17091701D01*
X1449200Y14521700D02*
X1474600D01*
X1500000Y14547099D01*
X1525400Y14521700D01*
X1550800D01*
Y14547099D01*
X1525400Y14572501D01*
X1550800Y14597900D01*
Y14623300D01*
X1525400D01*
X1500000Y14597900D01*
X1474600Y14623300D01*
X1449200D01*
Y14597900D01*
X1474600Y14572501D01*
X1449200Y14547099D01*
Y14521700D01*
X2154200Y14744200D02*
X2179600D01*
X2205000Y14769600D01*
X2230400Y14744200D01*
X2255800D01*
Y14769600D01*
X2230400Y14795000D01*
X2255800Y14820399D01*
Y14845799D01*
X2230400D01*
X2205000Y14820399D01*
X2179600Y14845799D01*
X2154200D01*
Y14820399D01*
X2179600Y14795000D01*
X2154200Y14769600D01*
Y14744200D01*
X2831700Y14936700D02*
X2857100D01*
X2882500Y14962100D01*
X2907900Y14936700D01*
X2933300D01*
Y14962100D01*
X2907900Y14987500D01*
X2933300Y15012900D01*
Y15038300D01*
X2907900D01*
X2882500Y15012900D01*
X2857100Y15038300D01*
X2831700D01*
Y15012900D01*
X2857100Y14987500D01*
X2831700Y14962100D01*
Y14936700D01*
X3479200Y15076700D02*
X3504600D01*
X3530000Y15102100D01*
X3555400Y15076700D01*
X3580800D01*
Y15102100D01*
X3555400Y15127499D01*
X3580800Y15152901D01*
Y15178300D01*
X3555400D01*
X3530000Y15152901D01*
X3504600Y15178300D01*
X3479200D01*
Y15152901D01*
X3504600Y15127499D01*
X3479200Y15102100D01*
Y15076700D01*
X4054200Y15154201D02*
X4079600D01*
X4105000Y15179601D01*
X4130400Y15154201D01*
X4155800D01*
Y15179601D01*
X4130400Y15205000D01*
X4155800Y15230400D01*
Y15255800D01*
X4130400D01*
X4105000Y15230400D01*
X4079600Y15255800D01*
X4054200D01*
Y15230400D01*
X4079600Y15205000D01*
X4054200Y15179601D01*
Y15154201D01*
X4709200Y15231700D02*
X4734600D01*
X4760000Y15257100D01*
X4785400Y15231700D01*
X4810800D01*
Y15257100D01*
X4785400Y15282500D01*
X4810800Y15307899D01*
Y15333299D01*
X4785400D01*
X4760000Y15307899D01*
X4734600Y15333299D01*
X4709200D01*
Y15307899D01*
X4734600Y15282500D01*
X4709200Y15257100D01*
Y15231700D01*
X5234200Y15359200D02*
X5259600D01*
X5285000Y15384599D01*
X5310400Y15359200D01*
X5335800D01*
Y15384599D01*
X5310400Y15410001D01*
X5335800Y15435400D01*
Y15460800D01*
X5310400D01*
X5285000Y15435400D01*
X5259600Y15460800D01*
X5234200D01*
Y15435400D01*
X5259600Y15410001D01*
X5234200Y15384599D01*
Y15359200D01*
X5879200Y15201700D02*
X5904600D01*
X5930000Y15227100D01*
X5955400Y15201700D01*
X5980800D01*
Y15227100D01*
X5955400Y15252499D01*
X5980800Y15277901D01*
Y15303300D01*
X5955400D01*
X5930000Y15277901D01*
X5904600Y15303300D01*
X5879200D01*
Y15277901D01*
X5904600Y15252499D01*
X5879200Y15227100D01*
Y15201700D01*
X5841700Y15389200D02*
X5867100D01*
X5892500Y15414600D01*
X5917900Y15389200D01*
X5943300D01*
Y15414600D01*
X5917900Y15439999D01*
X5943300Y15465401D01*
Y15490800D01*
X5917900D01*
X5892500Y15465401D01*
X5867100Y15490800D01*
X5841700D01*
Y15465401D01*
X5867100Y15439999D01*
X5841700Y15414600D01*
Y15389200D01*
X6139200Y15506700D02*
X6164600D01*
X6190000Y15532100D01*
X6215400Y15506700D01*
X6240800D01*
Y15532100D01*
X6215400Y15557500D01*
X6240800Y15582899D01*
Y15608299D01*
X6215400D01*
X6190000Y15582899D01*
X6164600Y15608299D01*
X6139200D01*
Y15582899D01*
X6164600Y15557500D01*
X6139200Y15532100D01*
Y15506700D01*
X6561700Y15189200D02*
X6587100D01*
X6612500Y15214600D01*
X6637900Y15189200D01*
X6663300D01*
Y15214600D01*
X6637900Y15239999D01*
X6663300Y15265401D01*
Y15290800D01*
X6637900D01*
X6612500Y15265401D01*
X6587100Y15290800D01*
X6561700D01*
Y15265401D01*
X6587100Y15239999D01*
X6561700Y15214600D01*
Y15189200D01*
X6769200Y15494200D02*
X6794600D01*
X6820000Y15519600D01*
X6845400Y15494200D01*
X6870800D01*
Y15519600D01*
X6845400Y15545000D01*
X6870800Y15570399D01*
Y15595799D01*
X6845400D01*
X6820000Y15570399D01*
X6794600Y15595799D01*
X6769200D01*
Y15570399D01*
X6794600Y15545000D01*
X6769200Y15519600D01*
Y15494200D01*
X7124200Y15169200D02*
X7149600D01*
X7175000Y15194600D01*
X7200400Y15169200D01*
X7225800D01*
Y15194600D01*
X7200400Y15220000D01*
X7225800Y15245399D01*
Y15270799D01*
X7200400D01*
X7175000Y15245399D01*
X7149600Y15270799D01*
X7124200D01*
Y15245399D01*
X7149600Y15220000D01*
X7124200Y15194600D01*
Y15169200D01*
X7726700Y15284200D02*
X7752100D01*
X7777500Y15309599D01*
X7802900Y15284200D01*
X7828300D01*
Y15309599D01*
X7802900Y15335001D01*
X7828300Y15360400D01*
Y15385800D01*
X7802900D01*
X7777500Y15360400D01*
X7752100Y15385800D01*
X7726700D01*
Y15360400D01*
X7752100Y15335001D01*
X7726700Y15309599D01*
Y15284200D01*
X7854200Y15094200D02*
X7879600D01*
X7905000Y15119600D01*
X7930400Y15094200D01*
X7955800D01*
Y15119600D01*
X7930400Y15145000D01*
X7955800Y15170399D01*
Y15195799D01*
X7930400D01*
X7905000Y15170399D01*
X7879600Y15195799D01*
X7854200D01*
Y15170399D01*
X7879600Y15145000D01*
X7854200Y15119600D01*
Y15094200D01*
X8401700Y15369200D02*
X8427100D01*
X8452500Y15394600D01*
X8477900Y15369200D01*
X8503300D01*
Y15394600D01*
X8477900Y15420000D01*
X8503300Y15445399D01*
Y15470799D01*
X8477900D01*
X8452500Y15445399D01*
X8427100Y15470799D01*
X8401700D01*
Y15445399D01*
X8427100Y15420000D01*
X8401700Y15394600D01*
Y15369200D01*
X8304200Y15019200D02*
X8329600D01*
X8355000Y15044600D01*
X8380400Y15019200D01*
X8405800D01*
Y15044600D01*
X8380400Y15070000D01*
X8405800Y15095399D01*
Y15120799D01*
X8380400D01*
X8355000Y15095399D01*
X8329600Y15120799D01*
X8304200D01*
Y15095399D01*
X8329600Y15070000D01*
X8304200Y15044600D01*
Y15019200D01*
X9036700Y15199200D02*
X9062100D01*
X9087500Y15224600D01*
X9112900Y15199200D01*
X9138300D01*
Y15224600D01*
X9112900Y15250000D01*
X9138300Y15275400D01*
Y15300800D01*
X9112900D01*
X9087500Y15275400D01*
X9062100Y15300800D01*
X9036700D01*
Y15275400D01*
X9062100Y15250000D01*
X9036700Y15224600D01*
Y15199200D01*
X8924200Y14894200D02*
X8949600D01*
X8975000Y14919600D01*
X9000400Y14894200D01*
X9025800D01*
Y14919600D01*
X9000400Y14945000D01*
X9025800Y14970399D01*
Y14995799D01*
X9000400D01*
X8975000Y14970399D01*
X8949600Y14995799D01*
X8924200D01*
Y14970399D01*
X8949600Y14945000D01*
X8924200Y14919600D01*
Y14894200D01*
X9646700Y14994200D02*
X9672100D01*
X9697500Y15019600D01*
X9722900Y14994200D01*
X9748300D01*
Y15019600D01*
X9722900Y15045000D01*
X9748300Y15070399D01*
Y15095799D01*
X9722900D01*
X9697500Y15070399D01*
X9672100Y15095799D01*
X9646700D01*
Y15070399D01*
X9672100Y15045000D01*
X9646700Y15019600D01*
Y14994200D01*
X9581700Y14691701D02*
X9607100D01*
X9632500Y14717101D01*
X9657900Y14691701D01*
X9683300D01*
Y14717101D01*
X9657900Y14742500D01*
X9683300Y14767900D01*
Y14793300D01*
X9657900D01*
X9632500Y14767900D01*
X9607100Y14793300D01*
X9581700D01*
Y14767900D01*
X9607100Y14742500D01*
X9581700Y14717101D01*
Y14691701D01*
X11064200Y14729201D02*
X11089600D01*
X11115000Y14754601D01*
X11140400Y14729201D01*
X11165800D01*
Y14754601D01*
X11140400Y14780000D01*
X11165800Y14805400D01*
Y14830800D01*
X11140400D01*
X11115000Y14805400D01*
X11089600Y14830800D01*
X11064200D01*
Y14805400D01*
X11089600Y14780000D01*
X11064200Y14754601D01*
Y14729201D01*
X11049200Y14651700D02*
X11074600D01*
X11100000Y14677100D01*
X11125400Y14651700D01*
X11150800D01*
Y14677100D01*
X11125400Y14702499D01*
X11150800Y14727901D01*
Y14753300D01*
X11125400D01*
X11100000Y14727901D01*
X11074600Y14753300D01*
X11049200D01*
Y14727901D01*
X11074600Y14702499D01*
X11049200Y14677100D01*
Y14651700D01*
X11034200Y14314200D02*
X11059600D01*
X11085000Y14339600D01*
X11110400Y14314200D01*
X11135800D01*
Y14339600D01*
X11110400Y14364999D01*
X11135800Y14390401D01*
Y14415800D01*
X11110400D01*
X11085000Y14390401D01*
X11059600Y14415800D01*
X11034200D01*
Y14390401D01*
X11059600Y14364999D01*
X11034200Y14339600D01*
Y14314200D01*
X11031700Y14389200D02*
X11057100D01*
X11082500Y14414600D01*
X11107900Y14389200D01*
X11133300D01*
Y14414600D01*
X11107900Y14439999D01*
X11133300Y14465401D01*
Y14490800D01*
X11107900D01*
X11082500Y14465401D01*
X11057100Y14490800D01*
X11031700D01*
Y14465401D01*
X11057100Y14439999D01*
X11031700Y14414600D01*
Y14389200D01*
X10371700Y14629201D02*
X10397100D01*
X10422500Y14654601D01*
X10447900Y14629201D01*
X10473300D01*
Y14654601D01*
X10447900Y14680000D01*
X10473300Y14705400D01*
Y14730800D01*
X10447900D01*
X10422500Y14705400D01*
X10397100Y14730800D01*
X10371700D01*
Y14705400D01*
X10397100Y14680000D01*
X10371700Y14654601D01*
Y14629201D01*
Y14559200D02*
X10397100D01*
X10422500Y14584599D01*
X10447900Y14559200D01*
X10473300D01*
Y14584599D01*
X10447900Y14610001D01*
X10473300Y14635400D01*
Y14660800D01*
X10447900D01*
X10422500Y14635400D01*
X10397100Y14660800D01*
X10371700D01*
Y14635400D01*
X10397100Y14610001D01*
X10371700Y14584599D01*
Y14559200D01*
X10374200Y14496700D02*
X10399600D01*
X10425000Y14522099D01*
X10450400Y14496700D01*
X10475800D01*
Y14522099D01*
X10450400Y14547501D01*
X10475800Y14572900D01*
Y14598300D01*
X10450400D01*
X10425000Y14572900D01*
X10399600Y14598300D01*
X10374200D01*
Y14572900D01*
X10399600Y14547501D01*
X10374200Y14522099D01*
Y14496700D01*
X10376700Y14436700D02*
X10402100D01*
X10427500Y14462100D01*
X10452900Y14436700D01*
X10478300D01*
Y14462100D01*
X10452900Y14487500D01*
X10478300Y14512900D01*
Y14538300D01*
X10452900D01*
X10427500Y14512900D01*
X10402100Y14538300D01*
X10376700D01*
Y14512900D01*
X10402100Y14487500D01*
X10376700Y14462100D01*
Y14436700D01*
X5451700Y8424200D02*
X5477100D01*
X5502500Y8449600D01*
X5527900Y8424200D01*
X5553300D01*
Y8449600D01*
X5527900Y8475000D01*
X5553300Y8500400D01*
Y8525800D01*
X5527900D01*
X5502500Y8500400D01*
X5477100Y8525800D01*
X5451700D01*
Y8500400D01*
X5477100Y8475000D01*
X5451700Y8449600D01*
Y8424200D01*
X6129200Y8221700D02*
X6154600D01*
X6180000Y8247100D01*
X6205400Y8221700D01*
X6230800D01*
Y8247100D01*
X6205400Y8272500D01*
X6230800Y8297900D01*
Y8323300D01*
X6205400D01*
X6180000Y8297900D01*
X6154600Y8323300D01*
X6129200D01*
Y8297900D01*
X6154600Y8272500D01*
X6129200Y8247100D01*
Y8221700D01*
X5949200Y8666700D02*
X5974600D01*
X6000000Y8692100D01*
X6025400Y8666700D01*
X6050800D01*
Y8692100D01*
X6025400Y8717500D01*
X6050800Y8742900D01*
Y8768300D01*
X6025400D01*
X6000000Y8742900D01*
X5974600Y8768300D01*
X5949200D01*
Y8742900D01*
X5974600Y8717500D01*
X5949200Y8692100D01*
Y8666700D01*
X5944200Y8326700D02*
X5969600D01*
X5995000Y8352100D01*
X6020400Y8326700D01*
X6045800D01*
Y8352100D01*
X6020400Y8377500D01*
X6045800Y8402900D01*
Y8428300D01*
X6020400D01*
X5995000Y8402900D01*
X5969600Y8428300D01*
X5944200D01*
Y8402900D01*
X5969600Y8377500D01*
X5944200Y8352100D01*
Y8326700D01*
X7159200Y7509200D02*
X7184600D01*
X7210000Y7534600D01*
X7235400Y7509200D01*
X7260800D01*
Y7534600D01*
X7235400Y7560000D01*
X7260800Y7585400D01*
Y7610800D01*
X7235400D01*
X7210000Y7585400D01*
X7184600Y7610800D01*
X7159200D01*
Y7585400D01*
X7184600Y7560000D01*
X7159200Y7534600D01*
Y7509200D01*
X7256700Y7506700D02*
X7282100D01*
X7307500Y7532100D01*
X7332900Y7506700D01*
X7358300D01*
Y7532100D01*
X7332900Y7557500D01*
X7358300Y7582900D01*
Y7608300D01*
X7332900D01*
X7307500Y7582900D01*
X7282100Y7608300D01*
X7256700D01*
Y7582900D01*
X7282100Y7557500D01*
X7256700Y7532100D01*
Y7506700D01*
X7524200Y7366700D02*
X7549600D01*
X7575000Y7392100D01*
X7600400Y7366700D01*
X7625800D01*
Y7392100D01*
X7600400Y7417500D01*
X7625800Y7442900D01*
Y7468300D01*
X7600400D01*
X7575000Y7442900D01*
X7549600Y7468300D01*
X7524200D01*
Y7442900D01*
X7549600Y7417500D01*
X7524200Y7392100D01*
Y7366700D01*
Y7469200D02*
X7549600D01*
X7575000Y7494600D01*
X7600400Y7469200D01*
X7625800D01*
Y7494600D01*
X7600400Y7520000D01*
X7625800Y7545400D01*
Y7570800D01*
X7600400D01*
X7575000Y7545400D01*
X7549600Y7570800D01*
X7524200D01*
Y7545400D01*
X7549600Y7520000D01*
X7524200Y7494600D01*
Y7469200D01*
X6241700Y7095780D02*
X6267100D01*
X6292500Y7121180D01*
X6317900Y7095780D01*
X6343300D01*
Y7121180D01*
X6317900Y7146580D01*
X6343300Y7171980D01*
Y7197380D01*
X6317900D01*
X6292500Y7171980D01*
X6267100Y7197380D01*
X6241700D01*
Y7171980D01*
X6267100Y7146580D01*
X6241700Y7121180D01*
Y7095780D01*
X6186700Y6751700D02*
X6212100D01*
X6237500Y6777100D01*
X6262900Y6751700D01*
X6288300D01*
Y6777100D01*
X6262900Y6802500D01*
X6288300Y6827900D01*
Y6853300D01*
X6262900D01*
X6237500Y6827900D01*
X6212100Y6853300D01*
X6186700D01*
Y6827900D01*
X6212100Y6802500D01*
X6186700Y6777100D01*
Y6751700D01*
X10949871Y17187770D02*
X11000671Y17238570D01*
X11051471Y17187770D01*
X11000671Y17136971D01*
X10949871Y17187770D01*
X11109200Y16997501D02*
X11160000Y17048300D01*
X11210800Y16997501D01*
X11160000Y16946700D01*
X11109200Y16997501D01*
X11341700D02*
X11392500Y17048300D01*
X11443300Y16997501D01*
X11392500Y16946700D01*
X11341700Y16997501D01*
X11031700Y14514999D02*
X11082500Y14565800D01*
X11133300Y14514999D01*
X11082500Y14464200D01*
X11031700Y14514999D01*
X10061700Y8642500D02*
X10112500Y8693300D01*
X10163300Y8642500D01*
X10112500Y8591700D01*
X10061700Y8642500D01*
X1583057Y8781067D02*
X1633857Y8831867D01*
X1684657Y8781067D01*
X1633857Y8730267D01*
X1583057Y8781067D01*
X1516700Y14725000D02*
X1567500Y14775800D01*
X1618300Y14725000D01*
X1567500Y14674200D01*
X1516700Y14725000D01*
X688110Y14550220D02*
X738910Y14601019D01*
X789710Y14550220D01*
X738910Y14499419D01*
X688110Y14550220D01*
X9933154Y6752997D02*
X9983954Y6803797D01*
X10034754Y6752997D01*
X9983954Y6702197D01*
X9933154Y6752997D01*
X9812022Y6756519D02*
X9862822Y6807319D01*
X9913622Y6756519D01*
X9862822Y6705719D01*
X9812022Y6756519D01*
X9699200Y6735000D02*
X9750000Y6785800D01*
X9800800Y6735000D01*
X9750000Y6684200D01*
X9699200Y6735000D01*
X9608494Y6710037D02*
X9659294Y6760837D01*
X9710094Y6710037D01*
X9659294Y6659237D01*
X9608494Y6710037D01*
X1409200Y7627500D02*
X1460000Y7678300D01*
X1510800Y7627500D01*
X1460000Y7576700D01*
X1409200Y7627500D01*
X1481700Y7572500D02*
X1532500Y7623300D01*
X1583300Y7572500D01*
X1532500Y7521700D01*
X1481700Y7572500D01*
X9559200Y7912500D02*
X9610000Y7963300D01*
X9660800Y7912500D01*
X9610000Y7861700D01*
X9559200Y7912500D01*
X9591700Y8275000D02*
X9642500Y8325800D01*
X9693300Y8275000D01*
X9642500Y8224200D01*
X9591700Y8275000D01*
X9604537Y8377163D02*
X9655337Y8427963D01*
X9706137Y8377163D01*
X9655337Y8326363D01*
X9604537Y8377163D01*
X9671626Y8280202D02*
X9722426Y8331002D01*
X9773226Y8280202D01*
X9722426Y8229402D01*
X9671626Y8280202D01*
X9733604Y8241310D02*
X9784404Y8292110D01*
X9835204Y8241310D01*
X9784404Y8190510D01*
X9733604Y8241310D01*
X9492942Y7870880D02*
X9543742Y7921680D01*
X9594542Y7870880D01*
X9543742Y7820080D01*
X9492942Y7870880D01*
X9613261Y8463585D02*
X9664061Y8514385D01*
X9714861Y8463585D01*
X9664061Y8412785D01*
X9613261Y8463585D01*
X9059200Y7693200D02*
X9110000Y7744000D01*
X9160800Y7693200D01*
X9110000Y7642400D01*
X9059200Y7693200D01*
X9434942Y7820622D02*
X9485742Y7871422D01*
X9536542Y7820622D01*
X9485742Y7769822D01*
X9434942Y7820622D01*
X9604200Y8580000D02*
X9655000Y8630800D01*
X9705800Y8580000D01*
X9655000Y8529200D01*
X9604200Y8580000D01*
X9337200Y8535500D02*
X9388000Y8586300D01*
X9438800Y8535500D01*
X9388000Y8484700D01*
X9337200Y8535500D01*
X8819200Y7977500D02*
X8870000Y8028300D01*
X8920800Y7977500D01*
X8870000Y7926700D01*
X8819200Y7977500D01*
X9675604Y8607500D02*
X9726404Y8658300D01*
X9777204Y8607500D01*
X9726404Y8556700D01*
X9675604Y8607500D01*
X9494200Y8521405D02*
X9545000Y8572205D01*
X9595800Y8521405D01*
X9545000Y8470605D01*
X9494200Y8521405D01*
X9748134Y8640807D02*
X9798934Y8691607D01*
X9849734Y8640807D01*
X9798934Y8590007D01*
X9748134Y8640807D01*
X10966700Y14080000D02*
X11017500Y14130800D01*
X11068300Y14080000D01*
X11017500Y14029201D01*
X10966700Y14080000D01*
X10864200Y14182500D02*
X10915000Y14233299D01*
X10965800Y14182500D01*
X10915000Y14131700D01*
X10864200Y14182500D01*
X10799200Y14280000D02*
X10850000Y14330800D01*
X10900800Y14280000D01*
X10850000Y14229201D01*
X10799200Y14280000D01*
X10746700Y14385001D02*
X10797500Y14435800D01*
X10848300Y14385001D01*
X10797500Y14334200D01*
X10746700Y14385001D01*
X10809200Y14770000D02*
X10860000Y14820799D01*
X10910800Y14770000D01*
X10860000Y14719200D01*
X10809200Y14770000D01*
X10686700Y14470000D02*
X10737500Y14520799D01*
X10788300Y14470000D01*
X10737500Y14419200D01*
X10686700Y14470000D01*
X10626700Y14580000D02*
X10677500Y14630800D01*
X10728300Y14580000D01*
X10677500Y14529201D01*
X10626700Y14580000D01*
X10622069Y14785710D02*
X10672869Y14836510D01*
X10723669Y14785710D01*
X10672869Y14734911D01*
X10622069Y14785710D01*
X10969200Y14885001D02*
X11020000Y14935800D01*
X11070800Y14885001D01*
X11020000Y14834200D01*
X10969200Y14885001D01*
X10871700Y15035001D02*
X10922500Y15085800D01*
X10973300Y15035001D01*
X10922500Y14984200D01*
X10871700Y15035001D01*
X10754200Y14822501D02*
X10805000Y14873300D01*
X10855800Y14822501D01*
X10805000Y14771700D01*
X10754200Y14822501D01*
X10691700Y14877499D02*
X10742500Y14928300D01*
X10793300Y14877499D01*
X10742500Y14826700D01*
X10691700Y14877499D01*
X11263279Y17160001D02*
X11314079Y17210800D01*
X11364879Y17160001D01*
X11314079Y17109200D01*
X11263279Y17160001D01*
X10759200Y17270000D02*
X10810000Y17320799D01*
X10860800Y17270000D01*
X10810000Y17219200D01*
X10759200Y17270000D01*
X10623280Y17422501D02*
X10674080Y17473300D01*
X10724880Y17422501D01*
X10674080Y17371700D01*
X10623280Y17422501D01*
X10180081Y17461514D02*
X10230881Y17512314D01*
X10281681Y17461514D01*
X10230881Y17410715D01*
X10180081Y17461514D01*
X9998280Y17614999D02*
X10049080Y17665800D01*
X10099880Y17614999D01*
X10049080Y17564200D01*
X9998280Y17614999D01*
X9368280Y17802499D02*
X9419080Y17853300D01*
X9469880Y17802499D01*
X9419080Y17751700D01*
X9368280Y17802499D01*
X8735780Y17952499D02*
X8786580Y18003300D01*
X8837380Y17952499D01*
X8786580Y17901700D01*
X8735780Y17952499D01*
X8103280Y18067500D02*
X8154080Y18118300D01*
X8204880Y18067500D01*
X8154080Y18016701D01*
X8103280Y18067500D01*
X7467359Y18160001D02*
X7518159Y18210800D01*
X7568959Y18160001D01*
X7518159Y18109200D01*
X7467359Y18160001D01*
X6850780Y18220000D02*
X6901580Y18270799D01*
X6952380Y18220000D01*
X6901580Y18169200D01*
X6850780Y18220000D01*
X6230780Y18250002D02*
X6281580Y18300801D01*
X6332380Y18250002D01*
X6281580Y18199200D01*
X6230780Y18250002D01*
X2744200Y8020000D02*
X2795000Y8070800D01*
X2845800Y8020000D01*
X2795000Y7969200D01*
X2744200Y8020000D01*
X2721700Y8167500D02*
X2772500Y8218300D01*
X2823300Y8167500D01*
X2772500Y8116700D01*
X2721700Y8167500D01*
X2673198Y7831107D02*
X2723998Y7881907D01*
X2774798Y7831107D01*
X2723998Y7780307D01*
X2673198Y7831107D01*
X2459200Y7612000D02*
X2510000Y7662800D01*
X2560800Y7612000D01*
X2510000Y7561200D01*
X2459200Y7612000D01*
X1731700Y8572500D02*
X1782500Y8623300D01*
X1833300Y8572500D01*
X1782500Y8521700D01*
X1731700Y8572500D01*
X1668187Y8627148D02*
X1718987Y8677948D01*
X1769787Y8627148D01*
X1718987Y8576348D01*
X1668187Y8627148D01*
X2530432Y7804576D02*
X2581232Y7855376D01*
X2632032Y7804576D01*
X2581232Y7753776D01*
X2530432Y7804576D01*
X1879781Y7397258D02*
X1930581Y7448058D01*
X1981381Y7397258D01*
X1930581Y7346458D01*
X1879781Y7397258D01*
X2664200Y7580000D02*
X2715000Y7630800D01*
X2765800Y7580000D01*
X2715000Y7529200D01*
X2664200Y7580000D01*
X2544200Y7567500D02*
X2595000Y7618300D01*
X2645800Y7567500D01*
X2595000Y7516700D01*
X2544200Y7567500D01*
X2184200Y8222500D02*
X2235000Y8273300D01*
X2285800Y8222500D01*
X2235000Y8171700D01*
X2184200Y8222500D01*
X1083353Y14819614D02*
X1134153Y14870413D01*
X1184953Y14819614D01*
X1134153Y14768813D01*
X1083353Y14819614D01*
X1033577Y14504755D02*
X1084377Y14555554D01*
X1135177Y14504755D01*
X1084377Y14453954D01*
X1033577Y14504755D01*
X1014712Y14787195D02*
X1065512Y14837994D01*
X1116312Y14787195D01*
X1065512Y14736395D01*
X1014712Y14787195D01*
X1236978Y14442075D02*
X1287778Y14492876D01*
X1338578Y14442075D01*
X1287778Y14391275D01*
X1236978Y14442075D01*
X1186700Y14495000D02*
X1237500Y14545799D01*
X1288300Y14495000D01*
X1237500Y14444200D01*
X1186700Y14495000D01*
X1166639Y14818350D02*
X1217439Y14869150D01*
X1268239Y14818350D01*
X1217439Y14767551D01*
X1166639Y14818350D01*
X1269200Y14842500D02*
X1320000Y14893300D01*
X1370800Y14842500D01*
X1320000Y14791701D01*
X1269200Y14842500D01*
X1109200Y14485001D02*
X1160000Y14535800D01*
X1210800Y14485001D01*
X1160000Y14434200D01*
X1109200Y14485001D01*
X2321700Y8012000D02*
X2372500Y8062800D01*
X2423300Y8012000D01*
X2372500Y7961200D01*
X2321700Y8012000D01*
X2419200Y8070000D02*
X2470000Y8120800D01*
X2520800Y8070000D01*
X2470000Y8019200D01*
X2419200Y8070000D01*
X1833962Y8447262D02*
X1884762Y8498062D01*
X1935562Y8447262D01*
X1884762Y8396462D01*
X1833962Y8447262D01*
X3073280Y17945000D02*
X3124080Y17995799D01*
X3174880Y17945000D01*
X3124080Y17894200D01*
X3073280Y17945000D01*
X1939200Y8260000D02*
X1990000Y8310800D01*
X2040800Y8260000D01*
X1990000Y8209200D01*
X1939200Y8260000D01*
X3699860Y18064999D02*
X3750660Y18115800D01*
X3801460Y18064999D01*
X3750660Y18014200D01*
X3699860Y18064999D01*
X2724200Y8552500D02*
X2775000Y8603300D01*
X2825800Y8552500D01*
X2775000Y8501700D01*
X2724200Y8552500D01*
X2894200Y8510000D02*
X2945000Y8560800D01*
X2995800Y8510000D01*
X2945000Y8459200D01*
X2894200Y8510000D01*
X2974200Y8555000D02*
X3025000Y8605800D01*
X3075800Y8555000D01*
X3025000Y8504200D01*
X2974200Y8555000D01*
X2391640Y8594500D02*
X2442440Y8645300D01*
X2493240Y8594500D01*
X2442440Y8543700D01*
X2391640Y8594500D01*
X2182182Y8542141D02*
X2232982Y8592941D01*
X2283782Y8542141D01*
X2232982Y8491341D01*
X2182182Y8542141D01*
X4329200Y18152499D02*
X4380000Y18203300D01*
X4430800Y18152499D01*
X4380000Y18101700D01*
X4329200Y18152499D01*
X2286331Y8564155D02*
X2337131Y8614955D01*
X2387931Y8564155D01*
X2337131Y8513355D01*
X2286331Y8564155D01*
X2295124Y8452069D02*
X2345924Y8502869D01*
X2396724Y8452069D01*
X2345924Y8401269D01*
X2295124Y8452069D01*
X2256700Y8390000D02*
X2307500Y8440800D01*
X2358300Y8390000D01*
X2307500Y8339200D01*
X2256700Y8390000D01*
X4970780Y18227499D02*
X5021580Y18278300D01*
X5072380Y18227499D01*
X5021580Y18176700D01*
X4970780Y18227499D01*
X5603280Y18255000D02*
X5654080Y18305800D01*
X5704880Y18255000D01*
X5654080Y18204201D01*
X5603280Y18255000D01*
X3075779Y15107500D02*
X3126579Y15158299D01*
X3177379Y15107500D01*
X3126579Y15056700D01*
X3075779Y15107500D01*
X3729200Y15255000D02*
X3780000Y15305800D01*
X3830800Y15255000D01*
X3780000Y15204201D01*
X3729200Y15255000D01*
X4359860Y15357500D02*
X4410660Y15408299D01*
X4461460Y15357500D01*
X4410660Y15306700D01*
X4359860Y15357500D01*
X4988280Y15442500D02*
X5039080Y15493300D01*
X5089880Y15442500D01*
X5039080Y15391701D01*
X4988280Y15442500D01*
X5619860Y15495000D02*
X5670660Y15545799D01*
X5721460Y15495000D01*
X5670660Y15444200D01*
X5619860Y15495000D01*
X10025780Y14695000D02*
X10076580Y14745799D01*
X10127380Y14695000D01*
X10076580Y14644200D01*
X10025780Y14695000D01*
X9394356Y14790630D02*
X9445156Y14841431D01*
X9495956Y14790630D01*
X9445156Y14739830D01*
X9394356Y14790630D01*
X9391700Y14912500D02*
X9442500Y14963300D01*
X9493300Y14912500D01*
X9442500Y14861700D01*
X9391700Y14912500D01*
X8768280Y15095001D02*
X8819080Y15145801D01*
X8869880Y15095001D01*
X8819080Y15044202D01*
X8768280Y15095001D01*
X8144200Y15242500D02*
X8195000Y15293300D01*
X8245800Y15242500D01*
X8195000Y15191701D01*
X8144200Y15242500D01*
X7518280Y15375000D02*
X7569080Y15425800D01*
X7619880Y15375000D01*
X7569080Y15324200D01*
X7518280Y15375000D01*
X6883280Y15450000D02*
X6934080Y15500800D01*
X6984880Y15450000D01*
X6934080Y15399200D01*
X6883280Y15450000D01*
X6250780Y15492500D02*
X6301580Y15543300D01*
X6352380Y15492500D01*
X6301580Y15441701D01*
X6250780Y15492500D01*
X10334200Y14792500D02*
X10385000Y14843300D01*
X10435800Y14792500D01*
X10385000Y14741701D01*
X10334200Y14792500D01*
X11540143Y17035606D02*
X11590943Y17086407D01*
X11641743Y17035606D01*
X11590943Y16984807D01*
X11540143Y17035606D01*
X9386813Y7576697D02*
X9437613Y7627497D01*
X9488413Y7576697D01*
X9437613Y7525897D01*
X9386813Y7576697D01*
X1512500Y17836436D02*
X1563300Y17887236D01*
X1614100Y17836436D01*
X1563300Y17785635D01*
X1512500Y17836436D01*
X1932620Y17730000D02*
X1983420Y17780800D01*
X2034220Y17730000D01*
X1983420Y17679201D01*
X1932620Y17730000D01*
X9508988Y15028069D02*
X9559788Y15078870D01*
X9610588Y15028069D01*
X9559788Y14977269D01*
X9508988Y15028069D01*
X9090780Y15137500D02*
X9141580Y15188300D01*
X9192380Y15137500D01*
X9141580Y15086700D01*
X9090780Y15137500D01*
X2791699Y15335001D02*
X2842499Y15385800D01*
X2893299Y15335001D01*
X2842499Y15284200D01*
X2791699Y15335001D01*
X3192619Y15219501D02*
X3243419Y15270300D01*
X3294219Y15219501D01*
X3243419Y15168700D01*
X3192619Y15219501D01*
X10142620Y14810001D02*
X10193420Y14860800D01*
X10244220Y14810001D01*
X10193420Y14759200D01*
X10142620Y14810001D01*
X9713280Y14927499D02*
X9764080Y14978300D01*
X9814880Y14927499D01*
X9764080Y14876700D01*
X9713280Y14927499D01*
X7635120Y15489999D02*
X7685920Y15540800D01*
X7736720Y15489999D01*
X7685920Y15439200D01*
X7635120Y15489999D01*
X7205780Y15605000D02*
X7256580Y15655800D01*
X7307380Y15605000D01*
X7256580Y15554201D01*
X7205780Y15605000D01*
X8260120Y15363420D02*
X8310920Y15414220D01*
X8361720Y15363420D01*
X8310920Y15312621D01*
X8260120Y15363420D01*
X7844039Y15450000D02*
X7894839Y15500800D01*
X7945639Y15450000D01*
X7894839Y15399200D01*
X7844039Y15450000D01*
X5105120Y15557500D02*
X5155920Y15608299D01*
X5206720Y15557500D01*
X5155920Y15506700D01*
X5105120Y15557500D01*
X4672938Y15673289D02*
X4723738Y15724089D01*
X4774538Y15673289D01*
X4723738Y15622488D01*
X4672938Y15673289D01*
X3387359Y18295000D02*
X3438159Y18345799D01*
X3488959Y18295000D01*
X3438159Y18244200D01*
X3387359Y18295000D01*
X3817619Y18180000D02*
X3868419Y18230800D01*
X3919219Y18180000D01*
X3868419Y18129201D01*
X3817619Y18180000D01*
X9485120Y17917500D02*
X9535920Y17968300D01*
X9586720Y17917500D01*
X9535920Y17866701D01*
X9485120Y17917500D01*
X9051700Y18027499D02*
X9102500Y18078300D01*
X9153300Y18027499D01*
X9102500Y17976700D01*
X9051700Y18027499D01*
X1518280Y14917500D02*
X1569080Y14968300D01*
X1619880Y14917500D01*
X1569080Y14866701D01*
X1518280Y14917500D01*
X1947620Y14800000D02*
X1998420Y14850800D01*
X2049220Y14800000D01*
X1998420Y14749200D01*
X1947620Y14800000D01*
X3845120Y15370000D02*
X3895920Y15420799D01*
X3946720Y15370000D01*
X3895920Y15319200D01*
X3845120Y15370000D01*
X3414200Y15482500D02*
X3465000Y15533299D01*
X3515800Y15482500D01*
X3465000Y15431700D01*
X3414200Y15482500D01*
X6569200Y15670000D02*
X6620000Y15720799D01*
X6670800Y15670000D01*
X6620000Y15619200D01*
X6569200Y15670000D01*
X6997616Y15564149D02*
X7048416Y15614949D01*
X7099216Y15564149D01*
X7048416Y15513348D01*
X6997616Y15564149D01*
X6367620Y15607500D02*
X6418420Y15658299D01*
X6469220Y15607500D01*
X6418420Y15556700D01*
X6367620Y15607500D01*
X5956700Y15647501D02*
X6007500Y15698302D01*
X6058300Y15647501D01*
X6007500Y15596701D01*
X5956700Y15647501D01*
X8423280Y18185001D02*
X8474080Y18235800D01*
X8524880Y18185001D01*
X8474080Y18134200D01*
X8423280Y18185001D01*
X8852620Y18067500D02*
X8903420Y18118300D01*
X8954220Y18067500D01*
X8903420Y18016701D01*
X8852620Y18067500D01*
X4018280Y18382500D02*
X4069080Y18433299D01*
X4119880Y18382500D01*
X4069080Y18331700D01*
X4018280Y18382500D01*
X4446700Y18268159D02*
X4497500Y18318961D01*
X4548300Y18268159D01*
X4497500Y18217360D01*
X4446700Y18268159D01*
X2133280Y18027499D02*
X2184080Y18078300D01*
X2234880Y18027499D01*
X2184080Y17976700D01*
X2133280Y18027499D01*
X2562620Y17912500D02*
X2613420Y17963300D01*
X2664220Y17912500D01*
X2613420Y17861700D01*
X2562620Y17912500D01*
X2155780Y15135001D02*
X2206580Y15185800D01*
X2257380Y15135001D01*
X2206580Y15084200D01*
X2155780Y15135001D01*
X2585120Y15020000D02*
X2635920Y15070799D01*
X2686720Y15020000D01*
X2635920Y14969200D01*
X2585120Y15020000D01*
X5290780Y18487500D02*
X5341580Y18538300D01*
X5392380Y18487500D01*
X5341580Y18436700D01*
X5290780Y18487500D01*
X5720120Y18370000D02*
X5770920Y18420799D01*
X5821720Y18370000D01*
X5770920Y18319200D01*
X5720120Y18370000D01*
X5736700Y15610001D02*
X5787500Y15660800D01*
X5838300Y15610001D01*
X5787500Y15559200D01*
X5736700Y15610001D01*
X5304860Y15725000D02*
X5355660Y15775800D01*
X5406460Y15725000D01*
X5355660Y15674200D01*
X5304860Y15725000D01*
X10117159Y17729836D02*
X10167959Y17780635D01*
X10218759Y17729836D01*
X10167959Y17679034D01*
X10117159Y17729836D01*
X9684200Y17832500D02*
X9735000Y17883299D01*
X9785800Y17832500D01*
X9735000Y17781700D01*
X9684200Y17832500D01*
X3190120Y18060001D02*
X3240920Y18110800D01*
X3291720Y18060001D01*
X3240920Y18009200D01*
X3190120Y18060001D01*
X2760780Y18175000D02*
X2811580Y18225800D01*
X2862380Y18175000D01*
X2811580Y18124200D01*
X2760780Y18175000D01*
X8220120Y18182500D02*
X8270920Y18233299D01*
X8321720Y18182500D01*
X8270920Y18131700D01*
X8220120Y18182500D01*
X7791540Y18287500D02*
X7842340Y18338300D01*
X7893140Y18287500D01*
X7842340Y18236700D01*
X7791540Y18287500D01*
X1314200Y17514999D02*
X1365000Y17565800D01*
X1415800Y17514999D01*
X1365000Y17464200D01*
X1314200Y17514999D01*
X887149Y17624318D02*
X937949Y17675117D01*
X988749Y17624318D01*
X937949Y17573518D01*
X887149Y17624318D01*
X4475120Y15477499D02*
X4525920Y15528300D01*
X4576720Y15477499D01*
X4525920Y15426700D01*
X4475120Y15477499D01*
X4051700Y15592500D02*
X4102500Y15643300D01*
X4153300Y15592500D01*
X4102500Y15541701D01*
X4051700Y15592500D01*
X6965120Y18337500D02*
X7015920Y18388300D01*
X7066720Y18337500D01*
X7015920Y18286700D01*
X6965120Y18337500D01*
X6544079Y18443846D02*
X6594879Y18494646D01*
X6645679Y18443846D01*
X6594879Y18393047D01*
X6544079Y18443846D01*
X6347620Y18367500D02*
X6398420Y18418301D01*
X6449220Y18367500D01*
X6398420Y18316701D01*
X6347620Y18367500D01*
X5918649Y18474757D02*
X5969449Y18525557D01*
X6020249Y18474757D01*
X5969449Y18423956D01*
X5918649Y18474757D01*
X11380119Y17280000D02*
X11430919Y17330800D01*
X11481719Y17280000D01*
X11430919Y17229201D01*
X11380119Y17280000D01*
X10939545Y17384715D02*
X10990345Y17435516D01*
X11041145Y17384715D01*
X10990345Y17333916D01*
X10939545Y17384715D01*
X686040Y17235921D02*
X736840Y17286720D01*
X787640Y17235921D01*
X736840Y17185120D01*
X686040Y17235921D01*
X254153Y17347807D02*
X304953Y17398608D01*
X355753Y17347807D01*
X304953Y17297008D01*
X254153Y17347807D01*
X5087620Y18342000D02*
X5138420Y18392799D01*
X5189220Y18342000D01*
X5138420Y18291200D01*
X5087620Y18342000D01*
X4651700Y18445000D02*
X4702500Y18495799D01*
X4753300Y18445000D01*
X4702500Y18394200D01*
X4651700Y18445000D01*
X10740120Y17539500D02*
X10790920Y17590300D01*
X10841720Y17539500D01*
X10790920Y17488699D01*
X10740120Y17539500D01*
X10315550Y17644833D02*
X10366350Y17695633D01*
X10417150Y17644833D01*
X10366350Y17594032D01*
X10315550Y17644833D01*
X7591700Y18262000D02*
X7642500Y18312801D01*
X7693300Y18262000D01*
X7642500Y18211200D01*
X7591700Y18262000D01*
X7164200Y18377499D02*
X7215000Y18428300D01*
X7265800Y18377499D01*
X7215000Y18326700D01*
X7164200Y18377499D01*
X8885120Y15214500D02*
X8935920Y15265300D01*
X8986720Y15214500D01*
X8935920Y15163699D01*
X8885120Y15214500D01*
X8466700Y15307501D02*
X8517500Y15358301D01*
X8568300Y15307501D01*
X8517500Y15256700D01*
X8466700Y15307501D01*
X6832587Y8153746D02*
X6883387Y8204546D01*
X6934187Y8153746D01*
X6883387Y8102946D01*
X6832587Y8153746D01*
X7971700Y8180000D02*
X8022500Y8230800D01*
X8073300Y8180000D01*
X8022500Y8129200D01*
X7971700Y8180000D01*
X7849200Y8572500D02*
X7900000Y8623300D01*
X7950800Y8572500D01*
X7900000Y8521700D01*
X7849200Y8572500D01*
X7784200Y8472500D02*
X7835000Y8523300D01*
X7885800Y8472500D01*
X7835000Y8421700D01*
X7784200Y8472500D01*
X8398915Y8479640D02*
X8449715Y8530440D01*
X8500515Y8479640D01*
X8449715Y8428840D01*
X8398915Y8479640D01*
X8072200Y8477500D02*
X8123000Y8528300D01*
X8173800Y8477500D01*
X8123000Y8426700D01*
X8072200Y8477500D01*
X8395780Y8632500D02*
X8446580Y8683300D01*
X8497380Y8632500D01*
X8446580Y8581700D01*
X8395780Y8632500D01*
X8056700Y8622500D02*
X8107500Y8673300D01*
X8158300Y8622500D01*
X8107500Y8571700D01*
X8056700Y8622500D01*
X8044226Y8165222D02*
X8095026Y8216022D01*
X8145826Y8165222D01*
X8095026Y8114422D01*
X8044226Y8165222D01*
X6409200Y7459500D02*
X6460000Y7510300D01*
X6510800Y7459500D01*
X6460000Y7408700D01*
X6409200Y7459500D01*
X844200Y4487500D02*
X895000Y4538300D01*
X945800Y4487500D01*
X895000Y4436700D01*
X844200Y4487500D01*
X7946700Y2957500D02*
X7997500Y3008300D01*
X8048300Y2957500D01*
X7997500Y2906700D01*
X7946700Y2957500D01*
X6830245Y5917107D02*
X6881045Y5967907D01*
X6931845Y5917107D01*
X6881045Y5866307D01*
X6830245Y5917107D01*
X7559200Y5827500D02*
X7610000Y5878300D01*
X7660800Y5827500D01*
X7610000Y5776700D01*
X7559200Y5827500D01*
X7646553Y5809853D02*
X7697353Y5860653D01*
X7748153Y5809853D01*
X7697353Y5759053D01*
X7646553Y5809853D01*
X7228757Y6115442D02*
X7279557Y6166242D01*
X7330357Y6115442D01*
X7279557Y6064642D01*
X7228757Y6115442D01*
X7254562Y6047155D02*
X7305362Y6097955D01*
X7356162Y6047155D01*
X7305362Y5996355D01*
X7254562Y6047155D01*
X3105700Y5259000D02*
X3156500Y5309800D01*
X3207300Y5259000D01*
X3156500Y5208200D01*
X3105700Y5259000D01*
X3068724Y5057976D02*
X3119524Y5108776D01*
X3170324Y5057976D01*
X3119524Y5007176D01*
X3068724Y5057976D01*
X3134200Y5442500D02*
X3185000Y5493300D01*
X3235800Y5442500D01*
X3185000Y5391700D01*
X3134200Y5442500D01*
X2111700Y4525000D02*
X2162500Y4575800D01*
X2213300Y4525000D01*
X2162500Y4474200D01*
X2111700Y4525000D01*
X6552652Y6595000D02*
X6603452Y6645800D01*
X6654252Y6595000D01*
X6603452Y6544200D01*
X6552652Y6595000D01*
X6596700Y6485000D02*
X6647500Y6535800D01*
X6698300Y6485000D01*
X6647500Y6434200D01*
X6596700Y6485000D01*
X4929200Y6212500D02*
X4980000Y6263300D01*
X5030800Y6212500D01*
X4980000Y6161700D01*
X4929200Y6212500D01*
X4926700Y6437500D02*
X4977500Y6488300D01*
X5028300Y6437500D01*
X4977500Y6386700D01*
X4926700Y6437500D01*
X5014200D02*
X5065000Y6488300D01*
X5115800Y6437500D01*
X5065000Y6386700D01*
X5014200Y6437500D01*
X3384200Y6332500D02*
X3435000Y6383300D01*
X3485800Y6332500D01*
X3435000Y6281700D01*
X3384200Y6332500D01*
X7073463Y6394501D02*
X7124263Y6445301D01*
X7175063Y6394501D01*
X7124263Y6343701D01*
X7073463Y6394501D01*
X6880030Y6582204D02*
X6930830Y6633004D01*
X6981630Y6582204D01*
X6930830Y6531404D01*
X6880030Y6582204D01*
X6261700Y7750000D02*
X6312500Y7800800D01*
X6363300Y7750000D01*
X6312500Y7699200D01*
X6261700Y7750000D01*
X6274200Y8045500D02*
X6325000Y8096300D01*
X6375800Y8045500D01*
X6325000Y7994700D01*
X6274200Y8045500D01*
X5989796Y8010462D02*
X6040596Y8061262D01*
X6091396Y8010462D01*
X6040596Y7959662D01*
X5989796Y8010462D01*
X6047297Y7965489D02*
X6098097Y8016289D01*
X6148897Y7965489D01*
X6098097Y7914689D01*
X6047297Y7965489D01*
X6116900Y7987500D02*
X6167700Y8038300D01*
X6218500Y7987500D01*
X6167700Y7936700D01*
X6116900Y7987500D01*
X6050224Y7892500D02*
X6101024Y7943300D01*
X6151824Y7892500D01*
X6101024Y7841700D01*
X6050224Y7892500D01*
X6441445Y7966358D02*
X6492245Y8017158D01*
X6543045Y7966358D01*
X6492245Y7915558D01*
X6441445Y7966358D01*
X5211700Y6995000D02*
X5262500Y7045800D01*
X5313300Y6995000D01*
X5262500Y6944200D01*
X5211700Y6995000D01*
X5279479Y6967889D02*
X5330279Y7018689D01*
X5381079Y6967889D01*
X5330279Y6917089D01*
X5279479Y6967889D01*
X5146700Y6852500D02*
X5197500Y6903300D01*
X5248300Y6852500D01*
X5197500Y6801700D01*
X5146700Y6852500D01*
X4994200Y6652500D02*
X5045000Y6703300D01*
X5095800Y6652500D01*
X5045000Y6601700D01*
X4994200Y6652500D01*
X3086700Y4505000D02*
X3137500Y4555800D01*
X3188300Y4505000D01*
X3137500Y4454200D01*
X3086700Y4505000D01*
X2904200Y4355000D02*
X2955000Y4405800D01*
X3005800Y4355000D01*
X2955000Y4304200D01*
X2904200Y4355000D01*
X2621700Y4245000D02*
X2672500Y4295800D01*
X2723300Y4245000D01*
X2672500Y4194200D01*
X2621700Y4245000D01*
X3940698Y8074500D02*
X3991498Y8125300D01*
X4042298Y8074500D01*
X3991498Y8023700D01*
X3940698Y8074500D01*
X4749200Y8041800D02*
X4800000Y8092600D01*
X4850800Y8041800D01*
X4800000Y7991000D01*
X4749200Y8041800D01*
X5374200Y7902500D02*
X5425000Y7953300D01*
X5475800Y7902500D01*
X5425000Y7851700D01*
X5374200Y7902500D01*
X3884200Y8160500D02*
X3935000Y8211300D01*
X3985800Y8160500D01*
X3935000Y8109700D01*
X3884200Y8160500D01*
X2916700Y7830500D02*
X2967500Y7881300D01*
X3018300Y7830500D01*
X2967500Y7779700D01*
X2916700Y7830500D01*
X2925025Y7748801D02*
X2975825Y7799601D01*
X3026625Y7748801D01*
X2975825Y7698001D01*
X2925025Y7748801D01*
X5307898Y878430D02*
X5358698Y929230D01*
X5409498Y878430D01*
X5358698Y827630D01*
X5307898Y878430D01*
X5274200Y1235000D02*
X5325000Y1285800D01*
X5375800Y1235000D01*
X5325000Y1184200D01*
X5274200Y1235000D01*
X8134200Y3247500D02*
X8185000Y3298300D01*
X8235800Y3247500D01*
X8185000Y3196700D01*
X8134200Y3247500D01*
X3879200Y1032500D02*
X3930000Y1083300D01*
X3980800Y1032500D01*
X3930000Y981700D01*
X3879200Y1032500D01*
X1046997Y4119266D02*
X1097797Y4170066D01*
X1148597Y4119266D01*
X1097797Y4068466D01*
X1046997Y4119266D01*
X9330433Y6840070D02*
X9381233Y6890870D01*
X9432033Y6840070D01*
X9381233Y6789270D01*
X9330433Y6840070D01*
X9428700Y6804024D02*
X9479500Y6854824D01*
X9530300Y6804024D01*
X9479500Y6753224D01*
X9428700Y6804024D01*
X9249422Y6798200D02*
X9300222Y6849000D01*
X9351022Y6798200D01*
X9300222Y6747400D01*
X9249422Y6798200D01*
X9146700Y6800000D02*
X9197500Y6850800D01*
X9248300Y6800000D01*
X9197500Y6749200D01*
X9146700Y6800000D01*
X9352259Y6648800D02*
X9403059Y6699600D01*
X9453859Y6648800D01*
X9403059Y6598000D01*
X9352259Y6648800D01*
X9203862Y6631035D02*
X9254662Y6681835D01*
X9305462Y6631035D01*
X9254662Y6580235D01*
X9203862Y6631035D01*
X8336700Y3082500D02*
X8387500Y3133300D01*
X8438300Y3082500D01*
X8387500Y3031700D01*
X8336700Y3082500D01*
X8211700Y3175000D02*
X8262500Y3225800D01*
X8313300Y3175000D01*
X8262500Y3124200D01*
X8211700Y3175000D01*
X5981700Y6905000D02*
X6032500Y6955800D01*
X6083300Y6905000D01*
X6032500Y6854200D01*
X5981700Y6905000D01*
X5984200Y7160000D02*
X6035000Y7210800D01*
X6085800Y7160000D01*
X6035000Y7109200D01*
X5984200Y7160000D01*
X6617066Y7199693D02*
X6667866Y7250494D01*
X6718666Y7199693D01*
X6667866Y7148893D01*
X6617066Y7199693D01*
X5791700Y6827500D02*
X5842500Y6878300D01*
X5893300Y6827500D01*
X5842500Y6776700D01*
X5791700Y6827500D01*
X6613911Y5981766D02*
X6664711Y6032566D01*
X6715511Y5981766D01*
X6664711Y5930966D01*
X6613911Y5981766D01*
X8166700Y3777500D02*
X8217500Y3828300D01*
X8268300Y3777500D01*
X8217500Y3726700D01*
X8166700Y3777500D01*
X4091700Y6542500D02*
X4142500Y6593300D01*
X4193300Y6542500D01*
X4142500Y6491700D01*
X4091700Y6542500D01*
X3324200Y6605000D02*
X3375000Y6655800D01*
X3425800Y6605000D01*
X3375000Y6554200D01*
X3324200Y6605000D01*
X3206700Y4167500D02*
X3257500Y4218300D01*
X3308300Y4167500D01*
X3257500Y4116700D01*
X3206700Y4167500D01*
X3280879Y4175345D02*
X3331679Y4226145D01*
X3382479Y4175345D01*
X3331679Y4124545D01*
X3280879Y4175345D01*
X2691695Y3613600D02*
X2742495Y3664400D01*
X2793295Y3613600D01*
X2742495Y3562800D01*
X2691695Y3613600D01*
X2741700Y3835000D02*
X2792500Y3885800D01*
X2843300Y3835000D01*
X2792500Y3784200D01*
X2741700Y3835000D01*
X3003743Y4087500D02*
X3054543Y4138300D01*
X3105343Y4087500D01*
X3054543Y4036700D01*
X3003743Y4087500D01*
X3076700Y4085000D02*
X3127500Y4135800D01*
X3178300Y4085000D01*
X3127500Y4034200D01*
X3076700Y4085000D01*
X2891700Y3852000D02*
X2942500Y3902800D01*
X2993300Y3852000D01*
X2942500Y3801200D01*
X2891700Y3852000D01*
X7759074Y5996380D02*
X7809874Y6047180D01*
X7860674Y5996380D01*
X7809874Y5945580D01*
X7759074Y5996380D01*
X7687711Y5981013D02*
X7738511Y6031813D01*
X7789311Y5981013D01*
X7738511Y5930213D01*
X7687711Y5981013D01*
X8487956Y4968450D02*
X8538756Y5019250D01*
X8589556Y4968450D01*
X8538756Y4917650D01*
X8487956Y4968450D01*
X8134200Y3507500D02*
X8185000Y3558300D01*
X8235800Y3507500D01*
X8185000Y3456700D01*
X8134200Y3507500D01*
X10569200Y4037500D02*
X10620000Y4088300D01*
X10670800Y4037500D01*
X10620000Y3986700D01*
X10569200Y4037500D01*
X8599200Y3787500D02*
X8650000Y3838300D01*
X8700800Y3787500D01*
X8650000Y3736700D01*
X8599200Y3787500D01*
X9511700Y4370000D02*
X9562500Y4420800D01*
X9613300Y4370000D01*
X9562500Y4319200D01*
X9511700Y4370000D01*
X9756700Y4382500D02*
X9807500Y4433300D01*
X9858300Y4382500D01*
X9807500Y4331700D01*
X9756700Y4382500D01*
X10445472Y4355500D02*
X10496272Y4406300D01*
X10547072Y4355500D01*
X10496272Y4304700D01*
X10445472Y4355500D01*
X7509200Y6320000D02*
X7560000Y6370800D01*
X7610800Y6320000D01*
X7560000Y6269200D01*
X7509200Y6320000D01*
X7569200Y6267500D02*
X7620000Y6318300D01*
X7670800Y6267500D01*
X7620000Y6216700D01*
X7569200Y6267500D01*
X8489438Y4887738D02*
X8540238Y4938538D01*
X8591038Y4887738D01*
X8540238Y4836938D01*
X8489438Y4887738D01*
X8451700Y5967500D02*
X8502500Y6018300D01*
X8553300Y5967500D01*
X8502500Y5916700D01*
X8451700Y5967500D01*
X8636722Y4129502D02*
X8687522Y4180302D01*
X8738322Y4129502D01*
X8687522Y4078702D01*
X8636722Y4129502D01*
X8537076Y4737754D02*
X8587876Y4788554D01*
X8638676Y4737754D01*
X8587876Y4686954D01*
X8537076Y4737754D01*
X8206700Y4740000D02*
X8257500Y4790800D01*
X8308300Y4740000D01*
X8257500Y4689200D01*
X8206700Y4740000D01*
X8761700Y4117500D02*
X8812500Y4168300D01*
X8863300Y4117500D01*
X8812500Y4066700D01*
X8761700Y4117500D01*
X4826700Y7607500D02*
X4877500Y7658300D01*
X4928300Y7607500D01*
X4877500Y7556700D01*
X4826700Y7607500D01*
X4581700Y7620000D02*
X4632500Y7670800D01*
X4683300Y7620000D01*
X4632500Y7569200D01*
X4581700Y7620000D01*
X2160400Y7670000D02*
X2211200Y7720800D01*
X2262000Y7670000D01*
X2211200Y7619200D01*
X2160400Y7670000D01*
X3571700Y7510000D02*
X3622500Y7560800D01*
X3673300Y7510000D01*
X3622500Y7459200D01*
X3571700Y7510000D01*
X3519385Y7718654D02*
X3570185Y7769454D01*
X3620985Y7718654D01*
X3570185Y7667854D01*
X3519385Y7718654D01*
X3515591Y7281391D02*
X3566391Y7332191D01*
X3617191Y7281391D01*
X3566391Y7230591D01*
X3515591Y7281391D01*
X3396700Y7275000D02*
X3447500Y7325800D01*
X3498300Y7275000D01*
X3447500Y7224200D01*
X3396700Y7275000D01*
X3314200Y7272500D02*
X3365000Y7323300D01*
X3415800Y7272500D01*
X3365000Y7221700D01*
X3314200Y7272500D01*
X2816700Y7432500D02*
X2867500Y7483300D01*
X2918300Y7432500D01*
X2867500Y7381700D01*
X2816700Y7432500D01*
X4475184Y7282781D02*
X4525984Y7333581D01*
X4576784Y7282781D01*
X4525984Y7231981D01*
X4475184Y7282781D01*
X4941700Y7287500D02*
X4992500Y7338300D01*
X5043300Y7287500D01*
X4992500Y7236700D01*
X4941700Y7287500D01*
X4569200Y7222500D02*
X4620000Y7273300D01*
X4670800Y7222500D01*
X4620000Y7171700D01*
X4569200Y7222500D01*
X5234200Y6800000D02*
X5285000Y6850800D01*
X5335800Y6800000D01*
X5285000Y6749200D01*
X5234200Y6800000D01*
X5514700Y7637500D02*
X5565500Y7688300D01*
X5616300Y7637500D01*
X5565500Y7586700D01*
X5514700Y7637500D01*
X2759200Y7290000D02*
X2810000Y7340800D01*
X2860800Y7290000D01*
X2810000Y7239200D01*
X2759200Y7290000D01*
X5441700Y7347500D02*
X5492500Y7398300D01*
X5543300Y7347500D01*
X5492500Y7296700D01*
X5441700Y7347500D01*
X6206700Y7587500D02*
X6257500Y7638300D01*
X6308300Y7587500D01*
X6257500Y7536700D01*
X6206700Y7587500D01*
X5011700Y5980000D02*
X5062500Y6030800D01*
X5113300Y5980000D01*
X5062500Y5929200D01*
X5011700Y5980000D01*
X5081700Y6595000D02*
X5132500Y6645800D01*
X5183300Y6595000D01*
X5132500Y6544200D01*
X5081700Y6595000D01*
X6401700Y6940000D02*
X6452500Y6990800D01*
X6503300Y6940000D01*
X6452500Y6889200D01*
X6401700Y6940000D01*
X3749200Y4185000D02*
X3800000Y4235800D01*
X3850800Y4185000D01*
X3800000Y4134200D01*
X3749200Y4185000D01*
X3544200Y3957500D02*
X3595000Y4008300D01*
X3645800Y3957500D01*
X3595000Y3906700D01*
X3544200Y3957500D01*
X3568700Y4267500D02*
X3619500Y4318300D01*
X3670300Y4267500D01*
X3619500Y4216700D01*
X3568700Y4267500D01*
X8381700Y7175000D02*
X8432500Y7225800D01*
X8483300Y7175000D01*
X8432500Y7124200D01*
X8381700Y7175000D01*
X3369200Y4260000D02*
X3420000Y4310800D01*
X3470800Y4260000D01*
X3420000Y4209200D01*
X3369200Y4260000D01*
X3474200Y4265000D02*
X3525000Y4315800D01*
X3575800Y4265000D01*
X3525000Y4214200D01*
X3474200Y4265000D01*
X9606217Y3418858D02*
X9657017Y3469658D01*
X9707817Y3418858D01*
X9657017Y3368058D01*
X9606217Y3418858D01*
X6696700Y8150000D02*
X6747500Y8200800D01*
X6798300Y8150000D01*
X6747500Y8099200D01*
X6696700Y8150000D01*
X6744200Y6462500D02*
X6795000Y6513300D01*
X6845800Y6462500D01*
X6795000Y6411700D01*
X6744200Y6462500D01*
X8516700Y5875000D02*
X8567500Y5925800D01*
X8618300Y5875000D01*
X8567500Y5824200D01*
X8516700Y5875000D01*
X6991700Y6345000D02*
X7042500Y6395800D01*
X7093300Y6345000D01*
X7042500Y6294200D01*
X6991700Y6345000D01*
X8946700Y6707500D02*
X8997500Y6758300D01*
X9048300Y6707500D01*
X8997500Y6656700D01*
X8946700Y6707500D01*
X8806938Y6992262D02*
X8857738Y7043062D01*
X8908538Y6992262D01*
X8857738Y6941462D01*
X8806938Y6992262D01*
X8592335Y7034955D02*
X8643135Y7085755D01*
X8693935Y7034955D01*
X8643135Y6984155D01*
X8592335Y7034955D01*
X8863670Y6658497D02*
X8914470Y6709297D01*
X8965270Y6658497D01*
X8914470Y6607697D01*
X8863670Y6658497D01*
X8407544Y6487787D02*
X8458344Y6538587D01*
X8509144Y6487787D01*
X8458344Y6436987D01*
X8407544Y6487787D01*
X8349200Y4600000D02*
X8400000Y4650800D01*
X8450800Y4600000D01*
X8400000Y4549200D01*
X8349200Y4600000D01*
X8386700Y4307500D02*
X8437500Y4358300D01*
X8488300Y4307500D01*
X8437500Y4256700D01*
X8386700Y4307500D01*
X8186700Y4490000D02*
X8237500Y4540800D01*
X8288300Y4490000D01*
X8237500Y4439200D01*
X8186700Y4490000D01*
X8746700Y7475000D02*
X8797500Y7525800D01*
X8848300Y7475000D01*
X8797500Y7424200D01*
X8746700Y7475000D01*
X5294200Y6305000D02*
X5345000Y6355800D01*
X5395800Y6305000D01*
X5345000Y6254200D01*
X5294200Y6305000D01*
X4294200Y6892500D02*
X4345000Y6943300D01*
X4395800Y6892500D01*
X4345000Y6841700D01*
X4294200Y6892500D01*
X4318220Y7530000D02*
X4369020Y7580800D01*
X4419820Y7530000D01*
X4369020Y7479200D01*
X4318220Y7530000D01*
X3264200Y7052500D02*
X3315000Y7103300D01*
X3365800Y7052500D01*
X3315000Y7001700D01*
X3264200Y7052500D01*
X4514200Y6627500D02*
X4565000Y6678300D01*
X4615800Y6627500D01*
X4565000Y6576700D01*
X4514200Y6627500D01*
X4619525Y6638183D02*
X4670325Y6688983D01*
X4721125Y6638183D01*
X4670325Y6587383D01*
X4619525Y6638183D01*
X3537963Y7789250D02*
X3588763Y7840050D01*
X3639563Y7789250D01*
X3588763Y7738450D01*
X3537963Y7789250D01*
X3166700Y7912000D02*
X3217500Y7962800D01*
X3268300Y7912000D01*
X3217500Y7861200D01*
X3166700Y7912000D01*
X3023700Y7899696D02*
X3074500Y7950496D01*
X3125300Y7899696D01*
X3074500Y7848896D01*
X3023700Y7899696D01*
X6436448Y7603266D02*
X6487248Y7654066D01*
X6538048Y7603266D01*
X6487248Y7552466D01*
X6436448Y7603266D01*
X8184200Y7091000D02*
X8235000Y7141800D01*
X8285800Y7091000D01*
X8235000Y7040200D01*
X8184200Y7091000D01*
X9049200Y6812500D02*
X9100000Y6863300D01*
X9150800Y6812500D01*
X9100000Y6761700D01*
X9049200Y6812500D01*
X9001700Y6922500D02*
X9052500Y6973300D01*
X9103300Y6922500D01*
X9052500Y6871700D01*
X9001700Y6922500D01*
X8151700Y6812000D02*
X8202500Y6862800D01*
X8253300Y6812000D01*
X8202500Y6761200D01*
X8151700Y6812000D01*
X6656700D02*
X6707500Y6862800D01*
X6758300Y6812000D01*
X6707500Y6761200D01*
X6656700Y6812000D01*
X8134200Y6642000D02*
X8185000Y6692800D01*
X8235800Y6642000D01*
X8185000Y6591200D01*
X8134200Y6642000D01*
X8581700Y6870000D02*
X8632500Y6920800D01*
X8683300Y6870000D01*
X8632500Y6819200D01*
X8581700Y6870000D01*
X6494200Y6817500D02*
X6545000Y6868300D01*
X6595800Y6817500D01*
X6545000Y6766700D01*
X6494200Y6817500D01*
X5429200Y6703000D02*
X5480000Y6753800D01*
X5530800Y6703000D01*
X5480000Y6652200D01*
X5429200Y6703000D01*
X7599200Y6550000D02*
X7650000Y6600800D01*
X7700800Y6550000D01*
X7650000Y6499200D01*
X7599200Y6550000D01*
X8366700Y6870000D02*
X8417500Y6920800D01*
X8468300Y6870000D01*
X8417500Y6819200D01*
X8366700Y6870000D01*
X7498172Y6547039D02*
X7548972Y6597839D01*
X7599772Y6547039D01*
X7548972Y6496239D01*
X7498172Y6547039D01*
X7296700Y6512500D02*
X7347500Y6563300D01*
X7398300Y6512500D01*
X7347500Y6461700D01*
X7296700Y6512500D01*
X9214200Y7127500D02*
X9265000Y7178300D01*
X9315800Y7127500D01*
X9265000Y7076700D01*
X9214200Y7127500D01*
X8509200Y6515000D02*
X8560000Y6565800D01*
X8610800Y6515000D01*
X8560000Y6464200D01*
X8509200Y6515000D01*
X8729200Y8055000D02*
X8780000Y8105800D01*
X8830800Y8055000D01*
X8780000Y8004200D01*
X8729200Y8055000D01*
X9848388Y7307225D02*
X9899188Y7358025D01*
X9949988Y7307225D01*
X9899188Y7256425D01*
X9848388Y7307225D01*
X9806525Y7247250D02*
X9857325Y7298050D01*
X9908125Y7247250D01*
X9857325Y7196450D01*
X9806525Y7247250D01*
X8187846Y8233935D02*
X8238646Y8284735D01*
X8289446Y8233935D01*
X8238646Y8183135D01*
X8187846Y8233935D01*
X8184200Y8361000D02*
X8235000Y8411800D01*
X8285800Y8361000D01*
X8235000Y8310200D01*
X8184200Y8361000D01*
X6394200Y7210000D02*
X6445000Y7260800D01*
X6495800Y7210000D01*
X6445000Y7159200D01*
X6394200Y7210000D01*
X6391700Y7090000D02*
X6442500Y7140800D01*
X6493300Y7090000D01*
X6442500Y7039200D01*
X6391700Y7090000D01*
X4601700Y7959500D02*
X4652500Y8010300D01*
X4703300Y7959500D01*
X4652500Y7908700D01*
X4601700Y7959500D01*
X4874200Y7944500D02*
X4925000Y7995300D01*
X4975800Y7944500D01*
X4925000Y7893700D01*
X4874200Y7944500D01*
X3424200Y8380000D02*
X3475000Y8430800D01*
X3525800Y8380000D01*
X3475000Y8329200D01*
X3424200Y8380000D01*
X3781700Y8332500D02*
X3832500Y8383300D01*
X3883300Y8332500D01*
X3832500Y8281700D01*
X3781700Y8332500D01*
X3719200Y8397500D02*
X3770000Y8448300D01*
X3820800Y8397500D01*
X3770000Y8346700D01*
X3719200Y8397500D01*
X5640420Y8164500D02*
X5691220Y8215300D01*
X5742020Y8164500D01*
X5691220Y8113700D01*
X5640420Y8164500D01*
X7979816Y1744488D02*
X8030616Y1795288D01*
X8081416Y1744488D01*
X8030616Y1693688D01*
X7979816Y1744488D01*
X7584200Y1267500D02*
X7635000Y1318300D01*
X7685800Y1267500D01*
X7635000Y1216700D01*
X7584200Y1267500D01*
X7372700Y1420150D02*
Y1521750D01*
X7474300D01*
Y1420150D01*
X7372700D01*
X7393020Y1440470D02*
Y1501430D01*
X7453980D01*
Y1440470D01*
X7393020D01*
X7396700Y635000D02*
X7447500Y685800D01*
X7498300Y635000D01*
X7447500Y584200D01*
X7396700Y635000D01*
X8194200Y715000D02*
X8245000Y765800D01*
X8295800Y715000D01*
X8245000Y664200D01*
X8194200Y715000D01*
X7646700Y635000D02*
X7697500Y685800D01*
X7748300Y635000D01*
X7697500Y584200D01*
X7646700Y635000D01*
X4633263Y562082D02*
X4684063Y612882D01*
X4734863Y562082D01*
X4684063Y511282D01*
X4633263Y562082D01*
X3391700Y895000D02*
X3442500Y945800D01*
X3493300Y895000D01*
X3442500Y844200D01*
X3391700Y895000D01*
X4581700Y720000D02*
X4632500Y770800D01*
X4683300Y720000D01*
X4632500Y669200D01*
X4581700Y720000D01*
X4752723Y1225076D02*
X4803523Y1275876D01*
X4854323Y1225076D01*
X4803523Y1174276D01*
X4752723Y1225076D01*
D133*
X4266300Y8690000D02*
G03*
X4266300Y8690000I-50800J0D01*
G01*
X5390300D02*
G03*
X5390300Y8690000I-50800J0D01*
G01*
%TF.MD5,aee84c76cf721c904f460a8972a60943*%
M02*
