%TF.GenerationSoftware,Altium Limited,Altium Designer,21.7.2 (23)*%
G04 Layer_Color=8388736*
%FSLAX25Y25*%
%MOIN*%
%TF.SameCoordinates,95A22525-32A0-4EEE-A0C0-36F8BD1EB9D1*%
%TF.FilePolarity,Negative*%
%TF.FileFunction,Soldermask,Top*%
%TF.Part,Single*%
G01*
G75*
%TA.AperFunction,ViaPad*%
%ADD60O,0.08674X0.16548*%
%ADD61O,0.16548X0.08674*%
%TA.AperFunction,ComponentPad*%
%ADD62C,0.06706*%
%ADD63R,0.05131X0.05131*%
%ADD64C,0.05131*%
%TA.AperFunction,ViaPad*%
%ADD65C,0.16548*%
G04:AMPARAMS|DCode=66|XSize=165.48mil|YSize=126.11mil|CornerRadius=33.53mil|HoleSize=0mil|Usage=FLASHONLY|Rotation=90.000|XOffset=0mil|YOffset=0mil|HoleType=Round|Shape=RoundedRectangle|*
%AMROUNDEDRECTD66*
21,1,0.16548,0.05906,0,0,90.0*
21,1,0.09843,0.12611,0,0,90.0*
1,1,0.06706,0.02953,0.04921*
1,1,0.06706,0.02953,-0.04921*
1,1,0.06706,-0.02953,-0.04921*
1,1,0.06706,-0.02953,0.04921*
%
%ADD66ROUNDEDRECTD66*%
%ADD67O,0.24422X0.16548*%
%TA.AperFunction,SMDPad,CuDef*%
%ADD71R,0.03162X0.03300*%
%ADD72R,0.03300X0.03162*%
%ADD73R,0.04600X0.04737*%
%ADD74R,0.09855X0.14580*%
%ADD75R,0.03359X0.04934*%
%ADD76R,0.06706X0.05300*%
%ADD77R,0.02769X0.05032*%
%TA.AperFunction,ConnectorPad*%
%ADD78R,0.02572X0.06233*%
%ADD79R,0.06410X0.06902*%
%ADD80R,0.07296X0.05918*%
%ADD81R,0.07887X0.08280*%
%ADD82R,0.04737X0.08280*%
%TA.AperFunction,SMDPad,CuDef*%
%ADD83R,0.01981X0.03162*%
%ADD84R,0.03162X0.01981*%
%ADD85R,0.07099X0.03162*%
%ADD86R,0.07887X0.05524*%
%ADD87R,0.06800X0.08674*%
%ADD88R,0.11469X0.14186*%
%ADD89R,0.06804X0.03359*%
%ADD90R,0.14186X0.11469*%
%ADD91R,0.03359X0.06804*%
%ADD92R,0.08674X0.06800*%
%ADD93R,0.01981X0.02670*%
%ADD94R,0.09843X0.05118*%
%ADD95R,0.10630X0.03543*%
G04:AMPARAMS|DCode=96|XSize=47.24mil|YSize=86.61mil|CornerRadius=13.78mil|HoleSize=0mil|Usage=FLASHONLY|Rotation=0.000|XOffset=0mil|YOffset=0mil|HoleType=Round|Shape=RoundedRectangle|*
%AMROUNDEDRECTD96*
21,1,0.04724,0.05906,0,0,0.0*
21,1,0.01968,0.08661,0,0,0.0*
1,1,0.02756,0.00984,-0.02953*
1,1,0.02756,-0.00984,-0.02953*
1,1,0.02756,-0.00984,0.02953*
1,1,0.02756,0.00984,0.02953*
%
%ADD96ROUNDEDRECTD96*%
%ADD97R,0.06706X0.04343*%
%ADD98R,0.04343X0.06706*%
%TA.AperFunction,BGAPad,CuDef*%
%ADD99R,0.04343X0.04343*%
%TA.AperFunction,ConnectorPad*%
%ADD100R,0.07887X0.09461*%
%ADD101R,0.01981X0.05918*%
%TA.AperFunction,SMDPad,CuDef*%
%ADD102R,0.06509X0.13595*%
%ADD103R,0.06509X0.04540*%
%ADD104R,0.05524X0.07887*%
%ADD105R,0.03162X0.07099*%
D60*
X376969Y135039D02*
D03*
X243406Y46260D02*
D03*
X416339Y80709D02*
D03*
X243504Y77658D02*
D03*
D61*
X243602Y148228D02*
D03*
X226575Y8071D02*
D03*
X578740Y74803D02*
D03*
X543307D02*
D03*
X578740Y102362D02*
D03*
X543307D02*
D03*
X578740Y131890D02*
D03*
X543307D02*
D03*
X11811Y74803D02*
D03*
X47244D02*
D03*
Y102362D02*
D03*
X11811D02*
D03*
X47244Y131890D02*
D03*
X11811D02*
D03*
D62*
X377402Y45138D02*
D03*
X387402D02*
D03*
X377402Y35138D02*
D03*
X387402D02*
D03*
X377402Y25138D02*
D03*
X387402D02*
D03*
D63*
X159449Y64567D02*
D03*
D64*
Y74410D02*
D03*
D65*
X578740Y118110D02*
D03*
X543307D02*
D03*
X11811D02*
D03*
X47244D02*
D03*
X578740Y86614D02*
D03*
X543307D02*
D03*
X578740Y62992D02*
D03*
X543307D02*
D03*
X118110Y19685D02*
D03*
X543307Y27559D02*
D03*
X578740D02*
D03*
X543307Y11811D02*
D03*
X578740D02*
D03*
X47244Y27559D02*
D03*
X11811D02*
D03*
X47244Y86614D02*
D03*
X11811D02*
D03*
Y62992D02*
D03*
X47244D02*
D03*
Y11811D02*
D03*
X11811D02*
D03*
X456693Y19685D02*
D03*
Y118110D02*
D03*
X472441Y19685D02*
D03*
Y118110D02*
D03*
X133858Y19685D02*
D03*
Y118110D02*
D03*
X118110D02*
D03*
D66*
X470472Y92520D02*
D03*
X458661D02*
D03*
X131890D02*
D03*
X120079D02*
D03*
X470472Y43307D02*
D03*
X458661D02*
D03*
X131890D02*
D03*
X120079D02*
D03*
D67*
X578740Y45276D02*
D03*
X543307D02*
D03*
X11811D02*
D03*
X47244D02*
D03*
D71*
X101870Y65220D02*
D03*
Y69820D02*
D03*
X263976Y81962D02*
D03*
Y77362D02*
D03*
X261221Y27533D02*
D03*
Y22933D02*
D03*
X261319Y13842D02*
D03*
Y18442D02*
D03*
X268701Y95250D02*
D03*
Y90650D02*
D03*
X269291Y21788D02*
D03*
Y17188D02*
D03*
X381004Y74347D02*
D03*
Y69747D02*
D03*
X376969Y74347D02*
D03*
Y69747D02*
D03*
X380709Y90515D02*
D03*
Y95115D02*
D03*
X385433Y90417D02*
D03*
Y95016D02*
D03*
X96457Y102424D02*
D03*
Y107024D02*
D03*
X186221Y101906D02*
D03*
Y97306D02*
D03*
X181102D02*
D03*
Y101906D02*
D03*
X236811Y95079D02*
D03*
Y99679D02*
D03*
X241634Y95079D02*
D03*
Y99679D02*
D03*
X246457Y95141D02*
D03*
Y99741D02*
D03*
X251279Y95141D02*
D03*
Y99741D02*
D03*
X262205Y90712D02*
D03*
Y95312D02*
D03*
D72*
X386479Y105315D02*
D03*
X391079D02*
D03*
X234547Y120177D02*
D03*
X229947D02*
D03*
X270042Y72146D02*
D03*
X274642D02*
D03*
X274606Y66929D02*
D03*
X270006D02*
D03*
X393468Y82382D02*
D03*
X398068D02*
D03*
X393468Y78347D02*
D03*
X398068D02*
D03*
X421778Y105512D02*
D03*
X426378D02*
D03*
X201942Y148425D02*
D03*
X197343D02*
D03*
X186676Y106299D02*
D03*
X191276D02*
D03*
X173291Y91732D02*
D03*
X177891D02*
D03*
X173291Y86614D02*
D03*
X177891D02*
D03*
X121690Y60138D02*
D03*
X117090D02*
D03*
X121653Y67815D02*
D03*
X117053D02*
D03*
X262402Y37106D02*
D03*
X267002D02*
D03*
X266965Y42520D02*
D03*
X262365D02*
D03*
D73*
X134007Y60236D02*
D03*
X127607D02*
D03*
X134204Y67716D02*
D03*
X127804D02*
D03*
X215798Y58268D02*
D03*
X209398D02*
D03*
X184151Y77953D02*
D03*
X190551D02*
D03*
D74*
X218898Y96063D02*
D03*
X195276D02*
D03*
D75*
X244094Y11614D02*
D03*
Y27953D02*
D03*
X252559Y11614D02*
D03*
Y27953D02*
D03*
X253248Y52953D02*
D03*
Y69291D02*
D03*
X261713Y52953D02*
D03*
Y69291D02*
D03*
D76*
X429134Y32027D02*
D03*
Y39627D02*
D03*
X409449Y32421D02*
D03*
Y40020D02*
D03*
D77*
X418110Y30858D02*
D03*
Y40008D02*
D03*
D78*
X418504Y22795D02*
D03*
X421063D02*
D03*
X423622D02*
D03*
X426181D02*
D03*
X428740D02*
D03*
D79*
X413831Y22461D02*
D03*
X433413D02*
D03*
D80*
X410335Y12323D02*
D03*
X436909D02*
D03*
D81*
X419095D02*
D03*
D82*
X429724D02*
D03*
D83*
X381496Y85532D02*
D03*
X383465D02*
D03*
X385433D02*
D03*
Y78445D02*
D03*
X383465D02*
D03*
X381496D02*
D03*
D84*
X387992Y84941D02*
D03*
Y82972D02*
D03*
Y81004D02*
D03*
Y79035D02*
D03*
X378937D02*
D03*
Y81004D02*
D03*
Y82972D02*
D03*
Y84941D02*
D03*
D85*
X428740Y117323D02*
D03*
Y125197D02*
D03*
Y121260D02*
D03*
X194980Y140157D02*
D03*
Y132283D02*
D03*
Y136221D02*
D03*
D86*
X438583Y112402D02*
D03*
Y130118D02*
D03*
X185138Y145079D02*
D03*
Y127362D02*
D03*
D87*
X407767Y134252D02*
D03*
X421367D02*
D03*
X415068Y102756D02*
D03*
X401468D02*
D03*
X208259Y152756D02*
D03*
X221859D02*
D03*
X214772Y122047D02*
D03*
X201172D02*
D03*
X180995Y59842D02*
D03*
X194595D02*
D03*
X180995Y70079D02*
D03*
X194595D02*
D03*
X219005Y76378D02*
D03*
X205405D02*
D03*
X219005Y66142D02*
D03*
X205405D02*
D03*
D88*
X403937Y118504D02*
D03*
X218602Y137795D02*
D03*
D89*
X414614Y126004D02*
D03*
Y121004D02*
D03*
Y116004D02*
D03*
Y111004D02*
D03*
X393260D02*
D03*
Y116004D02*
D03*
Y121004D02*
D03*
Y126004D02*
D03*
X207925Y130295D02*
D03*
Y135295D02*
D03*
Y140295D02*
D03*
Y145295D02*
D03*
X229279D02*
D03*
Y140295D02*
D03*
Y135295D02*
D03*
Y130295D02*
D03*
D90*
X86221Y85039D02*
D03*
D91*
X78720Y95717D02*
D03*
X83720D02*
D03*
X88721D02*
D03*
X93721D02*
D03*
Y74362D02*
D03*
X88721D02*
D03*
X83720D02*
D03*
X78720D02*
D03*
D92*
X70472Y89657D02*
D03*
Y103257D02*
D03*
X101575Y95669D02*
D03*
Y82069D02*
D03*
D93*
X182480Y89913D02*
D03*
X184449D02*
D03*
X186417D02*
D03*
X188386D02*
D03*
Y83315D02*
D03*
X186417D02*
D03*
X184449D02*
D03*
X182480D02*
D03*
D94*
X203937Y38976D02*
D03*
Y16142D02*
D03*
D95*
X212598Y24606D02*
D03*
Y30512D02*
D03*
D96*
X154291Y47028D02*
D03*
X164291D02*
D03*
X174291D02*
D03*
X184291D02*
D03*
Y12028D02*
D03*
X174291D02*
D03*
X164291D02*
D03*
X154291D02*
D03*
D97*
X281693Y88425D02*
D03*
Y83425D02*
D03*
Y78425D02*
D03*
Y73425D02*
D03*
Y68425D02*
D03*
Y63425D02*
D03*
Y58425D02*
D03*
Y53425D02*
D03*
Y48425D02*
D03*
Y43425D02*
D03*
Y38425D02*
D03*
Y33425D02*
D03*
Y28425D02*
D03*
Y23425D02*
D03*
X350590D02*
D03*
Y28425D02*
D03*
Y33425D02*
D03*
Y38425D02*
D03*
Y43425D02*
D03*
Y48425D02*
D03*
Y53425D02*
D03*
Y58425D02*
D03*
Y63425D02*
D03*
Y68425D02*
D03*
Y73425D02*
D03*
Y78425D02*
D03*
Y83425D02*
D03*
Y88425D02*
D03*
D98*
X288642Y18504D02*
D03*
X293642D02*
D03*
X298642D02*
D03*
X303642D02*
D03*
X308642D02*
D03*
X313642D02*
D03*
X318642D02*
D03*
X323642D02*
D03*
X328642D02*
D03*
X333642D02*
D03*
X338642D02*
D03*
X343642D02*
D03*
D99*
X310236Y58031D02*
D03*
X304724Y63543D02*
D03*
Y58031D02*
D03*
Y52520D02*
D03*
X310236D02*
D03*
X315748D02*
D03*
Y58031D02*
D03*
Y63543D02*
D03*
X310236D02*
D03*
D100*
X261122Y151181D02*
D03*
X297736D02*
D03*
X323327Y151575D02*
D03*
X359941D02*
D03*
D101*
X268602Y138386D02*
D03*
X270571D02*
D03*
X272539D02*
D03*
X274508D02*
D03*
X276476D02*
D03*
X278445D02*
D03*
X280413D02*
D03*
X282382D02*
D03*
X284350D02*
D03*
X286319D02*
D03*
X288287D02*
D03*
X290256D02*
D03*
X330807Y138779D02*
D03*
X332776D02*
D03*
X334744D02*
D03*
X336713D02*
D03*
X338681D02*
D03*
X340650D02*
D03*
X342618D02*
D03*
X344587D02*
D03*
X346555D02*
D03*
X348524D02*
D03*
X350492D02*
D03*
X352461D02*
D03*
D102*
X442126Y56693D02*
D03*
D103*
X416142Y47677D02*
D03*
Y56693D02*
D03*
Y65709D02*
D03*
D104*
X75000Y120866D02*
D03*
X92716D02*
D03*
D105*
X83858Y111024D02*
D03*
X79921D02*
D03*
X87795D02*
D03*
%TF.MD5,9e0ad702eb5819425ca9c002c6bae8fb*%
M02*
