%TF.GenerationSoftware,Altium Limited,Altium Designer,21.7.2 (23)*%
G04 Layer_Color=16711935*
%FSLAX25Y25*%
%MOIN*%
%TF.SameCoordinates,95A22525-32A0-4EEE-A0C0-36F8BD1EB9D1*%
%TF.FilePolarity,Negative*%
%TF.FileFunction,Soldermask,Bot*%
%TF.Part,Single*%
G01*
G75*
%TA.AperFunction,ViaPad*%
%ADD60O,0.08674X0.16548*%
%ADD61O,0.16548X0.08674*%
%TA.AperFunction,ComponentPad*%
%ADD62C,0.06706*%
%ADD63R,0.05131X0.05131*%
%ADD64C,0.05131*%
%TA.AperFunction,ViaPad*%
%ADD65C,0.16548*%
G04:AMPARAMS|DCode=66|XSize=165.48mil|YSize=126.11mil|CornerRadius=33.53mil|HoleSize=0mil|Usage=FLASHONLY|Rotation=90.000|XOffset=0mil|YOffset=0mil|HoleType=Round|Shape=RoundedRectangle|*
%AMROUNDEDRECTD66*
21,1,0.16548,0.05906,0,0,90.0*
21,1,0.09843,0.12611,0,0,90.0*
1,1,0.06706,0.02953,0.04921*
1,1,0.06706,0.02953,-0.04921*
1,1,0.06706,-0.02953,-0.04921*
1,1,0.06706,-0.02953,0.04921*
%
%ADD66ROUNDEDRECTD66*%
%ADD67O,0.24422X0.16548*%
D60*
X376969Y135039D02*
D03*
X243406Y46260D02*
D03*
X416339Y80709D02*
D03*
X243504Y77658D02*
D03*
D61*
X243602Y148228D02*
D03*
X226575Y8071D02*
D03*
X578740Y74803D02*
D03*
X543307D02*
D03*
X578740Y102362D02*
D03*
X543307D02*
D03*
X578740Y131890D02*
D03*
X543307D02*
D03*
X11811Y74803D02*
D03*
X47244D02*
D03*
Y102362D02*
D03*
X11811D02*
D03*
X47244Y131890D02*
D03*
X11811D02*
D03*
D62*
X377402Y45138D02*
D03*
X387402D02*
D03*
X377402Y35138D02*
D03*
X387402D02*
D03*
X377402Y25138D02*
D03*
X387402D02*
D03*
D63*
X159449Y64567D02*
D03*
D64*
Y74410D02*
D03*
D65*
X578740Y118110D02*
D03*
X543307D02*
D03*
X11811D02*
D03*
X47244D02*
D03*
X578740Y86614D02*
D03*
X543307D02*
D03*
X578740Y62992D02*
D03*
X543307D02*
D03*
X118110Y19685D02*
D03*
X543307Y27559D02*
D03*
X578740D02*
D03*
X543307Y11811D02*
D03*
X578740D02*
D03*
X47244Y27559D02*
D03*
X11811D02*
D03*
X47244Y86614D02*
D03*
X11811D02*
D03*
Y62992D02*
D03*
X47244D02*
D03*
Y11811D02*
D03*
X11811D02*
D03*
X456693Y19685D02*
D03*
Y118110D02*
D03*
X472441Y19685D02*
D03*
Y118110D02*
D03*
X133858Y19685D02*
D03*
Y118110D02*
D03*
X118110D02*
D03*
D66*
X470472Y92520D02*
D03*
X458661D02*
D03*
X131890D02*
D03*
X120079D02*
D03*
X470472Y43307D02*
D03*
X458661D02*
D03*
X131890D02*
D03*
X120079D02*
D03*
D67*
X578740Y45276D02*
D03*
X543307D02*
D03*
X11811D02*
D03*
X47244D02*
D03*
%TF.MD5,a0ee57944e058be192b8f663039b905b*%
M02*
