%TF.GenerationSoftware,Altium Limited,Altium Designer,21.7.2 (23)*%
G04 Layer_Color=2752767*
%FSLAX25Y25*%
%MOIN*%
%TF.SameCoordinates,95A22525-32A0-4EEE-A0C0-36F8BD1EB9D1*%
%TF.FilePolarity,Positive*%
%TF.FileFunction,Drawing*%
%TF.Part,Single*%
G01*
G75*
%TA.AperFunction,NonConductor*%
%ADD70C,0.00500*%
%ADD172C,0.00667*%
D70*
X374969Y133039D02*
Y137039D01*
X378969D01*
Y133039D01*
X374969D01*
X241602Y146228D02*
Y150228D01*
X245602D01*
Y146228D01*
X241602D01*
X224575Y6071D02*
Y10071D01*
X228575D01*
Y6071D01*
X224575D01*
X241406Y44260D02*
Y48260D01*
X245406D01*
Y44260D01*
X241406D01*
X414339Y78709D02*
Y82709D01*
X418339D01*
Y78709D01*
X414339D01*
X241504Y75657D02*
Y79658D01*
X245504D01*
Y75657D01*
X241504D01*
X159449Y62567D02*
X157449Y66567D01*
X161449D01*
X159449Y62567D01*
Y72409D02*
X157449Y76410D01*
X161449D01*
X159449Y72409D01*
X576740Y72803D02*
Y76803D01*
X580740D01*
Y72803D01*
X576740D01*
X541307D02*
Y76803D01*
X545307D01*
Y72803D01*
X541307D01*
X576740Y100362D02*
Y104362D01*
X580740D01*
Y100362D01*
X576740D01*
X541307D02*
Y104362D01*
X545307D01*
Y100362D01*
X541307D01*
X576740Y129890D02*
Y133890D01*
X580740D01*
Y129890D01*
X576740D01*
X541307D02*
Y133890D01*
X545307D01*
Y129890D01*
X541307D01*
X9811Y72803D02*
Y76803D01*
X13811D01*
Y72803D01*
X9811D01*
X45244D02*
Y76803D01*
X49244D01*
Y72803D01*
X45244D01*
Y100362D02*
Y104362D01*
X49244D01*
Y100362D01*
X45244D01*
X9811D02*
Y104362D01*
X13811D01*
Y100362D01*
X9811D01*
X45244Y129890D02*
Y133890D01*
X49244D01*
Y129890D01*
X45244D01*
X578740Y116110D02*
X579740Y117110D01*
X580740D01*
X579740Y118110D01*
X580740Y119110D01*
X579740D01*
X578740Y120110D01*
X577740Y119110D01*
X576740D01*
X577740Y118110D01*
X576740Y117110D01*
X577740D01*
X578740Y116110D01*
X543307D02*
X544307Y117110D01*
X545307D01*
X544307Y118110D01*
X545307Y119110D01*
X544307D01*
X543307Y120110D01*
X542307Y119110D01*
X541307D01*
X542307Y118110D01*
X541307Y117110D01*
X542307D01*
X543307Y116110D01*
X11811D02*
X12811Y117110D01*
X13811D01*
X12811Y118110D01*
X13811Y119110D01*
X12811D01*
X11811Y120110D01*
X10811Y119110D01*
X9811D01*
X10811Y118110D01*
X9811Y117110D01*
X10811D01*
X11811Y116110D01*
X47244D02*
X48244Y117110D01*
X49244D01*
X48244Y118110D01*
X49244Y119110D01*
X48244D01*
X47244Y120110D01*
X46244Y119110D01*
X45244D01*
X46244Y118110D01*
X45244Y117110D01*
X46244D01*
X47244Y116110D01*
X468472Y90520D02*
X469472Y92520D01*
X468472Y94520D01*
X470472Y93520D01*
X472472Y94520D01*
X471472Y92520D01*
X472472Y90520D01*
X470472Y91520D01*
X468472Y90520D01*
X456661D02*
X457661Y92520D01*
X456661Y94520D01*
X458661Y93520D01*
X460661Y94520D01*
X459661Y92520D01*
X460661Y90520D01*
X458661Y91520D01*
X456661Y90520D01*
X129890D02*
X130890Y92520D01*
X129890Y94520D01*
X131890Y93520D01*
X133890Y94520D01*
X132890Y92520D01*
X133890Y90520D01*
X131890Y91520D01*
X129890Y90520D01*
X118079D02*
X119079Y92520D01*
X118079Y94520D01*
X120079Y93520D01*
X122079Y94520D01*
X121079Y92520D01*
X122079Y90520D01*
X120079Y91520D01*
X118079Y90520D01*
X468472Y41307D02*
X469472Y43307D01*
X468472Y45307D01*
X470472Y44307D01*
X472472Y45307D01*
X471472Y43307D01*
X472472Y41307D01*
X470472Y42307D01*
X468472Y41307D01*
X456661D02*
X457661Y43307D01*
X456661Y45307D01*
X458661Y44307D01*
X460661Y45307D01*
X459661Y43307D01*
X460661Y41307D01*
X458661Y42307D01*
X456661Y41307D01*
X129890D02*
X130890Y43307D01*
X129890Y45307D01*
X131890Y44307D01*
X133890Y45307D01*
X132890Y43307D01*
X133890Y41307D01*
X131890Y42307D01*
X129890Y41307D01*
X118079D02*
X119079Y43307D01*
X118079Y45307D01*
X120079Y44307D01*
X122079Y45307D01*
X121079Y43307D01*
X122079Y41307D01*
X120079Y42307D01*
X118079Y41307D01*
X577740Y44276D02*
Y43276D01*
X579740D01*
Y44276D01*
X580740D01*
Y46276D01*
X579740D01*
Y47276D01*
X577740D01*
Y46276D01*
X576740D01*
Y44276D01*
X577740D01*
X542307D02*
Y43276D01*
X544307D01*
Y44276D01*
X545307D01*
Y46276D01*
X544307D01*
Y47276D01*
X542307D01*
Y46276D01*
X541307D01*
Y44276D01*
X542307D01*
X10811D02*
Y43276D01*
X12811D01*
Y44276D01*
X13811D01*
Y46276D01*
X12811D01*
Y47276D01*
X10811D01*
Y46276D01*
X9811D01*
Y44276D01*
X10811D01*
X46244D02*
Y43276D01*
X48244D01*
Y44276D01*
X49244D01*
Y46276D01*
X48244D01*
Y47276D01*
X46244D01*
Y46276D01*
X45244D01*
Y44276D01*
X46244D01*
X9811Y129890D02*
Y133890D01*
X13811D01*
Y129890D01*
X9811D01*
X578740Y84614D02*
X579740Y85614D01*
X580740D01*
X579740Y86614D01*
X580740Y87614D01*
X579740D01*
X578740Y88614D01*
X577740Y87614D01*
X576740D01*
X577740Y86614D01*
X576740Y85614D01*
X577740D01*
X578740Y84614D01*
X543307D02*
X544307Y85614D01*
X545307D01*
X544307Y86614D01*
X545307Y87614D01*
X544307D01*
X543307Y88614D01*
X542307Y87614D01*
X541307D01*
X542307Y86614D01*
X541307Y85614D01*
X542307D01*
X543307Y84614D01*
X578740Y60992D02*
X579740Y61992D01*
X580740D01*
X579740Y62992D01*
X580740Y63992D01*
X579740D01*
X578740Y64992D01*
X577740Y63992D01*
X576740D01*
X577740Y62992D01*
X576740Y61992D01*
X577740D01*
X578740Y60992D01*
X543307D02*
X544307Y61992D01*
X545307D01*
X544307Y62992D01*
X545307Y63992D01*
X544307D01*
X543307Y64992D01*
X542307Y63992D01*
X541307D01*
X542307Y62992D01*
X541307Y61992D01*
X542307D01*
X543307Y60992D01*
X118110Y17685D02*
X119110Y18685D01*
X120110D01*
X119110Y19685D01*
X120110Y20685D01*
X119110D01*
X118110Y21685D01*
X117110Y20685D01*
X116110D01*
X117110Y19685D01*
X116110Y18685D01*
X117110D01*
X118110Y17685D01*
X543307Y25559D02*
X544307Y26559D01*
X545307D01*
X544307Y27559D01*
X545307Y28559D01*
X544307D01*
X543307Y29559D01*
X542307Y28559D01*
X541307D01*
X542307Y27559D01*
X541307Y26559D01*
X542307D01*
X543307Y25559D01*
X578740D02*
X579740Y26559D01*
X580740D01*
X579740Y27559D01*
X580740Y28559D01*
X579740D01*
X578740Y29559D01*
X577740Y28559D01*
X576740D01*
X577740Y27559D01*
X576740Y26559D01*
X577740D01*
X578740Y25559D01*
X543307Y9811D02*
X544307Y10811D01*
X545307D01*
X544307Y11811D01*
X545307Y12811D01*
X544307D01*
X543307Y13811D01*
X542307Y12811D01*
X541307D01*
X542307Y11811D01*
X541307Y10811D01*
X542307D01*
X543307Y9811D01*
X578740D02*
X579740Y10811D01*
X580740D01*
X579740Y11811D01*
X580740Y12811D01*
X579740D01*
X578740Y13811D01*
X577740Y12811D01*
X576740D01*
X577740Y11811D01*
X576740Y10811D01*
X577740D01*
X578740Y9811D01*
X47244Y25559D02*
X48244Y26559D01*
X49244D01*
X48244Y27559D01*
X49244Y28559D01*
X48244D01*
X47244Y29559D01*
X46244Y28559D01*
X45244D01*
X46244Y27559D01*
X45244Y26559D01*
X46244D01*
X47244Y25559D01*
X11811D02*
X12811Y26559D01*
X13811D01*
X12811Y27559D01*
X13811Y28559D01*
X12811D01*
X11811Y29559D01*
X10811Y28559D01*
X9811D01*
X10811Y27559D01*
X9811Y26559D01*
X10811D01*
X11811Y25559D01*
X47244Y84614D02*
X48244Y85614D01*
X49244D01*
X48244Y86614D01*
X49244Y87614D01*
X48244D01*
X47244Y88614D01*
X46244Y87614D01*
X45244D01*
X46244Y86614D01*
X45244Y85614D01*
X46244D01*
X47244Y84614D01*
X11811D02*
X12811Y85614D01*
X13811D01*
X12811Y86614D01*
X13811Y87614D01*
X12811D01*
X11811Y88614D01*
X10811Y87614D01*
X9811D01*
X10811Y86614D01*
X9811Y85614D01*
X10811D01*
X11811Y84614D01*
Y60992D02*
X12811Y61992D01*
X13811D01*
X12811Y62992D01*
X13811Y63992D01*
X12811D01*
X11811Y64992D01*
X10811Y63992D01*
X9811D01*
X10811Y62992D01*
X9811Y61992D01*
X10811D01*
X11811Y60992D01*
X47244D02*
X48244Y61992D01*
X49244D01*
X48244Y62992D01*
X49244Y63992D01*
X48244D01*
X47244Y64992D01*
X46244Y63992D01*
X45244D01*
X46244Y62992D01*
X45244Y61992D01*
X46244D01*
X47244Y60992D01*
Y9811D02*
X48244Y10811D01*
X49244D01*
X48244Y11811D01*
X49244Y12811D01*
X48244D01*
X47244Y13811D01*
X46244Y12811D01*
X45244D01*
X46244Y11811D01*
X45244Y10811D01*
X46244D01*
X47244Y9811D01*
X11811D02*
X12811Y10811D01*
X13811D01*
X12811Y11811D01*
X13811Y12811D01*
X12811D01*
X11811Y13811D01*
X10811Y12811D01*
X9811D01*
X10811Y11811D01*
X9811Y10811D01*
X10811D01*
X11811Y9811D01*
X456693Y17685D02*
X457693Y18685D01*
X458693D01*
X457693Y19685D01*
X458693Y20685D01*
X457693D01*
X456693Y21685D01*
X455693Y20685D01*
X454693D01*
X455693Y19685D01*
X454693Y18685D01*
X455693D01*
X456693Y17685D01*
Y116110D02*
X457693Y117110D01*
X458693D01*
X457693Y118110D01*
X458693Y119110D01*
X457693D01*
X456693Y120110D01*
X455693Y119110D01*
X454693D01*
X455693Y118110D01*
X454693Y117110D01*
X455693D01*
X456693Y116110D01*
X472441Y17685D02*
X473441Y18685D01*
X474441D01*
X473441Y19685D01*
X474441Y20685D01*
X473441D01*
X472441Y21685D01*
X471441Y20685D01*
X470441D01*
X471441Y19685D01*
X470441Y18685D01*
X471441D01*
X472441Y17685D01*
Y116110D02*
X473441Y117110D01*
X474441D01*
X473441Y118110D01*
X474441Y119110D01*
X473441D01*
X472441Y120110D01*
X471441Y119110D01*
X470441D01*
X471441Y118110D01*
X470441Y117110D01*
X471441D01*
X472441Y116110D01*
X133858Y17685D02*
X134858Y18685D01*
X135858D01*
X134858Y19685D01*
X135858Y20685D01*
X134858D01*
X133858Y21685D01*
X132858Y20685D01*
X131858D01*
X132858Y19685D01*
X131858Y18685D01*
X132858D01*
X133858Y17685D01*
Y116110D02*
X134858Y117110D01*
X135858D01*
X134858Y118110D01*
X135858Y119110D01*
X134858D01*
X133858Y120110D01*
X132858Y119110D01*
X131858D01*
X132858Y118110D01*
X131858Y117110D01*
X132858D01*
X133858Y116110D01*
X118110D02*
X119110Y117110D01*
X120110D01*
X119110Y118110D01*
X120110Y119110D01*
X119110D01*
X118110Y120110D01*
X117110Y119110D01*
X116110D01*
X117110Y118110D01*
X116110Y117110D01*
X117110D01*
X118110Y116110D01*
X183630Y55776D02*
X184630D01*
X185630Y56776D01*
X186630Y55776D01*
X187630D01*
Y56776D01*
X186630Y57776D01*
X187630Y58776D01*
Y59776D01*
X186630D01*
X185630Y58776D01*
X184630Y59776D01*
X183630D01*
Y58776D01*
X184630Y57776D01*
X183630Y56776D01*
Y55776D01*
X222114Y75590D02*
X224114Y77591D01*
X226114Y75590D01*
X224114Y73590D01*
X222114Y75590D01*
X162401Y92587D02*
X164401Y94587D01*
X166402Y92587D01*
X164401Y90587D01*
X162401Y92587D01*
X165913Y62106D02*
X167913Y64106D01*
X169913Y62106D01*
X167913Y60106D01*
X165913Y62106D01*
X221228Y83563D02*
X223228Y85563D01*
X225228Y83563D01*
X223228Y81563D01*
X221228Y83563D01*
X241504Y119949D02*
X242504D01*
X243504Y120949D01*
X244504Y119949D01*
X245504D01*
Y120949D01*
X244504Y121949D01*
X245504Y122949D01*
Y123949D01*
X244504D01*
X243504Y122949D01*
X242504Y123949D01*
X241504D01*
Y122949D01*
X242504Y121949D01*
X241504Y120949D01*
Y119949D01*
X239339D02*
X240339D01*
X241339Y120949D01*
X242339Y119949D01*
X243339D01*
Y120949D01*
X242339Y121949D01*
X243339Y122949D01*
Y123949D01*
X242339D01*
X241339Y122949D01*
X240339Y123949D01*
X239339D01*
Y122949D01*
X240339Y121949D01*
X239339Y120949D01*
Y119949D01*
X227947Y120177D02*
X229947Y122177D01*
X231947Y120177D01*
X229947Y118177D01*
X227947Y120177D01*
X221327Y112697D02*
X223327Y114697D01*
X225327Y112697D01*
X223327Y110697D01*
X221327Y112697D01*
X413057Y102582D02*
X415057Y104582D01*
X417057Y102582D01*
X415057Y100582D01*
X413057Y102582D01*
X178472Y56003D02*
X179472D01*
X180472Y57003D01*
X181472Y56003D01*
X182472D01*
Y57003D01*
X181472Y58003D01*
X182472Y59003D01*
Y60003D01*
X181472D01*
X180472Y59003D01*
X179472Y60003D01*
X178472D01*
Y59003D01*
X179472Y58003D01*
X178472Y57003D01*
Y56003D01*
X184024Y37205D02*
X186024Y39205D01*
X188024Y37205D01*
X186024Y35205D01*
X184024Y37205D01*
X143276Y76248D02*
Y80248D01*
X147276D01*
Y76248D01*
X143276D01*
X144076Y77048D02*
Y79448D01*
X146476D01*
Y77048D01*
X144076D01*
X269260Y9744D02*
X271260Y11744D01*
X273260Y9744D01*
X271260Y7744D01*
X269260Y9744D01*
X277429Y6988D02*
X279429Y8988D01*
X281429Y6988D01*
X279429Y4988D01*
X277429Y6988D01*
X274673Y14665D02*
X276673Y16665D01*
X278673Y14665D01*
X276673Y12665D01*
X274673Y14665D01*
X241209Y55972D02*
X242209D01*
X243209Y56972D01*
X244209Y55972D01*
X245209D01*
Y56972D01*
X244209Y57972D01*
X245209Y58972D01*
Y59972D01*
X244209D01*
X243209Y58972D01*
X242209Y59972D01*
X241209D01*
Y58972D01*
X242209Y57972D01*
X241209Y56972D01*
Y55972D01*
X243768Y56071D02*
X244768D01*
X245768Y57071D01*
X246768Y56071D01*
X247768D01*
Y57071D01*
X246768Y58071D01*
X247768Y59071D01*
Y60071D01*
X246768D01*
X245768Y59071D01*
X244768Y60071D01*
X243768D01*
Y59071D01*
X244768Y58071D01*
X243768Y57071D01*
Y56071D01*
X194260Y47933D02*
X196260Y49933D01*
X198260Y47933D01*
X196260Y45933D01*
X194260Y47933D01*
X141012Y64567D02*
X143012Y66567D01*
X145012Y64567D01*
X143012Y62567D01*
X141012Y64567D01*
X267193Y117028D02*
X269193Y119028D01*
X271193Y117028D01*
X269193Y115028D01*
X267193Y117028D01*
X354368Y105286D02*
X356368Y107286D01*
X358368Y105286D01*
X356368Y103286D01*
X354368Y105286D01*
X221425Y69161D02*
X222425D01*
X223425Y70161D01*
X224425Y69161D01*
X225425D01*
Y70161D01*
X224425Y71161D01*
X225425Y72161D01*
Y73161D01*
X224425D01*
X223425Y72161D01*
X222425Y73161D01*
X221425D01*
Y72161D01*
X222425Y71161D01*
X221425Y70161D01*
Y69161D01*
X214732Y57579D02*
X216732Y59579D01*
X218732Y57579D01*
X216732Y55579D01*
X214732Y57579D01*
X382350Y79988D02*
X383350D01*
X384350Y80988D01*
X385350Y79988D01*
X386350D01*
Y80988D01*
X385350Y81988D01*
X386350Y82988D01*
Y83988D01*
X385350D01*
X384350Y82988D01*
X383350Y83988D01*
X382350D01*
Y82988D01*
X383350Y81988D01*
X382350Y80988D01*
Y79988D01*
X380185D02*
X381185D01*
X382185Y80988D01*
X383185Y79988D01*
X384185D01*
Y80988D01*
X383185Y81988D01*
X384185Y82988D01*
Y83988D01*
X383185D01*
X382185Y82988D01*
X381185Y83988D01*
X380185D01*
Y82988D01*
X381185Y81988D01*
X380185Y80988D01*
Y79988D01*
X376937Y56465D02*
X377937D01*
X378937Y57465D01*
X379937Y56465D01*
X380937D01*
Y57465D01*
X379937Y58465D01*
X380937Y59465D01*
Y60465D01*
X379937D01*
X378937Y59465D01*
X377937Y60465D01*
X376937D01*
Y59465D01*
X377937Y58465D01*
X376937Y57465D01*
Y56465D01*
X374673D02*
X375673D01*
X376673Y57465D01*
X377673Y56465D01*
X378673D01*
Y57465D01*
X377673Y58465D01*
X378673Y59465D01*
Y60465D01*
X377673D01*
X376673Y59465D01*
X375673Y60465D01*
X374673D01*
Y59465D01*
X375673Y58465D01*
X374673Y57465D01*
Y56465D01*
X374969Y67587D02*
X375969D01*
X376969Y68587D01*
X377969Y67587D01*
X378969D01*
Y68587D01*
X377969Y69587D01*
X378969Y70587D01*
Y71587D01*
X377969D01*
X376969Y70587D01*
X375969Y71587D01*
X374969D01*
Y70587D01*
X375969Y69587D01*
X374969Y68587D01*
Y67587D01*
X379004Y67488D02*
X380004D01*
X381004Y68488D01*
X382004Y67488D01*
X383004D01*
Y68488D01*
X382004Y69488D01*
X383004Y70488D01*
Y71488D01*
X382004D01*
X381004Y70488D01*
X380004Y71488D01*
X379004D01*
Y70488D01*
X380004Y69488D01*
X379004Y68488D01*
Y67488D01*
X348590Y86189D02*
X349590D01*
X350590Y87189D01*
X351590Y86189D01*
X352590D01*
Y87189D01*
X351590Y88189D01*
X352590Y89189D01*
Y90189D01*
X351590D01*
X350590Y89189D01*
X349590Y90189D01*
X348590D01*
Y89189D01*
X349590Y88189D01*
X348590Y87189D01*
Y86189D01*
X279594Y86386D02*
X280594D01*
X281594Y87386D01*
X282594Y86386D01*
X283594D01*
Y87386D01*
X282594Y88386D01*
X283594Y89386D01*
Y90386D01*
X282594D01*
X281594Y89386D01*
X280594Y90386D01*
X279594D01*
Y89386D01*
X280594Y88386D01*
X279594Y87386D01*
Y86386D01*
X432941Y22213D02*
X433941D01*
X434941Y23213D01*
X435941Y22213D01*
X436941D01*
Y23213D01*
X435941Y24213D01*
X436941Y25213D01*
Y26213D01*
X435941D01*
X434941Y25213D01*
X433941Y26213D01*
X432941D01*
Y25213D01*
X433941Y24213D01*
X432941Y23213D01*
Y22213D01*
X431169Y20539D02*
X432169D01*
X433169Y21539D01*
X434169Y20539D01*
X435169D01*
Y21539D01*
X434169Y22539D01*
X435169Y23539D01*
Y24539D01*
X434169D01*
X433169Y23539D01*
X432169Y24539D01*
X431169D01*
Y23539D01*
X432169Y22539D01*
X431169Y21539D01*
Y20539D01*
X435008Y9811D02*
X436008D01*
X437008Y10811D01*
X438008Y9811D01*
X439008D01*
Y10811D01*
X438008Y11811D01*
X439008Y12811D01*
Y13811D01*
X438008D01*
X437008Y12811D01*
X436008Y13811D01*
X435008D01*
Y12811D01*
X436008Y11811D01*
X435008Y10811D01*
Y9811D01*
X408138Y9909D02*
X409138D01*
X410138Y10909D01*
X411138Y9909D01*
X412138D01*
Y10909D01*
X411138Y11909D01*
X412138Y12910D01*
Y13909D01*
X411138D01*
X410138Y12910D01*
X409138Y13909D01*
X408138D01*
Y12910D01*
X409138Y11909D01*
X408138Y10909D01*
Y9909D01*
X417685Y10008D02*
X418685D01*
X419685Y11008D01*
X420685Y10008D01*
X421685D01*
Y11008D01*
X420685Y12008D01*
X421685Y13008D01*
Y14008D01*
X420685D01*
X419685Y13008D01*
X418685Y14008D01*
X417685D01*
Y13008D01*
X418685Y12008D01*
X417685Y11008D01*
Y10008D01*
X427724Y10205D02*
X428724D01*
X429724Y11205D01*
X430724Y10205D01*
X431724D01*
Y11205D01*
X430724Y12205D01*
X431724Y13205D01*
Y14205D01*
X430724D01*
X429724Y13205D01*
X428724Y14205D01*
X427724D01*
Y13205D01*
X428724Y12205D01*
X427724Y11205D01*
Y10205D01*
X379102Y13059D02*
X380102D01*
X381102Y14059D01*
X382102Y13059D01*
X383102D01*
Y14059D01*
X382102Y15059D01*
X383102Y16059D01*
Y17059D01*
X382102D01*
X381102Y16059D01*
X380102Y17059D01*
X379102D01*
Y16059D01*
X380102Y15059D01*
X379102Y14059D01*
Y13059D01*
X374279Y12961D02*
X375279D01*
X376279Y13961D01*
X377279Y12961D01*
X378279D01*
Y13961D01*
X377279Y14961D01*
X378279Y15961D01*
Y16961D01*
X377279D01*
X376279Y15961D01*
X375279Y16961D01*
X374279D01*
Y15961D01*
X375279Y14961D01*
X374279Y13961D01*
Y12961D01*
X376740Y13059D02*
X377740D01*
X378740Y14059D01*
X379740Y13059D01*
X380740D01*
Y14059D01*
X379740Y15059D01*
X380740Y16059D01*
Y17059D01*
X379740D01*
X378740Y16059D01*
X377740Y17059D01*
X376740D01*
Y16059D01*
X377740Y15059D01*
X376740Y14059D01*
Y13059D01*
X157744Y128905D02*
X158744D01*
X159744Y129905D01*
X160744Y128905D01*
X161744D01*
Y129905D01*
X160744Y130905D01*
X161744Y131905D01*
Y132905D01*
X160744D01*
X159744Y131905D01*
X158744Y132905D01*
X157744D01*
Y131905D01*
X158744Y130905D01*
X157744Y129905D01*
Y128905D01*
X155480D02*
X156480D01*
X157480Y129905D01*
X158480Y128905D01*
X159480D01*
Y129905D01*
X158480Y130905D01*
X159480Y131905D01*
Y132905D01*
X158480D01*
X157480Y131905D01*
X156480Y132905D01*
X155480D01*
Y131905D01*
X156480Y130905D01*
X155480Y129905D01*
Y128905D01*
X157737Y131177D02*
X158737D01*
X159737Y132177D01*
X160737Y131177D01*
X161737D01*
Y132177D01*
X160737Y133177D01*
X161737Y134177D01*
Y135177D01*
X160737D01*
X159737Y134177D01*
X158737Y135177D01*
X157737D01*
Y134177D01*
X158737Y133177D01*
X157737Y132177D01*
Y131177D01*
X155480Y131268D02*
X156480D01*
X157480Y132268D01*
X158480Y131268D01*
X159480D01*
Y132268D01*
X158480Y133268D01*
X159480Y134268D01*
Y135268D01*
X158480D01*
X157480Y134268D01*
X156480Y135268D01*
X155480D01*
Y134268D01*
X156480Y133268D01*
X155480Y132268D01*
Y131268D01*
X87075Y50362D02*
X88075D01*
X89075Y51362D01*
X90075Y50362D01*
X91075D01*
Y51362D01*
X90075Y52362D01*
X91075Y53362D01*
Y54362D01*
X90075D01*
X89075Y53362D01*
X88075Y54362D01*
X87075D01*
Y53362D01*
X88075Y52362D01*
X87075Y51362D01*
Y50362D01*
X84909D02*
X85909D01*
X86910Y51362D01*
X87910Y50362D01*
X88910D01*
Y51362D01*
X87910Y52362D01*
X88910Y53362D01*
Y54362D01*
X87910D01*
X86910Y53362D01*
X85909Y54362D01*
X84909D01*
Y53362D01*
X85909Y52362D01*
X84909Y51362D01*
Y50362D01*
X87075Y52528D02*
X88075D01*
X89075Y53528D01*
X90075Y52528D01*
X91075D01*
Y53528D01*
X90075Y54528D01*
X91075Y55528D01*
Y56528D01*
X90075D01*
X89075Y55528D01*
X88075Y56528D01*
X87075D01*
Y55528D01*
X88075Y54528D01*
X87075Y53528D01*
Y52528D01*
X84909D02*
X85909D01*
X86910Y53528D01*
X87910Y52528D01*
X88910D01*
Y53528D01*
X87910Y54528D01*
X88910Y55528D01*
Y56528D01*
X87910D01*
X86910Y55528D01*
X85909Y56528D01*
X84909D01*
Y55528D01*
X85909Y54528D01*
X84909Y53528D01*
Y52528D01*
X303709Y60500D02*
X304709D01*
X305709Y61500D01*
X306709Y60500D01*
X307709D01*
Y61500D01*
X306709Y62500D01*
X307709Y63500D01*
Y64500D01*
X306709D01*
X305709Y63500D01*
X304709Y64500D01*
X303709D01*
Y63500D01*
X304709Y62500D01*
X303709Y61500D01*
Y60500D01*
X427921Y82547D02*
X428921D01*
X429921Y83547D01*
X430921Y82547D01*
X431921D01*
Y83547D01*
X430921Y84547D01*
X431921Y85547D01*
Y86547D01*
X430921D01*
X429921Y85547D01*
X428921Y86547D01*
X427921D01*
Y85547D01*
X428921Y84547D01*
X427921Y83547D01*
Y82547D01*
X425559D02*
X426559D01*
X427559Y83547D01*
X428559Y82547D01*
X429559D01*
Y83547D01*
X428559Y84547D01*
X429559Y85547D01*
Y86547D01*
X428559D01*
X427559Y85547D01*
X426559Y86547D01*
X425559D01*
Y85547D01*
X426559Y84547D01*
X425559Y83547D01*
Y82547D01*
X427823Y80283D02*
X428823D01*
X429823Y81283D01*
X430823Y80283D01*
X431823D01*
Y81283D01*
X430823Y82284D01*
X431823Y83284D01*
Y84284D01*
X430823D01*
X429823Y83284D01*
X428823Y84284D01*
X427823D01*
Y83284D01*
X428823Y82284D01*
X427823Y81283D01*
Y80283D01*
X425580Y80216D02*
X426580D01*
X427580Y81216D01*
X428580Y80216D01*
X429580D01*
Y81216D01*
X428580Y82216D01*
X429580Y83216D01*
Y84216D01*
X428580D01*
X427580Y83216D01*
X426580Y84216D01*
X425580D01*
Y83216D01*
X426580Y82216D01*
X425580Y81216D01*
Y80216D01*
X243768Y58138D02*
X244768D01*
X245768Y59138D01*
X246768Y58138D01*
X247768D01*
Y59138D01*
X246768Y60138D01*
X247768Y61138D01*
Y62138D01*
X246768D01*
X245768Y61138D01*
X244768Y62138D01*
X243768D01*
Y61138D01*
X244768Y60138D01*
X243768Y59138D01*
Y58138D01*
X241110D02*
X242110D01*
X243110Y59138D01*
X244110Y58138D01*
X245110D01*
Y59138D01*
X244110Y60138D01*
X245110Y61138D01*
Y62138D01*
X244110D01*
X243110Y61138D01*
X242110Y62138D01*
X241110D01*
Y61138D01*
X242110Y60138D01*
X241110Y59138D01*
Y58138D01*
X302724Y50520D02*
X303724D01*
X304724Y51520D01*
X305724Y50520D01*
X306724D01*
Y51520D01*
X305724Y52520D01*
X306724Y53520D01*
Y54520D01*
X305724D01*
X304724Y53520D01*
X303724Y54520D01*
X302724D01*
Y53520D01*
X303724Y52520D01*
X302724Y51520D01*
Y50520D01*
Y56032D02*
X303724D01*
X304724Y57032D01*
X305724Y56032D01*
X306724D01*
Y57032D01*
X305724Y58031D01*
X306724Y59031D01*
Y60031D01*
X305724D01*
X304724Y59031D01*
X303724Y60031D01*
X302724D01*
Y59031D01*
X303724Y58031D01*
X302724Y57032D01*
Y56032D01*
X279693Y48327D02*
X281693Y50327D01*
X283693Y48327D01*
X281693Y46327D01*
X279693Y48327D01*
X302536Y67748D02*
X304536Y69748D01*
X306536Y67748D01*
X304536Y65748D01*
X302536Y67748D01*
X279693Y53425D02*
X281693Y55425D01*
X283693Y53425D01*
X281693Y51425D01*
X279693Y53425D01*
X348689Y68405D02*
X350689Y70406D01*
X352689Y68405D01*
X350689Y66405D01*
X348689Y68405D01*
X348590Y63386D02*
X350590Y65386D01*
X352590Y63386D01*
X350590Y61386D01*
X348590Y63386D01*
X278217Y23425D02*
X280217Y25425D01*
X282217Y23425D01*
X280217Y21425D01*
X278217Y23425D01*
X286736Y18192D02*
X288736Y20192D01*
X290736Y18192D01*
X288736Y16192D01*
X286736Y18192D01*
X348590Y58425D02*
X350590Y60425D01*
X352590Y58425D01*
X350590Y56425D01*
X348590Y58425D01*
Y43425D02*
X350590Y45425D01*
X352590Y43425D01*
X350590Y41425D01*
X348590Y43425D01*
X348572Y38277D02*
X350572Y40277D01*
X352572Y38277D01*
X350572Y36277D01*
X348572Y38277D01*
X287469Y28740D02*
X289469Y30740D01*
X291469Y28740D01*
X289469Y26740D01*
X287469Y28740D01*
X214437Y110039D02*
X216437Y112039D01*
X218437Y110039D01*
X216437Y108039D01*
X214437Y110039D01*
X286779Y33268D02*
X288779Y35268D01*
X290779Y33268D01*
X288779Y31268D01*
X286779Y33268D01*
X313551Y45866D02*
X315551Y47866D01*
X317551Y45866D01*
X315551Y43866D01*
X313551Y45866D01*
X309221Y42085D02*
X311221Y44085D01*
X313221Y42085D01*
X311221Y40085D01*
X309221Y42085D01*
X81760Y71917D02*
X82760D01*
X83760Y72917D01*
X84760Y71917D01*
X85760D01*
Y72917D01*
X84760Y73917D01*
X85760Y74917D01*
Y75917D01*
X84760D01*
X83760Y74917D01*
X82760Y75917D01*
X81760D01*
Y74917D01*
X82760Y73917D01*
X81760Y72917D01*
Y71917D01*
X86878Y72016D02*
X87878D01*
X88878Y73016D01*
X89878Y72016D01*
X90878D01*
Y73016D01*
X89878Y74016D01*
X90878Y75016D01*
Y76016D01*
X89878D01*
X88878Y75016D01*
X87878Y76016D01*
X86878D01*
Y75016D01*
X87878Y74016D01*
X86878Y73016D01*
Y72016D01*
X334910Y41831D02*
X336910Y43831D01*
X338910Y41831D01*
X336910Y39831D01*
X334910Y41831D01*
X317585Y114439D02*
X319585Y116439D01*
X321585Y114439D01*
X319585Y112439D01*
X317585Y114439D01*
X266996Y121260D02*
X268996Y123260D01*
X270996Y121260D01*
X268996Y119260D01*
X266996Y121260D01*
X334695Y38228D02*
X336695Y40228D01*
X338695Y38228D01*
X336695Y36228D01*
X334695Y38228D01*
X313354Y114272D02*
X315354Y116272D01*
X317354Y114272D01*
X315354Y112272D01*
X313354Y114272D01*
X297705Y31988D02*
X299705Y33988D01*
X301705Y31988D01*
X299705Y29988D01*
X297705Y31988D01*
X227232Y145374D02*
X229232Y147374D01*
X231232Y145374D01*
X229232Y143374D01*
X227232Y145374D01*
X309516Y113878D02*
X311516Y115878D01*
X313516Y113878D01*
X311516Y111878D01*
X309516Y113878D01*
X171298Y91673D02*
X173298Y93673D01*
X175298Y91673D01*
X173298Y89674D01*
X171298Y91673D01*
X365126Y76083D02*
X367126Y78083D01*
X369126Y76083D01*
X367126Y74083D01*
X365126Y76083D01*
X354594Y68799D02*
X356594Y70799D01*
X358594Y68799D01*
X356594Y66799D01*
X354594Y68799D01*
X343049Y93357D02*
X345049Y95357D01*
X347049Y93357D01*
X345049Y91357D01*
X343049Y93357D01*
X368866Y93602D02*
X370866Y95602D01*
X372866Y93602D01*
X370866Y91602D01*
X368866Y93602D01*
X383630Y88354D02*
X384630D01*
X385630Y89354D01*
X386630Y88354D01*
X387630D01*
Y89354D01*
X386630Y90354D01*
X387630Y91354D01*
Y92354D01*
X386630D01*
X385630Y91354D01*
X384630Y92354D01*
X383630D01*
Y91354D01*
X384630Y90354D01*
X383630Y89354D01*
Y88354D01*
X348787Y102657D02*
X350787Y104657D01*
X352787Y102657D01*
X350787Y100657D01*
X348787Y102657D01*
X300146Y34193D02*
X302146Y36193D01*
X304146Y34193D01*
X302146Y32193D01*
X300146Y34193D01*
X304004Y39862D02*
X306004Y41862D01*
X308004Y39862D01*
X306004Y37862D01*
X304004Y39862D01*
X305480Y70276D02*
X307480Y72276D01*
X309480Y70276D01*
X307480Y68276D01*
X305480Y70276D01*
X307842Y75590D02*
X309842Y77591D01*
X311842Y75590D01*
X309842Y73590D01*
X307842Y75590D01*
X310365Y78806D02*
X312365Y80806D01*
X314365Y78806D01*
X312365Y76806D01*
X310365Y78806D01*
X351097Y105942D02*
X353097Y107942D01*
X355097Y105942D01*
X353097Y103942D01*
X351097Y105942D01*
X346819Y99803D02*
X348819Y101803D01*
X350819Y99803D01*
X348819Y97803D01*
X346819Y99803D01*
X318079Y62894D02*
X320079Y64894D01*
X322079Y62894D01*
X320079Y60894D01*
X318079Y62894D01*
X344870Y96949D02*
X346870Y98949D01*
X348870Y96949D01*
X346870Y94949D01*
X344870Y96949D01*
X291706Y18450D02*
X293706Y20450D01*
X295707Y18450D01*
X293706Y16450D01*
X291706Y18450D01*
X321642Y18504D02*
X323642Y20504D01*
X325642Y18504D01*
X323642Y16504D01*
X321642Y18504D01*
X338846Y67520D02*
X340846Y69520D01*
X342846Y67520D01*
X340846Y65520D01*
X338846Y67520D01*
X340913Y70669D02*
X342913Y72669D01*
X344913Y70669D01*
X342913Y68669D01*
X340913Y70669D01*
X326741Y18831D02*
X328741Y20831D01*
X330741Y18831D01*
X328741Y16831D01*
X326741Y18831D01*
X336878Y64075D02*
X338878Y66075D01*
X340878Y64075D01*
X338878Y62075D01*
X336878Y64075D01*
X331642Y18504D02*
X333642Y20504D01*
X335642Y18504D01*
X333642Y16504D01*
X331642Y18504D01*
X336642D02*
X338642Y20504D01*
X340642Y18504D01*
X338642Y16504D01*
X336642Y18504D01*
X331090Y53248D02*
X333090Y55248D01*
X335090Y53248D01*
X333090Y51248D01*
X331090Y53248D01*
X333236Y56791D02*
X335236Y58791D01*
X337236Y56791D01*
X335236Y54791D01*
X333236Y56791D01*
X335028Y60039D02*
X337028Y62039D01*
X339028Y60039D01*
X337028Y58039D01*
X335028Y60039D01*
X341642Y18504D02*
X343642Y20504D01*
X345642Y18504D01*
X343642Y16504D01*
X341642Y18504D01*
X348590Y28425D02*
X350590Y30425D01*
X352590Y28425D01*
X350590Y26425D01*
X348590Y28425D01*
X279918Y73100D02*
X281918Y75100D01*
X283918Y73100D01*
X281918Y71100D01*
X279918Y73100D01*
X314929Y86102D02*
X316929Y88102D01*
X318929Y86102D01*
X316929Y84102D01*
X314929Y86102D01*
X317685Y88386D02*
X319685Y90386D01*
X321685Y88386D01*
X319685Y86386D01*
X317685Y88386D01*
X279693Y68425D02*
X281693Y70425D01*
X283693Y68425D01*
X281693Y66425D01*
X279693Y68425D01*
X279791Y63583D02*
X281791Y65583D01*
X283791Y63583D01*
X281791Y61583D01*
X279791Y63583D01*
X312764Y82579D02*
X314764Y84579D01*
X316764Y82579D01*
X314764Y80579D01*
X312764Y82579D01*
X279693Y58425D02*
X281693Y60425D01*
X283693Y58425D01*
X281693Y56425D01*
X279693Y58425D01*
Y43425D02*
X281693Y45425D01*
X283693Y43425D01*
X281693Y41425D01*
X279693Y43425D01*
Y38425D02*
X281693Y40425D01*
X283693Y38425D01*
X281693Y36425D01*
X279693Y38425D01*
X260365Y42520D02*
X262365Y44520D01*
X264365Y42520D01*
X262365Y40520D01*
X260365Y42520D01*
X192980Y130283D02*
X193980D01*
X194980Y131283D01*
X195980Y130283D01*
X196980D01*
Y131283D01*
X195980Y132283D01*
X196980Y133283D01*
Y134283D01*
X195980D01*
X194980Y133283D01*
X193980Y134283D01*
X192980D01*
Y133283D01*
X193980Y132283D01*
X192980Y131283D01*
Y130283D01*
X206071Y130217D02*
X208071Y132217D01*
X210071Y130217D01*
X208071Y128217D01*
X206071Y130217D01*
X419367Y132252D02*
X420367D01*
X421367Y133252D01*
X422367Y132252D01*
X423367D01*
Y133252D01*
X422367Y134252D01*
X423367Y135252D01*
Y136252D01*
X422367D01*
X421367Y135252D01*
X420367Y136252D01*
X419367D01*
Y135252D01*
X420367Y134252D01*
X419367Y133252D01*
Y132252D01*
X412492Y120845D02*
X414492Y122845D01*
X416492Y120845D01*
X414492Y118845D01*
X412492Y120845D01*
X279693Y78425D02*
X281693Y80425D01*
X283693Y78425D01*
X281693Y76425D01*
X279693Y78425D01*
X365224Y71063D02*
X367224Y73063D01*
X369224Y71063D01*
X367224Y69063D01*
X365224Y71063D01*
X364240Y67421D02*
X366240Y69421D01*
X368240Y67421D01*
X366240Y65421D01*
X364240Y67421D01*
X81661Y95866D02*
X83661Y97866D01*
X85661Y95866D01*
X83661Y93866D01*
X81661Y95866D01*
X68472Y101257D02*
X69472D01*
X70472Y102257D01*
X71472Y101257D01*
X72472D01*
Y102257D01*
X71472Y103257D01*
X72472Y104257D01*
Y105257D01*
X71472D01*
X70472Y104257D01*
X69472Y105257D01*
X68472D01*
Y104257D01*
X69472Y103257D01*
X68472Y102257D01*
Y101257D01*
D172*
X379402Y45138D02*
G03*
X379402Y45138I-2000J0D01*
G01*
X389402D02*
G03*
X389402Y45138I-2000J0D01*
G01*
X379402Y35138D02*
G03*
X379402Y35138I-2000J0D01*
G01*
X389402D02*
G03*
X389402Y35138I-2000J0D01*
G01*
X379402Y25138D02*
G03*
X379402Y25138I-2000J0D01*
G01*
X389402D02*
G03*
X389402Y25138I-2000J0D01*
G01*
%TF.MD5,edac574759a6bcbfc7356836cdac1520*%
M02*
