%TF.GenerationSoftware,Altium Limited,Altium Designer,21.7.2 (23)*%
G04 Layer_Color=16711935*
%FSLAX25Y25*%
%MOIN*%
%TF.SameCoordinates,95A22525-32A0-4EEE-A0C0-36F8BD1EB9D1*%
%TF.FilePolarity,Positive*%
%TF.FileFunction,Other,Mechanical_13*%
%TF.Part,Single*%
G01*
G75*
%TA.AperFunction,NonConductor*%
%ADD68C,0.00787*%
%ADD69C,0.00394*%
D68*
X242028Y11516D02*
Y28051D01*
X254626D01*
Y11516D02*
Y28051D01*
X242028Y11516D02*
X254626D01*
X251181Y52854D02*
Y69390D01*
X263779D01*
Y52854D02*
Y69390D01*
X251181Y52854D02*
X263779D01*
X399921Y4823D02*
Y65453D01*
X364882Y4823D02*
X399921D01*
X364882D02*
Y65453D01*
X399921D01*
X408858Y23543D02*
X438386D01*
Y3858D02*
Y23543D01*
X408858Y3858D02*
X438386D01*
X408858D02*
Y23543D01*
X377559Y77067D02*
Y86910D01*
Y77067D02*
X389370D01*
Y86910D01*
X377559D02*
X389370D01*
X297342Y139567D02*
Y160039D01*
X261516Y139567D02*
X297342D01*
X261516D02*
Y160039D01*
X297342D01*
X359547Y139961D02*
Y160433D01*
X323721Y139961D02*
X359547D01*
X323721D02*
Y160433D01*
X359547D01*
D69*
X172343Y69488D02*
G03*
X172343Y69488I-12894J0D01*
G01*
X238090Y3642D02*
Y33957D01*
X258563D01*
Y3642D02*
Y33957D01*
X238090Y3642D02*
X258563D01*
X247244Y44980D02*
Y75295D01*
X267717D01*
Y44980D02*
Y75295D01*
X247244Y44980D02*
X267717D01*
X418551Y38780D02*
X420669Y36661D01*
X415551Y38780D02*
X420669D01*
X415551Y32087D02*
Y38780D01*
Y32087D02*
X420669D01*
Y38780D01*
X396260Y123150D02*
X401260Y128150D01*
X396260Y108858D02*
Y128150D01*
Y108858D02*
X411614D01*
Y128150D01*
X396260D02*
X411614D01*
X76575Y82362D02*
X81575Y77362D01*
X76575D02*
X95866D01*
Y92716D01*
X76575D02*
X95866D01*
X76575Y77362D02*
Y92716D01*
X221280Y128150D02*
X226279Y133150D01*
Y128150D02*
Y147441D01*
X210925D02*
X226279D01*
X210925Y128150D02*
Y147441D01*
Y128150D02*
X226279D01*
X181299Y86221D02*
X183268Y84252D01*
X181299D02*
X189567D01*
Y88976D01*
X181299D02*
X189567D01*
X181299Y84252D02*
Y88976D01*
X280709Y117913D02*
X351575D01*
Y17520D02*
Y117913D01*
X280709Y17520D02*
X351575D01*
X280709D02*
Y117913D01*
X422236Y60480D02*
X431252Y69496D01*
X422236Y43890D02*
Y69496D01*
Y43890D02*
X436031D01*
Y69496D01*
X422236D02*
X436031D01*
%TF.MD5,5dd690b6fccecbf5c390d60bf240e682*%
M02*
