%TF.GenerationSoftware,Altium Limited,Altium Designer,21.7.2 (23)*%
G04 Layer_Color=32768*
%FSLAX25Y25*%
%MOIN*%
%TF.SameCoordinates,95A22525-32A0-4EEE-A0C0-36F8BD1EB9D1*%
%TF.FilePolarity,Positive*%
%TF.FileFunction,Other,Mechanical_15*%
%TF.Part,Single*%
G01*
G75*
%TA.AperFunction,NonConductor*%
%ADD69C,0.00394*%
%ADD106C,0.00197*%
D69*
X405118Y29842D02*
X442126D01*
Y197D02*
Y29842D01*
X405118Y197D02*
X442126D01*
X405118D02*
Y29842D01*
X274803Y121850D02*
X357480D01*
Y11614D02*
Y121850D01*
X274803Y11614D02*
X357480D01*
X274803D02*
Y121850D01*
X305217Y131890D02*
Y163976D01*
X253642D02*
X305217D01*
X253642Y131890D02*
Y163976D01*
Y131890D02*
X305217D01*
X367421Y132283D02*
Y164370D01*
X315846D02*
X367421D01*
X315846Y132283D02*
Y164370D01*
Y132283D02*
X367421D01*
D106*
X174311Y69488D02*
G03*
X174311Y69488I-14862J0D01*
G01*
X404646Y98D02*
Y70177D01*
X359291Y98D02*
X404646D01*
X359291D02*
Y70177D01*
X404646D01*
X413583Y43209D02*
X422638D01*
X413583Y27657D02*
Y43209D01*
Y27657D02*
X422638D01*
Y43209D01*
X389272Y107677D02*
Y129331D01*
Y107677D02*
X418602D01*
Y129331D01*
X389272D02*
X418602D01*
X75394Y70374D02*
X97047D01*
Y99705D01*
X75394D02*
X97047D01*
X75394Y70374D02*
Y99705D01*
X233268Y126969D02*
Y148622D01*
X203937D02*
X233268D01*
X203937Y126969D02*
Y148622D01*
Y126969D02*
X233268D01*
X180512Y81791D02*
X190354D01*
Y91437D01*
X180512D02*
X190354D01*
X180512Y81791D02*
Y91437D01*
X412303Y42500D02*
Y70886D01*
Y42500D02*
X445965D01*
Y70886D01*
X412303D02*
X445965D01*
%TF.MD5,fb80355870bfc7fb2958eda8ef29673b*%
M02*
