%TF.GenerationSoftware,Altium Limited,Altium Designer,21.7.2 (23)*%
G04 Layer_Physical_Order=2*
G04 Layer_Color=16711680*
%FSLAX25Y25*%
%MOIN*%
%TF.SameCoordinates,95A22525-32A0-4EEE-A0C0-36F8BD1EB9D1*%
%TF.FilePolarity,Positive*%
%TF.FileFunction,Copper,L2,Bot,Signal*%
%TF.Part,Single*%
G01*
G75*
%TA.AperFunction,Conductor*%
%ADD45C,0.00787*%
%ADD46C,0.01181*%
%ADD48C,0.01968*%
%TA.AperFunction,ViaPad*%
%ADD49O,0.07874X0.15748*%
%ADD50O,0.15748X0.07874*%
%TA.AperFunction,ComponentPad*%
%ADD51C,0.05906*%
%ADD52R,0.04331X0.04331*%
%ADD53C,0.04331*%
%TA.AperFunction,ViaPad*%
%ADD54C,0.15748*%
G04:AMPARAMS|DCode=55|XSize=157.48mil|YSize=118.11mil|CornerRadius=29.53mil|HoleSize=0mil|Usage=FLASHONLY|Rotation=90.000|XOffset=0mil|YOffset=0mil|HoleType=Round|Shape=RoundedRectangle|*
%AMROUNDEDRECTD55*
21,1,0.15748,0.05906,0,0,90.0*
21,1,0.09843,0.11811,0,0,90.0*
1,1,0.05906,0.02953,0.04921*
1,1,0.05906,0.02953,-0.04921*
1,1,0.05906,-0.02953,-0.04921*
1,1,0.05906,-0.02953,0.04921*
%
%ADD55ROUNDEDRECTD55*%
%ADD56O,0.23622X0.15748*%
%ADD57C,0.01575*%
%ADD58C,0.01968*%
%ADD59C,0.02362*%
G36*
X462321Y135549D02*
X462979Y135044D01*
X463745Y134727D01*
X464567Y134618D01*
X534643D01*
X534949Y134118D01*
X534560Y133179D01*
X534390Y131890D01*
X534560Y130601D01*
X535058Y129400D01*
X535849Y128369D01*
X536880Y127577D01*
X538081Y127080D01*
X539370Y126910D01*
X540057D01*
X540156Y126410D01*
X539104Y125974D01*
X537650Y125003D01*
X536414Y123767D01*
X535443Y122314D01*
X534774Y120699D01*
X534433Y118984D01*
Y117236D01*
X534774Y115522D01*
X535443Y113907D01*
X536414Y112453D01*
X537650Y111217D01*
X539104Y110246D01*
X540719Y109577D01*
X542433Y109236D01*
X544181D01*
X545895Y109577D01*
X547510Y110246D01*
X548964Y111217D01*
X550200Y112453D01*
X551171Y113907D01*
X551840Y115522D01*
X552181Y117236D01*
Y118984D01*
X551840Y120699D01*
X551171Y122314D01*
X550200Y123767D01*
X548964Y125003D01*
X547510Y125974D01*
X546458Y126410D01*
X546558Y126910D01*
X547244D01*
X548533Y127080D01*
X549734Y127577D01*
X550765Y128369D01*
X551557Y129400D01*
X552054Y130601D01*
X552224Y131890D01*
X552054Y133179D01*
X551665Y134118D01*
X551971Y134618D01*
X570076D01*
X570383Y134118D01*
X569993Y133179D01*
X569824Y131890D01*
X569993Y130601D01*
X570491Y129400D01*
X571282Y128369D01*
X572313Y127577D01*
X573514Y127080D01*
X574803Y126910D01*
X575490D01*
X575589Y126410D01*
X574537Y125974D01*
X573083Y125003D01*
X571847Y123767D01*
X570876Y122314D01*
X570207Y120699D01*
X569866Y118984D01*
Y117236D01*
X570207Y115522D01*
X570876Y113907D01*
X571847Y112453D01*
X573083Y111217D01*
X574537Y110246D01*
X576152Y109577D01*
X577866Y109236D01*
X579614D01*
X581329Y109577D01*
X582944Y110246D01*
X584397Y111217D01*
X585633Y112453D01*
X586604Y113907D01*
X586874Y114559D01*
X587374Y114460D01*
Y105172D01*
X586874Y105002D01*
X586198Y105883D01*
X585167Y106675D01*
X583966Y107172D01*
X582677Y107342D01*
X574803D01*
X573514Y107172D01*
X572313Y106675D01*
X571282Y105883D01*
X570491Y104852D01*
X569993Y103651D01*
X569824Y102362D01*
X569993Y101073D01*
X570491Y99872D01*
X571282Y98841D01*
X572313Y98050D01*
X573514Y97552D01*
X574803Y97383D01*
X582677D01*
X583966Y97552D01*
X585167Y98050D01*
X586198Y98841D01*
X586874Y99722D01*
X587374Y99553D01*
Y90265D01*
X586874Y90165D01*
X586604Y90818D01*
X585633Y92271D01*
X584397Y93507D01*
X582944Y94478D01*
X581329Y95147D01*
X579614Y95488D01*
X577866D01*
X576152Y95147D01*
X574537Y94478D01*
X573083Y93507D01*
X571847Y92271D01*
X570876Y90818D01*
X570207Y89203D01*
X569866Y87488D01*
Y85740D01*
X570207Y84026D01*
X570876Y82411D01*
X571847Y80957D01*
X572903Y79901D01*
X572826Y79328D01*
X572313Y79116D01*
X571282Y78324D01*
X570491Y77293D01*
X569993Y76092D01*
X569824Y74803D01*
X569993Y73514D01*
X570491Y72313D01*
X571282Y71282D01*
X572313Y70491D01*
X572826Y70278D01*
X572903Y69705D01*
X571847Y68649D01*
X570876Y67196D01*
X570207Y65581D01*
X569866Y63866D01*
Y62118D01*
X570207Y60404D01*
X570876Y58789D01*
X571847Y57335D01*
X573083Y56099D01*
X574537Y55128D01*
X575588Y54693D01*
X575489Y54193D01*
X574803D01*
X573064Y54021D01*
X571391Y53514D01*
X569849Y52690D01*
X568498Y51581D01*
X567389Y50230D01*
X566565Y48688D01*
X566057Y47015D01*
X565886Y45276D01*
X566057Y43536D01*
X566565Y41863D01*
X567389Y40322D01*
X568498Y38970D01*
X569849Y37861D01*
X571391Y37037D01*
X573064Y36530D01*
X574803Y36359D01*
X575489D01*
X575588Y35859D01*
X574537Y35423D01*
X573083Y34452D01*
X571847Y33216D01*
X570876Y31762D01*
X570207Y30147D01*
X569866Y28433D01*
Y26685D01*
X570207Y24971D01*
X570876Y23356D01*
X571847Y21902D01*
X573083Y20666D01*
X574102Y19986D01*
Y19384D01*
X573083Y18704D01*
X571847Y17468D01*
X570876Y16014D01*
X570207Y14400D01*
X569866Y12685D01*
Y10937D01*
X570207Y9223D01*
X570876Y7608D01*
X571847Y6154D01*
X573083Y4918D01*
X574537Y3947D01*
X575189Y3677D01*
X575090Y3177D01*
X546958D01*
X546858Y3677D01*
X547510Y3947D01*
X548964Y4918D01*
X550200Y6154D01*
X551171Y7608D01*
X551840Y9223D01*
X552181Y10937D01*
Y12685D01*
X551840Y14400D01*
X551171Y16014D01*
X550200Y17468D01*
X548964Y18704D01*
X547946Y19384D01*
Y19986D01*
X548964Y20666D01*
X550200Y21902D01*
X551171Y23356D01*
X551840Y24971D01*
X552181Y26685D01*
Y28433D01*
X551840Y30147D01*
X551171Y31762D01*
X550200Y33216D01*
X548964Y34452D01*
X547510Y35423D01*
X546459Y35859D01*
X546559Y36359D01*
X547244D01*
X548984Y36530D01*
X550657Y37037D01*
X552198Y37861D01*
X553549Y38970D01*
X554658Y40322D01*
X555482Y41863D01*
X555990Y43536D01*
X556161Y45276D01*
X555990Y47015D01*
X555482Y48688D01*
X554658Y50230D01*
X553549Y51581D01*
X552198Y52690D01*
X550657Y53514D01*
X548984Y54021D01*
X547244Y54193D01*
X546559D01*
X546459Y54693D01*
X547510Y55128D01*
X548964Y56099D01*
X550200Y57335D01*
X551171Y58789D01*
X551840Y60404D01*
X552181Y62118D01*
Y63866D01*
X551840Y65581D01*
X551171Y67196D01*
X550200Y68649D01*
X549144Y69705D01*
X549221Y70278D01*
X549734Y70491D01*
X550765Y71282D01*
X551557Y72313D01*
X552054Y73514D01*
X552224Y74803D01*
X552054Y76092D01*
X551557Y77293D01*
X550765Y78324D01*
X549734Y79116D01*
X549221Y79328D01*
X549144Y79901D01*
X550200Y80957D01*
X551171Y82411D01*
X551840Y84026D01*
X552181Y85740D01*
Y87488D01*
X551840Y89203D01*
X551171Y90818D01*
X550200Y92271D01*
X548964Y93507D01*
X547510Y94478D01*
X545895Y95147D01*
X544181Y95488D01*
X542433D01*
X540719Y95147D01*
X539104Y94478D01*
X537650Y93507D01*
X536414Y92271D01*
X535443Y90818D01*
X534774Y89203D01*
X534433Y87488D01*
Y85740D01*
X534774Y84026D01*
X535443Y82411D01*
X536414Y80957D01*
X537470Y79901D01*
X537393Y79328D01*
X536880Y79116D01*
X535849Y78324D01*
X535058Y77293D01*
X534560Y76092D01*
X534390Y74803D01*
X534560Y73514D01*
X535058Y72313D01*
X535849Y71282D01*
X536880Y70491D01*
X537393Y70278D01*
X537470Y69705D01*
X536414Y68649D01*
X535443Y67196D01*
X534774Y65581D01*
X534433Y63866D01*
Y62118D01*
X534774Y60404D01*
X535443Y58789D01*
X536414Y57335D01*
X537650Y56099D01*
X539104Y55128D01*
X540155Y54693D01*
X540056Y54193D01*
X539370D01*
X537631Y54021D01*
X535958Y53514D01*
X534416Y52690D01*
X533065Y51581D01*
X531956Y50230D01*
X531132Y48688D01*
X530624Y47015D01*
X530453Y45276D01*
X530624Y43536D01*
X531132Y41863D01*
X531956Y40322D01*
X533065Y38970D01*
X534416Y37861D01*
X535958Y37037D01*
X537631Y36530D01*
X539370Y36359D01*
X540056D01*
X540155Y35859D01*
X539104Y35423D01*
X537650Y34452D01*
X536414Y33216D01*
X535443Y31762D01*
X534774Y30147D01*
X534433Y28433D01*
Y26685D01*
X534774Y24971D01*
X535443Y23356D01*
X536414Y21902D01*
X537650Y20666D01*
X538669Y19986D01*
Y19384D01*
X537650Y18704D01*
X536414Y17468D01*
X535443Y16014D01*
X534774Y14400D01*
X534433Y12685D01*
Y10937D01*
X534774Y9223D01*
X535443Y7608D01*
X536414Y6154D01*
X537650Y4918D01*
X539104Y3947D01*
X539756Y3677D01*
X539657Y3177D01*
X232904D01*
X232804Y3677D01*
X233002Y3758D01*
X234033Y4550D01*
X234824Y5581D01*
X235322Y6782D01*
X235491Y8071D01*
X235322Y9360D01*
X234824Y10561D01*
X234033Y11592D01*
X233002Y12383D01*
X231801Y12881D01*
X230512Y13050D01*
X222638D01*
X221349Y12881D01*
X220148Y12383D01*
X219117Y11592D01*
X218325Y10561D01*
X217828Y9360D01*
X217658Y8071D01*
X217828Y6782D01*
X218325Y5581D01*
X219117Y4550D01*
X220148Y3758D01*
X220345Y3677D01*
X220246Y3177D01*
X50895D01*
X50795Y3677D01*
X51447Y3947D01*
X52901Y4918D01*
X54137Y6154D01*
X55108Y7608D01*
X55777Y9223D01*
X56118Y10937D01*
Y12685D01*
X55777Y14400D01*
X55108Y16014D01*
X54137Y17468D01*
X52901Y18704D01*
X51883Y19384D01*
Y19986D01*
X52901Y20666D01*
X54137Y21902D01*
X55108Y23356D01*
X55777Y24971D01*
X56118Y26685D01*
Y28433D01*
X55777Y30147D01*
X55108Y31762D01*
X54137Y33216D01*
X52901Y34452D01*
X51447Y35423D01*
X50396Y35859D01*
X50495Y36359D01*
X51181D01*
X52921Y36530D01*
X54593Y37037D01*
X56135Y37861D01*
X57486Y38970D01*
X58595Y40322D01*
X59419Y41863D01*
X59927Y43536D01*
X60098Y45276D01*
X59927Y47015D01*
X59419Y48688D01*
X58595Y50230D01*
X57486Y51581D01*
X56135Y52690D01*
X54593Y53514D01*
X52921Y54021D01*
X51181Y54193D01*
X50495D01*
X50396Y54693D01*
X51447Y55128D01*
X52901Y56099D01*
X54137Y57335D01*
X55108Y58789D01*
X55777Y60404D01*
X56118Y62118D01*
Y63866D01*
X55777Y65581D01*
X55108Y67196D01*
X54137Y68649D01*
X53081Y69705D01*
X53158Y70278D01*
X53671Y70491D01*
X54702Y71282D01*
X55494Y72313D01*
X55991Y73514D01*
X56161Y74803D01*
X55991Y76092D01*
X55494Y77293D01*
X54702Y78324D01*
X53671Y79116D01*
X53158Y79328D01*
X53081Y79901D01*
X54137Y80957D01*
X55108Y82411D01*
X55777Y84026D01*
X56118Y85740D01*
Y87488D01*
X55777Y89203D01*
X55108Y90818D01*
X54137Y92271D01*
X52901Y93507D01*
X51447Y94478D01*
X49832Y95147D01*
X48118Y95488D01*
X46370D01*
X44656Y95147D01*
X43041Y94478D01*
X41587Y93507D01*
X40351Y92271D01*
X39380Y90818D01*
X38711Y89203D01*
X38370Y87488D01*
Y85740D01*
X38711Y84026D01*
X39380Y82411D01*
X40351Y80957D01*
X41407Y79901D01*
X41330Y79328D01*
X40817Y79116D01*
X39786Y78324D01*
X38995Y77293D01*
X38497Y76092D01*
X38328Y74803D01*
X38497Y73514D01*
X38995Y72313D01*
X39786Y71282D01*
X40817Y70491D01*
X41330Y70278D01*
X41407Y69705D01*
X40351Y68649D01*
X39380Y67196D01*
X38711Y65581D01*
X38370Y63866D01*
Y62118D01*
X38711Y60404D01*
X39380Y58789D01*
X40351Y57335D01*
X41587Y56099D01*
X43041Y55128D01*
X44092Y54693D01*
X43993Y54193D01*
X43307D01*
X41568Y54021D01*
X39895Y53514D01*
X38353Y52690D01*
X37002Y51581D01*
X35893Y50230D01*
X35069Y48688D01*
X34561Y47015D01*
X34390Y45276D01*
X34561Y43536D01*
X35069Y41863D01*
X35893Y40322D01*
X37002Y38970D01*
X38353Y37861D01*
X39895Y37037D01*
X41568Y36530D01*
X43307Y36359D01*
X43993D01*
X44092Y35859D01*
X43041Y35423D01*
X41587Y34452D01*
X40351Y33216D01*
X39380Y31762D01*
X38711Y30147D01*
X38370Y28433D01*
Y26685D01*
X38711Y24971D01*
X39380Y23356D01*
X40351Y21902D01*
X41587Y20666D01*
X42606Y19986D01*
Y19384D01*
X41587Y18704D01*
X40351Y17468D01*
X39380Y16014D01*
X38711Y14400D01*
X38370Y12685D01*
Y10937D01*
X38711Y9223D01*
X39380Y7608D01*
X40351Y6154D01*
X41587Y4918D01*
X43041Y3947D01*
X43693Y3677D01*
X43594Y3177D01*
X15461D01*
X15362Y3677D01*
X16014Y3947D01*
X17468Y4918D01*
X18704Y6154D01*
X19675Y7608D01*
X20344Y9223D01*
X20685Y10937D01*
Y12685D01*
X20344Y14400D01*
X19675Y16014D01*
X18704Y17468D01*
X17468Y18704D01*
X16450Y19384D01*
Y19986D01*
X17468Y20666D01*
X18704Y21902D01*
X19675Y23356D01*
X20344Y24971D01*
X20685Y26685D01*
Y28433D01*
X20344Y30147D01*
X19675Y31762D01*
X18704Y33216D01*
X17468Y34452D01*
X16014Y35423D01*
X14963Y35859D01*
X15062Y36359D01*
X15748D01*
X17488Y36530D01*
X19160Y37037D01*
X20702Y37861D01*
X22053Y38970D01*
X23162Y40322D01*
X23986Y41863D01*
X24494Y43536D01*
X24665Y45276D01*
X24494Y47015D01*
X23986Y48688D01*
X23162Y50230D01*
X22053Y51581D01*
X20702Y52690D01*
X19160Y53514D01*
X17488Y54021D01*
X15748Y54193D01*
X15062D01*
X14963Y54693D01*
X16014Y55128D01*
X17468Y56099D01*
X18704Y57335D01*
X19675Y58789D01*
X20344Y60404D01*
X20685Y62118D01*
Y63866D01*
X20344Y65581D01*
X19675Y67196D01*
X18704Y68649D01*
X17648Y69705D01*
X17725Y70278D01*
X18238Y70491D01*
X19269Y71282D01*
X20061Y72313D01*
X20558Y73514D01*
X20728Y74803D01*
X20558Y76092D01*
X20061Y77293D01*
X19269Y78324D01*
X18238Y79116D01*
X17725Y79328D01*
X17648Y79901D01*
X18704Y80957D01*
X19675Y82411D01*
X20344Y84026D01*
X20685Y85740D01*
Y87488D01*
X20344Y89203D01*
X19675Y90818D01*
X18704Y92271D01*
X17468Y93507D01*
X16014Y94478D01*
X14400Y95147D01*
X12685Y95488D01*
X10937D01*
X9223Y95147D01*
X7608Y94478D01*
X6154Y93507D01*
X4918Y92271D01*
X3947Y90818D01*
X3677Y90165D01*
X3177Y90265D01*
Y99553D01*
X3677Y99722D01*
X4353Y98841D01*
X5384Y98050D01*
X6585Y97552D01*
X7874Y97383D01*
X15748D01*
X17037Y97552D01*
X18238Y98050D01*
X19269Y98841D01*
X20061Y99872D01*
X20558Y101073D01*
X20728Y102362D01*
X20558Y103651D01*
X20061Y104852D01*
X19269Y105883D01*
X18238Y106675D01*
X17037Y107172D01*
X15748Y107342D01*
X7874D01*
X6585Y107172D01*
X5384Y106675D01*
X4353Y105883D01*
X3677Y105002D01*
X3177Y105172D01*
Y114460D01*
X3677Y114559D01*
X3947Y113907D01*
X4918Y112453D01*
X6154Y111217D01*
X7608Y110246D01*
X9223Y109577D01*
X10937Y109236D01*
X12685D01*
X14400Y109577D01*
X16014Y110246D01*
X17468Y111217D01*
X18704Y112453D01*
X19675Y113907D01*
X20344Y115522D01*
X20685Y117236D01*
Y118984D01*
X20344Y120699D01*
X19675Y122314D01*
X18704Y123767D01*
X17468Y125003D01*
X16014Y125974D01*
X14962Y126410D01*
X15062Y126910D01*
X15748D01*
X17037Y127080D01*
X18238Y127577D01*
X19269Y128369D01*
X20061Y129400D01*
X20558Y130601D01*
X20728Y131890D01*
X20558Y133179D01*
X20169Y134118D01*
X20475Y134618D01*
X38580D01*
X38886Y134118D01*
X38497Y133179D01*
X38328Y131890D01*
X38497Y130601D01*
X38995Y129400D01*
X39786Y128369D01*
X40817Y127577D01*
X42018Y127080D01*
X43307Y126910D01*
X43993D01*
X44093Y126410D01*
X43041Y125974D01*
X41587Y125003D01*
X40351Y123767D01*
X39380Y122314D01*
X38711Y120699D01*
X38370Y118984D01*
Y117236D01*
X38711Y115522D01*
X39380Y113907D01*
X40351Y112453D01*
X41587Y111217D01*
X43041Y110246D01*
X44656Y109577D01*
X46370Y109236D01*
X48118D01*
X49832Y109577D01*
X51447Y110246D01*
X52901Y111217D01*
X54137Y112453D01*
X55108Y113907D01*
X55777Y115522D01*
X56118Y117236D01*
Y118984D01*
X55777Y120699D01*
X55108Y122314D01*
X54137Y123767D01*
X52901Y125003D01*
X51447Y125974D01*
X50395Y126410D01*
X50495Y126910D01*
X51181D01*
X52470Y127080D01*
X53671Y127577D01*
X54702Y128369D01*
X55494Y129400D01*
X55991Y130601D01*
X56161Y131890D01*
X55991Y133179D01*
X55602Y134118D01*
X55908Y134618D01*
X125984D01*
X126806Y134727D01*
X127573Y135044D01*
X128231Y135549D01*
X150036Y157355D01*
X440515D01*
X462321Y135549D01*
D02*
G37*
%LPC*%
G36*
X247539Y153208D02*
X239665D01*
X238376Y153038D01*
X237176Y152541D01*
X236144Y151750D01*
X235353Y150718D01*
X234855Y149517D01*
X234686Y148228D01*
X234855Y146940D01*
X235353Y145738D01*
X236144Y144707D01*
X237176Y143916D01*
X238376Y143418D01*
X239665Y143249D01*
X247539D01*
X248828Y143418D01*
X250029Y143916D01*
X251061Y144707D01*
X251852Y145738D01*
X252349Y146940D01*
X252519Y148228D01*
X252349Y149517D01*
X251852Y150718D01*
X251061Y151750D01*
X250029Y152541D01*
X248828Y153038D01*
X247539Y153208D01*
D02*
G37*
G36*
X195337Y134075D02*
X194624D01*
X193966Y133802D01*
X193462Y133298D01*
X193189Y132640D01*
Y131927D01*
X193462Y131269D01*
X193966Y130765D01*
X194624Y130492D01*
X195337D01*
X195995Y130765D01*
X196000Y130770D01*
X201440D01*
X203064Y129147D01*
X203064Y129146D01*
X203555Y128818D01*
X204134Y128703D01*
X204134Y128703D01*
X206778D01*
X206947Y128534D01*
X207676Y128232D01*
X208466D01*
X209195Y128534D01*
X209753Y129093D01*
X210055Y129822D01*
Y130611D01*
X209753Y131341D01*
X209195Y131899D01*
X208466Y132201D01*
X207676D01*
X206947Y131899D01*
X206778Y131730D01*
X204761D01*
X203137Y133353D01*
X202646Y133682D01*
X202067Y133797D01*
X202067Y133797D01*
X196000D01*
X195995Y133802D01*
X195337Y134075D01*
D02*
G37*
G36*
X376969Y143956D02*
X375680Y143786D01*
X374479Y143289D01*
X373447Y142498D01*
X372656Y141466D01*
X372159Y140265D01*
X371989Y138976D01*
Y131102D01*
X372159Y129814D01*
X372656Y128613D01*
X373447Y127581D01*
X374479Y126790D01*
X375680Y126292D01*
X376969Y126123D01*
X378257Y126292D01*
X379458Y126790D01*
X380490Y127581D01*
X381281Y128613D01*
X381778Y129814D01*
X381948Y131102D01*
Y138976D01*
X381778Y140265D01*
X381281Y141466D01*
X380490Y142498D01*
X379458Y143289D01*
X378257Y143786D01*
X376969Y143956D01*
D02*
G37*
G36*
X473315Y126984D02*
X471567D01*
X469852Y126643D01*
X468237Y125974D01*
X466784Y125003D01*
X465548Y123767D01*
X464868Y122749D01*
X464266D01*
X463586Y123767D01*
X462350Y125003D01*
X460896Y125974D01*
X459281Y126643D01*
X457567Y126984D01*
X455819D01*
X454105Y126643D01*
X452490Y125974D01*
X451036Y125003D01*
X449800Y123767D01*
X448829Y122314D01*
X448160Y120699D01*
X447819Y118984D01*
Y117236D01*
X448160Y115522D01*
X448829Y113907D01*
X449800Y112453D01*
X451036Y111217D01*
X452490Y110246D01*
X454105Y109577D01*
X455819Y109236D01*
X457567D01*
X459281Y109577D01*
X460896Y110246D01*
X462350Y111217D01*
X463586Y112453D01*
X464266Y113472D01*
X464868D01*
X465548Y112453D01*
X466784Y111217D01*
X468237Y110246D01*
X469852Y109577D01*
X471567Y109236D01*
X473315D01*
X475029Y109577D01*
X476644Y110246D01*
X478098Y111217D01*
X479334Y112453D01*
X480305Y113907D01*
X480974Y115522D01*
X481315Y117236D01*
Y118984D01*
X480974Y120699D01*
X480305Y122314D01*
X479334Y123767D01*
X478098Y125003D01*
X476644Y125974D01*
X475029Y126643D01*
X473315Y126984D01*
D02*
G37*
G36*
X134732D02*
X132984D01*
X131270Y126643D01*
X129655Y125974D01*
X128201Y125003D01*
X126965Y123767D01*
X126285Y122749D01*
X125684D01*
X125003Y123767D01*
X123767Y125003D01*
X122314Y125974D01*
X120699Y126643D01*
X118984Y126984D01*
X117236D01*
X115522Y126643D01*
X113907Y125974D01*
X112453Y125003D01*
X111217Y123767D01*
X110246Y122314D01*
X109577Y120699D01*
X109236Y118984D01*
Y117236D01*
X109577Y115522D01*
X110246Y113907D01*
X111217Y112453D01*
X112453Y111217D01*
X113907Y110246D01*
X115522Y109577D01*
X117236Y109236D01*
X118984D01*
X120699Y109577D01*
X122314Y110246D01*
X123767Y111217D01*
X125003Y112453D01*
X125684Y113472D01*
X126285D01*
X126965Y112453D01*
X128201Y111217D01*
X129655Y110246D01*
X131270Y109577D01*
X132984Y109236D01*
X134732D01*
X136447Y109577D01*
X138062Y110246D01*
X139515Y111217D01*
X140751Y112453D01*
X141722Y113907D01*
X142391Y115522D01*
X142732Y117236D01*
Y118984D01*
X142391Y120699D01*
X141722Y122314D01*
X140751Y123767D01*
X139515Y125003D01*
X138062Y125974D01*
X136447Y126643D01*
X134732Y126984D01*
D02*
G37*
G36*
X421723Y136043D02*
X421011D01*
X420352Y135771D01*
X419848Y135267D01*
X419576Y134608D01*
Y133896D01*
X419848Y133237D01*
X419854Y133232D01*
Y122683D01*
X419529Y122359D01*
X415785D01*
X415616Y122527D01*
X414887Y122829D01*
X414097D01*
X413368Y122527D01*
X412810Y121969D01*
X412508Y121240D01*
Y120451D01*
X412810Y119721D01*
X413368Y119163D01*
X414097Y118861D01*
X414887D01*
X415616Y119163D01*
X415785Y119332D01*
X420156D01*
X420156Y119332D01*
X420735Y119447D01*
X421226Y119775D01*
X422437Y120986D01*
X422437Y120986D01*
X422765Y121477D01*
X422880Y122056D01*
X422880Y122056D01*
Y133232D01*
X422886Y133237D01*
X423158Y133896D01*
Y134608D01*
X422886Y135267D01*
X422382Y135771D01*
X421723Y136043D01*
D02*
G37*
G36*
X269391Y123244D02*
X268601D01*
X267872Y122942D01*
X267314Y122384D01*
X267012Y121654D01*
Y120865D01*
X267314Y120136D01*
X267872Y119578D01*
X268365Y119374D01*
Y118832D01*
X268069Y118710D01*
X267511Y118151D01*
X267209Y117422D01*
Y116633D01*
X267511Y115904D01*
X268069Y115345D01*
X268205Y115289D01*
X268105Y114789D01*
X253543D01*
X253195Y114720D01*
X252899Y114522D01*
X228489Y90113D01*
X228292Y89817D01*
X228223Y89468D01*
Y77937D01*
X226788Y76502D01*
X225885D01*
X225796Y76714D01*
X225238Y77273D01*
X224509Y77575D01*
X223720D01*
X222990Y77273D01*
X222432Y76714D01*
X222130Y75985D01*
Y75196D01*
X222432Y74467D01*
X222990Y73908D01*
X223720Y73606D01*
X224509D01*
X225238Y73908D01*
X225796Y74467D01*
X225885Y74679D01*
X227165D01*
X227514Y74749D01*
X227810Y74946D01*
X229778Y76915D01*
X229976Y77210D01*
X230045Y77559D01*
Y89091D01*
X253921Y112967D01*
X309745D01*
X309834Y112754D01*
X310392Y112196D01*
X311121Y111894D01*
X311910D01*
X312123Y111982D01*
X313836Y110269D01*
X313629Y109769D01*
X312126D01*
X311777Y109700D01*
X311482Y109503D01*
X282300Y80321D01*
X282088Y80409D01*
X281298D01*
X280569Y80107D01*
X280011Y79549D01*
X279709Y78820D01*
Y78031D01*
X280011Y77301D01*
X280569Y76743D01*
X281298Y76441D01*
X282088D01*
X282483Y76605D01*
X282766Y76181D01*
X281670Y75084D01*
X281523D01*
X280794Y74782D01*
X280236Y74224D01*
X279934Y73495D01*
Y72705D01*
X280236Y71976D01*
X280794Y71418D01*
X281523Y71116D01*
X282312D01*
X282441Y71169D01*
X282724Y70745D01*
X282300Y70321D01*
X282088Y70410D01*
X281298D01*
X280569Y70107D01*
X280011Y69549D01*
X279709Y68820D01*
Y68031D01*
X280011Y67301D01*
X280569Y66743D01*
X281298Y66441D01*
X282088D01*
X282817Y66743D01*
X283375Y67301D01*
X283677Y68031D01*
Y68820D01*
X283589Y69033D01*
X299767Y85211D01*
X314753D01*
X314874Y85063D01*
X314689Y84641D01*
X314591Y84563D01*
X314369D01*
X313640Y84261D01*
X313082Y83703D01*
X312994Y83490D01*
X301673D01*
X301325Y83421D01*
X301029Y83223D01*
X282993Y65187D01*
X282915Y65265D01*
X282186Y65567D01*
X281397D01*
X280667Y65265D01*
X280109Y64707D01*
X279807Y63977D01*
Y63188D01*
X280109Y62459D01*
X280667Y61901D01*
X281397Y61598D01*
X282186D01*
X282915Y61901D01*
X283473Y62459D01*
X283776Y63188D01*
Y63393D01*
X302051Y81668D01*
X312994D01*
X313082Y81455D01*
X313473Y81063D01*
X313519Y81017D01*
X313236Y80594D01*
X313188Y80613D01*
X312760Y80791D01*
X311970D01*
X311241Y80489D01*
X310683Y79930D01*
X310595Y79718D01*
X303117D01*
X302769Y79648D01*
X302473Y79451D01*
X282973Y59951D01*
X282817Y60107D01*
X282088Y60409D01*
X281298D01*
X280569Y60107D01*
X280011Y59549D01*
X279709Y58820D01*
Y58030D01*
X280011Y57301D01*
X280569Y56743D01*
X281298Y56441D01*
X282088D01*
X282817Y56743D01*
X283375Y57301D01*
X283677Y58030D01*
Y58078D01*
X303495Y77895D01*
X308915D01*
X309014Y77395D01*
X308718Y77273D01*
X308160Y76714D01*
X308072Y76502D01*
X304724D01*
X304376Y76432D01*
X304080Y76235D01*
X282885Y55040D01*
X282817Y55107D01*
X282088Y55409D01*
X281298D01*
X280569Y55107D01*
X280011Y54549D01*
X279709Y53820D01*
Y53031D01*
X280011Y52301D01*
X280569Y51743D01*
X281298Y51441D01*
X282088D01*
X282817Y51743D01*
X283375Y52301D01*
X283677Y53031D01*
Y53255D01*
X305102Y74679D01*
X308072D01*
X308160Y74467D01*
X308718Y73908D01*
X309448Y73606D01*
X310193D01*
X310290Y73491D01*
X310445Y73151D01*
X309282Y71988D01*
X309019Y71916D01*
X308621Y71941D01*
X308604Y71958D01*
X307875Y72260D01*
X307086D01*
X306356Y71958D01*
X306176Y71777D01*
X304331D01*
X303982Y71708D01*
X303686Y71510D01*
X282370Y50194D01*
X282088Y50311D01*
X281298D01*
X280569Y50009D01*
X280011Y49451D01*
X279709Y48722D01*
Y47932D01*
X280011Y47203D01*
X280569Y46645D01*
X281298Y46343D01*
X282088D01*
X282817Y46645D01*
X283375Y47203D01*
X283677Y47932D01*
Y48722D01*
X283618Y48865D01*
X302090Y67336D01*
X302628Y67168D01*
X302854Y66624D01*
X303228Y66249D01*
X282300Y45321D01*
X282088Y45409D01*
X281298D01*
X280569Y45107D01*
X280011Y44549D01*
X279709Y43820D01*
Y43031D01*
X280011Y42301D01*
X280569Y41743D01*
X281298Y41441D01*
X282088D01*
X282817Y41743D01*
X283375Y42301D01*
X283677Y43031D01*
Y43820D01*
X283589Y44033D01*
X305176Y65620D01*
X305374Y65915D01*
X305381Y65950D01*
X305660Y66066D01*
X306218Y66624D01*
X306520Y67353D01*
Y67984D01*
X306847Y68278D01*
X306982Y68334D01*
X307086Y68291D01*
X307875D01*
X308431Y68522D01*
X308931Y68267D01*
Y45063D01*
X305715Y41846D01*
X305609D01*
X304880Y41544D01*
X304322Y40986D01*
X304020Y40257D01*
Y39467D01*
X304322Y38738D01*
X304880Y38180D01*
X305609Y37878D01*
X306399D01*
X307128Y38180D01*
X307686Y38738D01*
X307988Y39467D01*
Y40257D01*
X307686Y40986D01*
X307559Y41113D01*
X308737Y42290D01*
X309237Y42083D01*
Y41690D01*
X309539Y40961D01*
X310097Y40403D01*
X310826Y40101D01*
X311019D01*
X311226Y39601D01*
X293062Y21436D01*
X292865Y21141D01*
X292795Y20792D01*
Y20220D01*
X292583Y20132D01*
X292024Y19574D01*
X291722Y18845D01*
Y18055D01*
X292024Y17326D01*
X292583Y16768D01*
X293312Y16466D01*
X294101D01*
X294830Y16768D01*
X295389Y17326D01*
X295691Y18055D01*
Y18845D01*
X295389Y19574D01*
X294922Y20041D01*
X294853Y20501D01*
X294863Y20660D01*
X320022Y45819D01*
X320220Y46115D01*
X320289Y46464D01*
Y56894D01*
X345693Y82299D01*
X345891Y82594D01*
X345960Y82943D01*
Y91587D01*
X346173Y91675D01*
X346731Y92233D01*
X347034Y92963D01*
Y93752D01*
X346731Y94481D01*
X346955Y94965D01*
X347265D01*
X347994Y95267D01*
X348552Y95825D01*
X348854Y96554D01*
Y97343D01*
X348830Y97403D01*
X349107Y97819D01*
X349214D01*
X349943Y98121D01*
X350501Y98679D01*
X350803Y99409D01*
Y100198D01*
X350778Y100258D01*
X351056Y100673D01*
X351182D01*
X351911Y100975D01*
X352470Y101533D01*
X352772Y102263D01*
Y103052D01*
X352588Y103496D01*
X352594Y103521D01*
X352938Y103958D01*
X353491D01*
X354221Y104260D01*
X354683Y104168D01*
X354685Y104162D01*
X355244Y103604D01*
X355456Y103516D01*
Y70467D01*
X354912Y69923D01*
X354610Y69194D01*
Y68405D01*
X354808Y67927D01*
X354507Y67427D01*
X352956D01*
X352585Y67798D01*
X352673Y68011D01*
Y68800D01*
X352371Y69529D01*
X351813Y70088D01*
X351084Y70390D01*
X350294D01*
X349565Y70088D01*
X349007Y69529D01*
X348705Y68800D01*
Y68011D01*
X349007Y67282D01*
X349565Y66723D01*
X350294Y66421D01*
X351084D01*
X351296Y66509D01*
X351934Y65871D01*
X352230Y65674D01*
X352579Y65605D01*
X365188D01*
X365359Y65639D01*
X365845Y65437D01*
X366635D01*
X367364Y65739D01*
X367922Y66297D01*
X368224Y67027D01*
Y67816D01*
X367922Y68545D01*
X367839Y68629D01*
X367956Y69218D01*
X368348Y69381D01*
X368907Y69939D01*
X369209Y70668D01*
Y71458D01*
X368907Y72187D01*
X368348Y72745D01*
X367619Y73047D01*
X366830D01*
X366617Y72959D01*
X365580Y73997D01*
X365599Y74096D01*
X365704Y74175D01*
X366157Y74336D01*
X366731Y74098D01*
X367521D01*
X368250Y74401D01*
X368808Y74959D01*
X369110Y75688D01*
Y76477D01*
X368808Y77207D01*
X368250Y77765D01*
X368037Y77853D01*
Y108465D01*
X367968Y108813D01*
X367770Y109109D01*
X365565Y111314D01*
X365269Y111512D01*
X364921Y111581D01*
X315255D01*
X315113Y111787D01*
X315376Y112287D01*
X315749D01*
X316478Y112590D01*
X317037Y113148D01*
X317234Y113624D01*
X317775D01*
X317903Y113315D01*
X318461Y112757D01*
X319191Y112455D01*
X319980D01*
X320709Y112757D01*
X321268Y113315D01*
X321570Y114044D01*
Y114834D01*
X321268Y115563D01*
X320709Y116121D01*
X320497Y116209D01*
Y116930D01*
X320427Y117279D01*
X320230Y117575D01*
X315900Y121904D01*
X315605Y122102D01*
X315256Y122171D01*
X270766D01*
X270678Y122384D01*
X270120Y122942D01*
X269391Y123244D01*
D02*
G37*
G36*
X229627Y147358D02*
X228838D01*
X228108Y147056D01*
X227550Y146498D01*
X227248Y145769D01*
Y144979D01*
X227550Y144250D01*
X228108Y143692D01*
X228838Y143390D01*
X229036D01*
Y121948D01*
X228823Y121859D01*
X228265Y121301D01*
X227963Y120572D01*
Y119782D01*
X228265Y119053D01*
X228823Y118495D01*
X229036Y118407D01*
Y115758D01*
X225811Y112533D01*
X225311Y112740D01*
Y113092D01*
X225009Y113821D01*
X224451Y114379D01*
X223722Y114681D01*
X222932D01*
X222203Y114379D01*
X221751Y113928D01*
X169119D01*
X168770Y113858D01*
X168474Y113661D01*
X132595Y77781D01*
X86713D01*
X86364Y77712D01*
X86068Y77514D01*
X84220Y75666D01*
X84116Y75709D01*
X83403D01*
X82745Y75436D01*
X82241Y74932D01*
X81968Y74274D01*
Y73561D01*
X82241Y72903D01*
X82745Y72399D01*
X83403Y72126D01*
X84116D01*
X84775Y72399D01*
X85278Y72903D01*
X85551Y73561D01*
Y74274D01*
X85508Y74377D01*
X87090Y75959D01*
X87634D01*
X87712Y75816D01*
X87788Y75459D01*
X87359Y75030D01*
X87087Y74372D01*
Y73659D01*
X87359Y73001D01*
X87863Y72497D01*
X88522Y72224D01*
X89234D01*
X89893Y72497D01*
X90397Y73001D01*
X90439Y73105D01*
X133858D01*
X134207Y73174D01*
X134503Y73371D01*
X170259Y109128D01*
X214667D01*
X214755Y108915D01*
X215313Y108357D01*
X216042Y108055D01*
X216832D01*
X217561Y108357D01*
X218119Y108915D01*
X218421Y109645D01*
Y110434D01*
X218119Y111163D01*
X217677Y111605D01*
X217842Y112105D01*
X221424D01*
X221645Y111573D01*
X222203Y111015D01*
X222932Y110713D01*
X223284D01*
X223491Y110213D01*
X222584Y109305D01*
X222386Y109010D01*
X222317Y108661D01*
Y85333D01*
X222104Y85245D01*
X221546Y84687D01*
X221244Y83958D01*
Y83168D01*
X221546Y82439D01*
X222104Y81881D01*
X222834Y81579D01*
X223623D01*
X224352Y81881D01*
X224426Y81955D01*
X224926Y81748D01*
Y81256D01*
X224507Y80836D01*
X203031D01*
X185148Y98719D01*
X184788Y98960D01*
X184362Y99045D01*
X184362Y99045D01*
X163681D01*
X163256Y98960D01*
X162895Y98719D01*
X157872Y93697D01*
X157631Y93336D01*
X157547Y92910D01*
X157547Y92910D01*
Y91703D01*
X157547Y91703D01*
X157631Y91277D01*
X157872Y90917D01*
X161979Y86810D01*
Y67732D01*
X160364D01*
Y67913D01*
X160279Y68339D01*
X160038Y68700D01*
X156298Y72440D01*
X155937Y72681D01*
X155512Y72765D01*
X155512Y72765D01*
X150165D01*
X148677Y74253D01*
Y75958D01*
X148677Y75958D01*
X148593Y76384D01*
X148352Y76744D01*
X148352Y76744D01*
X147406Y77691D01*
X147457Y77814D01*
Y78682D01*
X147125Y79483D01*
X146511Y80097D01*
X145709Y80429D01*
X144842D01*
X144040Y80097D01*
X143427Y79483D01*
X143095Y78682D01*
Y77814D01*
X143427Y77012D01*
X144040Y76399D01*
X144842Y76067D01*
X145709D01*
X145833Y76118D01*
X146454Y75498D01*
Y73793D01*
X146454Y73793D01*
X146538Y73367D01*
X146779Y73006D01*
X148918Y70867D01*
X148918Y70867D01*
X149279Y70626D01*
X149705Y70542D01*
X149705Y70542D01*
X155051D01*
X157399Y68194D01*
X157207Y67732D01*
X156283D01*
Y61402D01*
X162614D01*
Y65180D01*
X163076Y65371D01*
X165934Y62513D01*
X165929Y62501D01*
Y61712D01*
X166231Y60982D01*
X166789Y60424D01*
X167519Y60122D01*
X168308D01*
X169037Y60424D01*
X169596Y60982D01*
X169898Y61712D01*
Y62501D01*
X169596Y63230D01*
X169037Y63788D01*
X168308Y64091D01*
X167519D01*
X167507Y64086D01*
X164202Y67390D01*
Y87271D01*
X164202Y87271D01*
X164118Y87697D01*
X163877Y88057D01*
X163877Y88057D01*
X159770Y92164D01*
Y92450D01*
X164142Y96821D01*
X183902D01*
X201784Y78938D01*
X201784Y78938D01*
X202145Y78697D01*
X202571Y78613D01*
X224968D01*
X224968Y78613D01*
X225393Y78697D01*
X225754Y78938D01*
X226824Y80009D01*
X227065Y80369D01*
X227150Y80795D01*
X227150Y80795D01*
Y98314D01*
X256071Y127234D01*
X344717D01*
X351970Y119982D01*
X351970Y119982D01*
X352330Y119740D01*
X352756Y119656D01*
X352756Y119656D01*
X396411D01*
X413077Y102989D01*
X413072Y102977D01*
Y102188D01*
X413374Y101458D01*
X413933Y100900D01*
X414662Y100598D01*
X415451D01*
X416181Y100900D01*
X416739Y101458D01*
X417041Y102188D01*
Y102977D01*
X416739Y103706D01*
X416181Y104264D01*
X415451Y104567D01*
X414662D01*
X414650Y104562D01*
X397657Y121554D01*
X397297Y121795D01*
X396871Y121880D01*
X396871Y121880D01*
X353217D01*
X345963Y129133D01*
X345603Y129374D01*
X345177Y129458D01*
X345177Y129458D01*
X255610D01*
X255185Y129374D01*
X254824Y129133D01*
X254824Y129133D01*
X225252Y99561D01*
X225011Y99200D01*
X224926Y98774D01*
X224926Y98774D01*
Y85586D01*
X224439Y85348D01*
X224139Y85537D01*
Y108284D01*
X230592Y114736D01*
X230789Y115032D01*
X230858Y115380D01*
Y118407D01*
X231071Y118495D01*
X231629Y119053D01*
X231931Y119782D01*
Y120572D01*
X231629Y121301D01*
X231071Y121859D01*
X230858Y121948D01*
Y144194D01*
X230914Y144250D01*
X231217Y144979D01*
Y145769D01*
X230914Y146498D01*
X230356Y147056D01*
X229627Y147358D01*
D02*
G37*
G36*
X470472Y101738D02*
X469105Y101558D01*
X468791Y101428D01*
X467520D01*
X466488Y101292D01*
X465526Y100894D01*
X464929Y100435D01*
X464567Y100307D01*
X464205Y100435D01*
X463608Y100894D01*
X462646Y101292D01*
X461614Y101428D01*
X460343D01*
X460028Y101558D01*
X458661Y101738D01*
X457295Y101558D01*
X456980Y101428D01*
X455709D01*
X454677Y101292D01*
X453715Y100894D01*
X452889Y100260D01*
X452256Y99434D01*
X451858Y98473D01*
X451722Y97441D01*
Y87598D01*
X451858Y86567D01*
X452256Y85605D01*
X452889Y84779D01*
X453715Y84146D01*
X454677Y83747D01*
X455709Y83612D01*
X456980D01*
X457295Y83481D01*
X458661Y83301D01*
X460028Y83481D01*
X460343Y83612D01*
X461614D01*
X462646Y83747D01*
X463608Y84146D01*
X464205Y84604D01*
X464567Y84732D01*
X464929Y84604D01*
X465526Y84146D01*
X466488Y83747D01*
X467520Y83612D01*
X468791D01*
X469105Y83481D01*
X470472Y83301D01*
X471839Y83481D01*
X472154Y83612D01*
X473425D01*
X474457Y83747D01*
X475419Y84146D01*
X476244Y84779D01*
X476878Y85605D01*
X477276Y86567D01*
X477412Y87598D01*
Y97441D01*
X477276Y98473D01*
X476878Y99434D01*
X476244Y100260D01*
X475419Y100894D01*
X474457Y101292D01*
X473425Y101428D01*
X472154D01*
X471839Y101558D01*
X470472Y101738D01*
D02*
G37*
G36*
X131890D02*
X130523Y101558D01*
X130208Y101428D01*
X128937D01*
X127905Y101292D01*
X126944Y100894D01*
X126346Y100435D01*
X125984Y100307D01*
X125622Y100435D01*
X125025Y100894D01*
X124063Y101292D01*
X123031Y101428D01*
X121760D01*
X121446Y101558D01*
X120079Y101738D01*
X118712Y101558D01*
X118397Y101428D01*
X117126D01*
X116094Y101292D01*
X115132Y100894D01*
X114307Y100260D01*
X113673Y99434D01*
X113275Y98473D01*
X113139Y97441D01*
Y87598D01*
X113275Y86567D01*
X113673Y85605D01*
X114307Y84779D01*
X115132Y84146D01*
X116094Y83747D01*
X117126Y83612D01*
X118397D01*
X118712Y83481D01*
X120079Y83301D01*
X121446Y83481D01*
X121760Y83612D01*
X123031D01*
X124063Y83747D01*
X125025Y84146D01*
X125622Y84604D01*
X125984Y84732D01*
X126346Y84604D01*
X126944Y84146D01*
X127905Y83747D01*
X128937Y83612D01*
X130208D01*
X130523Y83481D01*
X131890Y83301D01*
X133257Y83481D01*
X133571Y83612D01*
X134843D01*
X135874Y83747D01*
X136836Y84146D01*
X137662Y84779D01*
X138295Y85605D01*
X138693Y86567D01*
X138829Y87598D01*
Y97441D01*
X138693Y98473D01*
X138295Y99434D01*
X137662Y100260D01*
X136836Y100894D01*
X135874Y101292D01*
X134843Y101428D01*
X133571D01*
X133257Y101558D01*
X131890Y101738D01*
D02*
G37*
G36*
X547244Y107342D02*
X539370D01*
X538081Y107172D01*
X536880Y106675D01*
X535849Y105883D01*
X535058Y104852D01*
X534560Y103651D01*
X534390Y102362D01*
X534560Y101073D01*
X535058Y99872D01*
X535849Y98841D01*
X536880Y98050D01*
X538081Y97552D01*
X539370Y97383D01*
X547244D01*
X548533Y97552D01*
X549734Y98050D01*
X550765Y98841D01*
X551557Y99872D01*
X552054Y101073D01*
X552224Y102362D01*
X552054Y103651D01*
X551557Y104852D01*
X550765Y105883D01*
X549734Y106675D01*
X548533Y107172D01*
X547244Y107342D01*
D02*
G37*
G36*
X51181D02*
X43307D01*
X42018Y107172D01*
X40817Y106675D01*
X39786Y105883D01*
X38995Y104852D01*
X38497Y103651D01*
X38328Y102362D01*
X38497Y101073D01*
X38995Y99872D01*
X39786Y98841D01*
X40817Y98050D01*
X42018Y97552D01*
X43307Y97383D01*
X51181D01*
X52470Y97552D01*
X53671Y98050D01*
X54702Y98841D01*
X55494Y99872D01*
X55991Y101073D01*
X56161Y102362D01*
X55991Y103651D01*
X55494Y104852D01*
X54702Y105883D01*
X53671Y106675D01*
X52470Y107172D01*
X51181Y107342D01*
D02*
G37*
G36*
X70829Y105048D02*
X70116D01*
X69458Y104775D01*
X68954Y104271D01*
X68681Y103613D01*
Y102900D01*
X68954Y102242D01*
X69458Y101738D01*
X70116Y101465D01*
X70829D01*
X71487Y101738D01*
X71492Y101743D01*
X82042D01*
X82247Y101539D01*
Y97257D01*
X81979Y96990D01*
X81677Y96261D01*
Y95472D01*
X81979Y94742D01*
X82537Y94184D01*
X83267Y93882D01*
X84056D01*
X84785Y94184D01*
X85344Y94742D01*
X85646Y95472D01*
Y96261D01*
X85344Y96990D01*
X85273Y97061D01*
Y102165D01*
X85273Y102165D01*
X85158Y102744D01*
X84830Y103235D01*
X84830Y103235D01*
X83739Y104327D01*
X83248Y104655D01*
X82669Y104770D01*
X82668Y104770D01*
X71492D01*
X71487Y104775D01*
X70829Y105048D01*
D02*
G37*
G36*
X371261Y95587D02*
X370472D01*
X369742Y95284D01*
X369184Y94726D01*
X368882Y93997D01*
Y93208D01*
X369184Y92478D01*
X369742Y91920D01*
X370472Y91618D01*
X371242D01*
X371294Y91566D01*
Y90983D01*
X371364Y90635D01*
X371561Y90339D01*
X372190Y89710D01*
X372486Y89512D01*
X372835Y89443D01*
X384068D01*
X384111Y89340D01*
X384615Y88836D01*
X385274Y88563D01*
X385986D01*
X386645Y88836D01*
X387148Y89340D01*
X387421Y89998D01*
Y90711D01*
X387148Y91369D01*
X386645Y91873D01*
X385986Y92146D01*
X385274D01*
X384615Y91873D01*
X384111Y91369D01*
X384068Y91265D01*
X373212D01*
X373117Y91361D01*
Y91943D01*
X373047Y92292D01*
X372850Y92588D01*
X372669Y92769D01*
X372850Y93208D01*
Y93997D01*
X372548Y94726D01*
X371990Y95284D01*
X371261Y95587D01*
D02*
G37*
G36*
X416339Y89625D02*
X415050Y89456D01*
X413849Y88958D01*
X412817Y88167D01*
X412026Y87135D01*
X411529Y85935D01*
X411359Y84646D01*
Y76772D01*
X411529Y75483D01*
X412026Y74282D01*
X412817Y73251D01*
X413849Y72459D01*
X415050Y71962D01*
X416339Y71792D01*
X417627Y71962D01*
X418828Y72459D01*
X419860Y73251D01*
X420651Y74282D01*
X421148Y75483D01*
X421318Y76772D01*
Y84646D01*
X421148Y85935D01*
X420651Y87135D01*
X419860Y88167D01*
X418828Y88958D01*
X417627Y89456D01*
X416339Y89625D01*
D02*
G37*
G36*
X173692Y93658D02*
X172903D01*
X172174Y93356D01*
X171616Y92797D01*
X171314Y92068D01*
Y91279D01*
X171616Y90549D01*
X172174Y89991D01*
X172387Y89903D01*
Y87234D01*
X172456Y86885D01*
X172653Y86589D01*
X188726Y70517D01*
X189021Y70320D01*
X189370Y70250D01*
X221864D01*
X221907Y70147D01*
X222410Y69643D01*
X223069Y69370D01*
X223781D01*
X224440Y69643D01*
X224944Y70147D01*
X225217Y70805D01*
Y71518D01*
X224944Y72176D01*
X224440Y72680D01*
X223781Y72953D01*
X223069D01*
X222410Y72680D01*
X221907Y72176D01*
X221864Y72073D01*
X189748D01*
X174209Y87611D01*
Y89903D01*
X174422Y89991D01*
X174980Y90549D01*
X175282Y91279D01*
Y92068D01*
X174980Y92797D01*
X174422Y93356D01*
X173692Y93658D01*
D02*
G37*
G36*
X243504Y86574D02*
X242215Y86404D01*
X241014Y85907D01*
X239983Y85116D01*
X239192Y84084D01*
X238694Y82883D01*
X238524Y81595D01*
Y73721D01*
X238694Y72432D01*
X239192Y71231D01*
X239983Y70199D01*
X241014Y69408D01*
X242215Y68911D01*
X243504Y68741D01*
X244793Y68911D01*
X245994Y69408D01*
X247025Y70199D01*
X247816Y71231D01*
X248314Y72432D01*
X248484Y73721D01*
Y81595D01*
X248314Y82883D01*
X247816Y84084D01*
X247025Y85116D01*
X245994Y85907D01*
X244793Y86404D01*
X243504Y86574D01*
D02*
G37*
G36*
X180828Y59794D02*
X180116D01*
X179457Y59522D01*
X178953Y59018D01*
X178681Y58359D01*
Y57647D01*
X178953Y56988D01*
X179457Y56485D01*
X180116Y56212D01*
X180828D01*
X181487Y56485D01*
X181991Y56988D01*
X182263Y57647D01*
Y58359D01*
X181991Y59018D01*
X181487Y59522D01*
X180828Y59794D01*
D02*
G37*
G36*
X470472Y52526D02*
X469105Y52346D01*
X468791Y52215D01*
X467520D01*
X466488Y52079D01*
X465526Y51681D01*
X464929Y51223D01*
X464567Y51095D01*
X464205Y51223D01*
X463608Y51681D01*
X462646Y52079D01*
X461614Y52215D01*
X460343D01*
X460028Y52346D01*
X458661Y52526D01*
X457295Y52346D01*
X456980Y52215D01*
X455709D01*
X454677Y52079D01*
X453715Y51681D01*
X452889Y51047D01*
X452256Y50222D01*
X451858Y49260D01*
X451722Y48228D01*
Y38386D01*
X451858Y37354D01*
X452256Y36392D01*
X452889Y35567D01*
X453715Y34933D01*
X454677Y34535D01*
X455709Y34399D01*
X456980D01*
X457295Y34269D01*
X458661Y34089D01*
X460028Y34269D01*
X460343Y34399D01*
X461614D01*
X462646Y34535D01*
X463608Y34933D01*
X464205Y35391D01*
X464567Y35519D01*
X464929Y35391D01*
X465526Y34933D01*
X466488Y34535D01*
X467520Y34399D01*
X468791D01*
X469105Y34269D01*
X470472Y34089D01*
X471839Y34269D01*
X472154Y34399D01*
X473425D01*
X474457Y34535D01*
X475419Y34933D01*
X476244Y35567D01*
X476878Y36392D01*
X477276Y37354D01*
X477412Y38386D01*
Y48228D01*
X477276Y49260D01*
X476878Y50222D01*
X476244Y51047D01*
X475419Y51681D01*
X474457Y52079D01*
X473425Y52215D01*
X472154D01*
X471839Y52346D01*
X470472Y52526D01*
D02*
G37*
G36*
X131890D02*
X130523Y52346D01*
X130208Y52215D01*
X128937D01*
X127905Y52079D01*
X126944Y51681D01*
X126346Y51223D01*
X125984Y51095D01*
X125622Y51223D01*
X125025Y51681D01*
X124063Y52079D01*
X123031Y52215D01*
X121760D01*
X121446Y52346D01*
X120079Y52526D01*
X118712Y52346D01*
X118397Y52215D01*
X117126D01*
X116094Y52079D01*
X115132Y51681D01*
X114307Y51047D01*
X113673Y50222D01*
X113275Y49260D01*
X113139Y48228D01*
Y38386D01*
X113275Y37354D01*
X113673Y36392D01*
X114307Y35567D01*
X115132Y34933D01*
X116094Y34535D01*
X117126Y34399D01*
X118397D01*
X118712Y34269D01*
X120079Y34089D01*
X121446Y34269D01*
X121760Y34399D01*
X123031D01*
X124063Y34535D01*
X125025Y34933D01*
X125622Y35391D01*
X125984Y35519D01*
X126346Y35391D01*
X126944Y34933D01*
X127905Y34535D01*
X128937Y34399D01*
X130208D01*
X130523Y34269D01*
X131890Y34089D01*
X133257Y34269D01*
X133571Y34399D01*
X134843D01*
X135874Y34535D01*
X136836Y34933D01*
X137662Y35567D01*
X138295Y36392D01*
X138693Y37354D01*
X138829Y38386D01*
Y48228D01*
X138693Y49260D01*
X138295Y50222D01*
X137662Y51047D01*
X136836Y51681D01*
X135874Y52079D01*
X134843Y52215D01*
X133571D01*
X133257Y52346D01*
X131890Y52526D01*
D02*
G37*
G36*
X164796Y94571D02*
X164007D01*
X163277Y94269D01*
X162719Y93711D01*
X162417Y92981D01*
Y92192D01*
X162719Y91463D01*
X163277Y90904D01*
X164007Y90602D01*
X164796D01*
X165009Y90691D01*
X167101Y88599D01*
Y84449D01*
X167170Y84100D01*
X167367Y83805D01*
X194238Y56934D01*
X194533Y56737D01*
X194882Y56668D01*
X214962D01*
X215050Y56455D01*
X215608Y55897D01*
X215821Y55808D01*
Y50771D01*
X213894Y48844D01*
X198030D01*
X197942Y49057D01*
X197384Y49615D01*
X196654Y49917D01*
X195865D01*
X195136Y49615D01*
X194578Y49057D01*
X194276Y48328D01*
Y47538D01*
X194314Y47445D01*
X193890Y47162D01*
X186541Y54511D01*
Y56214D01*
X186645Y56257D01*
X187148Y56761D01*
X187421Y57419D01*
Y58132D01*
X187148Y58790D01*
X186645Y59294D01*
X185986Y59567D01*
X185274D01*
X184615Y59294D01*
X184111Y58790D01*
X183839Y58132D01*
Y57419D01*
X184111Y56761D01*
X184615Y56257D01*
X184719Y56214D01*
Y54134D01*
X184788Y53785D01*
X184986Y53490D01*
X202702Y35773D01*
X202998Y35576D01*
X203346Y35506D01*
X251181D01*
X251530Y35576D01*
X251825Y35773D01*
X257661Y41609D01*
X260595D01*
X260683Y41396D01*
X261241Y40837D01*
X261971Y40535D01*
X262760D01*
X263489Y40837D01*
X264048Y41396D01*
X264350Y42125D01*
Y42914D01*
X264048Y43644D01*
X263489Y44202D01*
X262760Y44504D01*
X261971D01*
X261241Y44202D01*
X260683Y43644D01*
X260595Y43431D01*
X257283D01*
X256935Y43361D01*
X256639Y43164D01*
X250804Y37328D01*
X245556D01*
X245456Y37828D01*
X245895Y38010D01*
X246927Y38802D01*
X247718Y39833D01*
X248215Y41034D01*
X248385Y42323D01*
Y50197D01*
X248215Y51486D01*
X247718Y52687D01*
X246927Y53718D01*
X245895Y54509D01*
X244694Y55007D01*
X243406Y55176D01*
X242117Y55007D01*
X240916Y54509D01*
X239884Y53718D01*
X239093Y52687D01*
X238596Y51486D01*
X238426Y50197D01*
Y42323D01*
X238596Y41034D01*
X239093Y39833D01*
X239884Y38802D01*
X240916Y38010D01*
X241355Y37828D01*
X241255Y37328D01*
X203724D01*
X195489Y45563D01*
X195772Y45987D01*
X195865Y45949D01*
X196654D01*
X197384Y46251D01*
X197942Y46809D01*
X198030Y47022D01*
X214272D01*
X214620Y47091D01*
X214916Y47289D01*
X217377Y49749D01*
X217574Y50045D01*
X217643Y50394D01*
Y55808D01*
X217856Y55897D01*
X218414Y56455D01*
X218717Y57184D01*
Y57973D01*
X218414Y58703D01*
X217856Y59261D01*
X217127Y59563D01*
X216338D01*
X215608Y59261D01*
X215050Y58703D01*
X214962Y58490D01*
X195259D01*
X168923Y84826D01*
Y88976D01*
X168854Y89325D01*
X168656Y89621D01*
X166298Y91979D01*
X166386Y92192D01*
Y92981D01*
X166084Y93711D01*
X165525Y94269D01*
X164796Y94571D01*
D02*
G37*
G36*
X350985Y45409D02*
X350196D01*
X349467Y45107D01*
X348908Y44549D01*
X348820Y44336D01*
X338504D01*
X338155Y44267D01*
X337860Y44069D01*
X337517Y43727D01*
X337304Y43815D01*
X336515D01*
X335786Y43513D01*
X335227Y42955D01*
X334925Y42225D01*
Y41436D01*
X335227Y40707D01*
X335508Y40426D01*
X335571Y39917D01*
X335471Y39810D01*
X335013Y39352D01*
X334711Y38623D01*
Y37833D01*
X335013Y37104D01*
X335571Y36546D01*
X336301Y36244D01*
X337090D01*
X337819Y36546D01*
X338377Y37104D01*
X338466Y37317D01*
X348822D01*
X348890Y37153D01*
X349448Y36595D01*
X350177Y36293D01*
X350967D01*
X351696Y36595D01*
X352254Y37153D01*
X352556Y37883D01*
Y38672D01*
X352254Y39401D01*
X351696Y39960D01*
X350967Y40262D01*
X350177D01*
X349448Y39960D01*
X348890Y39401D01*
X348781Y39139D01*
X338466D01*
X338377Y39352D01*
X338096Y39633D01*
X338034Y40142D01*
X338134Y40249D01*
X338592Y40707D01*
X338894Y41436D01*
Y42225D01*
X339315Y42514D01*
X348820D01*
X348908Y42301D01*
X349467Y41743D01*
X350196Y41441D01*
X350985D01*
X351714Y41743D01*
X352273Y42301D01*
X352575Y43031D01*
Y43820D01*
X352273Y44549D01*
X351714Y45107D01*
X350985Y45409D01*
D02*
G37*
G36*
X387922Y49091D02*
X386881D01*
X385876Y48821D01*
X384975Y48301D01*
X384239Y47565D01*
X383718Y46663D01*
X383449Y45658D01*
Y44617D01*
X383718Y43612D01*
X384239Y42711D01*
X384975Y41975D01*
X385876Y41454D01*
X386881Y41185D01*
X387922D01*
X388927Y41454D01*
X389829Y41975D01*
X390565Y42711D01*
X391085Y43612D01*
X391354Y44617D01*
Y45658D01*
X391085Y46663D01*
X390565Y47565D01*
X389829Y48301D01*
X388927Y48821D01*
X387922Y49091D01*
D02*
G37*
G36*
X377922D02*
X376881D01*
X375876Y48821D01*
X374974Y48301D01*
X374239Y47565D01*
X373718Y46663D01*
X373449Y45658D01*
Y44617D01*
X373718Y43612D01*
X374239Y42711D01*
X374974Y41975D01*
X375876Y41454D01*
X376881Y41185D01*
X377922D01*
X378927Y41454D01*
X379829Y41975D01*
X380565Y42711D01*
X381085Y43612D01*
X381354Y44617D01*
Y45658D01*
X381085Y46663D01*
X380565Y47565D01*
X379829Y48301D01*
X378927Y48821D01*
X377922Y49091D01*
D02*
G37*
G36*
X143406Y66551D02*
X142617D01*
X141888Y66249D01*
X141330Y65691D01*
X141028Y64962D01*
Y64172D01*
X141330Y63443D01*
X141888Y62885D01*
X142617Y62583D01*
X143406D01*
X143675Y62153D01*
Y31367D01*
X143745Y31018D01*
X143942Y30722D01*
X144404Y30261D01*
X144699Y30064D01*
X145048Y29994D01*
X179724D01*
X180073Y30064D01*
X180369Y30261D01*
X185416Y35309D01*
X185629Y35221D01*
X186418D01*
X187148Y35523D01*
X187706Y36081D01*
X188008Y36810D01*
Y37599D01*
X187706Y38329D01*
X187148Y38887D01*
X186418Y39189D01*
X185629D01*
X184900Y38887D01*
X184342Y38329D01*
X184039Y37599D01*
Y36810D01*
X184127Y36597D01*
X179347Y31817D01*
X145498D01*
Y62992D01*
X145429Y63341D01*
X145231Y63636D01*
X144908Y63959D01*
X144996Y64172D01*
Y64962D01*
X144694Y65691D01*
X144136Y66249D01*
X143406Y66551D01*
D02*
G37*
G36*
X350985Y65370D02*
X350196D01*
X349467Y65068D01*
X348908Y64510D01*
X348606Y63780D01*
Y62991D01*
X348908Y62262D01*
X349467Y61704D01*
X350196Y61402D01*
X350985D01*
X351714Y61704D01*
X352273Y62262D01*
X352383Y62528D01*
X359707D01*
X360801Y61434D01*
Y11204D01*
X357201Y7604D01*
X285454D01*
X283687Y9371D01*
Y31906D01*
X284137Y32357D01*
X287009D01*
X287097Y32144D01*
X287655Y31586D01*
X288385Y31284D01*
X289174D01*
X289903Y31586D01*
X290462Y32144D01*
X290764Y32873D01*
Y33662D01*
X290462Y34392D01*
X289903Y34950D01*
X289174Y35252D01*
X288385D01*
X287655Y34950D01*
X287097Y34392D01*
X287009Y34179D01*
X283760D01*
X283411Y34110D01*
X283116Y33912D01*
X282131Y32928D01*
X281934Y32632D01*
X281864Y32283D01*
Y25237D01*
X281402Y25045D01*
X281341Y25107D01*
X280611Y25409D01*
X279822D01*
X279093Y25107D01*
X278534Y24549D01*
X278232Y23820D01*
Y23031D01*
X278521Y22334D01*
X278518Y22318D01*
Y16334D01*
X278018Y16127D01*
X277797Y16348D01*
X277068Y16650D01*
X276278D01*
X275549Y16348D01*
X274991Y15789D01*
X274689Y15060D01*
Y14271D01*
X274777Y14058D01*
X272215Y11496D01*
X271655Y11728D01*
X270865D01*
X270136Y11426D01*
X269578Y10868D01*
X269276Y10139D01*
Y9349D01*
X269578Y8620D01*
X270136Y8062D01*
X270865Y7760D01*
X271655D01*
X272384Y8062D01*
X272942Y8620D01*
X273244Y9349D01*
Y9948D01*
X276066Y12769D01*
X276278Y12681D01*
X277068D01*
X277797Y12983D01*
X278018Y13204D01*
X278518Y12997D01*
Y8759D01*
X278305Y8670D01*
X277747Y8112D01*
X277445Y7383D01*
Y6594D01*
X277747Y5864D01*
X278305Y5306D01*
X279034Y5004D01*
X279824D01*
X280553Y5306D01*
X281111Y5864D01*
X281413Y6594D01*
Y7383D01*
X281111Y8112D01*
X280553Y8670D01*
X280340Y8759D01*
Y21441D01*
X280611D01*
X281341Y21743D01*
X281402Y21805D01*
X281864Y21614D01*
Y8993D01*
X281934Y8645D01*
X282131Y8349D01*
X284432Y6049D01*
X284727Y5851D01*
X285076Y5782D01*
X357579D01*
X357927Y5851D01*
X358223Y6049D01*
X362357Y10182D01*
X362554Y10478D01*
X362624Y10827D01*
Y61811D01*
X362554Y62160D01*
X362357Y62455D01*
X360729Y64084D01*
X360433Y64281D01*
X360084Y64351D01*
X352339D01*
X352273Y64510D01*
X351714Y65068D01*
X350985Y65370D01*
D02*
G37*
G36*
X377922Y39091D02*
X376881D01*
X375876Y38821D01*
X374974Y38301D01*
X374239Y37565D01*
X373718Y36663D01*
X373449Y35658D01*
Y34617D01*
X373718Y33612D01*
X374239Y32711D01*
X374974Y31975D01*
X375876Y31454D01*
X376881Y31185D01*
X377922D01*
X378927Y31454D01*
X379829Y31975D01*
X380565Y32711D01*
X381085Y33612D01*
X381354Y34617D01*
Y35658D01*
X381085Y36663D01*
X380565Y37565D01*
X379829Y38301D01*
X378927Y38821D01*
X377922Y39091D01*
D02*
G37*
G36*
X350985Y60409D02*
X350196D01*
X349467Y60107D01*
X348908Y59549D01*
X348606Y58820D01*
Y58030D01*
X348908Y57301D01*
X349467Y56743D01*
X350196Y56441D01*
X350985D01*
X351714Y56743D01*
X352273Y57301D01*
X352361Y57514D01*
X356945D01*
X357289Y57170D01*
Y13007D01*
X354347Y10065D01*
X287385D01*
X286147Y11303D01*
Y24130D01*
X288861Y26844D01*
X289074Y26756D01*
X289524D01*
X289731Y26256D01*
X288092Y24617D01*
X287895Y24321D01*
X287825Y23973D01*
Y19962D01*
X287612Y19874D01*
X287054Y19316D01*
X286752Y18587D01*
Y17797D01*
X287054Y17068D01*
X287612Y16510D01*
X288342Y16208D01*
X289131D01*
X289860Y16510D01*
X290419Y17068D01*
X290721Y17797D01*
Y18587D01*
X290419Y19316D01*
X289860Y19874D01*
X289648Y19962D01*
Y23595D01*
X297129Y31077D01*
X297934D01*
X298023Y30864D01*
X298581Y30306D01*
X299310Y30004D01*
X300099D01*
X300829Y30306D01*
X301387Y30864D01*
X301689Y31593D01*
Y32167D01*
X301751Y32209D01*
X302540D01*
X303270Y32511D01*
X303828Y33069D01*
X304130Y33798D01*
Y34588D01*
X303828Y35317D01*
X303270Y35875D01*
X302540Y36177D01*
X301751D01*
X301538Y36089D01*
X298558Y39070D01*
X298262Y39267D01*
X297913Y39336D01*
X283463D01*
X283375Y39549D01*
X282817Y40107D01*
X282088Y40409D01*
X281298D01*
X280569Y40107D01*
X280011Y39549D01*
X279709Y38820D01*
Y38030D01*
X280011Y37301D01*
X280569Y36743D01*
X281298Y36441D01*
X282088D01*
X282817Y36743D01*
X283375Y37301D01*
X283463Y37514D01*
X297536D01*
X300250Y34800D01*
X300161Y34588D01*
Y34014D01*
X300099Y33972D01*
X299310D01*
X298581Y33670D01*
X298023Y33112D01*
X297934Y32899D01*
X296752D01*
X296403Y32830D01*
X296108Y32632D01*
X291953Y28478D01*
X291453Y28685D01*
Y29135D01*
X291151Y29864D01*
X290593Y30422D01*
X289863Y30724D01*
X289074D01*
X288345Y30422D01*
X287786Y29864D01*
X287484Y29135D01*
Y28346D01*
X287572Y28133D01*
X284592Y25152D01*
X284394Y24857D01*
X284325Y24508D01*
Y10925D01*
X284394Y10576D01*
X284592Y10281D01*
X286364Y8509D01*
X286659Y8312D01*
X287008Y8242D01*
X354724D01*
X355073Y8312D01*
X355369Y8509D01*
X358844Y11985D01*
X359042Y12281D01*
X359111Y12629D01*
Y57548D01*
X359042Y57897D01*
X358844Y58192D01*
X357967Y59070D01*
X357671Y59267D01*
X357323Y59336D01*
X352361D01*
X352273Y59549D01*
X351714Y60107D01*
X350985Y60409D01*
D02*
G37*
G36*
X343308Y72654D02*
X342519D01*
X341789Y72351D01*
X341231Y71793D01*
X341143Y71580D01*
X336122D01*
X335773Y71511D01*
X335478Y71314D01*
X321403Y57239D01*
X321205Y56943D01*
X321136Y56595D01*
Y20098D01*
X321205Y19750D01*
X321403Y19454D01*
X321746Y19111D01*
X321657Y18899D01*
Y18109D01*
X321960Y17380D01*
X322518Y16822D01*
X323247Y16520D01*
X324036D01*
X324766Y16822D01*
X325324Y17380D01*
X325626Y18109D01*
Y18899D01*
X325324Y19628D01*
X324766Y20186D01*
X324036Y20488D01*
X323247D01*
X322958Y20910D01*
Y25735D01*
X323458Y25942D01*
X327830Y21571D01*
Y20601D01*
X327617Y20513D01*
X327059Y19955D01*
X326757Y19225D01*
Y18436D01*
X327059Y17707D01*
X327617Y17149D01*
X328346Y16846D01*
X329136D01*
X329865Y17149D01*
X330423Y17707D01*
X330725Y18436D01*
Y19225D01*
X330423Y19955D01*
X329865Y20513D01*
X329652Y20601D01*
Y21948D01*
X329583Y22297D01*
X329385Y22592D01*
X324829Y27149D01*
Y28207D01*
X325328Y28359D01*
X325438Y28194D01*
X332731Y20902D01*
Y20274D01*
X332518Y20186D01*
X331960Y19628D01*
X331658Y18899D01*
Y18109D01*
X331960Y17380D01*
X332518Y16822D01*
X333247Y16520D01*
X334036D01*
X334766Y16822D01*
X335324Y17380D01*
X335626Y18109D01*
Y18899D01*
X335324Y19628D01*
X334766Y20186D01*
X334553Y20274D01*
Y21280D01*
X334484Y21628D01*
X334286Y21924D01*
X326994Y29216D01*
Y30127D01*
X327494Y30278D01*
X327505Y30261D01*
X337214Y20552D01*
Y19882D01*
X336960Y19628D01*
X336658Y18899D01*
Y18109D01*
X336960Y17380D01*
X337518Y16822D01*
X338247Y16520D01*
X339036D01*
X339766Y16822D01*
X340324Y17380D01*
X340626Y18109D01*
Y18899D01*
X340324Y19628D01*
X339766Y20186D01*
X339327Y20368D01*
Y20639D01*
X339281Y20868D01*
X339701Y21156D01*
X341746Y19111D01*
X341657Y18899D01*
Y18109D01*
X341960Y17380D01*
X342518Y16822D01*
X343247Y16520D01*
X344036D01*
X344766Y16822D01*
X345324Y17380D01*
X345626Y18109D01*
Y18899D01*
X345324Y19628D01*
X344766Y20186D01*
X344036Y20488D01*
X343247D01*
X343034Y20400D01*
X336609Y26825D01*
X336490Y26905D01*
X331522Y31874D01*
Y50917D01*
X332021Y51178D01*
X332179Y51068D01*
Y32854D01*
X332249Y32506D01*
X332446Y32210D01*
X336875Y27781D01*
X337171Y27583D01*
X337520Y27514D01*
X348820D01*
X348908Y27301D01*
X349467Y26743D01*
X350196Y26441D01*
X350985D01*
X351714Y26743D01*
X352273Y27301D01*
X352575Y28030D01*
Y28820D01*
X352273Y29549D01*
X351714Y30107D01*
X350985Y30409D01*
X350196D01*
X349467Y30107D01*
X348908Y29549D01*
X348820Y29336D01*
X337897D01*
X334002Y33232D01*
Y51478D01*
X334214Y51566D01*
X334773Y52124D01*
X335075Y52853D01*
Y53643D01*
X334791Y54328D01*
X334883Y54548D01*
X335045Y54807D01*
X335631D01*
X336360Y55109D01*
X336918Y55667D01*
X337221Y56397D01*
Y57186D01*
X337068Y57555D01*
X337402Y58055D01*
X337422D01*
X338152Y58357D01*
X338710Y58915D01*
X339012Y59645D01*
Y60434D01*
X338710Y61163D01*
X338336Y61537D01*
X338326Y61629D01*
X338343Y61678D01*
X338738Y62090D01*
X339273D01*
X340002Y62393D01*
X340560Y62951D01*
X340862Y63680D01*
Y64469D01*
X340628Y65035D01*
X340839Y65459D01*
X340921Y65535D01*
X341241D01*
X341970Y65838D01*
X342529Y66396D01*
X342831Y67125D01*
Y67914D01*
X342719Y68185D01*
X343053Y68685D01*
X343308D01*
X344037Y68987D01*
X344596Y69545D01*
X344898Y70275D01*
Y71064D01*
X344596Y71793D01*
X344037Y72351D01*
X343308Y72654D01*
D02*
G37*
G36*
X473315Y28559D02*
X471567D01*
X469852Y28218D01*
X468237Y27549D01*
X466784Y26578D01*
X465548Y25342D01*
X464868Y24324D01*
X464266D01*
X463586Y25342D01*
X462350Y26578D01*
X460896Y27549D01*
X459281Y28218D01*
X457567Y28559D01*
X455819D01*
X454105Y28218D01*
X452490Y27549D01*
X451036Y26578D01*
X449800Y25342D01*
X448829Y23889D01*
X448160Y22274D01*
X447819Y20559D01*
Y18811D01*
X448160Y17097D01*
X448829Y15482D01*
X449800Y14028D01*
X451036Y12792D01*
X452490Y11821D01*
X454105Y11152D01*
X455819Y10811D01*
X457567D01*
X459281Y11152D01*
X460896Y11821D01*
X462350Y12792D01*
X463586Y14028D01*
X464266Y15046D01*
X464868D01*
X465548Y14028D01*
X466784Y12792D01*
X468237Y11821D01*
X469852Y11152D01*
X471567Y10811D01*
X473315D01*
X475029Y11152D01*
X476644Y11821D01*
X478098Y12792D01*
X479334Y14028D01*
X480305Y15482D01*
X480974Y17097D01*
X481315Y18811D01*
Y20559D01*
X480974Y22274D01*
X480305Y23889D01*
X479334Y25342D01*
X478098Y26578D01*
X476644Y27549D01*
X475029Y28218D01*
X473315Y28559D01*
D02*
G37*
G36*
X134732D02*
X132984D01*
X131270Y28218D01*
X129655Y27549D01*
X128201Y26578D01*
X126965Y25342D01*
X126285Y24324D01*
X125684D01*
X125003Y25342D01*
X123767Y26578D01*
X122314Y27549D01*
X120699Y28218D01*
X118984Y28559D01*
X117236D01*
X115522Y28218D01*
X113907Y27549D01*
X112453Y26578D01*
X111217Y25342D01*
X110246Y23889D01*
X109577Y22274D01*
X109236Y20559D01*
Y18811D01*
X109577Y17097D01*
X110246Y15482D01*
X111217Y14028D01*
X112453Y12792D01*
X113907Y11821D01*
X115522Y11152D01*
X117236Y10811D01*
X118984D01*
X120699Y11152D01*
X122314Y11821D01*
X123767Y12792D01*
X125003Y14028D01*
X125684Y15046D01*
X126285D01*
X126965Y14028D01*
X128201Y12792D01*
X129655Y11821D01*
X131270Y11152D01*
X132984Y10811D01*
X134732D01*
X136447Y11152D01*
X138062Y11821D01*
X139515Y12792D01*
X140751Y14028D01*
X141722Y15482D01*
X142391Y17097D01*
X142732Y18811D01*
Y20559D01*
X142391Y22274D01*
X141722Y23889D01*
X140751Y25342D01*
X139515Y26578D01*
X138062Y27549D01*
X136447Y28218D01*
X134732Y28559D01*
D02*
G37*
G36*
X387922Y29091D02*
X386881D01*
X385876Y28821D01*
X384975Y28301D01*
X384239Y27565D01*
X383718Y26664D01*
X383449Y25658D01*
Y24617D01*
X383718Y23612D01*
X384239Y22711D01*
X384975Y21975D01*
X385876Y21454D01*
X386881Y21185D01*
X387922D01*
X388927Y21454D01*
X389829Y21975D01*
X390565Y22711D01*
X391085Y23612D01*
X391354Y24617D01*
Y25658D01*
X391085Y26664D01*
X390565Y27565D01*
X389829Y28301D01*
X388927Y28821D01*
X387922Y29091D01*
D02*
G37*
G36*
X377922D02*
X376881D01*
X375876Y28821D01*
X374974Y28301D01*
X374239Y27565D01*
X373718Y26664D01*
X373449Y25658D01*
Y24617D01*
X373718Y23612D01*
X374239Y22711D01*
X374974Y21975D01*
X375876Y21454D01*
X376881Y21185D01*
X377922D01*
X378927Y21454D01*
X379829Y21975D01*
X380565Y22711D01*
X381085Y23612D01*
X381354Y24617D01*
Y25658D01*
X381085Y26664D01*
X380565Y27565D01*
X379829Y28301D01*
X378927Y28821D01*
X377922Y29091D01*
D02*
G37*
%LPD*%
G36*
X318556Y116671D02*
X318485Y116131D01*
X318461Y116121D01*
X317903Y115563D01*
X317706Y115086D01*
X317165D01*
X317037Y115396D01*
X316478Y115954D01*
X316305Y116026D01*
Y116566D01*
X316235Y116915D01*
X316038Y117211D01*
X315576Y117672D01*
X315281Y117869D01*
X314932Y117939D01*
X270963D01*
X270875Y118151D01*
X270317Y118710D01*
X269824Y118914D01*
Y119455D01*
X270120Y119578D01*
X270678Y120136D01*
X270766Y120349D01*
X314879D01*
X318556Y116671D01*
D02*
G37*
G36*
X310527Y115616D02*
X310392Y115560D01*
X309834Y115002D01*
X309745Y114789D01*
X270281D01*
X270181Y115289D01*
X270317Y115345D01*
X270875Y115904D01*
X270963Y116116D01*
X310428D01*
X310527Y115616D01*
D02*
G37*
G36*
X351795Y107447D02*
X351414Y107066D01*
X351401Y107033D01*
X344705D01*
X344356Y106964D01*
X344060Y106766D01*
X312282Y74988D01*
X311942Y75143D01*
X311827Y75240D01*
Y75985D01*
X311649Y76414D01*
X311841Y76657D01*
X312021Y76822D01*
X312760D01*
X313489Y77124D01*
X314047Y77682D01*
X314349Y78412D01*
Y79201D01*
X314047Y79930D01*
X313656Y80322D01*
X313610Y80368D01*
X313893Y80792D01*
X313941Y80772D01*
X314369Y80594D01*
X315159D01*
X315888Y80897D01*
X316446Y81455D01*
X316748Y82184D01*
Y82973D01*
X316470Y83645D01*
X316587Y83903D01*
X316738Y84118D01*
X317324D01*
X318053Y84420D01*
X318611Y84978D01*
X318913Y85708D01*
Y86016D01*
X319290Y86402D01*
X320080D01*
X320809Y86704D01*
X321367Y87262D01*
X321669Y87991D01*
Y88780D01*
X321367Y89510D01*
X320809Y90068D01*
X320080Y90370D01*
X319290D01*
X318561Y90068D01*
X318479Y89986D01*
X296949D01*
X296600Y89917D01*
X296304Y89719D01*
X283937Y77352D01*
X283513Y77635D01*
X283677Y78031D01*
Y78820D01*
X283589Y79033D01*
X312503Y107947D01*
X351588D01*
X351795Y107447D01*
D02*
G37*
G36*
X366215Y108087D02*
Y77853D01*
X366002Y77765D01*
X365781Y77544D01*
X365281Y77751D01*
Y105315D01*
X365212Y105664D01*
X365014Y105959D01*
X361715Y109259D01*
X361922Y109759D01*
X364543D01*
X366215Y108087D01*
D02*
G37*
G36*
X315684Y87664D02*
X315247Y87226D01*
X315167Y87033D01*
X299390D01*
X299041Y86964D01*
X298745Y86766D01*
X284273Y72294D01*
X283849Y72577D01*
X283902Y72705D01*
Y73495D01*
X283600Y74224D01*
X283493Y74331D01*
X297326Y88164D01*
X315513D01*
X315684Y87664D01*
D02*
G37*
G36*
X363459Y104938D02*
Y73917D01*
X363528Y73569D01*
X363726Y73273D01*
X365328Y71671D01*
X365240Y71458D01*
Y70668D01*
X365542Y69939D01*
X365626Y69856D01*
X365508Y69266D01*
X365116Y69103D01*
X364558Y68545D01*
X364256Y67816D01*
Y67427D01*
X358682D01*
X358381Y67927D01*
X358579Y68405D01*
Y69194D01*
X358277Y69923D01*
X357718Y70481D01*
X357279Y70663D01*
Y103516D01*
X357492Y103604D01*
X358050Y104162D01*
X358352Y104891D01*
Y105681D01*
X358050Y106410D01*
X357492Y106968D01*
X356762Y107270D01*
X355973D01*
X355344Y107009D01*
X354790Y107058D01*
X354781Y107060D01*
X354779Y107066D01*
X354398Y107447D01*
X354605Y107947D01*
X360449D01*
X363459Y104938D01*
D02*
G37*
G36*
X343065Y93136D02*
Y92963D01*
X343367Y92233D01*
X343925Y91675D01*
X344138Y91587D01*
Y83320D01*
X318734Y57916D01*
X318536Y57620D01*
X318467Y57271D01*
Y46841D01*
X317997Y46372D01*
X317431Y46513D01*
X317233Y46990D01*
X316675Y47548D01*
X316462Y47636D01*
Y69997D01*
X318682Y72217D01*
X318780Y72202D01*
X319167Y71995D01*
Y64664D01*
X318955Y64576D01*
X318397Y64018D01*
X318094Y63288D01*
Y62499D01*
X318397Y61770D01*
X318955Y61212D01*
X319684Y60909D01*
X320473D01*
X321203Y61212D01*
X321761Y61770D01*
X322063Y62499D01*
Y63288D01*
X321761Y64018D01*
X321203Y64576D01*
X320990Y64664D01*
Y71768D01*
X342565Y93343D01*
X343065Y93136D01*
D02*
G37*
G36*
X347456Y101246D02*
X347137Y100927D01*
X347049Y100714D01*
X344980D01*
X344632Y100645D01*
X344336Y100447D01*
X314907Y71018D01*
X314709Y70723D01*
X314640Y70374D01*
Y47744D01*
X314244Y47486D01*
X313805Y47690D01*
Y71374D01*
X344177Y101746D01*
X347249D01*
X347456Y101246D01*
D02*
G37*
G36*
X311982Y71404D02*
Y44458D01*
X311615Y44069D01*
X311102D01*
X311025Y44119D01*
X310725Y44522D01*
X310723Y44531D01*
X310754Y44685D01*
Y70882D01*
X311483Y71611D01*
X311982Y71404D01*
D02*
G37*
G36*
X215197Y111605D02*
X214755Y111163D01*
X214667Y110951D01*
X169882D01*
X169533Y110881D01*
X169238Y110684D01*
X133481Y74927D01*
X90439D01*
X90397Y75030D01*
X89968Y75459D01*
X90044Y75816D01*
X90121Y75959D01*
X132972D01*
X133321Y76028D01*
X133617Y76226D01*
X169496Y112105D01*
X215032D01*
X215197Y111605D01*
D02*
G37*
D45*
X173298Y87234D02*
Y91673D01*
X189370Y71161D02*
X223425D01*
X173298Y87234D02*
X189370Y71161D01*
X168012Y84449D02*
X194882Y57579D01*
X164401Y92587D02*
X168012Y88976D01*
Y84449D02*
Y88976D01*
X194882Y57579D02*
X216732D01*
X185630Y54134D02*
Y57776D01*
Y54134D02*
X203346Y36417D01*
X88878Y74016D02*
X133858D01*
X169882Y110039D02*
X216437D01*
X133858Y74016D02*
X169882Y110039D01*
X132972Y76870D02*
X169119Y113016D01*
X222275D01*
X86713Y76870D02*
X132972D01*
X229134Y89468D02*
X253543Y113878D01*
X227165Y75590D02*
X229134Y77559D01*
Y89468D01*
X224114Y75590D02*
X227165D01*
X223228Y83563D02*
Y108661D01*
Y83563D02*
X223228Y83563D01*
X223228Y108661D02*
X229947Y115380D01*
X253543Y113878D02*
X311516D01*
X229947Y115380D02*
Y120177D01*
Y144340D01*
X223101Y112923D02*
X223327Y112697D01*
X222369Y112923D02*
X223101D01*
X229232Y145054D02*
X229947Y144340D01*
X229232Y145054D02*
Y145374D01*
X222275Y113016D02*
X222369Y112923D01*
X196260Y47933D02*
X214272D01*
X216732Y50394D01*
X311516Y113878D02*
X314724Y110670D01*
X269193Y117028D02*
X314932D01*
X315393Y116566D01*
X145048Y30906D02*
X179724D01*
X186024Y37205D01*
X159055Y64567D02*
X159449D01*
X271579Y9744D02*
X272077Y10242D01*
X271260Y9744D02*
X271579D01*
X272077Y10242D02*
X272250D01*
X276673Y14665D01*
X279429Y22318D02*
X280217Y23106D01*
X279429Y6988D02*
Y22318D01*
X280217Y23106D02*
Y23425D01*
X203346Y36417D02*
X251181D01*
X257283Y42520D02*
X262365D01*
X251181Y36417D02*
X257283Y42520D01*
X144587Y31367D02*
X145048Y30906D01*
X144587Y31367D02*
Y62992D01*
X216732Y50394D02*
Y57579D01*
X143012Y64567D02*
X144587Y62992D01*
X315393Y114311D02*
Y116566D01*
X360827Y108858D02*
X364370Y105315D01*
Y73917D02*
Y105315D01*
X312126Y108858D02*
X360827D01*
X367126Y76083D02*
Y108465D01*
X314724Y110670D02*
X364921D01*
X367126Y108465D01*
X356368Y69026D02*
Y105286D01*
Y69026D02*
X356594Y68799D01*
X282144Y74270D02*
X296949Y89075D01*
X319365Y88386D02*
X319685D01*
X318676Y89075D02*
X319365Y88386D01*
X296949Y89075D02*
X318676D01*
X281693Y53425D02*
X281919Y53651D01*
X282785D02*
X304724Y75590D01*
X309842D01*
X281919Y53651D02*
X282785D01*
X281791Y48327D02*
X304331Y70866D01*
X306570D01*
X281693Y48327D02*
X281791D01*
X303117Y78806D02*
X312365D01*
X282958Y58647D02*
X303117Y78806D01*
X281693Y58425D02*
X281915Y58647D01*
X282958D01*
X306570Y70866D02*
X307161Y70276D01*
X307480D01*
X281697Y43429D02*
X304532Y66264D01*
Y67744D02*
X304536Y67748D01*
X304532Y66264D02*
Y67744D01*
X281791Y63583D02*
X282017Y63809D01*
X282903D01*
X301673Y82579D01*
X314764D01*
X299390Y86122D02*
X316929D01*
X281693Y68425D02*
X299390Y86122D01*
X281918Y73100D02*
X282144Y73326D01*
Y74270D01*
X281693Y78425D02*
X312126Y108858D01*
X352579Y66516D02*
X365188D01*
X350689Y68405D02*
X352579Y66516D01*
X350644Y63440D02*
X360084D01*
X350590Y63386D02*
X350644Y63440D01*
X282776Y8993D02*
Y32283D01*
X283760Y33268D01*
X282776Y8993D02*
X285076Y6693D01*
X285236Y24508D02*
X289469Y28740D01*
X285236Y10925D02*
X287008Y9154D01*
X285236Y10925D02*
Y24508D01*
X287008Y9154D02*
X354724D01*
X288736Y18192D02*
Y23973D01*
X354724Y9154D02*
X358200Y12629D01*
X350590Y58425D02*
X357323D01*
X358200Y57548D01*
Y12629D02*
Y57548D01*
X285076Y6693D02*
X357579D01*
X361713Y10827D01*
Y61811D01*
X360084Y63440D02*
X361713Y61811D01*
X283760Y33268D02*
X288779D01*
X350523Y38228D02*
X350572Y38277D01*
X336695Y38228D02*
X350523D01*
X338504Y43425D02*
X350590D01*
X288736Y23973D02*
X296752Y31988D01*
X83760Y73917D02*
X86713Y76870D01*
X296752Y31988D02*
X299705D01*
X281693Y38425D02*
X297913D01*
X302146Y34193D01*
X326083Y28839D02*
X333642Y21280D01*
X311221Y42085D02*
X312894Y43758D01*
X323917Y55118D02*
X324016D01*
X326083Y54626D02*
X333780Y62323D01*
X315551Y45866D02*
Y70374D01*
X312894Y43758D02*
Y71752D01*
X323917Y26772D02*
X328741Y21948D01*
X323917Y26772D02*
Y55118D01*
X322047Y20098D02*
Y56595D01*
X293706Y20792D02*
X319378Y46464D01*
X326083Y28839D02*
Y54626D01*
X324016Y55118D02*
X336417Y67520D01*
X322047Y56595D02*
X336122Y70669D01*
X322047Y20098D02*
X323642Y18504D01*
X293706Y18450D02*
Y20792D01*
X306004Y40846D02*
X309842Y44685D01*
Y71260D01*
X319378Y46464D02*
Y57271D01*
X306004Y39862D02*
Y40846D01*
X315354Y114272D02*
X315393Y114311D01*
X319585Y114439D02*
Y116930D01*
X315256Y121260D02*
X319585Y116930D01*
X268996Y121260D02*
X315256D01*
X336910Y41831D02*
X338504Y43425D01*
X364370Y73917D02*
X367224Y71063D01*
X365188Y66516D02*
X366094Y67421D01*
X366240D01*
X345049Y82943D02*
Y93357D01*
X370866Y93283D02*
Y93602D01*
Y93283D02*
X372206Y91943D01*
Y90983D02*
Y91943D01*
Y90983D02*
X372835Y90354D01*
X385630D01*
X312894Y71752D02*
X343799Y102657D01*
X350787D01*
X309842Y71260D02*
X344705Y106122D01*
X352917D01*
X353097Y105942D01*
X315551Y70374D02*
X344980Y99803D01*
X348819D01*
X319378Y57271D02*
X345049Y82943D01*
X320079Y72146D02*
X344705Y96772D01*
X320079Y62894D02*
Y72146D01*
X344705Y96772D02*
X346693D01*
X346870Y96949D01*
X336122Y70669D02*
X342913D01*
X333780Y62323D02*
X337126D01*
X336417Y67520D02*
X340846D01*
X328741Y18831D02*
Y21948D01*
X328150Y30906D02*
Y53839D01*
X334350Y60039D01*
X328150Y30906D02*
X338416Y20639D01*
X337126Y62323D02*
X338878Y64075D01*
X335925Y26181D02*
X335965D01*
X343642Y18504D01*
X333642D02*
Y21280D01*
X334350Y60039D02*
X337028D01*
X338416Y18730D02*
Y20639D01*
Y18730D02*
X338642Y18504D01*
X330610Y31496D02*
X335925Y26181D01*
X330610Y31496D02*
Y53997D01*
X333090Y32854D02*
Y53248D01*
X335010Y56565D02*
X335236Y56791D01*
X333179Y56565D02*
X335010D01*
X330610Y53997D02*
X333179Y56565D01*
X333090Y32854D02*
X337520Y28425D01*
X350590D01*
X316929Y86102D02*
Y86122D01*
D46*
X163091Y66929D02*
Y87271D01*
X158659Y91703D02*
X163091Y87271D01*
X158659Y91703D02*
Y92910D01*
X163681Y97933D01*
X184362D01*
X202571Y79724D01*
X226038Y80795D02*
Y98774D01*
X202571Y79724D02*
X224968D01*
X226038Y80795D01*
Y98774D02*
X255610Y128347D01*
X163091Y66929D02*
X167913Y62106D01*
X255610Y128347D02*
X345177D01*
X352756Y120768D02*
X396871D01*
X345177Y128347D02*
X352756Y120768D01*
X396871D02*
X415057Y102582D01*
X147565Y73793D02*
X149705Y71653D01*
X145276Y78248D02*
X147565Y75958D01*
Y73793D02*
Y75958D01*
X149705Y71653D02*
X155512D01*
X159252Y67913D01*
Y64764D02*
Y67913D01*
Y64764D02*
X159449Y64567D01*
D48*
X202067Y132283D02*
X204134Y130217D01*
X194980Y132283D02*
X202067D01*
X204134Y130217D02*
X208071D01*
X421367Y122056D02*
Y134252D01*
X420156Y120845D02*
X421367Y122056D01*
X414492Y120845D02*
X420156D01*
X70472Y103257D02*
X82669D01*
X83661Y95866D02*
X83760Y95965D01*
Y102165D01*
X82669Y103257D02*
X83760Y102165D01*
D49*
X376969Y135039D02*
D03*
X243406Y46260D02*
D03*
X416339Y80709D02*
D03*
X243504Y77658D02*
D03*
D50*
X243602Y148228D02*
D03*
X226575Y8071D02*
D03*
X578740Y74803D02*
D03*
X543307D02*
D03*
X578740Y102362D02*
D03*
X543307D02*
D03*
X578740Y131890D02*
D03*
X543307D02*
D03*
X11811Y74803D02*
D03*
X47244D02*
D03*
Y102362D02*
D03*
X11811D02*
D03*
X47244Y131890D02*
D03*
X11811D02*
D03*
D51*
X377402Y45138D02*
D03*
X387402D02*
D03*
X377402Y35138D02*
D03*
X387402D02*
D03*
X377402Y25138D02*
D03*
X387402D02*
D03*
D52*
X159449Y64567D02*
D03*
D53*
Y74410D02*
D03*
D54*
X578740Y118110D02*
D03*
X543307D02*
D03*
X11811D02*
D03*
X47244D02*
D03*
X578740Y86614D02*
D03*
X543307D02*
D03*
X578740Y62992D02*
D03*
X543307D02*
D03*
X118110Y19685D02*
D03*
X543307Y27559D02*
D03*
X578740D02*
D03*
X543307Y11811D02*
D03*
X578740D02*
D03*
X47244Y27559D02*
D03*
X11811D02*
D03*
X47244Y86614D02*
D03*
X11811D02*
D03*
Y62992D02*
D03*
X47244D02*
D03*
Y11811D02*
D03*
X11811D02*
D03*
X456693Y19685D02*
D03*
Y118110D02*
D03*
X472441Y19685D02*
D03*
Y118110D02*
D03*
X133858Y19685D02*
D03*
Y118110D02*
D03*
X118110D02*
D03*
D55*
X470472Y92520D02*
D03*
X458661D02*
D03*
X131890D02*
D03*
X120079D02*
D03*
X470472Y43307D02*
D03*
X458661D02*
D03*
X131890D02*
D03*
X120079D02*
D03*
D56*
X578740Y45276D02*
D03*
X543307D02*
D03*
X11811D02*
D03*
X47244D02*
D03*
D57*
X185630Y57776D02*
D03*
X243504Y121949D02*
D03*
X241339D02*
D03*
X180472Y58003D02*
D03*
X243209Y57972D02*
D03*
X245768Y58071D02*
D03*
X223425Y71161D02*
D03*
X384350Y81988D02*
D03*
X382185D02*
D03*
X378937Y58465D02*
D03*
X376673D02*
D03*
X376969Y69587D02*
D03*
X381004Y69488D02*
D03*
X350590Y88189D02*
D03*
X281594Y88386D02*
D03*
X434941Y24213D02*
D03*
X433169Y22539D02*
D03*
X437008Y11811D02*
D03*
X410138Y11909D02*
D03*
X419685Y12008D02*
D03*
X429724Y12205D02*
D03*
X381102Y15059D02*
D03*
X376279Y14961D02*
D03*
X378740Y15059D02*
D03*
X159744Y130905D02*
D03*
X157480D02*
D03*
X159737Y133177D02*
D03*
X157480Y133268D02*
D03*
X89075Y52362D02*
D03*
X86910D02*
D03*
X89075Y54528D02*
D03*
X86910D02*
D03*
X305709Y62500D02*
D03*
X429921Y84547D02*
D03*
X427559D02*
D03*
X429823Y82284D02*
D03*
X427580Y82216D02*
D03*
X245768Y60138D02*
D03*
X243110D02*
D03*
X304724Y52520D02*
D03*
Y58031D02*
D03*
X83760Y73917D02*
D03*
X88878Y74016D02*
D03*
X385630Y90354D02*
D03*
X194980Y132283D02*
D03*
X421367Y134252D02*
D03*
X70472Y103257D02*
D03*
D58*
X224114Y75590D02*
D03*
X164401Y92587D02*
D03*
X167913Y62106D02*
D03*
X223228Y83563D02*
D03*
X229947Y120177D02*
D03*
X223327Y112697D02*
D03*
X415057Y102582D02*
D03*
X186024Y37205D02*
D03*
X271260Y9744D02*
D03*
X279429Y6988D02*
D03*
X276673Y14665D02*
D03*
X196260Y47933D02*
D03*
X143012Y64567D02*
D03*
X269193Y117028D02*
D03*
X356368Y105286D02*
D03*
X216732Y57579D02*
D03*
X281693Y48327D02*
D03*
X304536Y67748D02*
D03*
X281693Y53425D02*
D03*
X350689Y68405D02*
D03*
X350590Y63386D02*
D03*
X280217Y23425D02*
D03*
X288736Y18192D02*
D03*
X350590Y58425D02*
D03*
Y43425D02*
D03*
X350572Y38277D02*
D03*
X289469Y28740D02*
D03*
X216437Y110039D02*
D03*
X288779Y33268D02*
D03*
X315551Y45866D02*
D03*
X311221Y42085D02*
D03*
X336910Y41831D02*
D03*
X319585Y114439D02*
D03*
X268996Y121260D02*
D03*
X336695Y38228D02*
D03*
X315354Y114272D02*
D03*
X299705Y31988D02*
D03*
X229232Y145374D02*
D03*
X311516Y113878D02*
D03*
X173298Y91673D02*
D03*
X367126Y76083D02*
D03*
X356594Y68799D02*
D03*
X345049Y93357D02*
D03*
X370866Y93602D02*
D03*
X350787Y102657D02*
D03*
X302146Y34193D02*
D03*
X306004Y39862D02*
D03*
X307480Y70276D02*
D03*
X309842Y75590D02*
D03*
X312365Y78806D02*
D03*
X353097Y105942D02*
D03*
X348819Y99803D02*
D03*
X320079Y62894D02*
D03*
X346870Y96949D02*
D03*
X293706Y18450D02*
D03*
X323642Y18504D02*
D03*
X340846Y67520D02*
D03*
X342913Y70669D02*
D03*
X328741Y18831D02*
D03*
X338878Y64075D02*
D03*
X333642Y18504D02*
D03*
X338642D02*
D03*
X333090Y53248D02*
D03*
X335236Y56791D02*
D03*
X337028Y60039D02*
D03*
X343642Y18504D02*
D03*
X350590Y28425D02*
D03*
X281918Y73100D02*
D03*
X316929Y86102D02*
D03*
X319685Y88386D02*
D03*
X281693Y68425D02*
D03*
X281791Y63583D02*
D03*
X314764Y82579D02*
D03*
X281693Y58425D02*
D03*
Y43425D02*
D03*
Y38425D02*
D03*
X262365Y42520D02*
D03*
X208071Y130217D02*
D03*
X414492Y120845D02*
D03*
X281693Y78425D02*
D03*
X367224Y71063D02*
D03*
X366240Y67421D02*
D03*
X83661Y95866D02*
D03*
D59*
X145276Y78248D02*
D03*
%TF.MD5,55dc6231993a67446bebcd9b39a3b7ee*%
M02*
