%TF.GenerationSoftware,Altium Limited,Altium Designer,21.7.2 (23)*%
G04 Layer_Color=255*
%FSLAX45Y45*%
%MOMM*%
%TF.SameCoordinates,C5F40386-04F0-4186-BDF7-9E6353565D61*%
%TF.FilePolarity,Positive*%
%TF.FileFunction,Pads,Top*%
%TF.Part,Single*%
G01*
G75*
%TA.AperFunction,SMDPad,CuDef*%
%ADD12R,2.30000X3.50000*%
%ADD13R,0.60000X0.63500*%
%ADD14R,0.90000X1.50000*%
%ADD15R,1.14300X1.50000*%
%ADD16R,1.20000X1.40000*%
%ADD17R,0.63500X0.60000*%
%ADD18R,1.00000X0.96520*%
%ADD19R,2.00000X1.52400*%
%ADD20R,0.60000X1.20000*%
%ADD21R,1.52500X0.65000*%
%ADD22R,2.71000X3.40000*%
%ADD23R,1.20000X1.80000*%
%ADD24R,0.60000X1.55000*%
%ADD25R,0.50000X1.07500*%
%ADD26R,0.40000X0.48000*%
%ADD27R,0.96520X1.00000*%
%ADD28R,1.52400X2.00000*%
%ADD29R,0.60000X1.60000*%
%ADD30R,1.20000X1.80000*%
%TA.AperFunction,BGAPad,CuDef*%
%ADD31R,0.90000X0.90000*%
%TA.AperFunction,SMDPad,CuDef*%
%ADD32R,1.50000X0.90000*%
%ADD33R,0.30000X1.10000*%
%ADD34R,0.60000X1.10000*%
%ADD35R,1.50000X1.14300*%
%ADD36R,0.95000X1.45000*%
%ADD37R,3.25000X1.45000*%
%ADD38R,4.00000X3.00000*%
%ADD39R,0.65000X1.20000*%
%ADD40R,0.47500X0.30000*%
%TA.AperFunction,ComponentPad*%
%ADD44C,2.70000*%
%ADD45O,1.60000X3.00000*%
%ADD46O,1.90000X2.28000*%
%ADD47O,1.92000X2.28000*%
%ADD48C,1.15000*%
%TA.AperFunction,ViaPad*%
%ADD49O,10.00000X8.00000*%
%TA.AperFunction,ComponentPad*%
%ADD50R,1.10000X1.10000*%
%ADD51C,1.10000*%
D12*
X4540000Y1020000D02*
D03*
X3940000D02*
D03*
D13*
X9985000Y6753420D02*
D03*
Y6636580D02*
D03*
X9867500Y6753420D02*
D03*
Y6636580D02*
D03*
X10515000Y4063420D02*
D03*
Y3946580D02*
D03*
X10412500Y4065920D02*
D03*
Y3949080D02*
D03*
X5162500Y1519080D02*
D03*
Y1635920D02*
D03*
X6292500Y7465920D02*
D03*
Y7349080D02*
D03*
Y7263420D02*
D03*
Y7146580D02*
D03*
X6252500Y8612500D02*
D03*
Y8495660D02*
D03*
X4547500Y316580D02*
D03*
Y433420D02*
D03*
D14*
X6661500Y6966000D02*
D03*
X6915500D02*
D03*
X7550500D02*
D03*
X7677500D02*
D03*
X7042500D02*
D03*
X7423500D02*
D03*
X7169500D02*
D03*
X7296500D02*
D03*
X8058500D02*
D03*
X7931500D02*
D03*
X7804500D02*
D03*
X6788500D02*
D03*
D15*
X8129020Y1510000D02*
D03*
X7935980D02*
D03*
X4369020Y7530000D02*
D03*
X4175980D02*
D03*
D16*
X7947500Y635000D02*
D03*
X7697500D02*
D03*
X7447500D02*
D03*
X7947500Y195000D02*
D03*
X7697500D02*
D03*
X7447500D02*
D03*
D17*
X8425920Y715000D02*
D03*
X8309080D02*
D03*
X1081580Y3515000D02*
D03*
X1198420D02*
D03*
X1081580Y3412500D02*
D03*
X1198420D02*
D03*
X1866580Y17847501D02*
D03*
X1983420D02*
D03*
X1560660Y17837500D02*
D03*
X1677500D02*
D03*
X1983420Y17612500D02*
D03*
X1866580D02*
D03*
X1983420Y17730000D02*
D03*
X1866580D02*
D03*
X2184080Y18027499D02*
D03*
X2300920D02*
D03*
X2635920Y14905000D02*
D03*
X2519080D02*
D03*
X9559340Y14912500D02*
D03*
X9442500D02*
D03*
X9560000Y15035001D02*
D03*
X9443160D02*
D03*
Y15152499D02*
D03*
X9560000D02*
D03*
X9138160Y15135001D02*
D03*
X9255000D02*
D03*
X3243419Y15225000D02*
D03*
X3126579D02*
D03*
Y15342500D02*
D03*
X3243419D02*
D03*
X2841579Y15330000D02*
D03*
X2958419D02*
D03*
X3243419Y15107500D02*
D03*
X3126579D02*
D03*
X8786580Y18182500D02*
D03*
X8903420D02*
D03*
X8474080Y18185001D02*
D03*
X8590920D02*
D03*
X1569080Y14917500D02*
D03*
X1685920D02*
D03*
X1881580Y14914999D02*
D03*
X1998420D02*
D03*
X10363160Y17642500D02*
D03*
X10480000D02*
D03*
X10674080Y17664999D02*
D03*
X10790920D02*
D03*
X10076580Y14925000D02*
D03*
X10193420D02*
D03*
X9764080Y14927499D02*
D03*
X9880920D02*
D03*
X10193420Y14810001D02*
D03*
X10076580D02*
D03*
X10193420Y14695000D02*
D03*
X10076580D02*
D03*
X7569080Y15605000D02*
D03*
X7685920D02*
D03*
X7256580D02*
D03*
X7373420D02*
D03*
X7685920Y15489999D02*
D03*
X7569080D02*
D03*
X7685920Y15375000D02*
D03*
X7569080D02*
D03*
X8311840Y15242500D02*
D03*
X8195000D02*
D03*
X8311840Y15362500D02*
D03*
X8195000D02*
D03*
X8194080Y15480000D02*
D03*
X8310920D02*
D03*
X7891580Y15472501D02*
D03*
X8008420D02*
D03*
X5155920Y15442500D02*
D03*
X5039080D02*
D03*
X5155920Y15557500D02*
D03*
X5039080D02*
D03*
Y15672501D02*
D03*
X5155920D02*
D03*
X4726580Y15675000D02*
D03*
X4843420D02*
D03*
X3867500Y18064999D02*
D03*
X3750660D02*
D03*
X3868419Y18180000D02*
D03*
X3751579D02*
D03*
Y18295000D02*
D03*
X3868419D02*
D03*
X3438159D02*
D03*
X3554999D02*
D03*
X9535920Y17802499D02*
D03*
X9419080D02*
D03*
X9535920Y17917500D02*
D03*
X9419080D02*
D03*
Y18032500D02*
D03*
X9535920D02*
D03*
X9101580Y18030000D02*
D03*
X9218420D02*
D03*
X1998420Y14685001D02*
D03*
X1881580D02*
D03*
X1998420Y14800000D02*
D03*
X1881580D02*
D03*
X3896840Y15255000D02*
D03*
X3780000D02*
D03*
X3895920Y15370000D02*
D03*
X3779080D02*
D03*
X3466580Y15485001D02*
D03*
X3583420D02*
D03*
X3779080D02*
D03*
X3895920D02*
D03*
X8903420Y17952499D02*
D03*
X8786580D02*
D03*
X8903420Y18067500D02*
D03*
X8786580D02*
D03*
X6418420Y15492500D02*
D03*
X6301580D02*
D03*
X6418420Y15607500D02*
D03*
X6301580D02*
D03*
X5989080Y15725002D02*
D03*
X6105920D02*
D03*
X6301580Y15722501D02*
D03*
X6418420D02*
D03*
X7050920Y15450000D02*
D03*
X6934080D02*
D03*
X7050000Y15564999D02*
D03*
X6933160D02*
D03*
X6934080Y15680000D02*
D03*
X7050920D02*
D03*
X6620660Y15677499D02*
D03*
X6737500D02*
D03*
X5770920Y18255000D02*
D03*
X5654080D02*
D03*
X5770920Y18370000D02*
D03*
X5654080D02*
D03*
Y18485001D02*
D03*
X5770920D02*
D03*
X5341580Y18487500D02*
D03*
X5458420D02*
D03*
X2635920Y15020000D02*
D03*
X2519080D02*
D03*
Y15135001D02*
D03*
X2635920D02*
D03*
X2206580D02*
D03*
X2323420D02*
D03*
X2613420Y17797501D02*
D03*
X2496580D02*
D03*
X2613420Y17912500D02*
D03*
X2496580D02*
D03*
Y18027499D02*
D03*
X2613420D02*
D03*
X4496840Y18152499D02*
D03*
X4380000D02*
D03*
X4496840Y18267500D02*
D03*
X4380000D02*
D03*
X4380660Y18382500D02*
D03*
X4497500D02*
D03*
X4069080D02*
D03*
X4185920D02*
D03*
X5787500Y15495000D02*
D03*
X5670660D02*
D03*
X5787500Y15610001D02*
D03*
X5670660D02*
D03*
Y15725000D02*
D03*
X5787500D02*
D03*
X5355660D02*
D03*
X5472500D02*
D03*
X10165920Y17614999D02*
D03*
X10049080D02*
D03*
X10165920Y17730000D02*
D03*
X10049080D02*
D03*
X10048160Y17845000D02*
D03*
X10165000D02*
D03*
X9736580D02*
D03*
X9853420D02*
D03*
X3240920Y17945000D02*
D03*
X3124080D02*
D03*
X3240920Y18060001D02*
D03*
X3124080D02*
D03*
Y18175000D02*
D03*
X3240920D02*
D03*
X2811580D02*
D03*
X2928420D02*
D03*
X8270920Y18067500D02*
D03*
X8154080D02*
D03*
X8270920Y18182500D02*
D03*
X8154080D02*
D03*
Y18297501D02*
D03*
X8270920D02*
D03*
X7844081Y18300000D02*
D03*
X7960921D02*
D03*
X1365000Y17397501D02*
D03*
X1248160D02*
D03*
X1365000Y17514999D02*
D03*
X1248160D02*
D03*
Y17632500D02*
D03*
X1365000D02*
D03*
X935660Y17627499D02*
D03*
X1052500D02*
D03*
X4527500Y15357500D02*
D03*
X4410660D02*
D03*
X4525920Y15477499D02*
D03*
X4409080D02*
D03*
Y15595000D02*
D03*
X4525920D02*
D03*
X4100660Y15592500D02*
D03*
X4217500D02*
D03*
X7018420Y18220000D02*
D03*
X6901580D02*
D03*
X7015920Y18337500D02*
D03*
X6899080D02*
D03*
Y18455000D02*
D03*
X7015920D02*
D03*
X6596580Y18447501D02*
D03*
X6713420D02*
D03*
X6398420Y18250002D02*
D03*
X6281580D02*
D03*
X6398420Y18367500D02*
D03*
X6281580D02*
D03*
Y18485001D02*
D03*
X6398420D02*
D03*
X5966580Y18480000D02*
D03*
X6083420D02*
D03*
X11430919Y17160001D02*
D03*
X11314079D02*
D03*
X11430919Y17280000D02*
D03*
X11314079D02*
D03*
Y17400000D02*
D03*
X11430919D02*
D03*
X10994080Y17389999D02*
D03*
X11110920D02*
D03*
X735920Y17117500D02*
D03*
X619080D02*
D03*
X735920Y17235001D02*
D03*
X619080D02*
D03*
X620000Y17355000D02*
D03*
X736840D02*
D03*
X311580Y17350000D02*
D03*
X428420D02*
D03*
X5138420Y18227499D02*
D03*
X5021580D02*
D03*
X5138420Y18345000D02*
D03*
X5021580D02*
D03*
Y18462500D02*
D03*
X5138420D02*
D03*
X4701580Y18447501D02*
D03*
X4818420D02*
D03*
X10790920Y17422501D02*
D03*
X10674080D02*
D03*
X10790920Y17542500D02*
D03*
X10674080D02*
D03*
X7216579Y18375000D02*
D03*
X7333419D02*
D03*
X7634999Y18160001D02*
D03*
X7518159D02*
D03*
X7521580Y18397501D02*
D03*
X7638420D02*
D03*
X7637500Y18280000D02*
D03*
X7520660D02*
D03*
X8515660Y15315001D02*
D03*
X8632500D02*
D03*
X8935920Y15215001D02*
D03*
X8819080D02*
D03*
Y15335001D02*
D03*
X8935920D02*
D03*
Y15095001D02*
D03*
X8819080D02*
D03*
X4965920Y1657500D02*
D03*
X4849080D02*
D03*
X5329080Y1527500D02*
D03*
X5445920D02*
D03*
X5769080Y8617500D02*
D03*
X5885920D02*
D03*
X5766580Y8515000D02*
D03*
X5883420D02*
D03*
X5766580Y8415000D02*
D03*
X5883420D02*
D03*
X5765660Y8312500D02*
D03*
X5882500D02*
D03*
X8563420Y8485000D02*
D03*
X8446580D02*
D03*
X8563420Y8632500D02*
D03*
X8446580D02*
D03*
X6054080Y8497500D02*
D03*
X6170920D02*
D03*
X5326840Y7685000D02*
D03*
X5210000D02*
D03*
X4231580D02*
D03*
X4348420D02*
D03*
X4940920Y7772500D02*
D03*
X4824080D02*
D03*
X4591580Y7770000D02*
D03*
X4708420D02*
D03*
X7285920Y1667500D02*
D03*
X7169080D02*
D03*
X4801580Y1145000D02*
D03*
X4918420D02*
D03*
X4801580Y1012500D02*
D03*
X4918420D02*
D03*
X4818420Y455000D02*
D03*
X4701580D02*
D03*
X4817500Y307500D02*
D03*
X4700660D02*
D03*
D18*
X1855000Y3620000D02*
D03*
Y3457440D02*
D03*
X4980000Y1531280D02*
D03*
Y1368720D02*
D03*
X5332500Y1408780D02*
D03*
Y1246220D02*
D03*
X5160000Y1433780D02*
D03*
Y1271220D02*
D03*
X5165000Y651220D02*
D03*
Y813780D02*
D03*
X3202500Y716220D02*
D03*
Y878780D02*
D03*
D19*
X2075000Y3647720D02*
D03*
Y3302280D02*
D03*
X2257500Y4240440D02*
D03*
Y3895000D02*
D03*
X1900000Y3900000D02*
D03*
Y4245440D02*
D03*
X5627500Y547280D02*
D03*
Y892720D02*
D03*
X5367500Y544780D02*
D03*
Y890220D02*
D03*
X3670000Y572280D02*
D03*
Y917720D02*
D03*
X3407500Y574780D02*
D03*
Y920220D02*
D03*
D20*
X2662500Y4237500D02*
D03*
X2567500D02*
D03*
X2472500D02*
D03*
Y3987500D02*
D03*
X2662500D02*
D03*
X8722500Y3517500D02*
D03*
X8817500D02*
D03*
X8912500D02*
D03*
Y3767500D02*
D03*
X8722500D02*
D03*
D21*
X1046300Y4010500D02*
D03*
Y3883500D02*
D03*
Y3756500D02*
D03*
Y3629500D02*
D03*
X1588700D02*
D03*
Y3756500D02*
D03*
Y3883500D02*
D03*
Y4010500D02*
D03*
X10203700Y3682000D02*
D03*
Y3809000D02*
D03*
Y3936000D02*
D03*
Y4063000D02*
D03*
X9661300D02*
D03*
Y3936000D02*
D03*
Y3809000D02*
D03*
Y3682000D02*
D03*
D22*
X1317500Y3820000D02*
D03*
X9932500Y3872500D02*
D03*
D23*
X2990000Y4566200D02*
D03*
X3750000D02*
D03*
X3862500Y2991300D02*
D03*
X3102500D02*
D03*
X8610000Y3125000D02*
D03*
X7850000D02*
D03*
X8765000Y4601200D02*
D03*
X8005000D02*
D03*
D24*
X3120000Y4313700D02*
D03*
X3220000D02*
D03*
X3320000D02*
D03*
X3420000D02*
D03*
X3520000D02*
D03*
X3620000D02*
D03*
X3732500Y3243800D02*
D03*
X3632500D02*
D03*
X3532500D02*
D03*
X3432500D02*
D03*
X3332500D02*
D03*
X3232500D02*
D03*
X8480000Y3377500D02*
D03*
X8380000D02*
D03*
X8280000D02*
D03*
X8180000D02*
D03*
X8080000D02*
D03*
X7980000D02*
D03*
X8635000Y4348700D02*
D03*
X8535000D02*
D03*
X8435000D02*
D03*
X8335000D02*
D03*
X8235000D02*
D03*
X8135000D02*
D03*
D25*
X4357500Y8053700D02*
D03*
Y7821300D02*
D03*
X5200000Y8046200D02*
D03*
Y7813800D02*
D03*
D26*
X4500000Y8022000D02*
D03*
Y7890000D02*
D03*
X4652500Y8019500D02*
D03*
Y7887500D02*
D03*
X4925000Y8004500D02*
D03*
Y7872500D02*
D03*
X5055000Y8023500D02*
D03*
Y7891500D02*
D03*
D27*
X9423780Y4312500D02*
D03*
X9261220D02*
D03*
D28*
X9450220Y4110000D02*
D03*
X9104780D02*
D03*
X9452720Y3817500D02*
D03*
X9107280D02*
D03*
X9102280Y3515000D02*
D03*
X9447720D02*
D03*
D29*
X7447500Y6512500D02*
D03*
X7647500D02*
D03*
X7547500D02*
D03*
X7347500D02*
D03*
X4465000Y6602500D02*
D03*
X4665000D02*
D03*
X4565000D02*
D03*
X4365000D02*
D03*
X3475000Y6577500D02*
D03*
X3675000D02*
D03*
X3575000D02*
D03*
X3375000D02*
D03*
X9130000Y8505000D02*
D03*
X8930000D02*
D03*
X9030000D02*
D03*
X9230000D02*
D03*
X3670000Y8515000D02*
D03*
X3470000D02*
D03*
X3570000D02*
D03*
X3770000D02*
D03*
X8357500Y6477500D02*
D03*
X8557500D02*
D03*
X8457500D02*
D03*
X8257500D02*
D03*
D30*
X7207500Y6262500D02*
D03*
X7787500D02*
D03*
X4225000Y6352500D02*
D03*
X4805000D02*
D03*
X3235000Y6327500D02*
D03*
X3815000D02*
D03*
X9370000Y8755000D02*
D03*
X8790000D02*
D03*
X3910000Y8765000D02*
D03*
X3330000D02*
D03*
X8117500Y6227500D02*
D03*
X8697500D02*
D03*
D31*
X7210000Y8110000D02*
D03*
X7350000D02*
D03*
Y7970000D02*
D03*
Y7830000D02*
D03*
X7210000D02*
D03*
X7070000D02*
D03*
Y7970000D02*
D03*
Y8110000D02*
D03*
X7210000Y7970000D02*
D03*
D32*
X8235000Y8742000D02*
D03*
Y8615000D02*
D03*
Y8488000D02*
D03*
Y8361000D02*
D03*
Y8234000D02*
D03*
Y8107000D02*
D03*
Y7980000D02*
D03*
Y7853000D02*
D03*
Y7726000D02*
D03*
Y7599000D02*
D03*
Y7472000D02*
D03*
Y7345000D02*
D03*
Y7218000D02*
D03*
Y7091000D02*
D03*
X6485000D02*
D03*
Y7218000D02*
D03*
Y7345000D02*
D03*
Y7472000D02*
D03*
Y7599000D02*
D03*
Y7726000D02*
D03*
Y7853000D02*
D03*
Y7980000D02*
D03*
Y8107000D02*
D03*
Y8234000D02*
D03*
Y8361000D02*
D03*
Y8488000D02*
D03*
Y8615000D02*
D03*
Y8742000D02*
D03*
D33*
X4952500Y8175000D02*
D03*
X4852500D02*
D03*
X4702500D02*
D03*
X4602500D02*
D03*
X4652500D02*
D03*
X4752500D02*
D03*
X4802500D02*
D03*
X4902500D02*
D03*
D34*
X4457500D02*
D03*
X4537500D02*
D03*
X5017500D02*
D03*
X5097500D02*
D03*
D35*
X8267500Y1758480D02*
D03*
Y1951520D02*
D03*
X5205000Y7353480D02*
D03*
Y7546520D02*
D03*
D36*
X7564500Y1755000D02*
D03*
X7793500D02*
D03*
X8022500D02*
D03*
X4991500Y7582500D02*
D03*
X4762500D02*
D03*
X4533500D02*
D03*
D37*
X7793500Y2415000D02*
D03*
X4762500Y6922500D02*
D03*
D38*
X7360000Y1120000D02*
D03*
D39*
X7169500Y1470950D02*
D03*
X7296500D02*
D03*
X7423500D02*
D03*
X7550500D02*
D03*
D40*
X4796200Y712500D02*
D03*
Y762500D02*
D03*
Y812500D02*
D03*
Y862500D02*
D03*
X4963800D02*
D03*
Y812500D02*
D03*
Y762500D02*
D03*
Y712500D02*
D03*
D44*
X7925000Y1087500D02*
D03*
X8425000D02*
D03*
X6802500Y445000D02*
D03*
Y945000D02*
D03*
D45*
X4215500Y8690000D02*
D03*
X5339500D02*
D03*
D46*
X4215500Y8290000D02*
D03*
D47*
X5339500D02*
D03*
D48*
X5625500Y7923000D02*
D03*
Y8050000D02*
D03*
X5752500Y7923000D02*
D03*
Y8050000D02*
D03*
X5879500Y7923000D02*
D03*
Y8050000D02*
D03*
D49*
X9407500Y5487500D02*
D03*
X2385000Y5505000D02*
D03*
X1472500D02*
D03*
X2405000Y2185000D02*
D03*
X1492500D02*
D03*
X10320000Y5487500D02*
D03*
X9385000Y2157500D02*
D03*
X10297500D02*
D03*
D50*
X6170000Y867500D02*
D03*
D51*
Y617500D02*
D03*
%TF.MD5,e115ea20963609c085a0681ec8d71940*%
M02*
