%TF.GenerationSoftware,Altium Limited,Altium Designer,21.7.2 (23)*%
G04 Layer_Color=32768*
%FSLAX45Y45*%
%MOMM*%
%TF.SameCoordinates,C5F40386-04F0-4186-BDF7-9E6353565D61*%
%TF.FilePolarity,Positive*%
%TF.FileFunction,Other,Mechanical_15*%
%TF.Part,Single*%
G01*
G75*
%TA.AperFunction,NonConductor*%
%ADD63C,0.10000*%
%ADD113C,0.05000*%
D63*
X7172500Y25000D02*
Y805000D01*
Y25000D02*
X8222500D01*
Y805000D01*
X7172500D02*
X8222500D01*
X7565000Y1447500D02*
X8785000D01*
X7565000Y727500D02*
Y1447500D01*
Y727500D02*
X8785000D01*
Y1447500D01*
X3910000Y4136200D02*
Y4756200D01*
X2830000D02*
X3910000D01*
X2830000Y4136200D02*
Y4756200D01*
Y4136200D02*
X3910000D01*
X2942500Y2801300D02*
Y3421300D01*
Y2801300D02*
X4022500D01*
Y3421300D01*
X2942500D02*
X4022500D01*
X4410000Y7816000D02*
X4590000D01*
Y8096000D01*
X4410000D02*
X4590000D01*
X4410000Y7816000D02*
Y8096000D01*
X4562500Y7813500D02*
X4742500D01*
Y8093500D01*
X4562500D02*
X4742500D01*
X4562500Y7813500D02*
Y8093500D01*
X4835000Y7798500D02*
X5015000D01*
Y8078500D01*
X4835000D02*
X5015000D01*
X4835000Y7798500D02*
Y8078500D01*
X4965000Y7817500D02*
X5145000D01*
Y8097500D01*
X4965000D02*
X5145000D01*
X4965000Y7817500D02*
Y8097500D01*
X8342500Y7317500D02*
X8832500D01*
X8342500D02*
Y7877500D01*
X8832500D01*
Y7317500D02*
Y7877500D01*
X7690000Y2935000D02*
Y3555000D01*
Y2935000D02*
X8770000D01*
Y3555000D01*
X7690000D02*
X8770000D01*
X6310000Y6791000D02*
Y9591000D01*
Y6791000D02*
X8410000D01*
Y9591000D01*
X6310000D02*
X8410000D01*
X5582000Y8020000D02*
Y9000000D01*
X3973000D02*
X5582000D01*
X3973000Y8020000D02*
Y9000000D01*
Y8020000D02*
X5582000D01*
X7845000Y4171200D02*
X8925000D01*
X7845000D02*
Y4791200D01*
X8925000D01*
Y4171200D02*
Y4791200D01*
X1997500Y7602500D02*
Y8162500D01*
X1507500D02*
X1997500D01*
X1507500Y7602500D02*
Y8162500D01*
Y7602500D02*
X1997500D01*
X7075000Y815000D02*
X7645000D01*
X7075000Y1565000D02*
X7645000D01*
Y815000D02*
Y1565000D01*
X7075000Y815000D02*
Y1565000D01*
X6442500Y85000D02*
X7162500D01*
X6442500D02*
Y1305000D01*
X7162500D01*
Y85000D02*
Y1305000D01*
D113*
X6547500Y742500D02*
G03*
X6547500Y742500I-377500J0D01*
G01*
X8840000Y6853700D02*
Y8198700D01*
X10185000D01*
Y6853700D02*
Y8198700D01*
X8840000Y6853700D02*
X10185000D01*
X2692500Y3347500D02*
Y3767500D01*
X2337500D02*
X2692500D01*
X2337500Y3347500D02*
Y3767500D01*
Y3347500D02*
X2692500D01*
X2745000Y3902500D02*
Y4322500D01*
X2390000Y3902500D02*
X2745000D01*
X2390000D02*
Y4322500D01*
X2745000D01*
X945000Y4095000D02*
X1690000D01*
Y3545000D02*
Y4095000D01*
X945000Y3545000D02*
X1690000D01*
X945000D02*
Y4095000D01*
X950000Y3537500D02*
X1695000D01*
Y4087500D01*
X950000D02*
X1695000D01*
X950000Y3537500D02*
Y4087500D01*
X4242500Y7740000D02*
X4472500D01*
Y8135000D01*
X4242500D02*
X4472500D01*
X4242500Y7740000D02*
Y8135000D01*
X5085000Y7732500D02*
X5315000D01*
Y8127500D01*
X5085000D02*
X5315000D01*
X5085000Y7732500D02*
Y8127500D01*
X6187500Y6222500D02*
Y6782500D01*
X5407500Y6222500D02*
X6187500D01*
X5407500D02*
Y6782500D01*
X6187500D01*
X8455000Y4027500D02*
X8875000D01*
X8455000Y3672500D02*
Y4027500D01*
Y3672500D02*
X8875000D01*
Y4027500D01*
X9522500Y4282500D02*
X10267500D01*
X9522500Y3732500D02*
Y4282500D01*
Y3732500D02*
X10267500D01*
Y4282500D01*
X9560000Y3597500D02*
X10305000D01*
X9560000D02*
Y4147500D01*
X10305000D01*
Y3597500D02*
Y4147500D01*
X8640000Y3432500D02*
Y3852500D01*
X8995000D01*
Y3432500D02*
Y3852500D01*
X8640000Y3432500D02*
X8995000D01*
X2112500Y7072500D02*
Y8417500D01*
X3457500D01*
Y7072500D02*
Y8417500D01*
X2112500Y7072500D02*
X3457500D01*
X7433000Y1657500D02*
Y2512500D01*
X8154000D01*
Y1657500D02*
Y2512500D01*
X7433000Y1657500D02*
X8154000D01*
X5442000Y8278000D02*
X6063000D01*
Y7663000D02*
Y8278000D01*
X5442000Y7663000D02*
X6063000D01*
X5442000D02*
Y8278000D01*
X5123000Y6825000D02*
Y7680000D01*
X4402000Y6825000D02*
X5123000D01*
X4402000D02*
Y7680000D01*
X5123000D01*
X5002500Y662500D02*
Y912500D01*
X4757500D02*
X5002500D01*
X4757500Y662500D02*
Y912500D01*
Y662500D02*
X5002500D01*
%TF.MD5,ab5712e4d004496cf16fcb3c2c8d2b8d*%
M02*
