%TF.GenerationSoftware,Altium Limited,Altium Designer,21.7.2 (23)*%
G04 Layer_Color=0*
%FSLAX45Y45*%
%MOMM*%
%TF.SameCoordinates,C5F40386-04F0-4186-BDF7-9E6353565D61*%
%TF.FilePolarity,Positive*%
%TF.FileFunction,Plated,1,2,PTH,Drill*%
%TF.Part,Single*%
G01*
G75*
%TA.AperFunction,ComponentDrill*%
%ADD115C,1.80000*%
%ADD116C,1.60000*%
%ADD117C,1.52000*%
%ADD118C,0.71000*%
%TA.AperFunction,OtherDrill,Pad Free-5 (94.075mm,54.875mm)*%
%ADD119O,6.00000X1.50000*%
%TA.AperFunction,OtherDrill,Pad Free-5 (23.85mm,55.05mm)*%
%ADD120O,6.00000X1.50000*%
%TA.AperFunction,OtherDrill,Pad Free-5 (14.725mm,55.05mm)*%
%ADD121O,6.00000X1.50000*%
%TA.AperFunction,OtherDrill,Pad Free-5 (24.05mm,21.85mm)*%
%ADD122O,6.00000X1.50000*%
%TA.AperFunction,OtherDrill,Pad Free-5 (14.925mm,21.85mm)*%
%ADD123O,6.00000X1.50000*%
%TA.AperFunction,OtherDrill,Pad Free-5 (103.2mm,54.875mm)*%
%ADD124O,6.00000X1.50000*%
%TA.AperFunction,OtherDrill,Pad Free-5 (93.85mm,21.575mm)*%
%ADD125O,6.00000X1.50000*%
%TA.AperFunction,OtherDrill,Pad Free-5 (102.975mm,21.575mm)*%
%ADD126O,6.00000X1.50000*%
%TA.AperFunction,ComponentDrill*%
%ADD127C,0.70000*%
%ADD128C,1.80000*%
%TA.AperFunction,ViaDrill,NotFilled*%
%ADD129C,0.25000*%
%ADD130C,0.30000*%
%ADD131C,0.40000*%
D115*
X7925000Y1087500D02*
D03*
X8425000D02*
D03*
D116*
X4215500Y8690000D02*
D03*
X5339500D02*
D03*
D117*
X4215500Y8290000D02*
D03*
X5339500D02*
D03*
D118*
X5625500Y7923000D02*
D03*
Y8050000D02*
D03*
X5752500Y7923000D02*
D03*
Y8050000D02*
D03*
X5879500Y7923000D02*
D03*
Y8050000D02*
D03*
D119*
X9407500Y5487500D02*
D03*
D120*
X2385000Y5505000D02*
D03*
D121*
X1472500D02*
D03*
D122*
X2405000Y2185000D02*
D03*
D123*
X1492500D02*
D03*
D124*
X10320000Y5487500D02*
D03*
D125*
X9385000Y2157500D02*
D03*
D126*
X10297500D02*
D03*
D127*
X6170000Y867500D02*
D03*
Y617500D02*
D03*
D128*
X6802500Y445000D02*
D03*
Y945000D02*
D03*
D129*
X8357500Y6505000D02*
D03*
Y6465000D02*
D03*
Y6422500D02*
D03*
X7447500Y6457500D02*
D03*
Y6502500D02*
D03*
Y6547500D02*
D03*
X497500Y17182500D02*
D03*
X1110000Y17455000D02*
D03*
X1730000Y17667500D02*
D03*
X2355000Y17855000D02*
D03*
X2987500Y18007500D02*
D03*
X3992500Y18080000D02*
D03*
X4620000Y18139999D02*
D03*
X4917500Y18292500D02*
D03*
X5537500Y18397501D02*
D03*
X6180000Y18414999D02*
D03*
X6802500Y18385001D02*
D03*
X7425000Y18289999D02*
D03*
X8050000Y18222501D02*
D03*
X9045000Y18117500D02*
D03*
X9692500Y17947501D02*
D03*
X10325000Y17752499D02*
D03*
X10940000Y17517500D02*
D03*
X11542500Y17142500D02*
D03*
X1500000Y14572501D02*
D03*
X2205000Y14795000D02*
D03*
X2882500Y14987500D02*
D03*
X3530000Y15127499D02*
D03*
X4105000Y15205000D02*
D03*
X4760000Y15282500D02*
D03*
X5285000Y15410001D02*
D03*
X5930000Y15252499D02*
D03*
X5892500Y15439999D02*
D03*
X6190000Y15557500D02*
D03*
X6612500Y15239999D02*
D03*
X6820000Y15545000D02*
D03*
X7175000Y15220000D02*
D03*
X7777500Y15335001D02*
D03*
X7905000Y15145000D02*
D03*
X8452500Y15420000D02*
D03*
X8355000Y15070000D02*
D03*
X9087500Y15250000D02*
D03*
X8975000Y14945000D02*
D03*
X9697500Y15045000D02*
D03*
X9632500Y14742500D02*
D03*
X11115000Y14780000D02*
D03*
X11100000Y14702499D02*
D03*
X11085000Y14364999D02*
D03*
X11082500Y14439999D02*
D03*
X10422500Y14680000D02*
D03*
Y14610001D02*
D03*
X10425000Y14547501D02*
D03*
X10427500Y14487500D02*
D03*
X5502500Y8475000D02*
D03*
X6180000Y8272500D02*
D03*
X6000000Y8717500D02*
D03*
X5995000Y8377500D02*
D03*
X7210000Y7560000D02*
D03*
X7307500Y7557500D02*
D03*
X7575000Y7417500D02*
D03*
Y7520000D02*
D03*
X6292500Y7146580D02*
D03*
X6237500Y6802500D02*
D03*
D130*
X11000671Y17187770D02*
D03*
X11160000Y16997501D02*
D03*
X11392500D02*
D03*
X11082500Y14514999D02*
D03*
X10112500Y8642500D02*
D03*
X1633857Y8781067D02*
D03*
X1567500Y14725000D02*
D03*
X738910Y14550220D02*
D03*
X9983954Y6752997D02*
D03*
X9862822Y6756519D02*
D03*
X9750000Y6735000D02*
D03*
X9659294Y6710037D02*
D03*
X1460000Y7627500D02*
D03*
X1532500Y7572500D02*
D03*
X9610000Y7912500D02*
D03*
X9642500Y8275000D02*
D03*
X9655337Y8377163D02*
D03*
X9722426Y8280202D02*
D03*
X9784404Y8241310D02*
D03*
X9543742Y7870880D02*
D03*
X9664061Y8463585D02*
D03*
X9110000Y7693200D02*
D03*
X9485742Y7820622D02*
D03*
X9655000Y8580000D02*
D03*
X9388000Y8535500D02*
D03*
X8870000Y7977500D02*
D03*
X9726404Y8607500D02*
D03*
X9545000Y8521405D02*
D03*
X9798934Y8640807D02*
D03*
X11017500Y14080000D02*
D03*
X10915000Y14182500D02*
D03*
X10850000Y14280000D02*
D03*
X10797500Y14385001D02*
D03*
X10860000Y14770000D02*
D03*
X10737500Y14470000D02*
D03*
X10677500Y14580000D02*
D03*
X10672869Y14785710D02*
D03*
X11020000Y14885001D02*
D03*
X10922500Y15035001D02*
D03*
X10805000Y14822501D02*
D03*
X10742500Y14877499D02*
D03*
X11314079Y17160001D02*
D03*
X10810000Y17270000D02*
D03*
X10674080Y17422501D02*
D03*
X10230881Y17461514D02*
D03*
X10049080Y17614999D02*
D03*
X9419080Y17802499D02*
D03*
X8786580Y17952499D02*
D03*
X8154080Y18067500D02*
D03*
X7518159Y18160001D02*
D03*
X6901580Y18220000D02*
D03*
X6281580Y18250002D02*
D03*
X2795000Y8020000D02*
D03*
X2772500Y8167500D02*
D03*
X2723998Y7831107D02*
D03*
X2510000Y7612000D02*
D03*
X1782500Y8572500D02*
D03*
X1718987Y8627148D02*
D03*
X2581232Y7804576D02*
D03*
X1930581Y7397258D02*
D03*
X2715000Y7580000D02*
D03*
X2595000Y7567500D02*
D03*
X2235000Y8222500D02*
D03*
X1134153Y14819614D02*
D03*
X1084377Y14504755D02*
D03*
X1065512Y14787195D02*
D03*
X1287778Y14442075D02*
D03*
X1237500Y14495000D02*
D03*
X1217439Y14818350D02*
D03*
X1320000Y14842500D02*
D03*
X1160000Y14485001D02*
D03*
X2372500Y8012000D02*
D03*
X2470000Y8070000D02*
D03*
X1884762Y8447262D02*
D03*
X3124080Y17945000D02*
D03*
X1990000Y8260000D02*
D03*
X3750660Y18064999D02*
D03*
X2775000Y8552500D02*
D03*
X2945000Y8510000D02*
D03*
X3025000Y8555000D02*
D03*
X2442440Y8594500D02*
D03*
X2232982Y8542141D02*
D03*
X4380000Y18152499D02*
D03*
X2337131Y8564155D02*
D03*
X2345924Y8452069D02*
D03*
X2307500Y8390000D02*
D03*
X5021580Y18227499D02*
D03*
X5654080Y18255000D02*
D03*
X3126579Y15107500D02*
D03*
X3780000Y15255000D02*
D03*
X4410660Y15357500D02*
D03*
X5039080Y15442500D02*
D03*
X5670660Y15495000D02*
D03*
X10076580Y14695000D02*
D03*
X9445156Y14790630D02*
D03*
X9442500Y14912500D02*
D03*
X8819080Y15095001D02*
D03*
X8195000Y15242500D02*
D03*
X7569080Y15375000D02*
D03*
X6934080Y15450000D02*
D03*
X6301580Y15492500D02*
D03*
X10385000Y14792500D02*
D03*
X11590943Y17035606D02*
D03*
X9437613Y7576697D02*
D03*
X1563300Y17836436D02*
D03*
X1983420Y17730000D02*
D03*
X9559788Y15028069D02*
D03*
X9141580Y15137500D02*
D03*
X2842499Y15335001D02*
D03*
X3243419Y15219501D02*
D03*
X10193420Y14810001D02*
D03*
X9764080Y14927499D02*
D03*
X7685920Y15489999D02*
D03*
X7256580Y15605000D02*
D03*
X8310920Y15363420D02*
D03*
X7894839Y15450000D02*
D03*
X5155920Y15557500D02*
D03*
X4723738Y15673289D02*
D03*
X3438159Y18295000D02*
D03*
X3868419Y18180000D02*
D03*
X9535920Y17917500D02*
D03*
X9102500Y18027499D02*
D03*
X1569080Y14917500D02*
D03*
X1998420Y14800000D02*
D03*
X3895920Y15370000D02*
D03*
X3465000Y15482500D02*
D03*
X6620000Y15670000D02*
D03*
X7048416Y15564149D02*
D03*
X6418420Y15607500D02*
D03*
X6007500Y15647501D02*
D03*
X8474080Y18185001D02*
D03*
X8903420Y18067500D02*
D03*
X4069080Y18382500D02*
D03*
X4497500Y18268159D02*
D03*
X2184080Y18027499D02*
D03*
X2613420Y17912500D02*
D03*
X2206580Y15135001D02*
D03*
X2635920Y15020000D02*
D03*
X5341580Y18487500D02*
D03*
X5770920Y18370000D02*
D03*
X5787500Y15610001D02*
D03*
X5355660Y15725000D02*
D03*
X10167959Y17729836D02*
D03*
X9735000Y17832500D02*
D03*
X3240920Y18060001D02*
D03*
X2811580Y18175000D02*
D03*
X8270920Y18182500D02*
D03*
X7842340Y18287500D02*
D03*
X1365000Y17514999D02*
D03*
X937949Y17624318D02*
D03*
X4525920Y15477499D02*
D03*
X4102500Y15592500D02*
D03*
X7015920Y18337500D02*
D03*
X6594879Y18443846D02*
D03*
X6398420Y18367500D02*
D03*
X5969449Y18474757D02*
D03*
X11430919Y17280000D02*
D03*
X10990345Y17384715D02*
D03*
X736840Y17235921D02*
D03*
X304953Y17347807D02*
D03*
X5138420Y18342000D02*
D03*
X4702500Y18445000D02*
D03*
X10790920Y17539500D02*
D03*
X10366350Y17644833D02*
D03*
X7642500Y18262000D02*
D03*
X7215000Y18377499D02*
D03*
X8935920Y15214500D02*
D03*
X8517500Y15307501D02*
D03*
X6883387Y8153746D02*
D03*
X8022500Y8180000D02*
D03*
X7900000Y8572500D02*
D03*
X7835000Y8472500D02*
D03*
X8449715Y8479640D02*
D03*
X8123000Y8477500D02*
D03*
X8446580Y8632500D02*
D03*
X8107500Y8622500D02*
D03*
X8095026Y8165222D02*
D03*
X6460000Y7459500D02*
D03*
X895000Y4487500D02*
D03*
X7997500Y2957500D02*
D03*
X6881045Y5917107D02*
D03*
X7610000Y5827500D02*
D03*
X7697353Y5809853D02*
D03*
X7279557Y6115442D02*
D03*
X7305362Y6047155D02*
D03*
X3156500Y5259000D02*
D03*
X3119524Y5057976D02*
D03*
X3185000Y5442500D02*
D03*
X2162500Y4525000D02*
D03*
X6603452Y6595000D02*
D03*
X6647500Y6485000D02*
D03*
X4980000Y6212500D02*
D03*
X4977500Y6437500D02*
D03*
X5065000D02*
D03*
X3435000Y6332500D02*
D03*
X7124263Y6394501D02*
D03*
X6930830Y6582204D02*
D03*
X6312500Y7750000D02*
D03*
X6325000Y8045500D02*
D03*
X6040596Y8010462D02*
D03*
X6098097Y7965489D02*
D03*
X6167700Y7987500D02*
D03*
X6101024Y7892500D02*
D03*
X6492245Y7966358D02*
D03*
X5262500Y6995000D02*
D03*
X5330279Y6967889D02*
D03*
X5197500Y6852500D02*
D03*
X5045000Y6652500D02*
D03*
X3137500Y4505000D02*
D03*
X2955000Y4355000D02*
D03*
X2672500Y4245000D02*
D03*
X3991498Y8074500D02*
D03*
X4800000Y8041800D02*
D03*
X5425000Y7902500D02*
D03*
X3935000Y8160500D02*
D03*
X2967500Y7830500D02*
D03*
X2975825Y7748801D02*
D03*
X5358698Y878430D02*
D03*
X5325000Y1235000D02*
D03*
X8185000Y3247500D02*
D03*
X3930000Y1032500D02*
D03*
X1097797Y4119266D02*
D03*
X9381233Y6840070D02*
D03*
X9479500Y6804024D02*
D03*
X9300222Y6798200D02*
D03*
X9197500Y6800000D02*
D03*
X9403059Y6648800D02*
D03*
X9254662Y6631035D02*
D03*
X8387500Y3082500D02*
D03*
X8262500Y3175000D02*
D03*
X6032500Y6905000D02*
D03*
X6035000Y7160000D02*
D03*
X6667866Y7199693D02*
D03*
X5842500Y6827500D02*
D03*
X6664711Y5981766D02*
D03*
X8217500Y3777500D02*
D03*
X4142500Y6542500D02*
D03*
X3375000Y6605000D02*
D03*
X3257500Y4167500D02*
D03*
X3331679Y4175345D02*
D03*
X2742495Y3613600D02*
D03*
X2792500Y3835000D02*
D03*
X3054543Y4087500D02*
D03*
X3127500Y4085000D02*
D03*
X2942500Y3852000D02*
D03*
X7809874Y5996380D02*
D03*
X7738511Y5981013D02*
D03*
X8538756Y4968450D02*
D03*
X8185000Y3507500D02*
D03*
X10620000Y4037500D02*
D03*
X8650000Y3787500D02*
D03*
X9562500Y4370000D02*
D03*
X9807500Y4382500D02*
D03*
X10496272Y4355500D02*
D03*
X7560000Y6320000D02*
D03*
X7620000Y6267500D02*
D03*
X8540238Y4887738D02*
D03*
X8502500Y5967500D02*
D03*
X8687522Y4129502D02*
D03*
X8587876Y4737754D02*
D03*
X8257500Y4740000D02*
D03*
X8812500Y4117500D02*
D03*
X4877500Y7607500D02*
D03*
X4632500Y7620000D02*
D03*
X2211200Y7670000D02*
D03*
X3622500Y7510000D02*
D03*
X3570185Y7718654D02*
D03*
X3566391Y7281391D02*
D03*
X3447500Y7275000D02*
D03*
X3365000Y7272500D02*
D03*
X2867500Y7432500D02*
D03*
X4525984Y7282781D02*
D03*
X4992500Y7287500D02*
D03*
X4620000Y7222500D02*
D03*
X5285000Y6800000D02*
D03*
X5565500Y7637500D02*
D03*
X2810000Y7290000D02*
D03*
X5492500Y7347500D02*
D03*
X6257500Y7587500D02*
D03*
X5062500Y5980000D02*
D03*
X5132500Y6595000D02*
D03*
X6452500Y6940000D02*
D03*
X3800000Y4185000D02*
D03*
X3595000Y3957500D02*
D03*
X3619500Y4267500D02*
D03*
X8432500Y7175000D02*
D03*
X3420000Y4260000D02*
D03*
X3525000Y4265000D02*
D03*
X9657017Y3418858D02*
D03*
X6747500Y8150000D02*
D03*
X6795000Y6462500D02*
D03*
X8567500Y5875000D02*
D03*
X7042500Y6345000D02*
D03*
X8997500Y6707500D02*
D03*
X8857738Y6992262D02*
D03*
X8643135Y7034955D02*
D03*
X8914470Y6658497D02*
D03*
X8458344Y6487787D02*
D03*
X8400000Y4600000D02*
D03*
X8437500Y4307500D02*
D03*
X8237500Y4490000D02*
D03*
X8797500Y7475000D02*
D03*
X5345000Y6305000D02*
D03*
X4345000Y6892500D02*
D03*
X4369020Y7530000D02*
D03*
X3315000Y7052500D02*
D03*
X4565000Y6627500D02*
D03*
X4670325Y6638183D02*
D03*
X3588763Y7789250D02*
D03*
X3217500Y7912000D02*
D03*
X3074500Y7899696D02*
D03*
X6487248Y7603266D02*
D03*
X8235000Y7091000D02*
D03*
X9100000Y6812500D02*
D03*
X9052500Y6922500D02*
D03*
X8202500Y6812000D02*
D03*
X6707500D02*
D03*
X8185000Y6642000D02*
D03*
X8632500Y6870000D02*
D03*
X6545000Y6817500D02*
D03*
X5480000Y6703000D02*
D03*
X7650000Y6550000D02*
D03*
X8417500Y6870000D02*
D03*
X7548972Y6547039D02*
D03*
X7347500Y6512500D02*
D03*
X9265000Y7127500D02*
D03*
X8560000Y6515000D02*
D03*
X8780000Y8055000D02*
D03*
X9899188Y7307225D02*
D03*
X9857325Y7247250D02*
D03*
X8238646Y8233935D02*
D03*
X8235000Y8361000D02*
D03*
X6445000Y7210000D02*
D03*
X6442500Y7090000D02*
D03*
X4652500Y7959500D02*
D03*
X4925000Y7944500D02*
D03*
X3475000Y8380000D02*
D03*
X3832500Y8332500D02*
D03*
X3770000Y8397500D02*
D03*
X5691220Y8164500D02*
D03*
X8030616Y1744488D02*
D03*
X7635000Y1267500D02*
D03*
X7447500Y635000D02*
D03*
X8245000Y715000D02*
D03*
X7697500Y635000D02*
D03*
X4684063Y562082D02*
D03*
X3442500Y895000D02*
D03*
X4632500Y720000D02*
D03*
X4803523Y1225076D02*
D03*
D131*
X7423500Y1470950D02*
D03*
%TF.MD5,2ffa11c6ae04dc484ce321a1196b33d4*%
M02*
