%TF.GenerationSoftware,Altium Limited,Altium Designer,21.7.2 (23)*%
G04 Layer_Color=16711935*
%FSLAX45Y45*%
%MOMM*%
%TF.SameCoordinates,C5F40386-04F0-4186-BDF7-9E6353565D61*%
%TF.FilePolarity,Positive*%
%TF.FileFunction,Other,Mechanical_1*%
%TF.Part,Single*%
G01*
G75*
%TA.AperFunction,NonConductor*%
%ADD111C,0.01270*%
%ADD112C,1.20000*%
D111*
X7732506Y3826035D02*
G03*
X7732506Y3826035I-1850000J0D01*
G01*
X7913121Y4906035D02*
G03*
X7913121Y4906035I-160000J0D01*
G01*
X4171891D02*
G03*
X4171891Y4906035I-160000J0D01*
G01*
X6042506Y1666035D02*
G03*
X6042506Y1666035I-160000J0D01*
G01*
X10082506Y1526035D02*
G03*
X9982506Y1426035I0J-100000D01*
G01*
Y1226035D02*
G03*
X10082506Y1126035I100000J0D01*
G01*
X10382506D02*
G03*
X10482506Y1226035I0J100000D01*
G01*
Y1426035D02*
G03*
X10382506Y1526035I-100000J0D01*
G01*
X8882506Y1226035D02*
G03*
X8982506Y1126035I100000J-0D01*
G01*
X9282506D02*
G03*
X9382506Y1226035I0J100000D01*
G01*
Y1426035D02*
G03*
X9282506Y1526035I-100000J0D01*
G01*
X8982506Y1526035D02*
G03*
X8882506Y1426035I0J-100000D01*
G01*
X9982506Y2926035D02*
G03*
X10082506Y2826035I100000J0D01*
G01*
X10382506D02*
G03*
X10482506Y2926035I0J100000D01*
G01*
Y3126035D02*
G03*
X10382506Y3226035I-100000J0D01*
G01*
X10082506D02*
G03*
X9982506Y3126035I0J-100000D01*
G01*
X8882506Y2926035D02*
G03*
X8982506Y2826035I100000J-0D01*
G01*
X9282506Y2826035D02*
G03*
X9382506Y2926035I0J100000D01*
G01*
Y3126035D02*
G03*
X9282506Y3226035I-100000J0D01*
G01*
X8982506Y3226035D02*
G03*
X8882506Y3126035I0J-100000D01*
G01*
X8982506Y6526035D02*
G03*
X8882506Y6426035I0J-100000D01*
G01*
Y6226035D02*
G03*
X8982506Y6126035I100000J-0D01*
G01*
X9282506Y6126035D02*
G03*
X9382506Y6226035I0J100000D01*
G01*
Y6426035D02*
G03*
X9282506Y6526035I-100000J0D01*
G01*
X9982506Y6226035D02*
G03*
X10082506Y6126035I100000J0D01*
G01*
X10382506D02*
G03*
X10482506Y6226035I0J100000D01*
G01*
Y6426035D02*
G03*
X10382506Y6526035I-100000J0D01*
G01*
X10082506D02*
G03*
X9982506Y6426035I0J-100000D01*
G01*
X10382506Y4426035D02*
G03*
X10482506Y4526035I0J100000D01*
G01*
Y4726035D02*
G03*
X10382506Y4826035I-100000J0D01*
G01*
X10082506D02*
G03*
X9982506Y4726035I0J-100000D01*
G01*
Y4526035D02*
G03*
X10082506Y4426035I100000J0D01*
G01*
X9382506Y4726035D02*
G03*
X9282506Y4826035I-100000J0D01*
G01*
X8982506Y4826035D02*
G03*
X8882506Y4726035I0J-100000D01*
G01*
Y4526035D02*
G03*
X8982506Y4426035I100000J-0D01*
G01*
X9282506Y4426035D02*
G03*
X9382506Y4526035I0J100000D01*
G01*
X1382506Y6526035D02*
G03*
X1282506Y6426035I0J-100000D01*
G01*
Y6226035D02*
G03*
X1382506Y6126035I100000J0D01*
G01*
X1682506D02*
G03*
X1782506Y6226035I0J100000D01*
G01*
Y6426035D02*
G03*
X1682506Y6526035I-100000J0D01*
G01*
X2482506D02*
G03*
X2382506Y6426035I0J-100000D01*
G01*
Y6226035D02*
G03*
X2482506Y6126035I100000J0D01*
G01*
X2782506Y6126035D02*
G03*
X2882506Y6226035I-0J100000D01*
G01*
Y6426035D02*
G03*
X2782506Y6526035I-100000J0D01*
G01*
X2882506Y4726035D02*
G03*
X2782506Y4826035I-100000J0D01*
G01*
X2482506Y4826035D02*
G03*
X2382506Y4726035I0J-100000D01*
G01*
Y4526035D02*
G03*
X2482506Y4426035I100000J0D01*
G01*
X2782506Y4426035D02*
G03*
X2882506Y4526035I-0J100000D01*
G01*
X1382506Y4826035D02*
G03*
X1282506Y4726035I0J-100000D01*
G01*
Y4526035D02*
G03*
X1382506Y4426035I100000J0D01*
G01*
X1682506D02*
G03*
X1782506Y4526035I0J100000D01*
G01*
Y4726035D02*
G03*
X1682506Y4826035I-100000J0D01*
G01*
X1282506Y2926035D02*
G03*
X1382506Y2826035I100000J0D01*
G01*
X1682506D02*
G03*
X1782506Y2926035I0J100000D01*
G01*
Y3126035D02*
G03*
X1682506Y3226035I-100000J0D01*
G01*
X1382506D02*
G03*
X1282506Y3126035I0J-100000D01*
G01*
X2382506Y2926035D02*
G03*
X2482506Y2826035I100000J0D01*
G01*
X2782506Y2826035D02*
G03*
X2882506Y2926035I-0J100000D01*
G01*
Y3126035D02*
G03*
X2782506Y3226035I-100000J0D01*
G01*
X2482506Y3226035D02*
G03*
X2382506Y3126035I0J-100000D01*
G01*
X1382506Y1526035D02*
G03*
X1282506Y1426035I0J-100000D01*
G01*
Y1226035D02*
G03*
X1382506Y1126035I100000J0D01*
G01*
X1682506D02*
G03*
X1782506Y1226035I0J100000D01*
G01*
Y1426035D02*
G03*
X1682506Y1526035I-100000J0D01*
G01*
X2782506Y1126035D02*
G03*
X2882506Y1226035I-0J100000D01*
G01*
Y1426035D02*
G03*
X2782506Y1526035I-100000J0D01*
G01*
X2482506Y1526035D02*
G03*
X2382506Y1426035I0J-100000D01*
G01*
Y1226035D02*
G03*
X2482506Y1126035I100000J0D01*
G01*
X10426218Y13952409D02*
G03*
X10307612Y14169194I-197274J32905D01*
G01*
Y14169194D02*
G03*
X1457400Y14169194I-4425106J-10343159D01*
G01*
Y14169194D02*
G03*
X1338794Y13952409I78668J-183878D01*
G01*
X2160590Y9025552D02*
G03*
X2337112Y8876035I176522J29444D01*
G01*
X9427900D02*
G03*
X9604422Y9025552I0J178961D01*
G01*
X10348705Y14963947D02*
G03*
X10620416Y15116673I74437J185632D01*
G01*
X10875554Y16646289D02*
G03*
X10682500Y16977463I-295912J49358D01*
G01*
Y16977463D02*
G03*
X1082512Y16977463I-4799994J-13151428D01*
G01*
Y16977463D02*
G03*
X889457Y16646289I102857J-281816D01*
G01*
X1144596Y15116673D02*
G03*
X1416307Y14963947I197275J32905D01*
G01*
X10348705D02*
G03*
X1416307Y14963947I-4466199J-11137912D01*
G01*
X10705993Y1055264D02*
G03*
X11082506Y1676035I-323487J620771D01*
G01*
X7996134Y26035D02*
G03*
X9382506Y365589I0J3000000D01*
G01*
X2382506D02*
G03*
X3768877Y26035I1386372J2660446D01*
G01*
X682506Y1676035D02*
G03*
X1059019Y1055264I700000J0D01*
G01*
X730752Y6249651D02*
G03*
X682506Y5976035I751754J-273616D01*
G01*
X1327450Y7889065D02*
G03*
X1420810Y8902158I-1879385J684040D01*
G01*
X382506Y17512251D02*
G03*
X75760Y16966048I186441J-463940D01*
G01*
X11382506Y17512251D02*
G03*
X382506Y17512251I-5500000J-13686215D01*
G01*
X11689251Y16966048D02*
G03*
X11382506Y17512251I-493186J82263D01*
G01*
X10344202Y8902158D02*
G03*
X10437562Y7889065I1972746J-329052D01*
G01*
X11082506Y5976035D02*
G03*
X11034260Y6249651I-800000J-0D01*
G01*
X10082506Y1526035D02*
X10382506D01*
X9982506Y1226035D02*
Y1426035D01*
X10082506Y1126035D02*
X10382506D01*
X10482506Y1226035D02*
Y1426035D01*
X8982506Y1126035D02*
X9282506D01*
X9382506Y1226035D02*
Y1426035D01*
X8982506Y1526035D02*
X9282506D01*
X8882506Y1226035D02*
Y1426035D01*
X10082506Y2826035D02*
X10382506D01*
X10482506Y2926035D02*
Y3126035D01*
X10082506Y3226035D02*
X10382506D01*
X9982506Y2926035D02*
Y3126035D01*
X8982506Y2826035D02*
X9282506D01*
X9382506Y2926035D02*
Y3126035D01*
X8982506Y3226035D02*
X9282506D01*
X8882506Y2926035D02*
Y3126035D01*
Y6226035D02*
Y6426035D01*
X8982506Y6126035D02*
X9282506D01*
X9382506Y6226035D02*
Y6426035D01*
X8982506Y6526035D02*
X9282506D01*
X10082506Y6126035D02*
X10382506D01*
X10482506Y6226035D02*
Y6426035D01*
X10082506Y6526035D02*
X10382506D01*
X9982506Y6226035D02*
Y6426035D01*
X10482506Y4526035D02*
Y4726035D01*
X10082506Y4826035D02*
X10382506D01*
X9982506Y4526035D02*
Y4726035D01*
X10082506Y4426035D02*
X10382506D01*
X8982506Y4826035D02*
X9282506D01*
X8882506Y4526035D02*
Y4726035D01*
X8982506Y4426035D02*
X9282506D01*
X9382506Y4526035D02*
Y4726035D01*
X1382506Y6526035D02*
X1682506D01*
X1282506Y6226035D02*
Y6426035D01*
X1382506Y6126035D02*
X1682506D01*
X1782506Y6226035D02*
Y6426035D01*
X2482506Y6526035D02*
X2782506D01*
X2382506Y6226035D02*
Y6426035D01*
X2482506Y6126035D02*
X2782506D01*
X2882506Y6226035D02*
Y6426035D01*
Y4526035D02*
Y4726035D01*
X2482506Y4826035D02*
X2782506D01*
X2382506Y4526035D02*
Y4726035D01*
X2482506Y4426035D02*
X2782506D01*
X1282506Y4526035D02*
Y4726035D01*
X1382506Y4426035D02*
X1682506D01*
X1782506Y4526035D02*
Y4726035D01*
X1382506Y4826035D02*
X1682506D01*
X1382506Y2826035D02*
X1682506D01*
X1782506Y2926035D02*
Y3126035D01*
X1382506Y3226035D02*
X1682506D01*
X1282506Y2926035D02*
Y3126035D01*
X2482506Y2826035D02*
X2782506D01*
X2882506Y2926035D02*
Y3126035D01*
X2482506Y3226035D02*
X2782506D01*
X2382506Y2926035D02*
Y3126035D01*
X1282506Y1226035D02*
Y1426035D01*
X1382506Y1126035D02*
X1682506D01*
X1782506Y1226035D02*
Y1426035D01*
X1382506Y1526035D02*
X1682506D01*
X2882506Y1226035D02*
Y1426035D01*
X2482506Y1526035D02*
X2782506D01*
X2382506Y1226035D02*
Y1426035D01*
X2482506Y1126035D02*
X2782506D01*
X1338794Y13952409D02*
X2160590Y9025552D01*
X2337112Y8876035D02*
X9427900D01*
X9604422Y9025552D02*
X10426218Y13952409D01*
X10620416Y15116673D02*
X10875554Y16646289D01*
X889457D02*
X1144596Y15116673D01*
X9382506Y365589D02*
X10705993Y1055264D01*
X3768877Y26035D02*
X7996134D01*
X1059019Y1055264D02*
X2382506Y365589D01*
X682506Y1676035D02*
Y5976035D01*
X730752Y6249651D02*
X1327450Y7889065D01*
X75760Y16966048D02*
X1420810Y8902158D01*
X10344202D02*
X11689251Y16966048D01*
X10437562Y7889065D02*
X11034260Y6249651D01*
X11082506Y1676035D02*
Y5976035D01*
D112*
X2482506Y1526035D02*
X2782506Y1526035D01*
X2792355Y1526035D01*
X2811675Y1522192D01*
X2829873Y1514654D01*
X2846252Y1503710D01*
X2860181Y1489781D01*
X2871125Y1473402D01*
X2878663Y1455204D01*
X2882506Y1435884D01*
X2882506Y1426035D02*
X2882506Y1435884D01*
X2882506Y1426035D02*
X2882506Y1426035D01*
X2882505Y1226035D02*
X2882506Y1426035D01*
X2882505Y1226035D02*
X2882506Y1216186D01*
X2878663Y1196866D02*
X2882506Y1216186D01*
X2871125Y1178667D02*
X2878663Y1196866D01*
X2860181Y1162289D02*
X2871125Y1178667D01*
X2846252Y1148360D02*
X2860181Y1162289D01*
X2829874Y1137416D02*
X2846252Y1148360D01*
X2811675Y1129878D02*
X2829874Y1137416D01*
X2792355Y1126035D02*
X2811675Y1129878D01*
X2782506Y1126035D02*
X2792355Y1126035D01*
X2782506Y1126035D02*
X2782506D01*
X2482506Y1126035D02*
X2782506Y1126035D01*
X2472656Y1126035D02*
X2482506D01*
X2453337Y1129878D02*
X2472656Y1126035D01*
X2435138Y1137416D02*
X2453337Y1129878D01*
X2418759Y1148360D02*
X2435138Y1137416D01*
X2404831Y1162289D02*
X2418759Y1148360D01*
X2393887Y1178667D02*
X2404831Y1162289D01*
X2386349Y1196866D02*
X2393887Y1178667D01*
X2382506Y1216186D02*
X2386349Y1196866D01*
X2382506Y1216186D02*
Y1226035D01*
X2382506D02*
X2382506D01*
X2382506D02*
X2382506Y1426035D01*
Y1435884D01*
X2386349Y1455204D01*
X2393887Y1473402D01*
X2404831Y1489781D01*
X2418759Y1503710D01*
X2435138Y1514654D01*
X2453337Y1522192D01*
X2472656Y1526035D01*
X2482506D01*
Y1526035D01*
X1692355D02*
X1711675Y1522192D01*
X1729874Y1514654D01*
X1746252Y1503710D01*
X1760181Y1489781D01*
X1771125Y1473403D01*
X1778663Y1455204D01*
X1782506Y1435884D01*
Y1426035D02*
Y1435884D01*
Y1226035D02*
Y1426035D01*
Y1216186D02*
Y1226035D01*
X1778663Y1196866D02*
X1782506Y1216186D01*
X1771125Y1178667D02*
X1778663Y1196866D01*
X1760181Y1162289D02*
X1771125Y1178667D01*
X1746252Y1148360D02*
X1760181Y1162289D01*
X1729874Y1137416D02*
X1746252Y1148360D01*
X1711675Y1129878D02*
X1729874Y1137416D01*
X1692355Y1126035D02*
X1711675Y1129878D01*
X1372657Y1126035D02*
X1692355D01*
X1353337Y1129878D02*
X1372657Y1126035D01*
X1335138Y1137416D02*
X1353337Y1129878D01*
X1318760Y1148360D02*
X1335138Y1137416D01*
X1304831Y1162289D02*
X1318760Y1148360D01*
X1293887Y1178667D02*
X1304831Y1162289D01*
X1286349Y1196866D02*
X1293887Y1178667D01*
X1282506Y1216186D02*
X1286349Y1196866D01*
X1282506Y1216186D02*
Y1226035D01*
Y1426035D01*
Y1435884D01*
X1286349Y1455204D01*
X1293887Y1473403D01*
X1304831Y1489781D01*
X1318760Y1503710D01*
X1335138Y1514654D01*
X1353337Y1522192D01*
X1372657Y1526035D01*
X1692355D01*
X8982506Y1526035D02*
X9282506Y1526035D01*
X9292355D01*
X9311675Y1522192D01*
X9329873Y1514654D01*
X9346252Y1503710D01*
X9360181Y1489781D01*
X9371125Y1473402D01*
X9378663Y1455204D01*
X9382506Y1435884D01*
Y1426035D02*
Y1435884D01*
Y1426035D02*
X9382506D01*
X9382506Y1226035D02*
X9382506Y1426035D01*
X9382506Y1216186D02*
Y1226035D01*
X9378663Y1196866D02*
X9382506Y1216186D01*
X9371125Y1178667D02*
X9378663Y1196866D01*
X9360181Y1162289D02*
X9371125Y1178667D01*
X9346252Y1148360D02*
X9360181Y1162289D01*
X9329873Y1137416D02*
X9346252Y1148360D01*
X9311675Y1129878D02*
X9329873Y1137416D01*
X9292355Y1126035D02*
X9311675Y1129878D01*
X9282506Y1126035D02*
X9292355D01*
X9282506Y1126035D02*
Y1126035D01*
X8982506D02*
X9282506Y1126035D01*
X8972656Y1126035D02*
X8982506D01*
X8953337Y1129878D02*
X8972656Y1126035D01*
X8935138Y1137416D02*
X8953337Y1129878D01*
X8918759Y1148360D02*
X8935138Y1137416D01*
X8904831Y1162289D02*
X8918759Y1148360D01*
X8893887Y1178667D02*
X8904831Y1162289D01*
X8886349Y1196866D02*
X8893887Y1178667D01*
X8882506Y1216186D02*
X8886349Y1196866D01*
X8882506Y1216186D02*
X8882506Y1226035D01*
X8882506Y1226035D02*
X8882506Y1226035D01*
X8882506Y1226035D02*
X8882506Y1426035D01*
X8882506Y1435884D02*
X8882506Y1426035D01*
X8882506Y1435884D02*
X8886349Y1455204D01*
X8893887Y1473402D01*
X8904831Y1489781D01*
X8918759Y1503710D01*
X8935138Y1514654D01*
X8953336Y1522192D01*
X8972656Y1526035D01*
X8982505D01*
X8982506Y1526035D01*
X10392355Y1526035D02*
X10411675Y1522192D01*
X10429873Y1514654D01*
X10446252Y1503710D01*
X10460181Y1489781D01*
X10471125Y1473403D01*
X10478663Y1455204D01*
X10482506Y1435884D01*
Y1426035D02*
Y1435884D01*
Y1226035D02*
Y1426035D01*
Y1216186D02*
Y1226035D01*
X10478663Y1196866D02*
X10482506Y1216186D01*
X10471125Y1178667D02*
X10478663Y1196866D01*
X10460181Y1162289D02*
X10471125Y1178667D01*
X10446252Y1148360D02*
X10460181Y1162289D01*
X10429873Y1137416D02*
X10446252Y1148360D01*
X10411675Y1129878D02*
X10429873Y1137416D01*
X10392355Y1126035D02*
X10411675Y1129878D01*
X10072657Y1126035D02*
X10392355D01*
X10053337Y1129878D02*
X10072657Y1126035D01*
X10035138Y1137416D02*
X10053337Y1129878D01*
X10018759Y1148360D02*
X10035138Y1137416D01*
X10004831Y1162289D02*
X10018759Y1148360D01*
X9993887Y1178667D02*
X10004831Y1162289D01*
X9986349Y1196866D02*
X9993887Y1178667D01*
X9982506Y1216186D02*
X9986349Y1196866D01*
X9982506Y1216186D02*
Y1226035D01*
Y1426035D01*
Y1435884D01*
X9986349Y1455204D01*
X9993887Y1473403D01*
X10004831Y1489781D01*
X10018759Y1503710D01*
X10035138Y1514654D01*
X10053337Y1522192D01*
X10072657Y1526035D01*
X10392355D01*
X5898264Y1826035D02*
X5929176Y1819886D01*
X5958294Y1807825D01*
X5984500Y1790315D01*
X6006786Y1768029D01*
X6024296Y1741823D01*
X6036357Y1712705D01*
X6042506Y1681793D01*
Y1666035D02*
Y1681793D01*
Y1650276D02*
Y1666035D01*
X6036357Y1619365D02*
X6042506Y1650276D01*
X6024296Y1590247D02*
X6036357Y1619365D01*
X6006786Y1564041D02*
X6024296Y1590247D01*
X5984500Y1541755D02*
X6006786Y1564041D01*
X5958294Y1524245D02*
X5984500Y1541755D01*
X5929176Y1512184D02*
X5958294Y1524245D01*
X5898264Y1506035D02*
X5929176Y1512184D01*
X5866747Y1506035D02*
X5898264D01*
X5835835Y1512184D02*
X5866747Y1506035D01*
X5806717Y1524245D02*
X5835835Y1512184D01*
X5780512Y1541755D02*
X5806717Y1524245D01*
X5758226Y1564041D02*
X5780512Y1541755D01*
X5740716Y1590247D02*
X5758226Y1564041D01*
X5728655Y1619365D02*
X5740716Y1590247D01*
X5722506Y1650276D02*
X5728655Y1619365D01*
X5722506Y1650276D02*
Y1666035D01*
Y1681793D01*
X5728655Y1712705D01*
X5740716Y1741823D01*
X5758226Y1768029D01*
X5780512Y1790315D01*
X5806717Y1807825D01*
X5835835Y1819886D01*
X5866747Y1826035D01*
X5898264D01*
X5943068Y5676035D02*
X6063935Y5668113D01*
X6184024Y5652303D01*
X6302822Y5628673D01*
X6419820Y5597323D01*
X6534518Y5558388D01*
X6646423Y5512036D01*
X6755057Y5458463D01*
X6859955Y5397901D01*
X6960667Y5330607D01*
X7056762Y5256870D01*
X7147829Y5177007D01*
X7233478Y5091358D01*
X7313341Y5000291D01*
X7387078Y4904196D01*
X7454371Y4803484D01*
X7514934Y4698586D01*
X7568507Y4589952D01*
X7614859Y4478047D01*
X7653794Y4363349D01*
X7685143Y4246351D01*
X7708774Y4127553D01*
X7724584Y4007464D01*
X7732506Y3886598D01*
Y3826035D02*
Y3886598D01*
Y3765472D02*
Y3826035D01*
X7724584Y3644606D02*
X7732506Y3765472D01*
X7708774Y3524517D02*
X7724584Y3644606D01*
X7685143Y3405719D02*
X7708774Y3524517D01*
X7653794Y3288721D02*
X7685143Y3405719D01*
X7614859Y3174023D02*
X7653794Y3288721D01*
X7568507Y3062118D02*
X7614859Y3174023D01*
X7514934Y2953484D02*
X7568507Y3062118D01*
X7454371Y2848586D02*
X7514934Y2953484D01*
X7387078Y2747874D02*
X7454371Y2848586D01*
X7313341Y2651779D02*
X7387078Y2747874D01*
X7233478Y2560712D02*
X7313341Y2651779D01*
X7147829Y2475063D02*
X7233478Y2560712D01*
X7056762Y2395199D02*
X7147829Y2475063D01*
X6960667Y2321463D02*
X7056762Y2395199D01*
X6859955Y2254169D02*
X6960667Y2321463D01*
X6755057Y2193606D02*
X6859955Y2254169D01*
X6646423Y2140034D02*
X6755057Y2193606D01*
X6534518Y2093681D02*
X6646423Y2140034D01*
X6419820Y2054747D02*
X6534518Y2093681D01*
X6302822Y2023397D02*
X6419820Y2054747D01*
X6184024Y1999767D02*
X6302822Y2023397D01*
X6063935Y1983957D02*
X6184024Y1999767D01*
X5943068Y1976035D02*
X6063935Y1983957D01*
X5821943Y1976035D02*
X5943068D01*
X5701077Y1983957D02*
X5821943Y1976035D01*
X5580988Y1999767D02*
X5701077Y1983957D01*
X5462189Y2023397D02*
X5580988Y1999767D01*
X5345191Y2054747D02*
X5462189Y2023397D01*
X5230494Y2093681D02*
X5345191Y2054747D01*
X5118589Y2140034D02*
X5230494Y2093681D01*
X5009955Y2193606D02*
X5118589Y2140034D01*
X4905057Y2254169D02*
X5009955Y2193606D01*
X4804345Y2321463D02*
X4905057Y2254169D01*
X4708249Y2395199D02*
X4804345Y2321463D01*
X4617183Y2475063D02*
X4708249Y2395199D01*
X4531534Y2560712D02*
X4617183Y2475063D01*
X4451670Y2651779D02*
X4531534Y2560712D01*
X4377934Y2747874D02*
X4451670Y2651779D01*
X4310640Y2848586D02*
X4377934Y2747874D01*
X4250077Y2953484D02*
X4310640Y2848586D01*
X4196505Y3062118D02*
X4250077Y2953484D01*
X4150152Y3174023D02*
X4196505Y3062118D01*
X4111218Y3288721D02*
X4150152Y3174023D01*
X4079868Y3405719D02*
X4111218Y3288721D01*
X4056238Y3524517D02*
X4079868Y3405719D01*
X4040428Y3644606D02*
X4056238Y3524517D01*
X4032506Y3765472D02*
X4040428Y3644606D01*
X4032506Y3765472D02*
Y3826035D01*
Y3886598D01*
X4040428Y4007464D01*
X4056238Y4127553D01*
X4079868Y4246351D01*
X4111218Y4363349D01*
X4150152Y4478047D01*
X4196505Y4589952D01*
X4250077Y4698586D01*
X4310640Y4803484D01*
X4377934Y4904196D01*
X4451670Y5000291D01*
X4531534Y5091358D01*
X4617183Y5177007D01*
X4708249Y5256870D01*
X4804345Y5330607D01*
X4905057Y5397901D01*
X5009955Y5458463D01*
X5118589Y5512036D01*
X5230494Y5558388D01*
X5345191Y5597323D01*
X5462189Y5628673D01*
X5580988Y5652303D01*
X5701077Y5668113D01*
X5821943Y5676035D01*
X5943068D01*
X2482506Y3226035D02*
X2782506Y3226034D01*
X2792355Y3226035D01*
X2811675Y3222192D01*
X2829873Y3214653D01*
X2846252Y3203710D01*
X2860181Y3189781D01*
X2871125Y3173402D01*
X2878663Y3155203D01*
X2882506Y3135884D01*
X2882506Y3126035D02*
X2882506Y3135884D01*
X2882506Y3126035D02*
X2882506Y3126035D01*
X2882505Y2926035D02*
X2882506Y3126035D01*
X2882505Y2926035D02*
X2882506Y2916186D01*
X2878663Y2896866D02*
X2882506Y2916186D01*
X2871125Y2878667D02*
X2878663Y2896866D01*
X2860181Y2862288D02*
X2871125Y2878667D01*
X2846252Y2848360D02*
X2860181Y2862288D01*
X2829874Y2837416D02*
X2846252Y2848360D01*
X2811675Y2829877D02*
X2829874Y2837416D01*
X2792355Y2826034D02*
X2811675Y2829877D01*
X2782506Y2826035D02*
X2792355Y2826034D01*
X2782506Y2826035D02*
X2782506D01*
X2482506Y2826035D02*
X2782506Y2826035D01*
X2472656Y2826035D02*
X2482506D01*
X2453337Y2829878D02*
X2472656Y2826035D01*
X2435138Y2837416D02*
X2453337Y2829878D01*
X2418759Y2848360D02*
X2435138Y2837416D01*
X2404831Y2862289D02*
X2418759Y2848360D01*
X2393887Y2878667D02*
X2404831Y2862289D01*
X2386349Y2896866D02*
X2393887Y2878667D01*
X2382506Y2916186D02*
X2386349Y2896866D01*
X2382506Y2916186D02*
Y2926035D01*
X2382506D02*
X2382506D01*
X2382506D02*
X2382506Y3126035D01*
Y3135884D01*
X2386349Y3155204D01*
X2393887Y3173402D01*
X2404831Y3189781D01*
X2418759Y3203710D01*
X2435138Y3214653D01*
X2453337Y3222192D01*
X2472656Y3226035D01*
X2482506D01*
Y3226035D01*
X1692355D02*
X1711675Y3222192D01*
X1729874Y3214654D01*
X1746252Y3203710D01*
X1760181Y3189781D01*
X1771125Y3173403D01*
X1778663Y3155204D01*
X1782506Y3135884D01*
Y3126035D02*
Y3135884D01*
Y2926035D02*
Y3126035D01*
Y2916186D02*
Y2926035D01*
X1778663Y2896866D02*
X1782506Y2916186D01*
X1771125Y2878667D02*
X1778663Y2896866D01*
X1760181Y2862289D02*
X1771125Y2878667D01*
X1746252Y2848360D02*
X1760181Y2862289D01*
X1729874Y2837416D02*
X1746252Y2848360D01*
X1711675Y2829878D02*
X1729874Y2837416D01*
X1692355Y2826035D02*
X1711675Y2829878D01*
X1372657Y2826035D02*
X1692355D01*
X1353337Y2829878D02*
X1372657Y2826035D01*
X1335138Y2837416D02*
X1353337Y2829878D01*
X1318760Y2848360D02*
X1335138Y2837416D01*
X1304831Y2862289D02*
X1318760Y2848360D01*
X1293887Y2878667D02*
X1304831Y2862289D01*
X1286349Y2896866D02*
X1293887Y2878667D01*
X1282506Y2916186D02*
X1286349Y2896866D01*
X1282506Y2916186D02*
Y2926035D01*
Y3126035D01*
Y3135884D01*
X1286349Y3155204D01*
X1293887Y3173403D01*
X1304831Y3189781D01*
X1318760Y3203710D01*
X1335138Y3214654D01*
X1353337Y3222192D01*
X1372657Y3226035D01*
X1692355D01*
X8982506Y3226035D02*
X9282506Y3226035D01*
X9292355D01*
X9311675Y3222192D01*
X9329873Y3214653D01*
X9346252Y3203710D01*
X9360181Y3189781D01*
X9371125Y3173402D01*
X9378663Y3155204D01*
X9382506Y3135884D01*
Y3126035D02*
Y3135884D01*
Y3126035D02*
X9382506D01*
X9382506Y2926035D02*
X9382506Y3126035D01*
X9382506Y2916186D02*
Y2926035D01*
X9378663Y2896866D02*
X9382506Y2916186D01*
X9371125Y2878667D02*
X9378663Y2896866D01*
X9360181Y2862289D02*
X9371125Y2878667D01*
X9346252Y2848360D02*
X9360181Y2862289D01*
X9329873Y2837416D02*
X9346252Y2848360D01*
X9311675Y2829878D02*
X9329873Y2837416D01*
X9292355Y2826035D02*
X9311675Y2829878D01*
X9282506Y2826035D02*
X9292355D01*
X9282506Y2826035D02*
Y2826035D01*
X8972656Y2826035D02*
X9282506D01*
X8953337Y2829878D02*
X8972656Y2826035D01*
X8935138Y2837416D02*
X8953337Y2829878D01*
X8918759Y2848360D02*
X8935138Y2837416D01*
X8904831Y2862288D02*
X8918759Y2848360D01*
X8893887Y2878667D02*
X8904831Y2862288D01*
X8886349Y2896866D02*
X8893887Y2878667D01*
X8882506Y2916185D02*
X8886349Y2896866D01*
X8882506Y2916185D02*
X8882506Y2926035D01*
X8882506Y2926035D02*
X8882506Y2926035D01*
X8882506Y2926035D02*
X8882506Y3126035D01*
X8882506Y3135884D02*
X8882506Y3126035D01*
X8882506Y3135884D02*
X8886349Y3155203D01*
X8893887Y3173402D01*
X8904831Y3189781D01*
X8918759Y3203710D01*
X8935138Y3214653D01*
X8953336Y3222192D01*
X8972656Y3226035D01*
X8982505D01*
X8982506Y3226035D01*
X10392355Y3226035D02*
X10411675Y3222192D01*
X10429873Y3214654D01*
X10446252Y3203710D01*
X10460181Y3189781D01*
X10471125Y3173403D01*
X10478663Y3155204D01*
X10482506Y3135884D01*
Y3126035D02*
Y3135884D01*
Y2926035D02*
Y3126035D01*
Y2916186D02*
Y2926035D01*
X10478663Y2896866D02*
X10482506Y2916186D01*
X10471125Y2878667D02*
X10478663Y2896866D01*
X10460181Y2862289D02*
X10471125Y2878667D01*
X10446252Y2848360D02*
X10460181Y2862289D01*
X10429873Y2837416D02*
X10446252Y2848360D01*
X10411675Y2829878D02*
X10429873Y2837416D01*
X10392355Y2826035D02*
X10411675Y2829878D01*
X10072657Y2826035D02*
X10392355D01*
X10053337Y2829878D02*
X10072657Y2826035D01*
X10035138Y2837416D02*
X10053337Y2829878D01*
X10018759Y2848360D02*
X10035138Y2837416D01*
X10004831Y2862289D02*
X10018759Y2848360D01*
X9993887Y2878667D02*
X10004831Y2862289D01*
X9986349Y2896866D02*
X9993887Y2878667D01*
X9982506Y2916186D02*
X9986349Y2896866D01*
X9982506Y2916186D02*
Y2926035D01*
Y3126035D01*
Y3135884D01*
X9986349Y3155204D01*
X9993887Y3173403D01*
X10004831Y3189781D01*
X10018759Y3203710D01*
X10035138Y3214654D01*
X10053337Y3222192D01*
X10072657Y3226035D01*
X10392355D01*
X2482506Y4826035D02*
X2782506Y4826035D01*
X2792355Y4826035D01*
X2811675Y4822192D01*
X2829873Y4814654D01*
X2846252Y4803710D01*
X2860181Y4789781D01*
X2871125Y4773402D01*
X2878663Y4755204D01*
X2882506Y4735884D01*
X2882506Y4726035D02*
X2882506Y4735884D01*
X2882506Y4726035D02*
X2882506Y4726035D01*
X2882505Y4526035D02*
X2882506Y4726035D01*
X2882505Y4526035D02*
X2882506Y4516186D01*
X2878663Y4496866D02*
X2882506Y4516186D01*
X2871125Y4478667D02*
X2878663Y4496866D01*
X2860181Y4462289D02*
X2871125Y4478667D01*
X2846252Y4448360D02*
X2860181Y4462289D01*
X2829874Y4437416D02*
X2846252Y4448360D01*
X2811675Y4429878D02*
X2829874Y4437416D01*
X2792355Y4426035D02*
X2811675Y4429878D01*
X2782506Y4426035D02*
X2792355Y4426035D01*
X2782506Y4426035D02*
X2782506D01*
X2482506Y4426035D02*
X2782506Y4426035D01*
X2472656Y4426035D02*
X2482506D01*
X2453337Y4429878D02*
X2472656Y4426035D01*
X2435138Y4437416D02*
X2453337Y4429878D01*
X2418759Y4448360D02*
X2435138Y4437416D01*
X2404831Y4462289D02*
X2418759Y4448360D01*
X2393887Y4478667D02*
X2404831Y4462289D01*
X2386349Y4496866D02*
X2393887Y4478667D01*
X2382506Y4516186D02*
X2386349Y4496866D01*
X2382506Y4516186D02*
Y4526035D01*
X2382506D02*
X2382506D01*
X2382506D02*
X2382506Y4726035D01*
Y4735884D01*
X2386349Y4755204D01*
X2393887Y4773402D01*
X2404831Y4789781D01*
X2418759Y4803710D01*
X2435138Y4814654D01*
X2453337Y4822192D01*
X2472656Y4826035D01*
X2482506D01*
Y4826035D01*
X8982506Y4826035D02*
X9282506Y4826035D01*
X9292355D01*
X9311675Y4822192D01*
X9329873Y4814654D01*
X9346252Y4803710D01*
X9360181Y4789781D01*
X9371125Y4773402D01*
X9378663Y4755204D01*
X9382506Y4735884D01*
Y4726035D02*
Y4735884D01*
Y4726035D02*
X9382506D01*
X9382506Y4526035D02*
X9382506Y4726035D01*
X9382506Y4516186D02*
Y4526035D01*
X9378663Y4496866D02*
X9382506Y4516186D01*
X9371125Y4478667D02*
X9378663Y4496866D01*
X9360181Y4462289D02*
X9371125Y4478667D01*
X9346252Y4448360D02*
X9360181Y4462289D01*
X9329873Y4437416D02*
X9346252Y4448360D01*
X9311675Y4429878D02*
X9329873Y4437416D01*
X9292355Y4426035D02*
X9311675Y4429878D01*
X9282506Y4426035D02*
X9292355D01*
X9282506Y4426035D02*
Y4426035D01*
X8982506Y4426035D02*
X9282506D01*
X8972656Y4426035D02*
X8982506Y4426035D01*
X8953337Y4429878D02*
X8972656Y4426035D01*
X8935138Y4437416D02*
X8953337Y4429878D01*
X8918759Y4448360D02*
X8935138Y4437416D01*
X8904831Y4462289D02*
X8918759Y4448360D01*
X8893887Y4478667D02*
X8904831Y4462289D01*
X8886348Y4496866D02*
X8893887Y4478667D01*
X8882506Y4516186D02*
X8886348Y4496866D01*
X8882506Y4516186D02*
Y4526035D01*
Y4526035D01*
X8882506Y4726035D01*
X8882506Y4735884D02*
X8882506Y4726035D01*
X8882506Y4735884D02*
X8886349Y4755204D01*
X8893887Y4773402D01*
X8904831Y4789781D01*
X8918759Y4803710D01*
X8935138Y4814654D01*
X8953336Y4822192D01*
X8972656Y4826035D01*
X8982505D01*
X8982506Y4826035D01*
X1692355Y4826035D02*
X1711675Y4822192D01*
X1729874Y4814654D01*
X1746252Y4803710D01*
X1760181Y4789781D01*
X1771125Y4773403D01*
X1778663Y4755204D01*
X1782506Y4735884D01*
Y4726035D02*
Y4735884D01*
Y4526035D02*
Y4726035D01*
Y4516186D02*
Y4526035D01*
X1778663Y4496866D02*
X1782506Y4516186D01*
X1771125Y4478667D02*
X1778663Y4496866D01*
X1760181Y4462289D02*
X1771125Y4478667D01*
X1746252Y4448360D02*
X1760181Y4462289D01*
X1729874Y4437416D02*
X1746252Y4448360D01*
X1711675Y4429878D02*
X1729874Y4437416D01*
X1692355Y4426035D02*
X1711675Y4429878D01*
X1372657Y4426035D02*
X1692355D01*
X1353337Y4429878D02*
X1372657Y4426035D01*
X1335138Y4437416D02*
X1353337Y4429878D01*
X1318760Y4448360D02*
X1335138Y4437416D01*
X1304831Y4462289D02*
X1318760Y4448360D01*
X1293887Y4478667D02*
X1304831Y4462289D01*
X1286349Y4496866D02*
X1293887Y4478667D01*
X1282506Y4516186D02*
X1286349Y4496866D01*
X1282506Y4516186D02*
Y4526035D01*
Y4726035D01*
Y4735884D01*
X1286349Y4755204D01*
X1293887Y4773403D01*
X1304831Y4789781D01*
X1318760Y4803710D01*
X1335138Y4814654D01*
X1353337Y4822192D01*
X1372657Y4826035D01*
X1692355D01*
X10392355D02*
X10411675Y4822192D01*
X10429873Y4814654D01*
X10446252Y4803710D01*
X10460181Y4789781D01*
X10471125Y4773403D01*
X10478663Y4755204D01*
X10482506Y4735884D01*
Y4726035D02*
Y4735884D01*
Y4526035D02*
Y4726035D01*
Y4516186D02*
Y4526035D01*
X10478663Y4496866D02*
X10482506Y4516186D01*
X10471125Y4478667D02*
X10478663Y4496866D01*
X10460181Y4462289D02*
X10471125Y4478667D01*
X10446252Y4448360D02*
X10460181Y4462289D01*
X10429873Y4437416D02*
X10446252Y4448360D01*
X10411675Y4429878D02*
X10429873Y4437416D01*
X10392355Y4426035D02*
X10411675Y4429878D01*
X10072657Y4426035D02*
X10392355D01*
X10053337Y4429878D02*
X10072657Y4426035D01*
X10035138Y4437416D02*
X10053337Y4429878D01*
X10018759Y4448360D02*
X10035138Y4437416D01*
X10004831Y4462289D02*
X10018759Y4448360D01*
X9993887Y4478667D02*
X10004831Y4462289D01*
X9986349Y4496866D02*
X9993887Y4478667D01*
X9982506Y4516186D02*
X9986349Y4496866D01*
X9982506Y4516186D02*
Y4526035D01*
Y4726035D01*
Y4735884D01*
X9986349Y4755204D01*
X9993887Y4773403D01*
X10004831Y4789781D01*
X10018759Y4803710D01*
X10035138Y4814654D01*
X10053337Y4822192D01*
X10072657Y4826035D01*
X10392355D01*
X4027650Y5066035D02*
X4058561Y5059886D01*
X4087679Y5047825D01*
X4113885Y5030315D01*
X4136171Y5008029D01*
X4153681Y4981823D01*
X4165742Y4952705D01*
X4171891Y4921794D01*
Y4906035D02*
Y4921794D01*
Y4890276D02*
Y4906035D01*
X4165742Y4859365D02*
X4171891Y4890276D01*
X4153681Y4830247D02*
X4165742Y4859365D01*
X4136171Y4804041D02*
X4153681Y4830247D01*
X4113885Y4781755D02*
X4136171Y4804041D01*
X4087679Y4764245D02*
X4113885Y4781755D01*
X4058561Y4752184D02*
X4087679Y4764245D01*
X4027650Y4746035D02*
X4058561Y4752184D01*
X3996132Y4746035D02*
X4027650D01*
X3965221Y4752184D02*
X3996132Y4746035D01*
X3936103Y4764245D02*
X3965221Y4752184D01*
X3909897Y4781755D02*
X3936103Y4764245D01*
X3887611Y4804041D02*
X3909897Y4781755D01*
X3870101Y4830247D02*
X3887611Y4804041D01*
X3858040Y4859365D02*
X3870101Y4830247D01*
X3851891Y4890276D02*
X3858040Y4859365D01*
X3851891Y4890276D02*
Y4906035D01*
Y4921794D01*
X3858040Y4952705D01*
X3870101Y4981823D01*
X3887611Y5008029D01*
X3909897Y5030315D01*
X3936103Y5047825D01*
X3965221Y5059886D01*
X3996132Y5066035D01*
X4027650D01*
X7768879D02*
X7799791Y5059886D01*
X7828909Y5047825D01*
X7855115Y5030315D01*
X7877401Y5008029D01*
X7894911Y4981823D01*
X7906972Y4952705D01*
X7913121Y4921794D01*
Y4906035D02*
Y4921794D01*
Y4890276D02*
Y4906035D01*
X7906972Y4859365D02*
X7913121Y4890276D01*
X7894911Y4830247D02*
X7906972Y4859365D01*
X7877401Y4804041D02*
X7894911Y4830247D01*
X7855115Y4781755D02*
X7877401Y4804041D01*
X7828909Y4764245D02*
X7855115Y4781755D01*
X7799791Y4752184D02*
X7828909Y4764245D01*
X7768879Y4746035D02*
X7799791Y4752184D01*
X7737362Y4746035D02*
X7768879D01*
X7706450Y4752184D02*
X7737362Y4746035D01*
X7677332Y4764245D02*
X7706450Y4752184D01*
X7651126Y4781755D02*
X7677332Y4764245D01*
X7628840Y4804041D02*
X7651126Y4781755D01*
X7611330Y4830247D02*
X7628840Y4804041D01*
X7599269Y4859365D02*
X7611330Y4830247D01*
X7593121Y4890276D02*
X7599269Y4859365D01*
X7593121Y4890276D02*
Y4906035D01*
Y4921794D01*
X7599269Y4952705D01*
X7611330Y4981823D01*
X7628840Y5008029D01*
X7651126Y5030315D01*
X7677332Y5047825D01*
X7706450Y5059886D01*
X7737362Y5066035D01*
X7768879D01*
X2482506Y6526035D02*
X2782506Y6526034D01*
X2792355D01*
X2811675Y6522192D01*
X2829874Y6514653D01*
X2846252Y6503710D01*
X2860181Y6489781D01*
X2871125Y6473402D01*
X2878663Y6455203D01*
X2882506Y6435884D01*
X2882506Y6426035D02*
X2882506Y6435884D01*
X2882506Y6426035D02*
X2882506D01*
X2882505Y6226035D02*
X2882506Y6426035D01*
X2882505Y6226035D02*
X2882506Y6216186D01*
X2878663Y6196866D02*
X2882506Y6216186D01*
X2871125Y6178667D02*
X2878663Y6196866D01*
X2860181Y6162288D02*
X2871125Y6178667D01*
X2846252Y6148360D02*
X2860181Y6162288D01*
X2829874Y6137416D02*
X2846252Y6148360D01*
X2811675Y6129878D02*
X2829874Y6137416D01*
X2792355Y6126034D02*
X2811675Y6129878D01*
X2782506Y6126035D02*
X2792355Y6126034D01*
X2782506Y6126035D02*
X2782506D01*
X2482506Y6126035D02*
X2782506Y6126035D01*
X2472656Y6126035D02*
X2482506D01*
X2453337Y6129878D02*
X2472656Y6126035D01*
X2435138Y6137416D02*
X2453337Y6129878D01*
X2418759Y6148360D02*
X2435138Y6137416D01*
X2404831Y6162289D02*
X2418759Y6148360D01*
X2393887Y6178667D02*
X2404831Y6162289D01*
X2386349Y6196866D02*
X2393887Y6178667D01*
X2382506Y6216186D02*
X2386349Y6196866D01*
X2382506Y6216186D02*
Y6226035D01*
X2382506D02*
X2382506D01*
X2382506D02*
X2382506Y6426035D01*
Y6435884D01*
X2386349Y6455204D01*
X2393887Y6473402D01*
X2404831Y6489781D01*
X2418759Y6503710D01*
X2435138Y6514653D01*
X2453337Y6522192D01*
X2472656Y6526035D01*
X2482506D01*
Y6526035D01*
X8982506D02*
X9282506Y6526035D01*
X9292355D01*
X9311675Y6522192D01*
X9329873Y6514653D01*
X9346252Y6503710D01*
X9360181Y6489781D01*
X9371125Y6473402D01*
X9378663Y6455204D01*
X9382506Y6435884D01*
Y6426035D02*
Y6435884D01*
Y6426035D02*
X9382506D01*
X9382506Y6226035D02*
X9382506Y6426035D01*
X9382506Y6216186D02*
Y6226035D01*
X9378663Y6196866D02*
X9382506Y6216186D01*
X9371125Y6178667D02*
X9378663Y6196866D01*
X9360181Y6162289D02*
X9371125Y6178667D01*
X9346252Y6148360D02*
X9360181Y6162289D01*
X9329873Y6137416D02*
X9346252Y6148360D01*
X9311675Y6129878D02*
X9329873Y6137416D01*
X9292355Y6126035D02*
X9311675Y6129878D01*
X9282506Y6126035D02*
X9292355D01*
X9282506Y6126035D02*
Y6126035D01*
X8982506Y6126035D02*
X9282506D01*
X8972656Y6126035D02*
X8982506Y6126035D01*
X8953337Y6129878D02*
X8972656Y6126035D01*
X8935138Y6137416D02*
X8953337Y6129878D01*
X8918759Y6148360D02*
X8935138Y6137416D01*
X8904831Y6162288D02*
X8918759Y6148360D01*
X8893887Y6178667D02*
X8904831Y6162288D01*
X8886348Y6196866D02*
X8893887Y6178667D01*
X8882506Y6216185D02*
X8886348Y6196866D01*
X8882506Y6216185D02*
Y6226035D01*
Y6226035D01*
X8882506Y6426035D01*
X8882506Y6435884D02*
X8882506Y6426035D01*
X8882506Y6435884D02*
X8886349Y6455203D01*
X8893887Y6473402D01*
X8904831Y6489781D01*
X8918759Y6503710D01*
X8935138Y6514653D01*
X8953336Y6522192D01*
X8972656Y6526034D01*
X8982505D01*
X8982506Y6526035D01*
X1692355D02*
X1711675Y6522192D01*
X1729874Y6514654D01*
X1746252Y6503710D01*
X1760181Y6489781D01*
X1771125Y6473403D01*
X1778663Y6455204D01*
X1782506Y6435884D01*
Y6426035D02*
Y6435884D01*
Y6226035D02*
Y6426035D01*
Y6216186D02*
Y6226035D01*
X1778663Y6196866D02*
X1782506Y6216186D01*
X1771125Y6178667D02*
X1778663Y6196866D01*
X1760181Y6162289D02*
X1771125Y6178667D01*
X1746252Y6148360D02*
X1760181Y6162289D01*
X1729874Y6137416D02*
X1746252Y6148360D01*
X1711675Y6129878D02*
X1729874Y6137416D01*
X1692355Y6126035D02*
X1711675Y6129878D01*
X1372657Y6126035D02*
X1692355D01*
X1353337Y6129878D02*
X1372657Y6126035D01*
X1335138Y6137416D02*
X1353337Y6129878D01*
X1318760Y6148360D02*
X1335138Y6137416D01*
X1304831Y6162289D02*
X1318760Y6148360D01*
X1293887Y6178667D02*
X1304831Y6162289D01*
X1286349Y6196866D02*
X1293887Y6178667D01*
X1282506Y6216186D02*
X1286349Y6196866D01*
X1282506Y6216186D02*
Y6226035D01*
Y6426035D01*
Y6435884D01*
X1286349Y6455204D01*
X1293887Y6473403D01*
X1304831Y6489781D01*
X1318760Y6503710D01*
X1335138Y6514654D01*
X1353337Y6522192D01*
X1372657Y6526035D01*
X1692355D01*
X10392355D02*
X10411675Y6522192D01*
X10429873Y6514654D01*
X10446252Y6503710D01*
X10460181Y6489781D01*
X10471125Y6473403D01*
X10478663Y6455204D01*
X10482506Y6435884D01*
Y6426035D02*
Y6435884D01*
Y6226035D02*
Y6426035D01*
Y6216186D02*
Y6226035D01*
X10478663Y6196866D02*
X10482506Y6216186D01*
X10471125Y6178667D02*
X10478663Y6196866D01*
X10460181Y6162289D02*
X10471125Y6178667D01*
X10446252Y6148360D02*
X10460181Y6162289D01*
X10429873Y6137416D02*
X10446252Y6148360D01*
X10411675Y6129878D02*
X10429873Y6137416D01*
X10392355Y6126035D02*
X10411675Y6129878D01*
X10072657Y6126035D02*
X10392355D01*
X10053337Y6129878D02*
X10072657Y6126035D01*
X10035138Y6137416D02*
X10053337Y6129878D01*
X10018759Y6148360D02*
X10035138Y6137416D01*
X10004831Y6162289D02*
X10018759Y6148360D01*
X9993887Y6178667D02*
X10004831Y6162289D01*
X9986349Y6196866D02*
X9993887Y6178667D01*
X9982506Y6216186D02*
X9986349Y6196866D01*
X9982506Y6216186D02*
Y6226035D01*
Y6426035D01*
Y6435884D01*
X9986349Y6455204D01*
X9993887Y6473403D01*
X10004831Y6489781D01*
X10018759Y6503710D01*
X10035138Y6514654D01*
X10053337Y6522192D01*
X10072657Y6526035D01*
X10392355D01*
X6044945Y15076035D02*
X6369687Y15066655D01*
X6694024Y15047903D01*
X7017684Y15019794D01*
X7340397Y14982353D01*
X7661895Y14935609D01*
X7981909Y14879604D01*
X8300173Y14814381D01*
X8616421Y14739998D01*
X8930389Y14656516D01*
X9241817Y14564001D01*
X9550443Y14462534D01*
X9856011Y14352199D01*
X10158266Y14233089D01*
X10307612Y14169194D01*
Y14169194D01*
X10322953Y14162631D01*
X10351036Y14144601D01*
X10375743Y14122166D01*
X10396391Y14095949D01*
X10412408Y14066672D01*
X10423354Y14035146D01*
X10428923Y14002242D01*
X10428963Y13968869D01*
X10426218Y13952409D02*
X10428963Y13968869D01*
X10426218Y13952409D02*
X10426218Y13952409D01*
X9604422Y9025552D02*
X10426218Y13952409D01*
X9601829Y9010005D02*
X9604422Y9025552D01*
X9591288Y8980297D02*
X9601829Y9010005D01*
X9575716Y8952889D02*
X9591288Y8980297D01*
X9555594Y8928625D02*
X9575716Y8952889D01*
X9531540Y8908250D02*
X9555594Y8928625D01*
X9504295Y8892394D02*
X9531540Y8908250D01*
X9474699Y8881545D02*
X9504295Y8892394D01*
X9443661Y8876035D02*
X9474699Y8881545D01*
X9427900Y8876035D02*
X9443661Y8876035D01*
X9427900Y8876035D02*
X9427900D01*
X2337112Y8876035D02*
X9427900Y8876035D01*
X2321350Y8876035D02*
X2337112D01*
X2290313Y8881545D02*
X2321350Y8876035D01*
X2260716Y8892395D02*
X2290313Y8881545D01*
X2233472Y8908251D02*
X2260716Y8892395D01*
X2209418Y8928625D02*
X2233472Y8908251D01*
X2189296Y8952889D02*
X2209418Y8928625D01*
X2173724Y8980298D02*
X2189296Y8952889D01*
X2163183Y9010006D02*
X2173724Y8980298D01*
X2160590Y9025552D02*
X2163183Y9010006D01*
X2160590Y9025552D02*
X2160590D01*
X1338794Y13952409D02*
X2160590Y9025552D01*
X1336048Y13968869D02*
X1338794Y13952409D01*
X1336048Y13968869D02*
X1336089Y14002242D01*
X1341658Y14035146D01*
X1352603Y14066672D01*
X1368621Y14095949D01*
X1389269Y14122166D01*
X1413976Y14144601D01*
X1442059Y14162630D01*
X1457400Y14169194D01*
X1606745Y14233089D01*
X1909000Y14352199D01*
X2214568Y14462534D01*
X2523195Y14564001D01*
X2834622Y14656516D01*
X3148591Y14739998D01*
X3464839Y14814381D01*
X3783102Y14879604D01*
X4103117Y14935609D01*
X4424614Y14982353D01*
X4747328Y15019794D01*
X5070988Y15047903D01*
X5395324Y15066655D01*
X5720067Y15076035D01*
X6044945Y15076035D01*
X6057493Y17826035D02*
X6407358Y17817287D01*
X6756895Y17799799D01*
X7105886Y17773578D01*
X7454113Y17738643D01*
X7801357Y17695016D01*
X8147403Y17642723D01*
X8492033Y17581796D01*
X8835033Y17512276D01*
X9176188Y17434204D01*
X9515286Y17347630D01*
X9852113Y17252608D01*
X10186460Y17149194D01*
X10518118Y17037457D01*
X10682499Y16977463D01*
X10706975Y16968530D01*
X10752113Y16942493D01*
X10792087Y16909062D01*
X10825698Y16869241D01*
X10851942Y16824222D01*
X10870031Y16775352D01*
X10879425Y16724097D01*
X10879841Y16671989D01*
X10875554Y16646289D02*
X10879841Y16671989D01*
X10875554Y16646289D02*
X10875554Y16646289D01*
X10620416Y15116673D02*
X10875554Y16646289D01*
X10616725Y15094550D02*
X10620416Y15116673D01*
X10599727Y15053036D02*
X10616725Y15094550D01*
X10573956Y15016319D02*
X10599727Y15053036D01*
X10540692Y14986223D02*
X10573956Y15016319D01*
X10501587Y14964243D02*
X10540692Y14986223D01*
X10458585Y14951469D02*
X10501587Y14964243D01*
X10413822Y14948540D02*
X10458585Y14951469D01*
X10369523Y14955598D02*
X10413822Y14948540D01*
X10348704Y14963947D02*
X10369523Y14955598D01*
X10196597Y15023741D02*
X10348704Y14963947D01*
X9890008Y15137088D02*
X10196597Y15023741D01*
X9580446Y15242043D02*
X9890008Y15137088D01*
X9268141Y15338527D02*
X9580446Y15242043D01*
X8953323Y15426469D02*
X9268141Y15338527D01*
X8636227Y15505804D02*
X8953323Y15426469D01*
X8317088Y15576474D02*
X8636227Y15505804D01*
X7996142Y15638425D02*
X8317088Y15576474D01*
X7673628Y15691611D02*
X7996142Y15638425D01*
X7349785Y15735992D02*
X7673628Y15691611D01*
X7024854Y15771538D02*
X7349785Y15735992D01*
X6699074Y15798219D02*
X7024854Y15771538D01*
X6372690Y15816019D02*
X6699074Y15798219D01*
X6045941Y15824922D02*
X6372690Y15816019D01*
X5719071Y15824922D02*
X6045941D01*
X5392322Y15816019D02*
X5719071Y15824922D01*
X5065937Y15798219D02*
X5392322Y15816019D01*
X4740158Y15771538D02*
X5065937Y15798219D01*
X4415226Y15735992D02*
X4740158Y15771538D01*
X4091383Y15691611D02*
X4415226Y15735992D01*
X3768869Y15638425D02*
X4091383Y15691611D01*
X3447924Y15576474D02*
X3768869Y15638425D01*
X3128784Y15505804D02*
X3447924Y15576474D01*
X2811688Y15426469D02*
X3128784Y15505804D01*
X2496871Y15338527D02*
X2811688Y15426469D01*
X2184565Y15242043D02*
X2496871Y15338527D01*
X1875003Y15137088D02*
X2184565Y15242043D01*
X1568415Y15023741D02*
X1875003Y15137088D01*
X1416307Y14963947D02*
X1568415Y15023741D01*
X1416307Y14963947D02*
X1416307Y14963947D01*
X1395489Y14955598D02*
X1416307Y14963947D01*
X1351189Y14948540D02*
X1395489Y14955598D01*
X1306426Y14951469D02*
X1351189Y14948540D01*
X1263424Y14964243D02*
X1306426Y14951469D01*
X1224320Y14986223D02*
X1263424Y14964243D01*
X1191056Y15016319D02*
X1224320Y14986223D01*
X1165284Y15053036D02*
X1191056Y15016319D01*
X1148286Y15094550D02*
X1165284Y15053036D01*
X1144596Y15116673D02*
X1148286Y15094550D01*
X889457Y16646289D02*
X1144596Y15116673D01*
X885171Y16671989D02*
X889457Y16646289D01*
X885171Y16671989D02*
X885587Y16724097D01*
X894980Y16775352D01*
X913070Y16824222D01*
X939313Y16869241D01*
X972925Y16909062D01*
X1012898Y16942493D01*
X1058036Y16968530D01*
X1082512Y16977463D01*
X1246893Y17037457D01*
X1578551Y17149194D01*
X1912898Y17252608D01*
X2249726Y17347630D01*
X2588823Y17434204D01*
X2929978Y17512276D01*
X3272978Y17581796D01*
X3617609Y17642723D01*
X3963654Y17695016D01*
X4310899Y17738643D01*
X4659125Y17773578D01*
X5008116Y17799799D01*
X5357653Y17817287D01*
X5707518Y17826035D01*
X6057493Y17826035D01*
X6058644Y18576035D02*
X6410820Y18567622D01*
X5706368Y18576035D02*
X6058644D01*
X5354191Y18567622D02*
X5706368Y18576035D01*
X5002316Y18550803D02*
X5354191Y18567622D01*
X4650944Y18525584D02*
X5002316Y18550803D01*
X4300273Y18491985D02*
X4650944Y18525584D01*
X3950505Y18450018D02*
X4300273Y18491985D01*
X3601839Y18399712D02*
X3950505Y18450018D01*
X3254473Y18341095D02*
X3601839Y18399712D01*
X2908607Y18274199D02*
X3254473Y18341095D01*
X2564436Y18199063D02*
X2908607Y18274199D01*
X2222158Y18115729D02*
X2564436Y18199063D01*
X1881967Y18024246D02*
X2222158Y18115729D01*
X1544058Y17924666D02*
X1881967Y18024246D01*
X1208624Y17817044D02*
X1544058Y17924666D01*
X875854Y17701443D02*
X1208624Y17817044D01*
X545941Y17577930D02*
X875854Y17701443D01*
X382506Y17512250D02*
X545941Y17577930D01*
X356305Y17501721D02*
X382506Y17512250D01*
X306607Y17474896D02*
X356305Y17501721D01*
X260245Y17442647D02*
X306607Y17474896D01*
X217810Y17405383D02*
X260245Y17442647D01*
X179839Y17363577D02*
X217810Y17405383D01*
X146817Y17317763D02*
X179839Y17363577D01*
X119164Y17268523D02*
X146817Y17317763D01*
X97230Y17216479D02*
X119164Y17268523D01*
X81295Y17162300D02*
X97230Y17216479D01*
X71562Y17106670D02*
X81295Y17162300D01*
X68154Y17050298D02*
X71562Y17106670D01*
X68154Y17050298D02*
X71114Y16993900D01*
X75760Y16966048D01*
X1420810Y8902158D01*
X1430367Y8838582D01*
X1443328Y8710673D01*
X1448044Y8582196D01*
X1444496Y8453681D02*
X1448044Y8582196D01*
X1432698Y8325660D02*
X1444496Y8453681D01*
X1412700Y8198661D02*
X1432698Y8325660D01*
X1384583Y8073209D02*
X1412700Y8198661D01*
X1348464Y7949824D02*
X1384583Y8073209D01*
X1327449Y7889065D02*
X1348464Y7949824D01*
X730752Y6249651D02*
X1327449Y7889065D01*
X718806Y6216829D02*
X730752Y6249651D01*
X700725Y6149352D02*
X718806Y6216829D01*
X688594Y6080555D02*
X700725Y6149352D01*
X682506Y6010964D02*
X688594Y6080555D01*
X682506Y5976035D02*
Y6010964D01*
Y1676035D02*
Y5976035D01*
Y1644209D02*
Y1676035D01*
Y1644209D02*
X688282Y1580821D01*
X699786Y1518218D01*
X716923Y1456918D01*
X739552Y1397425D01*
X767486Y1340232D01*
X800495Y1285809D01*
X838306Y1234606D01*
X880608Y1187045D01*
X927050Y1143519D01*
X977251Y1104387D01*
X1030796Y1069971D01*
X1059019Y1055264D01*
X2382506Y365589D01*
X2435765Y337835D01*
X2544419Y286635D01*
X2655036Y239825D01*
X2767437Y197480D01*
X2881443Y159667D01*
X2996871Y126447D01*
X3113536Y97873D01*
X3231251Y73991D01*
X3349827Y54839D01*
X3469075Y40448D01*
X3588804Y30842D01*
X3708821Y26035D01*
X3768877Y26035D01*
X7996134D01*
X8056191Y26035D01*
X8176208Y30842D01*
X8295936Y40448D01*
X8415184Y54839D01*
X8533761Y73991D01*
X8651476Y97873D01*
X8768141Y126447D01*
X8883569Y159667D01*
X8997575Y197480D01*
X9109976Y239825D01*
X9220592Y286635D01*
X9329247Y337835D01*
X9382506Y365589D01*
X10705993Y1055264D01*
X10734216Y1069972D01*
X10787760Y1104387D01*
X10837961Y1143519D01*
X10884404Y1187045D01*
X10926705Y1234606D01*
X10964516Y1285809D01*
X10997525Y1340232D01*
X11025460Y1397425D01*
X11048089Y1456918D01*
X11065226Y1518218D01*
X11076730Y1580821D01*
X11082506Y1644209D01*
X11082505Y1676035D02*
X11082506Y1644209D01*
X11082505Y1676035D02*
X11082506Y5976035D01*
X11082506Y6010964D02*
X11082506Y5976035D01*
X11076417Y6080555D02*
X11082506Y6010964D01*
X11064286Y6149351D02*
X11076417Y6080555D01*
X11046206Y6216829D02*
X11064286Y6149351D01*
X11034260Y6249651D02*
X11046206Y6216829D01*
X10437562Y7889065D02*
X11034260Y6249651D01*
X10416547Y7949824D02*
X10437562Y7889065D01*
X10380428Y8073210D02*
X10416547Y7949824D01*
X10352312Y8198661D02*
X10380428Y8073210D01*
X10332313Y8325660D02*
X10352312Y8198661D01*
X10320516Y8453681D02*
X10332313Y8325660D01*
X10316968Y8582196D02*
X10320516Y8453681D01*
X10316968Y8582196D02*
X10321684Y8710673D01*
X10334645Y8838582D01*
X10344202Y8902157D01*
X11689251Y16966048D01*
X11693897Y16993900D01*
X11696858Y17050298D01*
X11693450Y17106670D02*
X11696858Y17050298D01*
X11683716Y17162300D02*
X11693450Y17106670D01*
X11667781Y17216479D02*
X11683716Y17162300D01*
X11645848Y17268523D02*
X11667781Y17216479D01*
X11618194Y17317763D02*
X11645848Y17268523D01*
X11585172Y17363577D02*
X11618194Y17317763D01*
X11547202Y17405383D02*
X11585172Y17363577D01*
X11504766Y17442647D02*
X11547202Y17405383D01*
X11458404Y17474896D02*
X11504766Y17442647D01*
X11408707Y17501721D02*
X11458404Y17474896D01*
X11382506Y17512250D02*
X11408707Y17501721D01*
X11219071Y17577930D02*
X11382506Y17512250D01*
X10889157Y17701443D02*
X11219071Y17577930D01*
X10556388Y17817044D02*
X10889157Y17701443D01*
X10220953Y17924666D02*
X10556388Y17817044D01*
X9883044Y18024246D02*
X10220953Y17924666D01*
X9542854Y18115729D02*
X9883044Y18024246D01*
X9200575Y18199063D02*
X9542854Y18115729D01*
X8856405Y18274199D02*
X9200575Y18199063D01*
X8510538Y18341095D02*
X8856405Y18274199D01*
X8163173Y18399712D02*
X8510538Y18341095D01*
X7814506Y18450018D02*
X8163173Y18399712D01*
X7464738Y18491985D02*
X7814506Y18450018D01*
X7114068Y18525584D02*
X7464738Y18491985D01*
X6762695Y18550803D02*
X7114068Y18525584D01*
X6410820Y18567622D02*
X6762695Y18550803D01*
%TF.MD5,1bb7ea97cf6f84515f391fad7ace9516*%
M02*
